<?xml version="1.0" standalone="no"?>
<!DOCTYPE svg PUBLIC "-//W3C//DTD SVG 1.1//EN" "http://www.w3.org/Graphics/SVG/1.1/DTD/svg11.dtd" >
<svg xmlns="http://www.w3.org/2000/svg">
<metadata>
This is a custom SVG webfont generated by Font Squirrel.
Copyright   : Linux Libertine by Philipp H PollOpen Font under Terms of following Free Software LicensesGPL General Public License with fontexception and OFL Open Font LicenseCreated with FontForge httpfontforgesfnetSept 2003 2004 2005 2006 2007 2008 2009 2010 2011
Designer    : Philipp H Poll
Foundry     : Philipp H Poll
Foundry URL : httpwwwlinuxlibertineorg
</metadata>
<defs>
<font id="LinuxBiolinumCapitalSmallCaps" horiz-adv-x="1024" >
<font-face units-per-em="2048" ascent="1638" descent="-410" />
<missing-glyph horiz-adv-x="512" />
<glyph unicode=" "  horiz-adv-x="512" />
<glyph unicode="&#x09;" horiz-adv-x="512" />
<glyph unicode="&#xa0;" horiz-adv-x="512" />
<glyph unicode="!" horiz-adv-x="466" d="M117 90v8q30 77 110 111h9q84 -33 110 -111v-8q-27 -86 -101 -108q-6 -2 -9 -2h-9q-76 17 -100 79q-6 15 -10 31zM121 1198q0 116 81 144q15 6 29 6q71 0 102 -75q13 -34 13 -75q0 -71 -33 -261q-13 -73 -20 -134q-8 -64 -32 -360q-1 -9 -1 -13q-6 -39 -29 -41 q-24 3 -28 27q-1 14 -6 77q-14 201 -25 310q-8 77 -28 185q-23 129 -23 210z" />
<glyph unicode="&#x22;" horiz-adv-x="688" d="M129 1217q0 55 53 87q25 14 51 15q68 -6 72 -68l-67 -370l-56 -9zM387 1219q0 55 53 87q25 14 52 15q68 -6 71 -68l-67 -370l-56 -9z" />
<glyph unicode="#" horiz-adv-x="962" d="M55 399l15 107h198l39 239h-198l18 109h197l59 371h74l-62 -371h244l57 371h72l-59 -371h198l-16 -109h-197l-41 -239h199l-16 -107h-195l-61 -370h-72l57 370h-239l-62 -370h-71l59 370h-197zM342 506h242l37 239h-240z" />
<glyph unicode="$" horiz-adv-x="952" d="M84 74q32 128 39 186l18 2q68 -145 217 -186q22 -6 43 -9l27 503q-235 99 -290 238q-21 54 -21 114q0 164 151 263q94 60 198 64l9 163q28 10 76 10l-10 -175q81 -6 142.5 -27t81.5 -39l21 -18l5 -6q-28 -90 -37 -180l-21 -2q-72 152 -197 187l-24 -444q237 -85 310 -206 q42 -71 42 -158q0 -157 -114 -262q-6 -5 -9 -8q-106 -90 -270 -103l-9 -172q-19 -10 -76 -10l10 181q-200 10 -308 88zM256 971q2 -140 182 -223l24 423h-3q-133 0 -184 -108q-19 -43 -19 -92zM476 65q148 12 203 119q23 47 23 103q0 151 -131 222q-29 16 -69 32z" />
<glyph unicode="%" horiz-adv-x="1392" d="M129 901q0 148 103 260q84 88 184 88q86 0 140 -47q5 -5 7 -8q116 -53 234 -53q182 0 285 75q26 20 42 41l70 -34l-897 -1250l-74 33l785 1094q-106 -41 -234 -41q-89 0 -166 41q-5 3 -8 4q6 -23 6 -53q0 -136 -79 -260q-84 -126 -201 -127q-128 0 -178 131 q-19 51 -19 106zM242 870q0 -124 80 -141q10 -2 18 -2q97 0 160 145q38 90 39 177q-13 121 -99 133q-84 0 -150 -128q-47 -95 -48 -184zM831 215q0 146 104 256q84 87 185 88q166 0 186 -157q2 -21 3 -42q0 -144 -83 -267q-82 -119 -196 -120q-125 0 -177 128 q-22 55 -22 114zM946 182q0 -128 82 -144q9 -1 16 -1q97 0 160 147q38 91 39 174q0 118 -84 132q-8 1 -14 2q-85 0 -151 -129q-47 -93 -48 -181z" />
<glyph unicode="&#x26;" horiz-adv-x="1239" d="M86 336q0 171 166 327q27 25 53 46q-61 81 -61 170q0 122 109 211q105 83 257 84q42 0 148 -33q33 -10 53 -11q0 -83 27 -233l-56 -10q-36 142 -146 189q-41 17 -85 18q-137 0 -182 -122q-12 -34 -13 -63q3 -160 113 -161h193q31 -3 32 -27q0 -39 -37 -57q-11 -4 -20 -5 h-219q-86 0 -149 -99q-39 -65 -40 -130q0 -244 168 -317q63 -26 144 -27q198 0 323 222q81 146 82 272q0 65 -58 77q-11 2 -20 2q-31 3 -32 29q0 36 36 54q12 5 21 6h289q31 -3 32 -27q0 -39 -36 -57q-11 -4 -21 -5h-129q-36 -599 -417 -674q-52 -10 -107 -10 q-250 0 -360 160q-58 87 -58 201z" />
<glyph unicode="'" horiz-adv-x="389" d="M109 1217q0 55 52 87q25 14 52 15q68 -6 72 -68l-68 -370l-55 -9z" />
<glyph unicode="(" horiz-adv-x="614" d="M90 665q0 343 251 632q84 96 183 169l47 -31q-310 -304 -311 -770q1 -465 311 -773l-47 -30q-354 264 -421 659q-13 74 -13 144z" />
<glyph unicode=")" horiz-adv-x="614" d="M43 -105q310 304 311 770q-1 465 -311 773l47 30q355 -264 422 -659q12 -74 12 -144q0 -343 -250 -632q-84 -96 -184 -169z" />
<glyph unicode="*" horiz-adv-x="886" d="M154 1245q0 51 51 60q9 1 16 2q39 0 106 -50q53 -39 91 -55q-3 30 -36 131q-11 35 -11 58q0 63 45 77q9 2 16 2q61 -12 68 -71q0 -19 -29 -140q-8 -37 -10 -59q33 14 115 75q45 31 79 32q60 -10 70 -62q-3 -75 -141 -76q-64 0 -113 -8q20 -22 105 -82q63 -48 65 -96 q0 -46 -45 -57q-8 -2 -14 -2q-50 0 -88 86q-49 113 -54 121q-2 4 -4 6q-15 -28 -39 -88q-40 -100 -73 -118q-15 -7 -31 -7q-45 0 -57 42q-2 9 -3 15q0 54 71 101q81 56 102 79q-37 8 -87 8q-154 0 -164 63q-1 7 -1 13z" />
<glyph unicode="+" horiz-adv-x="1079" d="M135 426v100h352v357h105v-357h352v-100h-352v-356h-105v356h-352z" />
<glyph unicode="," horiz-adv-x="450" d="M98 90v8q30 77 111 111h8q130 -51 131 -215q0 -144 -119 -230q-29 -20 -94 -59q-26 25 -26 43q151 114 159 193q-3 53 -59 53q-73 16 -94 53q-10 18 -17 43z" />
<glyph unicode="-" horiz-adv-x="681" d="M68 479q0 44 33 69q9 7 18 7h469q27 -3 28 -37q0 -32 -31 -62q-13 -11 -24 -12h-463q-26 6 -30 35z" />
<glyph unicode="." horiz-adv-x="450" d="M111 90v8q30 77 110 111h8q84 -33 111 -111v-8q-27 -86 -101 -108q-6 -2 -10 -2h-8q-76 17 -100 79q-6 15 -10 31z" />
<glyph unicode="/" horiz-adv-x="661" d="M31 -121l485 1444h84l-485 -1444h-84z" />
<glyph unicode="0" horiz-adv-x="952" d="M80 592q0 342 160 532q107 124 237 125q118 -2 195 -71q187 -183 190 -545q0 -397 -198 -571q-95 -82 -197 -82q-212 0 -317 237q-70 159 -70 375zM256 588q0 -444 155 -516q28 -12 58 -13q94 0 151 108q19 38 31 83q35 129 35 399q0 353 -103 472q-9 10 -16 16 q-37 31 -90 32q-220 -5 -221 -581z" />
<glyph unicode="1" horiz-adv-x="952" d="M221 1077q61 19 327 127q73 30 122 45q13 -4 14 -10q-16 -118 -16 -332v-520q0 -230 18 -387l-4 -6q-3 0 -98 6l-95 -6l-2 6q16 136 17 387v508q0 145 -30 155q-4 1 -6.5 1t-185.5 -27q-27 -4 -49 -6z" />
<glyph unicode="2" horiz-adv-x="909" d="M67 70q1 15 3 26q213 202 247 238q148 154 235 282q77 118 78 275q0 134 -104 205q-54 36 -112 37q-99 -1 -158 -48q-42 -34 -76 -113l-14 -32l-27 2l-45 141q88 116 242 153q54 13 111 13q230 0 319 -162q40 -75 40 -168q-1 -150 -148 -350q-133 -179 -321 -361l-2 -2 l-3 -2l-2 -2l-4 -3q-35 -35 -36 -56q1 -6 3 -10q59 4 167 4q192 0 375 17q-10 -43 -10 -97q0 -25 6 -67q-244 10 -356 10q-16 0 -388 -10q-20 35 -20 80z" />
<glyph unicode="3" horiz-adv-x="952" d="M113 84l45 154l30 2q51 -109 83 -137q51 -43 157 -44q113 0 191 79q76 80 77 214q-2 129 -80 197q-81 65 -200 65q-61 0 -86 -4v90q44 -6 76 -6q110 1 169 58q77 76 78 200q0 129 -91 191q-39 26 -79 26q-146 0 -217 -132q-11 -20 -20 -42l-31 2l-43 131l6 7 q121 106 300 114h24q197 0 286 -126q43 -64 43 -140q0 -158 -131 -259q-55 -41 -110 -54v-11q160 -15 238 -137q43 -70 44 -153q0 -212 -203 -324q-120 -65 -245 -65q-189 1 -305 98z" />
<glyph unicode="4" horiz-adv-x="952" d="M43 344q2 34 27 80q167 286 458 708l68 97l8 8q3 0 70 -8q17 0 50 5q22 3 30 3q3 -3 4 -8q-12 -114 -13 -303v-520h132q29 -3 30 -33q0 -32 -34 -59q-14 -10 -25 -11h-103q0 -127 13 -303q-2 -4 -4 -6q-8 0 -32 2q-36 4 -54 4l-97 -6l-2 6q17 142 17 303h-422 q-119 2 -121 41zM170 406h416v643z" />
<glyph unicode="5" horiz-adv-x="952" d="M96 100l45 164l29 2q66 -120 87 -144q57 -60 161 -61q143 0 203 142q30 72 30 164q0 244 -145 310q-43 18 -90 19q-98 -1 -254 -63l-15 5l66 603q140 -12 233 -12q170 0 336 20l15 -6l-33 -139q-102 -12 -215 -12q-125 0 -260 18l-43 -362q86 30 223 30q203 0 304 -162 q58 -96 58 -215q0 -213 -154 -334q-112 -86 -263 -87q-179 1 -310 114z" />
<glyph unicode="6" horiz-adv-x="952" d="M94 498q2 324 219 542q170 172 420 204q39 5 80 7l6 -57q-227 -25 -360 -152q-161 -159 -195 -415q58 73 185 99q34 7 61 7q261 0 347 -221q28 -73 28 -143q0 -167 -106 -279q-105 -107 -279 -108q-211 0 -320 165q-85 132 -86 351zM258 492q0 -369 199 -428q32 -9 65 -9 q157 0 179 227q3 35 4 72q0 202 -122 270q-51 27 -116 27q-126 -2 -207 -84q-2 -22 -2 -75z" />
<glyph unicode="7" horiz-adv-x="952" d="M129 1057q10 77 10 100q0 14 -10 86q106 -14 573 -14q71 0 132 20l34 -20q-222 -542 -448 -1216l-1 -2l-9 -29l-150 -9l-6 13q130 291 453 1089q-370 11 -578 -18z" />
<glyph unicode="8" horiz-adv-x="952" d="M80 299q0 125 131 242l4 4q66 58 143 117l-41 22q-177 108 -180 285q0 144 137 225q95 55 220 55q210 0 289 -133q31 -57 32 -123q0 -134 -226 -286q-8 -6 -16 -11l125 -82q177 -118 179 -282q0 -136 -115 -242q-120 -108 -299 -108q-234 0 -333 143q-50 75 -50 174z M240 299q0 -171 135 -230q46 -20 92 -20q160 0 216 119q23 52 24 121q-3 153 -181 266l-94 59q-192 -128 -192 -315zM291 1006q0 -117 110 -201q16 -12 33 -23l64 -37q132 94 160 205q6 24 6 45q0 140 -113 177q-33 10 -70 10q-132 0 -176 -104q-14 -35 -14 -72z" />
<glyph unicode="9" horiz-adv-x="952" d="M57 860q0 167 106 279q105 107 279 108q211 0 320 -165q85 -132 86 -351q-2 -324 -219 -543q-170 -172 -420 -203q-39 -5 -80 -8l-6 58q227 25 360 151q161 159 195 416q-58 -73 -184 -99q-34 -7 -62 -7q-261 0 -346 221q-28 73 -29 143zM238 874q0 -202 122 -269 q51 -27 115 -27q126 2 207 84q2 22 2 75q0 369 -199 427q-32 9 -65 10q-157 0 -179 -227q-3 -35 -3 -73z" />
<glyph unicode=":" horiz-adv-x="450" d="M125 190v9q30 77 111 110h8q84 -33 110 -110v-9q-27 -86 -101 -108q-6 -2 -9 -2h-8q-76 17 -101 79q-6 15 -10 31zM125 729v8q30 77 111 111h8q84 -33 110 -111v-8q-27 -86 -101 -108l-9 -3h-8q-76 17 -101 80q-6 15 -10 31z" />
<glyph unicode=";" horiz-adv-x="450" d="M98 90v8q30 77 111 111h8q130 -51 131 -215q0 -144 -119 -230q-29 -20 -94 -59q-26 25 -26 43q151 114 159 193q-3 53 -59 53q-73 16 -94 53q-10 18 -17 43zM104 729v8q30 77 111 111h8q84 -33 111 -111v-8q-27 -86 -101 -108q-6 -2 -10 -3h-8q-76 17 -101 80 q-6 15 -10 31z" />
<glyph unicode="&#x3c;" horiz-adv-x="997" d="M100 440v99l799 288v-102l-649 -236l649 -237v-102z" />
<glyph unicode="=" horiz-adv-x="1079" d="M135 295v100h809v-100h-809zM135 551v100h809v-100h-809z" />
<glyph unicode="&#x3e;" horiz-adv-x="997" d="M100 145v103l650 235l-650 238v102l799 -291v-98z" />
<glyph unicode="?" horiz-adv-x="829" d="M88 1214l6 9q157 122 324 127q215 0 299 -152q38 -70 39 -158q0 -154 -164 -282l-53 -39q-85 -64 -107 -103q-36 -72 -37 -149v-90q-4 -19 -26 -21q-25 3 -27 21v94q0 159 72 258q29 38 65 72q106 98 120 188q3 22 3 43q0 137 -97 203q-49 32 -106 33q-141 -2 -252 -193 l-26 2zM254 90v8q30 77 111 111h8q84 -33 110 -111v-8q-27 -86 -101 -108q-6 -2 -9 -2h-8q-76 17 -101 79q-6 15 -10 31z" />
<glyph unicode="@" horiz-adv-x="1832" d="M121 457q0 309 221 536q217 224 535 254q42 4 84 4q342 0 559 -207q198 -191 198 -466q0 -235 -158 -380q-158 -142 -432 -143q-67 10 -73 84q1 35 30 129l-4 2q-102 -172 -232 -205q-22 -5 -40 -6q-181 0 -235 164q-15 46 -15 90q0 219 167 383q148 141 310 144 q95 0 144 -63q9 -13 14 -25l10 49l109 26l30 -10l-122 -528q-26 -118 -27 -137q1 -22 23 -25q231 0 301 180q38 99 38 256q0 313 -241 495q-174 132 -375 132q-263 0 -447 -168q-208 -193 -208 -528q0 -294 151 -500q185 -249 533 -250q243 1 411 135l27 -37 q-163 -125 -323 -153q-72 -12 -154 -13q-371 0 -600 239q-208 220 -209 542zM709 332q4 -186 159 -189q77 0 171 143q37 58 65 124q60 146 61 237q0 88 -79 119q-27 10 -54 10q-82 0 -158 -59q-15 -12 -26 -23q-139 -141 -139 -362z" />
<glyph unicode="A" horiz-adv-x="1288" d="M33 -6l604 1354h57l239 -584q259 -642 322 -770q-37 6 -122 6q-68 0 -103 -6q-51 183 -159 474q-146 3 -240 3q-117 0 -264 -3q-125 -308 -170 -474q-26 6 -93 6q-48 -1 -71 -6zM407 565q27 0 89 -2q89 -2 125 -2q88 0 213 3q-95 247 -207 505h-4z" />
<glyph unicode="B" horiz-adv-x="1261" d="M193 0q20 140 20 410v501q0 264 -20 410l4 6q4 0 104 -6q56 0 153 3q75 3 107 3q407 0 449 -262q4 -28 4 -55q0 -128 -119 -227q-35 -28 -72 -46q274 -79 308 -302q4 -29 4 -58q0 -243 -223 -335q-117 -47 -285 -48q-99 0 -195 3q-75 3 -131 3l-106 -6zM389 180 q0 -83 131 -95q31 -3 68 -3q282 0 330 152q13 44 14 104q0 201 -153 287q-84 46 -199 47h-191v-492zM389 760h160q252 0 282 170q4 27 5 55q0 221 -205 250q-28 4 -56 4q-153 0 -176 -43q-10 -19 -10 -51v-385z" />
<glyph unicode="C" horiz-adv-x="1386" d="M106 645q0 295 205 502q187 189 440 200q14 1 27 1q238 0 442 -91q4 -2 5 -2l4 -6q-34 -144 -40 -211q-1 -9 -1 -16l-21 -2q-118 230 -417 231q-150 0 -273 -121q-159 -160 -160 -446q0 -277 145 -449q129 -150 326 -151q185 0 307 89q60 45 130 122l49 -39 q-213 -275 -504 -276q-341 0 -527 246q-136 182 -137 419z" />
<glyph unicode="D" horiz-adv-x="1454" d="M193 0q20 140 20 410v501q0 264 -20 410l4 6q4 0 104 -6q66 0 169 3q105 3 169 3q288 0 495 -199q203 -195 213 -471q0 -14 1 -26q0 -422 -341 -571q-149 -64 -331 -64q-115 0 -226 2q-85 2 -149 2l-106 -6zM389 168q0 -52 39 -67q45 -15 184 -15q325 0 442 167 q82 120 83 329q0 363 -204 535q-144 120 -372 120q-142 0 -165 -49q-6 -16 -7 -33v-987z" />
<glyph unicode="E" horiz-adv-x="1101" d="M193 0q20 140 20 410v501q0 264 -20 410l4 6q4 0 104 -6h539q74 0 123 6l4 -6q-4 -57 -4 -78q0 -22 4 -53l-4 -8l-358 21q-86 3 -162 3h-37q-16 -56 -17 -295v-159q217 0 457 20l6 -6q-6 -28 -6 -66t6 -65l-6 -6q-202 20 -457 20v-239q0 -237 17 -295q123 0 267 6t227 12 l83 6l4 -8q-4 -33 -4 -68q0 -11 4 -63l-4 -6q-50 6 -123 6h-559l-106 -6z" />
<glyph unicode="F" horiz-adv-x="1032" d="M193 0q20 140 20 410v501q0 264 -20 410l4 6q4 0 104 -6h533q80 0 129 6l4 -6q-4 -58 -4 -70q0 -29 4 -61l-4 -8l-358 21q-86 3 -162 3h-37q-16 -56 -17 -295v-159q217 0 457 20l6 -6q-6 -28 -6 -66t6 -65l-6 -6q-202 20 -457 20v-239q0 -264 21 -410l-4 -6q-4 0 -105 6 l-106 -6z" />
<glyph unicode="G" horiz-adv-x="1468" d="M106 649q0 338 248 537q202 161 467 162q111 0 227.5 -22.5t178.5 -46.5l61 -24l4 -6q-33 -141 -41 -248l-20 -2q-114 193 -328 240q-55 12 -110 12q-239 0 -372 -196q-103 -156 -104 -385q0 -266 141 -435q136 -160 359 -161q218 1 301 78v88q-6 284 -20 389l4 6 q4 0 104 -6l107 6l2 -6q-20 -138 -21 -348v-13q1 -72 21 -98v-6q-222 -184 -545 -184q-316 0 -506 223q-157 188 -158 446z" />
<glyph unicode="H" horiz-adv-x="1486" d="M193 0q20 140 20 410v501q0 264 -20 410l4 6q37 -6 104 -6q69 0 107 6l2 -6q-20 -137 -21 -410v-163h709v163q0 264 -21 410l4 6q37 -6 105 -6q69 0 106 6l2 -6q-20 -137 -20 -410v-501q0 -264 20 -410l-4 -6q-37 6 -104 6q-69 0 -107 -6l-2 6q20 140 21 410v247h-709 v-247q0 -264 21 -410l-4 -6q-37 6 -105 6q-69 0 -106 -6z" />
<glyph unicode="I" horiz-adv-x="602" d="M193 0q20 140 20 410v501q0 264 -20 410l4 6q37 -6 104 -6t105 6l4 -6q-20 -137 -21 -410v-501q0 -264 21 -410l-4 -6q-37 6 -105 6q-67 0 -104 -6z" />
<glyph unicode="J" horiz-adv-x="655" d="M-84 -328q25 45 57 168l23 2q42 -70 119 -71q159 0 170 334q2 40 2 90v716q0 264 -21 410l4 6q37 -6 105 -6q69 0 106 6l2 -6q-20 -137 -20 -410v-671q0 -209 -42 -301q-26 -56 -87 -136q-123 -155 -324 -155q-62 1 -92 18z" />
<glyph unicode="K" horiz-adv-x="1288" d="M193 0q20 140 20 410v501q0 264 -20 410l4 6q37 -6 104 -6t105 6l4 -6q-20 -137 -21 -410v-206q28 4 45 18q240 211 584 604q28 -6 100 -6t105 6q-370 -324 -587 -562l-36 -40v-4l643 -727q-41 6 -127 6q-92 0 -127 -6q-446 550 -561 665q-13 10 -39 14v-263 q0 -264 21 -410l-4 -6q-37 6 -105 6q-67 0 -104 -6z" />
<glyph unicode="L" horiz-adv-x="1054" d="M195 0q20 140 20 410v501q0 264 -20 410l4 6q37 -6 104 -6q69 0 107 6l2 -6q-21 -138 -21 -410v-501q0 -226 17 -285q123 0 267 11t227 23l83 11l4 -8q-4 -33 -4 -72q0 -34 4 -90l-4 -6q-50 6 -123 6h-559l-106 -6z" />
<glyph unicode="M" horiz-adv-x="1814" d="M131 -6q167 800 264 1362h56q45 -92 256 -581q120 -276 220 -460l529 1041h45q94 -816 172 -1362q-32 6 -108 6q-70 0 -101 -6q-54 652 -93 974l-7 1q-268 -497 -475 -969h-39q-39 82 -245 570q-103 243 -185 405h-9q-28 -170 -89 -577q-46 -307 -62 -404q-25 6 -61 6 q-46 -1 -68 -6z" />
<glyph unicode="N" horiz-adv-x="1470" d="M201 0q32 318 32 767q0 174 -5 367q-3 102 -7 187l4 6q10 0 86 -6l29 4l702 -909q82 -106 97 -113t20 19q3 15 4 43v546q0 264 -20 410l4 6q38 -6 72 -6q36 0 71 6l4 -6q-24 -330 -37 -1101q-2 -98 -4 -177q-6 -62 -39 -63q-52 2 -88 49l-714 903q-52 67 -67 67 q-2 0 -4 -1q-9 -13 -9 -99v-489q0 -264 20 -410l-4 -6q-38 6 -72 6q-36 0 -71 -6z" />
<glyph unicode="O" horiz-adv-x="1517" d="M106 635q0 309 195 516q187 196 453 197q293 0 480 -199q176 -190 177 -475q0 -336 -211 -531q-179 -162 -444 -163q-282 0 -468 187q-181 185 -182 468zM317 670q0 -331 199 -498q124 -102 281 -102q218 0 326 204q76 145 77 361q0 481 -296 593q-80 29 -177 29 q-192 0 -306 -169q-103 -157 -104 -418z" />
<glyph unicode="P" horiz-adv-x="1144" d="M193 0q20 140 20 410v501q0 264 -20 410l4 6q37 -6 104 -6q32 0 153 8q94 6 126 6h8q350 0 446 -221q28 -66 29 -139q0 -172 -130 -289q-138 -120 -372 -121q-108 1 -172 21v-176q0 -264 21 -410l-4 -6q-37 6 -105 6q-67 0 -104 -6zM389 674q39 -20 162 -21 q237 0 293 164q20 62 20 148q0 255 -228 279q-30 3 -63 3q-163 0 -180 -63q-4 -13 -4 -27v-483z" />
<glyph unicode="Q" horiz-adv-x="1517" d="M106 635q0 309 195 516q187 196 453 197q293 0 480 -199q176 -189 177 -475q0 -337 -212 -532q-26 -22 -51 -41l89 -52q250 -148 422 -207v-12q-134 -71 -193 -117q-92 52 -239 161q-100 73 -236 144q-110 -38 -235 -38q-282 0 -468 187q-181 185 -182 468zM317 670 q0 -331 199 -498q124 -102 281 -102q218 0 326 204q76 145 77 361q0 481 -296 593q-80 29 -177 29q-192 0 -306 -169q-103 -157 -104 -418z" />
<glyph unicode="R" horiz-adv-x="1228" d="M193 0q20 140 20 410v501q0 264 -20 410l4 6q37 -6 104 -6q32 0 150 8q89 6 120 6h7q246 0 351 -72q18 -13 32 -26q108 -104 108 -256q0 -216 -188 -321q-9 -5 -17 -9q-47 -23 -124 -39q54 -72 188 -267q190 -277 250 -345l-4 -6q-43 6 -123 6q-84 0 -123 -6 q-37 112 -195 366q-111 178 -142 218l-12 14q-87 -6 -190 -6v-176q0 -264 21 -410l-4 -6q-37 6 -105 6q-67 0 -104 -6zM389 668h119q323 0 359 241q5 34 5 70q0 223 -213 261q-37 7 -79 7q-154 0 -177 -24q-14 -17 -14 -66v-489z" />
<glyph unicode="S" horiz-adv-x="1036" d="M102 78q40 153 48 211l20 2q63 -120 195 -186q70 -35 131 -35q128 0 197 98q42 62 42 141q0 167 -149 254q-38 21 -90 43q-238 100 -311 227q-41 73 -42 160q0 165 144 272q40 29 82 48q85 34 176 35q106 0 187 -22.5t110 -46.5l28 -24l4 -6q-39 -130 -47 -205l-20 -2 q-63 145 -188 197q-46 18 -91 18q-79 -1 -125 -24q-66 -36 -88 -135q-6 -26 -6 -49q0 -162 190 -245q25 -11 60 -24q346 -129 365 -378l2 -31q0 -207 -174 -318q-117 -73 -273 -73q-106 0 -199.5 22.5t-133.5 45.5l-40 24z" />
<glyph unicode="T" horiz-adv-x="1105" d="M31 1186q3 25 3 58.5t-3 76.5l4 6q50 -6 123 -6h790q74 0 123 6l4 -6q-3 -44 -3 -77.5t3 -57.5l-4 -8l-161 19q-118 9 -253 9q-16 -56 -16 -295v-501q0 -264 21 -410l-5 -6q-37 6 -104 6t-104 -6l-5 6q20 140 21 410v501q0 237 -16 295q-123 0 -226.5 -7t-145.5 -14 l-42 -7z" />
<glyph unicode="U" horiz-adv-x="1417" d="M193 1321l4 6q37 -6 104 -6t105 6l4 -6q-20 -137 -21 -410v-360q5 -454 344 -457q300 0 361 257q20 84 20 216v344q0 264 -20 410l4 6q38 -6 71 -6q36 0 72 6l4 -6q-20 -137 -20 -410v-307q0 -435 -243 -563q-118 -61 -292 -61q-242 0 -371 156q-105 130 -106 347v428 q0 264 -20 410z" />
<glyph unicode="V" horiz-adv-x="1292" d="M33 1327q57 -6 123 -6q56 0 112 6q129 -448 391 -1056h5q302 700 379 930q24 71 38 126q35 -6 93 -6q45 0 81 6l-604 -1347h-57l-229 559q-267 657 -332 788z" />
<glyph unicode="W" horiz-adv-x="1947" d="M33 1327q37 -6 123 -6q68 0 102 6q123 -429 404 -1075h4q205 475 260 612l-176 463q37 -6 122 -6q78 0 113 6q57 -254 330 -1057h4q305 703 383 940q21 66 35 117q26 -6 102 -6q48 1 72 6l-604 -1347h-58l-269 740l-329 -740h-57l-229 559q-267 657 -332 788z" />
<glyph unicode="X" horiz-adv-x="1189" d="M47 -6l453 663l-443 670q37 -6 115 -6q80 0 117 6q45 -94 290 -467l39 -60q204 295 297 462l35 65q24 -6 86 -6q63 0 86 6l-102 -140l-341 -480q327 -502 476 -713q-39 6 -119 6q-82 0 -118 -6q-86 166 -314 506l-42 63q-198 -302 -343 -569q-24 6 -86 6q-63 0 -86 -6z " />
<glyph unicode="Y" horiz-adv-x="1191" d="M33 1327q53 -6 117 -6q65 0 116 6q67 -130 330 -581l29 -50q230 361 358 631q38 -6 86 -6q46 0 86 6l-171 -260q-240 -362 -302 -483q5 -474 14 -590q-37 6 -102 6t-102 -6q14 159 14 569q-185 317 -443 718q-18 29 -30 46z" />
<glyph unicode="Z" horiz-adv-x="1273" d="M88 2q14 18 36 51l17 25l756 1108q12 22 -6 24q-140 0 -563 -32q-90 -7 -164 -11l-4 7q4 33 4 67q0 25 -4 80l4 6q50 -6 125 -6h622q162 0 258 12q11 -4 13 -12q-2 -28 -62 -111l-727 -1063q-10 -16 -10 -36q119 0 313.5 10t329.5 21l135 12l4 -7q-4 -33 -4 -67 q0 -25 4 -80l-4 -6q-52 6 -145 6h-744l-178 -6z" />
<glyph unicode="[" horiz-adv-x="739" d="M225 -119v1576h441v-52q-215 -14 -263 -54q-38 -38 -38 -144v-1076q0 -108 33 -140q44 -42 247 -58q11 -1 21 -1v-51h-441z" />
<glyph unicode="\" horiz-adv-x="598" d="M23 1430h100l471 -1528h-100z" />
<glyph unicode="]" horiz-adv-x="739" d="M74 -66q215 14 262 53q38 38 39 144v1076q0 108 -34 141q-44 42 -246 57q-11 1 -21 1v51h440v-1576h-440v53z" />
<glyph unicode="^" horiz-adv-x="1060" d="M229 709l260 622h86l259 -622h-93l-211 505l-208 -505h-93z" />
<glyph unicode="_" horiz-adv-x="995" d="M10 -225h977v-90h-977v90z" />
<glyph unicode="`" horiz-adv-x="802" d="M197 1366l4 23q65 46 133 47q15 0 31 -4l143 -258q12 -26 12 -50q-6 -18 -31 -22q-19 3 -59 41z" />
<glyph unicode="a" d="M33 -4l434 975h117l165 -406q192 -475 238 -569q-26 4 -131 4q-50 0 -74 -4q-37 129 -111 330q-121 4 -177 4q-88 0 -194 -4q-87 -214 -118 -330q-20 4 -67 4q-63 0 -82 -4zM333 408q21 0 71 -2q60 -2 83 -3q68 1 154 4q-65 168 -149 363h-5l-47 -112z" />
<glyph unicode="b" horiz-adv-x="1009" d="M156 0q20 125 20 367v208q0 244 -20 367l2 6q4 0 100 -6q2 0 225 6q344 -7 351 -227q0 -93 -87 -169q-30 -25 -61 -40q207 -51 209 -256q0 -115 -118 -193q-104 -67 -249 -67q-66 0 -175 2q-69 2 -95 2l-100 -6zM344 131q0 -49 28 -62q31 -13 105 -14q234 2 236 215 q0 141 -83 182q-53 25 -145 25h-141v-346zM344 547h141q151 0 179 101q8 31 8 71q0 157 -156 169q-17 1 -35 1q-117 0 -131 -21q-6 -13 -6 -37v-284z" />
<glyph unicode="c" horiz-adv-x="1032" d="M90 455q0 248 176 395q135 113 320 113q201 0 321 -67q32 -18 35 -19l4 -7l-47 -168l-27 -2q-71 122 -144 161q-60 30 -136 30q-322 -5 -324 -416q0 -254 144 -359q78 -56 188 -57q139 0 233 85q32 29 68 71l43 -51q-114 -153 -267 -178q-41 -6 -87 -6q-255 0 -400 185 q-99 130 -100 290z" />
<glyph unicode="d" horiz-adv-x="1159" d="M156 0q20 125 20 367v208q0 244 -20 367l2 6q4 0 100 -6l127 3q118 3 150 3q258 0 403 -178q106 -132 106 -309q0 -332 -272 -431q-95 -34 -209 -34q-105 0 -233 3q-53 1 -72 1l-100 -6zM340 166q0 -60 50 -78q42 -14 124 -14q223 0 298 109q56 84 56 243q0 257 -155 374 q-96 70 -238 70q-133 -2 -135 -67v-637z" />
<glyph unicode="e" horiz-adv-x="964" d="M156 0q20 125 20 367v208q0 244 -20 367l2 6q4 0 104 -6h416q74 0 123 6l4 -6q-4 -58 -4 -63q0 -14 4 -43l-4 -9l-217 19q-112 6 -228 6q-16 -56 -16 -279v-38q158 0 298 15q24 3 46 5l6 -6q-6 -29 -6 -57q0 -30 6 -58l-6 -6q-203 20 -344 21v-80q0 -210 16 -269 q123 0 239 6.5t171 12.5l55 6l4 -8q-4 -33 -4 -64q0 -12 2 -27.5t2 -25.5l-4 -6q-50 6 -123 6h-436l-104 -6z" />
<glyph unicode="f" horiz-adv-x="897" d="M156 0q20 125 20 367v208q0 244 -20 367l2 6q4 0 104 -6h416q74 0 123 6l4 -6q-4 -58 -4 -63q0 -14 4 -43l-4 -9l-217 19q-112 6 -228 6q-16 -56 -16 -279v-38q158 0 298 15q24 3 46 5l6 -6q-6 -29 -6 -57q0 -30 6 -58l-6 -6q-203 20 -344 21v-82q0 -244 20 -367l-2 -6 q-5 0 -100 6l-100 -6z" />
<glyph unicode="g" horiz-adv-x="1126" d="M90 446q0 280 205 422q138 94 328 95q204 0 324 -65q4 -2 11 -6l21 -11l4 -7l-47 -167l-27 -2q-71 122 -149 159q-58 26 -131 27q-197 0 -297 -165q-63 -108 -64 -253q0 -164 99 -291q104 -130 266 -131q111 2 186 76v8q0 153 -20 297l4 6q4 0 96 -6l102 6l3 -6 q-20 -129 -21 -204v-52v-2q2 -23 25 -47q-213 -147 -412 -147q-246 0 -393 166q-112 129 -113 300z" />
<glyph unicode="h" horiz-adv-x="1153" d="M154 0q20 125 20 367v208q0 244 -20 367l2 6q4 0 100 -6l98 6l4 -6q-17 -111 -20 -367v-61h473v61q0 244 -20 367l2 6q4 0 100 -6l98 6l4 -6q-17 -111 -20 -367v-208q0 -238 20 -367l-4 -6q-4 0 -98 6l-100 -6l-2 6q20 125 20 367v63h-473v-63q0 -238 20 -367l-4 -6 q-4 0 -98 6l-100 -6z" />
<glyph unicode="i" horiz-adv-x="512" d="M154 0q20 125 20 367v208q0 244 -20 367l2 6q4 0 100 -6l98 6l4 -6q-17 -111 -20 -367v-208q0 -238 20 -367l-4 -6q-4 0 -98 6l-100 -6z" />
<glyph unicode="j" horiz-adv-x="530" d="M-186 -330q25 45 57 168l23 2q42 -70 118 -71h1q168 0 175 377v49v344q0 264 -20 409l4 6q4 0 100 -6l99 6l2 -6q-20 -137 -21 -409v-299q0 -214 -36 -302q-25 -58 -85 -137q-118 -155 -323 -155q-62 1 -92 18z" />
<glyph unicode="k" horiz-adv-x="1050" d="M154 0q20 125 20 367v208q0 244 -20 367l2 6q4 0 100 -6l98 6l4 -6q-17 -111 -20 -367v-55q46 3 84 33q114 85 279 288q45 55 77 101q161 0 203 6l-4 -6q-130 -111 -432 -428q141 -171 359 -386l126 -128l-4 -6q-32 6 -115 6q-84 0 -137 -6q-128 178 -313 367l-82 85 q-20 17 -41 19v-98q0 -238 20 -367l-4 -6q-4 0 -98 6l-100 -6z" />
<glyph unicode="l" horiz-adv-x="886" d="M154 0q20 125 20 367v208q0 244 -20 367l2 6q4 0 98 -6l100 6l4 -6q-20 -132 -20 -367v-208q0 -208 16 -267q123 0 239 6.5t171 12.5l55 6l4 -8q-4 -33 -4 -64q0 -12 2 -27.5t2 -25.5l-4 -6q-50 6 -123 6h-436l-104 -6z" />
<glyph unicode="m" horiz-adv-x="1372" d="M106 -4q99 613 136 967h73q177 -358 377 -725l393 725h66q97 -838 108 -917q4 -26 7 -50q-24 4 -95 4q-53 0 -75 -4q-39 463 -63 669q-240 -439 -341 -665h-51q-52 110 -335 664q-59 -542 -60 -668q-16 4 -60 4q-62 0 -80 -4z" />
<glyph unicode="n" horiz-adv-x="1118" d="M154 0q14 93 14 293v356q0 195 -14 293l2 4q4 0 77 -4l72 4l500 -649q32 -39 39 -24q4 10 4 28v348q0 195 -14 293l4 4q4 0 53 -4l74 4v-4q-14 -111 -15 -293v-618q0 -33 -37 -48q-8 -3 -16 -3q-42 3 -74 40l-510 646q-16 18 -26 18q-16 0 -17 -43v-348q0 -195 15 -293 l-2 -6q-4 0 -60 6l-67 -6z" />
<glyph unicode="o" horiz-adv-x="1167" d="M90 451q0 255 177 401q135 110 319 111q224 0 367 -156q123 -137 124 -330q0 -244 -165 -384q-136 -113 -343 -113q-240 0 -376 167q-102 127 -103 304zM270 475q0 -252 151 -360q78 -55 179 -56q198 0 267 194q29 85 30 196q0 260 -154 374q-79 57 -176 58 q-154 0 -237 -144q-60 -106 -60 -262z" />
<glyph unicode="p" horiz-adv-x="890" d="M154 0q20 125 20 367v208q0 244 -20 367l2 6q4 0 100 -6q28 0 97 3q84 3 124 3q314 0 342 -214q2 -19 2 -38q0 -183 -135 -266q-86 -51 -215 -51q-83 1 -129 20v-32q0 -238 20 -367l-4 -6q-4 0 -100 6l-102 -6zM342 465q48 -18 133 -19q144 0 170 142q6 38 6 84 q0 167 -102 197q-34 9 -84 10q-61 -1 -123 -17v-397z" />
<glyph unicode="q" horiz-adv-x="1167" d="M90 451q0 255 177 401q135 110 319 111q224 0 367 -156q123 -136 124 -330q0 -247 -168 -387q-16 -13 -31 -23q243 -136 398 -196v-12q-124 -64 -184 -111q-200 149 -262 186q-46 28 -111 63q-71 -17 -150 -17q-240 0 -376 167q-102 127 -103 304zM270 475 q0 -252 151 -360q78 -55 179 -56q198 0 267 194q29 85 30 196q0 260 -154 374q-79 57 -176 58q-154 0 -237 -144q-60 -106 -60 -262z" />
<glyph unicode="r" horiz-adv-x="944" d="M154 0q20 125 20 367v208q0 244 -20 367l2 6q4 0 102 -6q43 0 120 4q42 2 65 2h14q247 0 316 -141q21 -45 22 -98q-2 -190 -179 -256q30 -39 199 -292q72 -107 119 -161l-4 -6q-41 6 -101 6q-76 0 -112 -6q-17 66 -113 209q-16 23 -45 69q-67 107 -105 151q-18 -1 -36 -1 h-76v-55q0 -238 20 -367l-4 -6q-4 0 -100 6l-102 -6zM342 492h68q168 0 210 95q21 49 21 122q-20 156 -176 165q-111 0 -121 -43q-2 -9 -2 -18v-321z" />
<glyph unicode="s" horiz-adv-x="800" d="M68 37l34 174l31 2q60 -114 187 -144q31 -7 61 -8q127 0 169 105q15 38 15 82q0 86 -91 132q-30 15 -114 46q-143 55 -189 105q-10 12 -17 22q-40 56 -41 143q0 159 163 232q79 35 170 35q132 -1 259 -70l4 -6l-41 -148l-29 -2q-41 98 -132 133q-35 13 -71 13 q-106 0 -151 -77q-18 -32 -19 -69q0 -49 33 -86t66.5 -53t82.5 -32l3 -1q174 -59 230 -127q51 -65 52 -159q0 -169 -133 -249q-87 -50 -217 -50q-165 1 -315 57z" />
<glyph unicode="t" horiz-adv-x="925" d="M51 813q3 24 3 56t-3 73l4 4q62 -4 113 -4h590q52 0 112 4l4 -4q-3 -42 -3 -74t3 -55l-4 -6l-99 15q-83 7 -195 7h-29v-460q0 -240 20 -369l-4 -6q-4 0 -100 6l-103 -6l-2 6q20 125 21 369v460l-324 -22z" />
<glyph unicode="u" horiz-adv-x="1128" d="M156 942l2 6q4 0 102 -6l100 6l5 -6q-20 -132 -21 -369v-159q0 -222 71 -296q60 -60 171 -61q215 0 255 197q13 64 13 178v141q0 246 -20 369l2 6q2 0 69 -6l68 6l4 -6q-21 -132 -21 -369v-114q0 -307 -142 -411q-97 -68 -263 -68q-151 0 -260 101q-114 108 -115 290v202 q0 246 -20 369z" />
<glyph unicode="v" horiz-adv-x="1052" d="M45 948q37 -6 113 -6q74 0 102 6q117 -368 283 -749h18q86 185 287 749q22 -6 70 -6q69 0 90 6q-273 -611 -333 -761q-40 -101 -73 -193q-20 6 -80 6q-56 0 -78 -6q-200 519 -399 954z" />
<glyph unicode="w" horiz-adv-x="1624" d="M45 948q48 -8 113 -8q64 0 102 8q148 -465 275 -751h26q88 187 184 446l-133 307q47 -8 115 -8q66 0 104 8q142 -448 277 -751h31q74 158 247 656l33 95q28 -8 68 -8q64 0 92 8l-105 -233q-220 -482 -307 -723q-22 6 -86 6q-57 0 -80 -6l-202 518q-73 -175 -197 -520 q-20 6 -92 6q-46 0 -68 -6q-215 559 -397 956z" />
<glyph unicode="x" horiz-adv-x="999" d="M31 948q36 -6 127 -6q78 0 114 6q64 -107 248 -358q223 286 273 358q26 -6 77 -6q73 0 99 6l-387 -442q128 -185 381 -512q-35 6 -109 6q-92 0 -125 -6q-46 71 -254 368q-199 -277 -260 -368q-24 6 -96 6q-53 0 -76 -6l365 463z" />
<glyph unicode="y" horiz-adv-x="915" d="M45 948q40 -6 96 -6q59 0 97 6q43 -84 243 -430q155 248 242 430q28 -6 74 -6q45 0 73 6q-275 -422 -310 -486l-25 -46q3 -327 12 -422q-34 6 -88 6q-51 0 -88 -6q10 93 10 407q-205 351 -332 542q-2 4 -4 5z" />
<glyph unicode="z" horiz-adv-x="911" d="M43 4q4 5 49 66l516 761q-251 -4 -499 -22l-7 6q6 49 7 68q0 11 -3 28q-3 19 -4 31l7 6q51 -6 122 -6h447q16 0 178 14q11 -3 12 -14q-12 -13 -67 -92l-502 -739l549 22l4 -6q-4 -33 -4 -68q0 -7 4 -59l-4 -6q-50 6 -123 6h-496l-178 -6z" />
<glyph unicode="{" horiz-adv-x="567" d="M29 633q-21 23 0 42q167 14 196 150q5 23 4 46l-12 324q-10 255 279 269q17 1 32 0q17 -21 0 -42q-106 -27 -140 -89q-27 -55 -23 -142l16 -292q8 -151 -115 -208q-40 -18 -100 -33v-7q178 -64 208 -180q10 -39 7 -85l-16 -262q-9 -148 84 -211q38 -24 79 -25 q17 -21 0 -42q-220 0 -280 110q-35 67 -31 177l12 299q7 177 -196 201h-4z" />
<glyph unicode="|" horiz-adv-x="430" d="M166 -475v1905h100v-1905h-100z" />
<glyph unicode="}" horiz-adv-x="567" d="M31 -114q107 27 140 89q28 55 24 142l-17 292q-8 150 115 208q40 18 100 34v7q-178 64 -208 179q-10 39 -7 85l17 262q9 148 -84 211q-38 24 -80 25q-17 21 0 42q218 0 279 -107q37 -67 32 -179l-12 -300q-7 -177 196 -200q3 0 4 -1q21 -23 0 -42q-167 -14 -196 -150 q-5 -23 -4 -46l12 -324q10 -255 -279 -268q-17 -1 -32 -1q-17 21 0 42z" />
<glyph unicode="~" horiz-adv-x="919" d="M53 428q27 135 132 214q64 47 130 48q47 -1 152 -65q106 -67 149 -68q93 0 162 74q26 29 41 63l35 -12q-60 -206 -205 -241q-22 -5 -41 -5q-60 1 -153 68q-97 65 -152 65q-90 0 -173 -81q-31 -32 -50 -66z" />
<glyph unicode="&#xa1;" horiz-adv-x="466" d="M121 123q0 71 33 261q13 73 20 134q8 64 32 360q1 9 1 13q6 39 29 41q24 -3 28 -27q1 -14 6 -77q14 -201 25 -310q8 -77 28 -185q23 -129 23 -210q0 -116 -81 -144q-15 -6 -29 -6q-71 0 -102 75q-13 34 -13 75zM121 1223v8q27 86 101 108q6 2 9 2h9q76 -17 100 -79 q6 -15 10 -31v-8q-30 -77 -110 -111h-9q-84 33 -110 111z" />
<glyph unicode="&#xa2;" d="M154 670q0 229 173 366q89 69 196 90v218h79v-211q163 -1 276 -59l4 -6l-48 -172l-27 -2q-90 150 -205 155v-751h8q127 2 224 88h9l39 -44q-111 -138 -280 -148v-222h-79v224q-222 23 -317 221q-52 110 -52 253zM338 681q0 -245 138 -342q24 -15 47 -25v721 q-125 -48 -168 -215q-16 -66 -17 -139z" />
<glyph unicode="&#xa3;" d="M40 37q3 50 111 109q144 106 155 406q1 32 1 67v37h-139q-13 5 -15 14v30q13 39 54 46h100v45q0 184 70 287q30 43 79 92q157 155 388 156q60 -1 93 -19l3 -7q-29 -50 -59 -167l-23 -3q-45 71 -118 72q-101 0 -185 -105q-70 -91 -71 -195v-156h274q15 -3 16 -13v-49 q-5 -25 -53 -28h-237q-4 -308 -161 -456h12q142 0 246 -58q81 -43 142 -45q157 2 228 96l40 -23q-72 -154 -235 -186q-36 -7 -72 -7q-99 0 -192 61q-88 58 -154 66q-24 3 -47 3q-91 -2 -93 -54q-20 -66 -89 -76q-57 0 -68 46q-2 8 -1 14z" />
<glyph unicode="&#xa4;" d="M63 316l125 100q-90 110 -90 254q1 152 90 256l-121 95l86 93l108 -119q113 81 248 82q144 -1 254 -86l107 128l91 -96l-128 -102q88 -108 88 -251q-1 -139 -86 -249l121 -102l-84 -89l-107 119q-115 -85 -256 -86q-141 1 -251 84l-100 -124zM237 672q0 -169 114 -258 q70 -53 158 -54q148 0 226 136q44 79 44 174q0 161 -113 253q-70 55 -152 56q-147 0 -228 -130q-48 -80 -49 -177z" />
<glyph unicode="&#xa5;" d="M9 1337q37 -7 119 -7t116 7q149 -386 292 -635q97 154 239 504l53 131q25 -7 86 -7t86 7q-178 -311 -385 -712h299q14 -3 16 -13v-49q-3 -29 -53 -31h-280q1 -108 2 -146h315q14 -3 16 -14v-46q-3 -29 -53 -31h-277q5 -219 12 -302q-34 7 -107 7q-72 0 -105 -7 q9 88 12 302h-303q-11 5 -11 14v31q9 41 51 46h264v36q0 17 0.5 39.5t0.5 32.5v38h-305q-11 5 -11 15v32q9 41 51 46h233l-163 313q-167 326 -210 399z" />
<glyph unicode="&#xa6;" horiz-adv-x="419" d="M166 330h98v-742h-98v742zM166 639v741h98v-741h-98z" />
<glyph unicode="&#xa7;" horiz-adv-x="989" d="M102 547q2 172 154 287q-90 97 -90 223q0 121 107 211q96 79 227 80q133 0 267 -115q3 -3 9 -7q6 -5 8 -7l7 -11l-35 -149l-29 -4q-96 166 -185 200q-31 11 -61 11q-104 0 -152 -85q-21 -39 -22 -83q3 -135 164 -203q391 -159 414 -413q1 -18 2 -33q-2 -173 -154 -288 q32 -33 52.5 -71t29 -75t8.5 -76q0 -121 -106 -211q-96 -79 -228 -80q-133 0 -267 114q-3 3 -9 7q-6 5 -8 8l-6 10l34 150l29 4q96 -166 185 -200q31 -11 61 -11q104 0 152 84q21 39 22 84q-3 135 -164 202q-391 159 -414 413q-1 18 -2 34zM219 625q0 -155 216 -281 q25 -14 165 -86q49 -26 87 -55q82 83 83 168q0 155 -216 280q-25 14 -165 86q-49 26 -87 56q-82 -83 -83 -168z" />
<glyph unicode="&#xa8;" horiz-adv-x="776" d="M102 1176q0 62 56 89q20 9 41 9q61 0 87 -58q8 -21 9 -40q0 -63 -58 -89q-19 -7 -38 -8q-63 0 -89 58q-8 20 -8 39zM449 1176q0 62 55 89q20 9 41 9q61 0 87 -58q8 -21 9 -40q0 -63 -58 -89q-19 -7 -38 -8q-63 0 -89 58q-7 20 -7 39z" />
<glyph unicode="&#xa9;" horiz-adv-x="1296" d="M70 627q0 246 177 416q170 160 402 161q247 0 418 -178q159 -169 160 -399q0 -246 -177 -418q-169 -161 -401 -162q-247 0 -418 179q-161 170 -161 401zM133 627q0 -224 164 -376q150 -137 352 -138q224 0 377 165q136 149 137 349q0 226 -165 378q-149 135 -349 136 q-228 0 -381 -166q-134 -148 -135 -348zM338 616q0 152 122 250q90 69 202 70q82 0 159 -24q22 -7 43 -7l29 -160l-41 -8q-43 117 -127 142q-33 9 -72 10q-125 0 -169 -124q-19 -55 -19 -128q0 -180 113 -243q44 -23 98 -23q114 1 184 102l39 -31q-64 -100 -184 -125 q-30 -6 -58 -6q-161 0 -256 124q-62 83 -63 181z" />
<glyph unicode="&#xaa;" horiz-adv-x="608" d="M53 870q0 109 151 167q29 11 60 18l115 26q7 7 8 15q-11 147 -117 151q-72 -3 -139 -112h-16l-23 90l4 4q95 75 187 76q206 -5 209 -207q0 -6 -2 -81q-3 -151 -3 -175q2 -37 21 -39q13 1 49 26l4 -2l21 -26q-56 -67 -113 -68q-66 0 -79 67q-1 5 -1 7h-8q-77 -65 -133 -72 q-17 -2 -35 -2q-143 0 -158 113q-1 13 -2 24zM162 874q0 -53 55 -70q18 -5 35 -5q50 1 113 49q16 15 16 33l6 151l-104 -31q-109 -32 -120 -103q-1 -12 -1 -24z" />
<glyph unicode="&#xab;" horiz-adv-x="1112" d="M152 582v24q172 152 378 375q39 -7 50 -39q-140 -211 -261 -348q123 -140 261 -348q-11 -33 -50 -39q-210 226 -378 375zM520 582v24q172 152 379 375q39 -7 49 -39q-139 -211 -260 -348q123 -140 260 -348q-11 -33 -49 -39q-210 226 -379 375z" />
<glyph unicode="&#xac;" horiz-adv-x="1146" d="M49 731v90h1051v-549h-111v459h-940z" />
<glyph unicode="&#xad;" horiz-adv-x="681" d="M68 518q0 44 33 69q9 7 18 7h469q27 -3 28 -37q0 -32 -31 -62q-13 -11 -24 -12h-463q-26 6 -30 35z" />
<glyph unicode="&#xae;" horiz-adv-x="1296" d="M70 627q0 246 177 416q170 160 402 161q247 0 418 -178q159 -169 160 -399q0 -246 -177 -418q-169 -161 -401 -162q-247 0 -418 179q-161 170 -161 401zM133 627q0 -224 164 -376q150 -137 352 -138q224 0 377 165q136 149 137 349q0 226 -165 378q-149 135 -349 136 q-228 0 -381 -166q-134 -148 -135 -348zM403 872v35l5 4h278q155 0 190 -110q7 -22 7 -43q0 -103 -104 -146q-9 -3 -15 -6l98 -168q33 -52 88 -43l8 -35q-36 -14 -73 -14q-83 3 -125 72l-98 164q-11 8 -76 8v-148q2 -38 24 -43l29 -4q22 -5 23 -12v-33l-5 -4q-2 0 -120 4 l-125 -4l-4 4v35q4 8 20 10l35 4q25 7 26 43v369q-6 47 -47 51h-22q-15 2 -17 10zM586 639h65q99 0 115 76q4 21 4 43q-4 102 -102 104q-80 -3 -82 -51v-172z" />
<glyph unicode="&#xaf;" horiz-adv-x="813" d="M121 1114q0 38 30 55q8 4 15 5h500q26 -3 28 -29q0 -37 -31 -56q-10 -5 -18 -6h-500q-23 3 -24 31z" />
<glyph unicode="&#xb0;" horiz-adv-x="546" d="M70 1075q0 113 94 173q51 31 110 32q114 0 173 -96q30 -51 30 -109q0 -113 -95 -172q-50 -30 -108 -31q-112 0 -172 93q-31 51 -32 110zM137 1073q0 -86 70 -126q32 -17 67 -17q85 0 122 81q14 31 14 62q0 88 -65 130q-32 19 -71 20q-90 0 -125 -88q-12 -31 -12 -62z" />
<glyph unicode="&#xb1;" horiz-adv-x="1079" d="M135 39v100h809v-100h-809zM135 600v100h352v357h105v-357h352v-100h-352v-356h-105v356h-352z" />
<glyph unicode="&#xb2;" horiz-adv-x="636" d="M78 745q3 72 149 224l82 80q67 72 68 192q-2 48 -33 80q-29 31 -61 31q-87 -3 -138 -92h-26l-23 86l4 4q68 61 191 61q104 0 166 -43q68 -45 67 -129q-2 -85 -106 -184l-109 -107q-70 -71 -71 -94h88q62 0 202 10q-6 -30 -6 -71q0 -24 6 -52q-112 4 -188 4q-57 0 -260 -4 z" />
<glyph unicode="&#xb3;" horiz-adv-x="641" d="M94 799l25 86l24 2q33 -56 50 -72q31 -24 83 -24q44 1 74 26q44 39 45 121q-4 125 -121 127q-29 0 -41 -2v51q147 10 150 139q-1 43 -23 72q-26 28 -55 29q-55 -1 -84 -25q-26 -21 -53 -72h-27l-22 86l2 7q72 59 192 59q84 -1 138 -31q58 -39 59 -108q0 -133 -129 -166 v-4q68 -6 111 -43q50 -45 51 -115q-2 -107 -86 -162q-73 -47 -183 -47q-107 1 -176 62z" />
<glyph unicode="&#xb4;" horiz-adv-x="698" d="M180 1139q2 23 24 57l154 244q13 4 29 4q64 -2 113 -47l6 -23l-236 -223q-39 -38 -61 -39q-23 6 -29 27z" />
<glyph unicode="&#xb5;" horiz-adv-x="995" d="M90 879q8 0 151 18q10 1 17 2q0 -2 6 -197v-401q3 -227 142 -229q133 0 227 95q18 19 31 36v676q11 0 139 18q8 1 14 2v-645q0 -142 19 -164q14 -13 34 -14q36 4 70 86l49 -23q-46 -120 -112 -147q-33 -12 -74 -12q-85 0 -124 77q-15 32 -15 66q-132 -142 -297 -143 q-76 1 -117 47q-21 -3 -25 -19q0 -68 46 -251q19 -77 20 -113q-12 -113 -84 -123q-42 0 -81 50q-29 39 -30 83q0 32 23 201q10 72 10 129q0 29 -7 105q-11 118 -11 185v385z" />
<glyph unicode="&#xb6;" horiz-adv-x="1232" d="M117 985q0 162 126 260q105 80 263 80q96 0 241 -3q68 -1 89 -1l202 6l2 -6q-20 -137 -20 -410v-977q0 -264 20 -409l-4 -6q-2 0 -202 6l-201 -6l-4 6q20 148 20 409v650q-30 -6 -65 -6q-421 0 -463 335q-4 36 -4 72zM752 -330q4 -76 82 -78q82 5 84 78v1506 q-3 77 -84 77q-80 -3 -82 -77v-1506z" />
<glyph unicode="&#xb7;" horiz-adv-x="512" d="M145 528q0 65 61 98q25 12 50 13q64 0 97 -60q13 -25 14 -51q0 -70 -63 -99q-23 -11 -48 -11q-75 0 -102 67q-8 22 -9 43z" />
<glyph unicode="&#xb8;" horiz-adv-x="1107" d="M442 -375q2 34 21 53q77 -29 119 -28q92 0 103 67q1 8 1 15q-4 69 -68 71q-54 -1 -92 -12l-12 12l82 197h70l-52 -137q26 6 54 6q101 0 135 -76q10 -25 10 -51q0 -90 -106 -132q-52 -20 -113 -20q-74 1 -152 35z" />
<glyph unicode="&#xb9;" horiz-adv-x="786" d="M229 1327q68 17 275 82q6 0 6 -6q-12 -85 -12 -176v-277q0 -120 14 -205l-2 -4q-39 4 -78 4t-74 -4v4q12 76 13 205v267q-1 68 -21 69q-72 0 -119 -6z" />
<glyph unicode="&#xba;" horiz-adv-x="714" d="M80 879q0 192 151 256q59 24 131 24q207 0 261 -170q14 -47 14 -98q0 -151 -116 -225q-72 -45 -169 -45q-146 0 -226 111q-45 67 -46 147zM199 899q0 -126 78 -188q43 -33 98 -33q97 0 131 93q13 39 14 87q0 203 -120 242q-25 8 -50 8q-106 0 -140 -122q-11 -41 -11 -87z " />
<glyph unicode="&#xbb;" horiz-adv-x="1112" d="M150 246q139 211 260 348q-123 140 -260 348q11 33 49 39q210 -226 379 -375v-24q-172 -152 -379 -375q-39 7 -49 39zM518 246q139 211 260 348q-123 140 -260 348q11 33 49 39q210 -226 379 -375v-24q-172 -152 -379 -375q-39 7 -49 39z" />
<glyph unicode="&#xbc;" horiz-adv-x="1351" d="M201 -111l940 1342l84 -17l-938 -1341zM223 1227q68 17 275 82q6 0 6 -6q-12 -85 -12 -177v-276q0 -120 14 -205l-2 -4q-39 4 -78 4t-74 -4v4q12 76 13 205v266q-1 68 -21 70q-72 0 -119 -6zM752 31q1 35 12 51q126 169 280 428v4q15 -4 54 -4t73 4l3 -4 q-10 -84 -11 -162v-260h78q13 -4 14 -22q-1 -12 -8 -29q-12 -20 -22 -21h-62q0 -80 11 -159l-3 -4q-36 4 -73 4q-41 0 -76 -4v4q12 92 12 159h-221q-58 1 -61 15zM836 88h198v313z" />
<glyph unicode="&#xbd;" horiz-adv-x="1351" d="M152 -111l938 1342l86 -17l-940 -1341zM227 1227q68 17 275 82q6 0 6 -6q-12 -85 -12 -177v-276q0 -120 14 -205l-2 -4q-39 4 -78 4t-74 -4v4q12 76 13 205v266q-1 68 -21 70q-72 0 -119 -6zM811 -162q3 72 150 223l81 80q67 72 68 193q-2 48 -33 80q-29 31 -61 30 q-86 -3 -137 -92h-27l-23 86l5 4q68 61 190 62q104 0 166 -43q68 -45 67 -129q-2 -85 -106 -185l-109 -106q-70 -71 -71 -94h88q62 0 203 10q-6 -30 -7 -72q0 -24 7 -51q-112 4 -189 4q-57 0 -260 -4z" />
<glyph unicode="&#xbe;" horiz-adv-x="1351" d="M90 694l25 86l24 2q33 -56 49 -71q31 -24 84 -25q44 2 74 27q44 39 45 121q-4 125 -121 127q-29 0 -41 -3v52q147 10 150 139q-1 43 -23 72q-26 28 -55 28q-55 -1 -84 -24q-26 -21 -53 -72h-27l-22 86l2 6q72 59 192 60q84 -1 137 -31q58 -39 60 -109q0 -133 -129 -166 v-4q68 -6 110 -43q50 -45 52 -114q-2 -107 -86 -162q-73 -47 -183 -47q-107 1 -176 61zM211 -111l940 1342l84 -17l-938 -1341zM760 35q1 35 12 51q126 169 281 428v4q15 -4 53 -4q39 0 74 4l2 -4q-10 -84 -11 -162v-260h78q13 -4 15 -22q-1 -12 -9 -29q-12 -20 -22 -21h-62 q0 -80 11 -159l-2 -4q-36 4 -74 4q-41 0 -76 -4v4q12 92 12 159h-221q-58 1 -61 15zM844 92h198v314z" />
<glyph unicode="&#xbf;" horiz-adv-x="829" d="M76 283q0 154 164 282l53 39q85 64 106 103q36 72 37 149v90q4 19 27 21q25 -3 26 -21v-94q0 -159 -72 -258q-29 -38 -65 -72q-106 -98 -120 -188q-3 -22 -3 -43q0 -137 97 -203q48 -33 106 -33q141 2 252 193l27 -2l32 -137l-6 -9q-157 -122 -323 -127q-215 0 -300 152 q-38 70 -38 158zM348 1225v8q27 86 101 108q6 2 10 2h8q76 -17 101 -79q6 -15 10 -31v-8q-30 -77 -111 -111h-8q-84 33 -111 111z" />
<glyph unicode="&#xc0;" horiz-adv-x="1288" d="M33 -6l604 1354h57l239 -584q259 -642 322 -770q-37 6 -122 6q-68 0 -103 -6q-51 183 -159 474q-146 3 -240 3q-117 0 -264 -3q-125 -308 -170 -474q-26 6 -93 6q-48 -1 -71 -6zM369 1583q64 61 155 92l248 -172q30 -24 31 -43q-6 -25 -31 -30q-33 1 -88 24zM407 565 q27 0 89 -2q89 -2 125 -2q88 0 213 3q-95 247 -207 505h-4z" />
<glyph unicode="&#xc1;" horiz-adv-x="1288" d="M33 -6l604 1354h57l239 -584q259 -642 322 -770q-37 6 -122 6q-68 0 -103 -6q-51 183 -159 474q-146 3 -240 3q-117 0 -264 -3q-125 -308 -170 -474q-26 6 -93 6q-48 -1 -71 -6zM407 565q27 0 89 -2q89 -2 125 -2q88 0 213 3q-95 247 -207 505h-4zM467 1460q4 23 31 43 l254 176q88 -42 127 -106l-295 -119q-58 -24 -86 -24q-28 3 -31 30z" />
<glyph unicode="&#xc2;" horiz-adv-x="1288" d="M33 -6l604 1354h57l239 -584q259 -642 322 -770q-37 6 -122 6q-68 0 -103 -6q-51 183 -159 474q-146 3 -240 3q-117 0 -264 -3q-125 -308 -170 -474q-26 6 -93 6q-48 -1 -71 -6zM407 565q27 0 89 -2q89 -2 125 -2q88 0 213 3q-95 247 -207 505h-4zM418 1456 q89 68 203 193h88q85 -100 206 -193l-32 -43q-127 59 -217 127q-104 -75 -220 -127z" />
<glyph unicode="&#xc3;" horiz-adv-x="1288" d="M33 -6l604 1354h57l239 -584q259 -642 322 -770q-37 6 -122 6q-68 0 -103 -6q-51 183 -159 474q-146 3 -240 3q-117 0 -264 -3q-125 -308 -170 -474q-26 6 -93 6q-48 -1 -71 -6zM389 1444q40 167 141 181q12 1 23 1q67 -1 147 -57q61 -45 107 -45q57 0 87 67q8 18 15 39 l49 -12q-37 -184 -178 -184q-53 1 -131 53q-74 44 -110 45q-66 0 -96 -83l-5 -15zM407 565q27 0 89 -2q89 -2 125 -2q88 0 213 3q-95 247 -207 505h-4z" />
<glyph unicode="&#xc4;" horiz-adv-x="1288" d="M33 -6l604 1354h57l239 -584q259 -642 322 -770q-37 6 -122 6q-68 0 -103 -6q-51 183 -159 474q-146 3 -240 3q-117 0 -264 -3q-125 -308 -170 -474q-26 6 -93 6q-48 -1 -71 -6zM293 1452q0 60 56 84q18 8 38 8q62 0 85 -57q7 -18 7 -35q0 -62 -57 -85q-18 -7 -35 -7 q-61 0 -86 55q-8 19 -8 37zM407 565q27 0 89 -2q89 -2 125 -2q88 0 213 3q-95 247 -207 505h-4zM856 1452q0 60 56 84q18 8 38 8q62 0 86 -57q7 -18 6 -35q0 -62 -56 -85q-17 -7 -36 -7q-61 0 -86 55q-8 19 -8 37z" />
<glyph unicode="&#xc5;" horiz-adv-x="1288" d="M33 -6l583 1305q-89 25 -120 108q-11 27 -11 55q0 95 88 146q44 24 91 24q98 0 151 -80q26 -42 27 -90q0 -94 -86 -145q-21 -12 -42 -18l218 -534q260 -643 323 -771q-37 6 -122 6q-68 0 -103 -6q-51 183 -159 474q-146 3 -240 3q-118 0 -264 -3q-125 -308 -170 -474 q-26 6 -93 6q-48 -1 -71 -6zM407 565q27 0 89 -2q89 -2 125 -2q88 0 213 3q-95 247 -207 505h-4zM561 1462q0 -73 57 -103q22 -11 46 -11q70 0 95 72q7 22 7 42q0 80 -63 107q-19 8 -39 8q-73 0 -97 -74q-6 -21 -6 -41z" />
<glyph unicode="&#xc6;" horiz-adv-x="1642" d="M37 -6l170 333q325 641 543 995l4 5q4 0 104 -6h436q74 0 123 6l4 -6q-4 -58 -4 -64q0 -22 4 -53l-4 -8l-218 18q-80 4 -157 3q-144 0 -166 -36q-12 -22 -7 -64q41 -204 95 -435q225 1 459 20l7 -6q-6 -29 -7 -57q0 -30 7 -57l-7 -7q-172 17 -439 21q64 -272 121 -482 l435 21l4 -8q-4 -33 -4 -68q0 -7 4 -59l-4 -6q-50 6 -123 6h-280h-3h-110q-68 0 -102 -6q-1 105 -91 578q-68 1 -135 1q-99 0 -241 -3q-164 -340 -254 -576q-26 6 -92 6q-48 -1 -72 -6zM502 667q173 -3 184 -3q49 0 127 1l-83 428h-4q-110 -194 -224 -426z" />
<glyph unicode="&#xc7;" horiz-adv-x="1386" d="M106 645q0 295 205 502q187 189 440 200q15 1 27 1q238 0 442 -91q4 -2 5 -2l4 -6q-34 -144 -40 -211q-1 -9 -1 -16l-21 -2q-118 230 -417 231q-150 0 -273 -121q-159 -160 -160 -446q0 -277 145 -449q129 -150 326 -151q185 0 307 89q60 45 130 122l49 -39 q-204 -264 -480 -276l-46 -125q26 6 53 6q101 0 135 -77q10 -25 10 -50q0 -90 -106 -132q-52 -20 -113 -20q-74 1 -152 35q2 34 21 53q77 -29 119 -28q92 0 103 67q1 8 1 15q-3 69 -67 71q-54 -1 -93 -12l-12 12l77 186q-325 18 -497 266q-120 176 -121 398z" />
<glyph unicode="&#xc8;" horiz-adv-x="1101" d="M193 0q20 140 20 410v501q0 264 -20 410l4 6q4 0 104 -6h539q74 0 123 6l4 -6q-4 -57 -4 -78q0 -22 4 -53l-4 -8l-358 21q-108 4 -199 3q-16 -56 -17 -295v-159q217 0 457 20l6 -6q-6 -28 -6 -66t6 -65l-6 -6q-202 20 -457 20v-239q0 -237 17 -295q123 0 267 6t227 12 l83 6l4 -8q-4 -33 -4 -68q0 -11 4 -63l-4 -6q-50 6 -123 6h-559l-106 -6zM346 1581q65 61 156 92l248 -172q30 -24 30 -43q-6 -25 -30 -31q-33 1 -88 25z" />
<glyph unicode="&#xc9;" horiz-adv-x="1101" d="M193 0q20 140 20 410v501q0 264 -20 410l4 6q4 0 104 -6h539q74 0 123 6l4 -6q-4 -57 -4 -78q0 -22 4 -53l-4 -8l-358 21q-108 4 -199 3q-16 -56 -17 -295v-159q217 0 457 20l6 -6q-6 -28 -6 -66t6 -65l-6 -6q-202 20 -457 20v-239q0 -237 17 -295q123 0 267 6t227 12 l83 6l4 -8q-4 -33 -4 -68q0 -11 4 -63l-4 -6q-50 6 -123 6h-559l-106 -6zM432 1460q4 23 31 43l254 176q88 -42 127 -106l-295 -119q-58 -24 -86 -24q-28 3 -31 30z" />
<glyph unicode="&#xca;" horiz-adv-x="1101" d="M193 0q20 140 20 410v501q0 264 -20 410l4 6q4 0 104 -6h539q74 0 123 6l4 -6q-4 -57 -4 -78q0 -22 4 -53l-4 -8l-358 21q-108 4 -199 3q-16 -56 -17 -295v-159q217 0 457 20l6 -6q-6 -28 -6 -66t6 -65l-6 -6q-202 20 -457 20v-239q0 -237 17 -295q123 0 267 6t227 12 l83 6l4 -8q-4 -33 -4 -68q0 -11 4 -63l-4 -6q-50 6 -123 6h-559l-106 -6zM358 1456q89 68 203 193h88q85 -100 207 -193l-33 -43q-127 59 -217 127q-104 -75 -219 -127z" />
<glyph unicode="&#xcb;" horiz-adv-x="1101" d="M193 0q20 140 20 410v501q0 264 -20 410l4 6q4 0 104 -6h539q74 0 123 6l4 -6q-4 -57 -4 -78q0 -22 4 -53l-4 -8l-358 21q-108 4 -199 3q-16 -56 -17 -295v-159q217 0 457 20l6 -6q-6 -28 -6 -66t6 -65l-6 -6q-202 20 -457 20v-239q0 -237 17 -295q123 0 267 6t227 12 l83 6l4 -8q-4 -33 -4 -68q0 -11 4 -63l-4 -6q-50 6 -123 6h-559l-106 -6zM297 1538q0 62 58 89q21 9 40 9q62 0 89 -57q9 -21 10 -41q0 -62 -58 -89q-21 -9 -41 -9q-62 0 -89 57q-9 21 -9 41zM684 1538q0 62 58 89q21 9 40 9q62 0 89 -57q9 -21 10 -41q0 -62 -58 -89 q-21 -9 -41 -9q-62 0 -89 57q-9 21 -9 41z" />
<glyph unicode="&#xcc;" horiz-adv-x="602" d="M47 1581q65 61 156 92l248 -172q30 -24 30 -43q-6 -25 -30 -31q-33 1 -89 25zM193 0q20 140 20 410v501q0 264 -20 410l4 6q37 -6 104 -6t105 6l4 -6q-20 -137 -21 -410v-501q0 -264 21 -410l-4 -6q-37 6 -105 6q-67 0 -104 -6z" />
<glyph unicode="&#xcd;" horiz-adv-x="602" d="M145 1458q4 23 31 43l254 176q88 -42 127 -106l-295 -119q-58 -24 -86 -25q-28 3 -31 31zM193 0q20 140 20 410v501q0 264 -20 410l4 6q37 -6 104 -6t105 6l4 -6q-20 -137 -21 -410v-501q0 -264 21 -410l-4 -6q-37 6 -105 6q-67 0 -104 -6z" />
<glyph unicode="&#xce;" horiz-adv-x="602" d="M51 1456q89 68 203 193h88q85 -100 207 -193l-33 -43q-127 59 -217 127q-104 -75 -219 -127zM193 0q20 140 20 410v501q0 264 -20 410l4 6q37 -6 104 -6t105 6l4 -6q-20 -137 -21 -410v-501q0 -264 21 -410l-4 -6q-37 6 -105 6q-67 0 -104 -6z" />
<glyph unicode="&#xcf;" horiz-adv-x="602" d="M27 1536q0 62 57 89q21 9 41 9q62 0 89 -57q9 -21 9 -41q0 -62 -57 -89q-21 -9 -41 -9q-62 0 -89 57q-9 21 -9 41zM193 0q20 140 20 410v501q0 264 -20 410l4 6q37 -6 104 -6t105 6l4 -6q-20 -137 -21 -410v-501q0 -264 21 -410l-4 -6q-37 6 -105 6q-67 0 -104 -6z M414 1536q0 62 57 89q21 9 41 9q62 0 89 -57q9 -21 9 -41q0 -62 -57 -89q-21 -9 -41 -9q-62 0 -89 57q-9 21 -9 41z" />
<glyph unicode="&#xd0;" horiz-adv-x="1454" d="M35 588v80h178v243q0 264 -20 410l4 6q4 0 104 -6q66 0 169 3q105 3 169 3q288 0 495 -199q203 -195 213 -471q0 -14 1 -26q0 -422 -341 -571q-149 -64 -331 -64q-115 0 -226 2q-85 2 -149 2l-106 -6l-2 6q20 140 20 410v178h-178zM389 168q0 -52 39 -67q45 -15 184 -15 q325 0 442 167q82 120 83 329q0 363 -204 535q-144 120 -372 120q-142 0 -165 -49q-6 -16 -7 -33v-487h201v-80h-201v-420z" />
<glyph unicode="&#xd1;" horiz-adv-x="1470" d="M201 0q44 441 27 1134q-3 102 -7 187l4 6q10 0 86 -6l29 4l702 -909q82 -106 97 -113t20 19q3 15 4 43v546q0 264 -20 410l4 6q38 -6 72 -6q36 0 71 6l4 -6q-24 -330 -37 -1101q-2 -98 -4 -177q-6 -62 -39 -63q-52 2 -88 49l-714 903q-60 77 -71 66q-9 -13 -9 -99v-489 q0 -264 20 -410l-4 -6q-38 6 -72 6q-36 0 -71 -6zM436 1440q40 167 141 181q12 1 23 1q67 -1 148 -57q60 -45 106 -45q57 0 87 67q8 18 15 39l50 -12q-37 -184 -179 -184q-53 1 -131 53q-74 44 -110 45q-66 0 -95 -83q-3 -9 -6 -15z" />
<glyph unicode="&#xd2;" horiz-adv-x="1517" d="M106 635q0 309 195 516q187 196 453 197q293 0 480 -199q176 -190 177 -475q0 -336 -211 -531q-179 -162 -444 -163q-282 0 -468 187q-181 185 -182 468zM317 670q0 -331 199 -498q124 -102 281 -102q218 0 326 204q76 145 77 361q0 481 -296 593q-80 29 -177 29 q-192 0 -306 -169q-103 -157 -104 -418zM467 1585q65 61 156 92l247 -172q30 -24 31 -43q-6 -25 -31 -30q-33 1 -88 24z" />
<glyph unicode="&#xd3;" horiz-adv-x="1517" d="M106 635q0 309 195 516q187 196 453 197q293 0 480 -199q176 -190 177 -475q0 -336 -211 -531q-179 -162 -444 -163q-282 0 -468 187q-181 185 -182 468zM317 670q0 -331 199 -498q124 -102 281 -102q218 0 326 204q76 145 77 361q0 481 -296 593q-80 29 -177 29 q-192 0 -306 -169q-103 -157 -104 -418zM508 1460q4 23 31 43l254 176q88 -42 127 -106l-295 -119q-58 -24 -86 -24q-28 3 -31 30z" />
<glyph unicode="&#xd4;" horiz-adv-x="1517" d="M106 635q0 309 195 516q187 196 453 197q293 0 480 -199q176 -190 177 -475q0 -336 -211 -531q-179 -162 -444 -163q-282 0 -468 187q-181 185 -182 468zM317 670q0 -331 199 -498q124 -102 281 -102q218 0 326 204q76 145 77 361q0 481 -296 593q-80 29 -177 29 q-192 0 -306 -169q-103 -157 -104 -418zM504 1456q89 68 203 193h88q85 -100 206 -193l-32 -43q-127 59 -217 127q-104 -75 -220 -127z" />
<glyph unicode="&#xd5;" horiz-adv-x="1517" d="M106 635q0 309 195 516q187 196 453 197q293 0 480 -199q176 -190 177 -475q0 -336 -211 -531q-179 -162 -444 -163q-282 0 -468 187q-181 185 -182 468zM317 670q0 -331 199 -498q124 -102 281 -102q218 0 326 204q76 145 77 361q0 481 -296 593q-80 29 -177 29 q-192 0 -306 -169q-103 -157 -104 -418zM453 1440q40 167 141 181q12 1 22 1q67 -1 148 -57q60 -45 106 -45q57 0 88 67q8 18 15 39l49 -12q-37 -184 -178 -184q-53 1 -131 53q-74 44 -111 45q-66 0 -95 -83l-5 -15z" />
<glyph unicode="&#xd6;" horiz-adv-x="1517" d="M106 635q0 309 195 516q187 196 453 197q293 0 480 -199q176 -190 177 -475q0 -336 -211 -531q-179 -162 -444 -163q-282 0 -468 187q-181 185 -182 468zM193 1452q0 60 56 84q18 8 38 8q62 0 85 -57q7 -18 7 -35q0 -62 -57 -85q-17 -7 -35 -7q-61 0 -86 55q-8 19 -8 37z M317 670q0 -331 199 -498q124 -102 281 -102q218 0 326 204q76 145 77 361q0 481 -296 593q-80 29 -177 29q-192 0 -306 -169q-103 -157 -104 -418zM1141 1452q0 62 57 85q17 7 35 7q62 0 85 -57q7 -18 7 -35q0 -62 -57 -85q-17 -7 -35 -7q-62 0 -85 57q-7 18 -7 35z" />
<glyph unicode="&#xd7;" horiz-adv-x="1079" d="M217 221l252 250l-252 252l74 72l250 -252l250 252l71 -72l-252 -252l252 -250l-71 -71l-250 249l-250 -249z" />
<glyph unicode="&#xd8;" horiz-adv-x="1517" d="M106 635q0 309 195 516q187 196 453 197q208 -1 370 -107l86 107q50 0 70 -47q3 -9 4 -15l-84 -104q210 -193 211 -508q0 -336 -211 -531q-179 -162 -444 -163q-240 1 -416 140l-119 -147q-49 0 -70 53q-3 8 -4 13l121 149q-161 182 -162 447zM317 670q1 -191 72 -334 l653 804q-121 116 -315 117q-192 0 -306 -169q-103 -157 -104 -418zM444 248q144 -173 353 -178q218 0 326 204q76 145 77 361q-1 270 -97 427z" />
<glyph unicode="&#xd9;" horiz-adv-x="1417" d="M193 1321l4 6q37 -6 104 -6t105 6l4 -6q-20 -137 -21 -410v-360q5 -454 344 -457q300 0 361 257q20 84 20 216v344q0 264 -20 410l4 6q38 -6 71 -6q36 0 72 6l4 -6q-20 -137 -20 -410v-307q0 -435 -243 -563q-118 -61 -292 -61q-242 0 -371 156q-105 130 -106 347v428 q0 264 -20 410zM532 1583q65 61 156 92l248 -172q30 -24 31 -43q-6 -25 -31 -30q-33 1 -88 24z" />
<glyph unicode="&#xda;" horiz-adv-x="1417" d="M193 1321l4 6q37 -6 104 -6t105 6l4 -6q-20 -137 -21 -410v-360q5 -454 344 -457q300 0 361 257q20 84 20 216v344q0 264 -20 410l4 6q38 -6 71 -6q36 0 72 6l4 -6q-20 -137 -20 -410v-307q0 -435 -243 -563q-118 -61 -292 -61q-242 0 -371 156q-105 130 -106 347v428 q0 264 -20 410zM586 1458q4 23 30 43l254 176q88 -42 127 -106l-295 -119q-58 -24 -86 -25q-28 3 -30 31z" />
<glyph unicode="&#xdb;" horiz-adv-x="1417" d="M193 1321l4 6q37 -6 104 -6t105 6l4 -6q-20 -137 -21 -410v-360q5 -454 344 -457q300 0 361 257q20 84 20 216v344q0 264 -20 410l4 6q38 -6 71 -6q36 0 72 6l4 -6q-20 -137 -20 -410v-307q0 -435 -243 -563q-118 -61 -292 -61q-242 0 -371 156q-105 130 -106 347v428 q0 264 -20 410zM528 1456q89 68 203 193h88q85 -100 207 -193l-33 -43q-127 59 -217 127q-104 -75 -219 -127z" />
<glyph unicode="&#xdc;" horiz-adv-x="1417" d="M193 1321l4 6q37 -6 104 -6t105 6l4 -6q-20 -137 -21 -410v-360q5 -454 344 -457q300 0 361 257q20 84 20 216v344q0 264 -20 410l4 6q38 -6 71 -6q36 0 72 6l4 -6q-20 -137 -20 -410v-307q0 -435 -243 -563q-118 -61 -292 -61q-242 0 -371 156q-105 130 -106 347v428 q0 264 -20 410zM492 1452q0 62 56 85q17 7 36 7q62 0 85 -57q7 -18 7 -35q0 -62 -57 -85q-17 -7 -35 -7q-62 0 -86 57q-6 18 -6 35zM848 1452q0 62 57 85q17 7 35 7q62 0 85 -57q7 -18 7 -35q0 -62 -57 -85q-17 -7 -35 -7q-62 0 -85 57q-7 18 -7 35z" />
<glyph unicode="&#xdd;" horiz-adv-x="1177" d="M33 1327q53 -6 117 -6q65 0 116 6q67 -130 330 -581l29 -50q230 361 358 631q38 -6 86 -6q46 0 86 6l-171 -260q-240 -362 -302 -483q5 -474 14 -590q-37 6 -102 6t-102 -6q14 159 14 569q-185 317 -443 718q-18 29 -30 46zM453 1460q4 23 30 43l254 176q88 -42 127 -106 l-295 -119q-58 -24 -86 -24q-28 3 -30 30z" />
<glyph unicode="&#xde;" horiz-adv-x="1116" d="M193 0q20 140 20 410v501q0 264 -20 410l4 6q37 -6 104 -6t105 6l4 -6q-14 -95 -19 -247q73 4 178 3q342 0 435 -233q26 -68 26 -142q0 -148 -113 -263q-137 -137 -376 -138q-107 0 -151 13q3 -192 20 -314l-4 -6q-37 6 -105 6q-67 0 -104 -6zM389 394q37 -9 141 -9 q290 20 299 317q-3 289 -262 291q-95 0 -178 -21v-61v-501v-16z" />
<glyph unicode="&#xdf;" horiz-adv-x="1110" d="M129 0q20 131 21 367v120q0 342 229 436q100 40 242 40q159 0 313 -44q15 -4 27 -8v-32l-222 -320q-4 -5 -6 -14q3 -7 10 -8q182 -8 252 -147q28 -58 29 -124q0 -126 -115 -214q-97 -71 -221 -72q-115 0 -218 54q-4 2 -5 3l-2 6q16 29 39 119l22 2q28 -51 99 -89 q36 -19 65 -20q162 5 164 205q0 92 -69 161q-74 70 -201 71q-9 0 -27 -5l-8 37q211 282 213 328q0 27 -127 37q-23 2 -41 2q-197 0 -251 -173q-24 -79 -24 -194v-153q0 -234 21 -371l-4 -6q-4 0 -101 6l-102 -6z" />
<glyph unicode="&#xe0;" d="M33 -4l434 975h117l165 -406q192 -475 238 -569q-26 4 -131 4q-50 0 -74 -4q-37 129 -111 330q-121 4 -177 4q-88 0 -194 -4q-87 -214 -118 -330q-20 4 -67 4q-63 0 -82 -4zM333 408q21 0 71 -2q60 -2 83 -3q68 1 154 4q-65 168 -149 363h-5l-47 -112zM365 1311l4 22 q65 46 133 47q14 0 30 -4l144 -258q12 -26 12 -49q-6 -18 -31 -22q-19 3 -59 40z" />
<glyph unicode="&#xe1;" d="M33 -4l434 975h117l165 -406q192 -475 238 -569q-26 4 -131 4q-50 0 -74 -4q-37 129 -111 330q-121 4 -177 4q-88 0 -194 -4q-87 -214 -118 -330q-20 4 -67 4q-63 0 -82 -4zM333 408q21 0 71 -2q60 -2 83 -3q68 1 154 4q-65 168 -149 363h-5l-47 -112zM379 1063 q2 23 23 57l155 244q13 4 29 4q64 -2 112 -47l7 -23l-236 -223q-39 -38 -61 -39q-23 6 -29 27z" />
<glyph unicode="&#xe2;" d="M33 -4l434 975h117l165 -406q192 -475 238 -569q-26 4 -131 4q-50 0 -74 -4q-37 129 -111 330q-121 4 -177 4q-88 0 -194 -4q-87 -214 -118 -330q-20 4 -67 4q-63 0 -82 -4zM262 1069q148 166 211 264h102q69 -111 207 -264l-43 -29q-145 109 -217 185q-92 -94 -219 -185 zM333 408q21 0 71 -2q60 -2 83 -3q68 1 154 4q-65 168 -149 363h-5l-47 -112z" />
<glyph unicode="&#xe3;" d="M33 -4l434 975h117l165 -406q192 -475 238 -569q-26 4 -131 4q-50 0 -74 -4q-37 129 -111 330q-121 4 -177 4q-88 0 -194 -4q-87 -214 -118 -330q-20 4 -67 4q-63 0 -82 -4zM244 1090q40 167 141 180l23 2q67 -1 147 -58q61 -45 107 -45q57 0 87 68q8 18 15 39l49 -12 q-37 -184 -178 -185q-53 1 -131 54q-74 44 -111 45q-66 0 -95 -83q-3 -9 -5 -16zM333 408q21 0 71 -2q60 -2 83 -3q68 1 154 4q-65 168 -149 363h-5l-47 -112z" />
<glyph unicode="&#xe4;" d="M33 -4l434 975h117l165 -406q192 -475 238 -569q-26 4 -131 4q-50 0 -74 -4q-37 129 -111 330q-121 4 -177 4q-88 0 -194 -4q-87 -214 -118 -330q-20 4 -67 4q-63 0 -82 -4zM260 1171q0 62 56 90q20 9 40 9q61 0 88 -58q8 -21 9 -41q0 -63 -58 -88q-19 -7 -39 -8 q-63 0 -88 58q-8 19 -8 38zM333 408q21 0 71 -2q60 -2 83 -3q68 1 154 4q-65 168 -149 363h-5l-47 -112zM606 1171q0 62 56 90q20 9 40 9q61 0 88 -58q8 -21 9 -41q0 -63 -58 -88q-19 -7 -39 -8q-63 0 -88 58q-8 19 -8 38z" />
<glyph unicode="&#xe5;" d="M33 -4l434 975h117l165 -406q192 -475 238 -569q-26 4 -131 4q-50 0 -74 -4q-37 129 -111 330q-121 4 -177 4q-88 0 -194 -4q-87 -214 -118 -330q-20 4 -67 4q-63 0 -82 -4zM333 408q21 0 71 -2q60 -2 83 -3q68 1 154 4q-65 168 -149 363h-5l-47 -112zM344 1190 q0 95 87 145q44 24 91 25q98 0 151 -81q26 -42 27 -89q0 -94 -85 -145q-44 -25 -93 -25q-98 0 -151 81q-26 43 -27 89zM420 1190q0 -73 57 -104q22 -11 45 -11q70 0 96 73q7 22 7 42q0 80 -64 107q-19 8 -39 8q-73 0 -96 -74q-6 -21 -6 -41z" />
<glyph unicode="&#xe6;" horiz-adv-x="1472" d="M72 -4q214 407 448 950q4 0 246 -4h416q74 0 123 6l4 -6q-4 -58 -4 -63q0 -14 4 -43l-4 -9l-212 19q-112 6 -229 6q-16 -56 -16 -279v-38q157 0 292 15q24 3 48 5l6 -6q-6 -29 -6 -57q0 -30 6 -58l-6 -6q-203 20 -340 21v-80q0 -210 16 -269q123 0 238 6.5t169 12.5l54 6 l4 -8q-4 -33 -4 -64q0 -12 1 -27l3 -26l-4 -6q-50 6 -123 6h-436l-104 -6l-3 6q21 126 21 367v82h-269q-142 -325 -190 -453q-20 4 -67 4q-63 0 -82 -4zM448 535h232v266q-9 68 -45 71q-37 0 -68 -63q-1 -3 -2 -4z" />
<glyph unicode="&#xe7;" horiz-adv-x="1032" d="M90 455q0 248 176 395q135 113 320 113q201 0 321 -67q32 -18 35 -19l4 -7l-47 -168l-27 -2q-71 122 -144 161q-60 30 -136 30q-322 -5 -324 -416q0 -254 144 -359q78 -56 188 -57q139 0 233 85q32 29 68 71l43 -51q-114 -153 -266 -178q-33 -5 -67 -6l-44 -117 q26 6 54 6q101 0 135 -76q10 -25 10 -51q0 -90 -106 -132q-52 -20 -113 -20q-74 1 -152 35q2 34 21 53q77 -29 119 -28q92 0 103 67q1 8 1 15q-4 69 -68 71q-54 -1 -92 -12l-12 12l74 179q-240 20 -368 207q-82 122 -83 266z" />
<glyph unicode="&#xe8;" horiz-adv-x="964" d="M156 0q20 125 20 367v208q0 244 -20 367l2 6q4 0 104 -6h416q74 0 123 6l4 -6q-4 -58 -4 -63q0 -14 4 -43l-4 -9l-217 19q-112 6 -228 6q-16 -56 -16 -279v-38q158 0 298 15q24 3 46 5l6 -6q-6 -29 -6 -57q0 -30 6 -58l-6 -6q-203 20 -344 21v-80q0 -210 16 -269 q123 0 239 6.5t171 12.5l55 6l4 -8q-4 -33 -4 -64q0 -12 2 -27.5t2 -25.5l-4 -6q-50 6 -123 6h-436l-104 -6zM301 1331l4 23q65 46 133 47q15 0 31 -4l143 -258q12 -26 13 -49q-6 -18 -31 -23q-19 3 -59 41z" />
<glyph unicode="&#xe9;" horiz-adv-x="964" d="M156 0q20 125 20 367v208q0 244 -20 367l2 6q4 0 104 -6h416q74 0 123 6l4 -6q-4 -58 -4 -63q0 -14 4 -43l-4 -9l-217 19q-112 6 -228 6q-16 -56 -16 -279v-38q158 0 298 15q24 3 46 5l6 -6q-6 -29 -6 -57q0 -30 6 -58l-6 -6q-203 20 -344 21v-80q0 -210 16 -269 q123 0 239 6.5t171 12.5l55 6l4 -8q-4 -33 -4 -64q0 -12 2 -27.5t2 -25.5l-4 -6q-50 6 -123 6h-436l-104 -6zM352 1057q2 23 24 57l154 244q13 4 29 4q64 -2 113 -47l6 -23l-236 -223q-39 -38 -61 -39q-23 6 -29 27z" />
<glyph unicode="&#xea;" horiz-adv-x="964" d="M156 0q20 125 20 367v208q0 244 -20 367l2 6q4 0 104 -6h416q74 0 123 6l4 -6q-4 -58 -4 -63q0 -14 4 -43l-4 -9l-217 19q-112 6 -228 6q-16 -56 -16 -279v-38q158 0 298 15q24 3 46 5l6 -6q-6 -29 -6 -57q0 -30 6 -58l-6 -6q-203 20 -344 21v-80q0 -210 16 -269 q123 0 239 6.5t171 12.5l55 6l4 -8q-4 -33 -4 -64q0 -12 2 -27.5t2 -25.5l-4 -6q-50 6 -123 6h-436l-104 -6zM240 1067q148 166 211 264h102q69 -111 207 -264l-43 -29q-145 109 -217 185q-92 -94 -219 -185z" />
<glyph unicode="&#xeb;" horiz-adv-x="964" d="M156 0q20 125 20 367v208q0 244 -20 367l2 6q4 0 104 -6h416q74 0 123 6l4 -6q-4 -58 -4 -63q0 -14 4 -43l-4 -9l-217 19q-112 6 -228 6q-16 -56 -16 -279v-38q158 0 298 15q24 3 46 5l6 -6q-6 -29 -6 -57q0 -30 6 -58l-6 -6q-203 20 -344 21v-80q0 -210 16 -269 q123 0 239 6.5t171 12.5l55 6l4 -8q-4 -33 -4 -64q0 -12 2 -27.5t2 -25.5l-4 -6q-50 6 -123 6h-436l-104 -6zM236 1174q0 62 55 89q20 9 41 9q61 0 87 -58q8 -21 9 -40q0 -63 -58 -89q-19 -7 -38 -8q-63 0 -89 58q-7 20 -7 39zM582 1174q0 62 56 89q20 9 40 9q61 0 87 -58 q8 -21 9 -40q0 -63 -58 -89q-19 -7 -38 -8q-63 0 -89 58q-7 20 -7 39z" />
<glyph unicode="&#xec;" horiz-adv-x="512" d="M61 1296l5 23q65 46 133 47q14 0 30 -4l144 -258q12 -26 12 -49q-6 -18 -31 -23q-19 3 -59 41zM154 0q20 125 20 367v208q0 244 -20 367l2 6q4 0 100 -6l98 6l4 -6q-17 -111 -20 -367v-208q0 -238 20 -367l-4 -6q-4 0 -98 6l-100 -6z" />
<glyph unicode="&#xed;" horiz-adv-x="512" d="M154 0q20 125 20 367v208q0 244 -20 367l2 6q4 0 100 -6l98 6l4 -6q-17 -111 -20 -367v-208q0 -238 20 -367l-4 -6q-4 0 -98 6l-100 -6zM176 1057q2 23 23 57l155 244q13 4 29 4q64 -2 113 -47l6 -23l-236 -223q-39 -38 -61 -39q-23 6 -29 27z" />
<glyph unicode="&#xee;" horiz-adv-x="512" d="M27 1069q148 166 211 264h102q69 -111 207 -264l-43 -29q-145 109 -217 185q-92 -94 -219 -185zM154 0q20 125 20 367v208q0 244 -20 367l2 6q4 0 100 -6l98 6l4 -6q-17 -111 -20 -367v-208q0 -238 20 -367l-4 -6q-4 0 -98 6l-100 -6z" />
<glyph unicode="&#xef;" horiz-adv-x="512" d="M10 1174q0 62 56 89q20 9 40 9q61 0 88 -58q8 -21 9 -40q0 -63 -58 -89q-19 -7 -39 -8q-63 0 -88 58q-8 20 -8 39zM154 0q20 125 20 367v208q0 244 -20 367l2 6q4 0 100 -6l98 6l4 -6q-17 -111 -20 -367v-208q0 -238 20 -367l-4 -6q-4 0 -98 6l-100 -6zM356 1174 q0 62 56 89q20 9 41 9q61 0 87 -58q8 -21 9 -40q0 -63 -58 -89q-19 -7 -38 -8q-63 0 -89 58q-8 20 -8 39z" />
<glyph unicode="&#xf0;" horiz-adv-x="1159" d="M61 426v80h115v69q0 244 -20 367l2 6q4 0 100 -6l127 3q118 3 150 3q258 0 403 -178q106 -132 106 -309q0 -332 -272 -431q-95 -34 -209 -34q-105 0 -233 3q-53 1 -72 1l-100 -6l-2 6q20 125 20 367v59h-115zM340 166q0 -60 50 -78q42 -14 124 -14q223 0 298 109 q56 84 56 243q0 257 -155 374q-96 70 -238 70q-133 -2 -135 -67v-297h149v-80h-149v-260z" />
<glyph unicode="&#xf1;" horiz-adv-x="1118" d="M154 0q14 93 14 293v356q0 195 -14 293l2 4q4 0 77 -4l72 4l500 -649q32 -39 39 -24q4 10 4 28v348q0 195 -14 293l4 4q4 0 53 -4l74 4v-4q-14 -111 -15 -293v-618q0 -33 -37 -48q-8 -3 -16 -3q-42 3 -74 40l-510 646q-41 45 -43 -25v-348q0 -195 15 -293l-2 -6 q-4 0 -60 6l-67 -6zM289 1090q40 167 141 180l23 2q67 -1 147 -58q61 -45 107 -45q57 0 87 68q8 18 15 39l49 -12q-37 -184 -178 -185q-53 1 -131 54q-74 44 -111 45q-66 0 -95 -83q-3 -9 -5 -16z" />
<glyph unicode="&#xf2;" horiz-adv-x="1167" d="M90 451q0 255 177 401q135 110 319 111q224 0 367 -156q123 -137 124 -330q0 -244 -165 -384q-136 -113 -343 -113q-240 0 -376 167q-102 127 -103 304zM270 475q0 -252 151 -360q78 -55 179 -56q198 0 267 194q29 85 30 196q0 260 -154 374q-79 57 -176 58 q-154 0 -237 -144q-60 -106 -60 -262zM375 1303l4 22q65 46 133 47q15 0 31 -4l143 -258q12 -26 12 -49q-6 -18 -30 -23q-19 3 -60 41z" />
<glyph unicode="&#xf3;" horiz-adv-x="1167" d="M90 451q0 255 177 401q135 110 319 111q224 0 367 -156q123 -137 124 -330q0 -244 -165 -384q-136 -113 -343 -113q-240 0 -376 167q-102 127 -103 304zM270 475q0 -252 151 -360q78 -55 179 -56q198 0 267 194q29 85 30 196q0 260 -154 374q-79 57 -176 58 q-154 0 -237 -144q-60 -106 -60 -262zM455 1057q2 23 23 57l155 244q13 4 29 4q64 -2 112 -47l6 -23l-235 -223q-39 -38 -62 -39q-23 6 -28 27z" />
<glyph unicode="&#xf4;" horiz-adv-x="1167" d="M90 451q0 255 177 401q135 110 319 111q224 0 367 -156q123 -137 124 -330q0 -244 -165 -384q-136 -113 -343 -113q-240 0 -376 167q-102 127 -103 304zM270 475q0 -252 151 -360q78 -55 179 -56q198 0 267 194q29 85 30 196q0 260 -154 374q-79 57 -176 58 q-154 0 -237 -144q-60 -106 -60 -262zM317 1061q148 166 211 264h103q69 -111 207 -264l-43 -29q-145 109 -217 185q-92 -94 -220 -185z" />
<glyph unicode="&#xf5;" horiz-adv-x="1167" d="M90 451q0 255 177 401q135 110 319 111q224 0 367 -156q123 -137 124 -330q0 -244 -165 -384q-136 -113 -343 -113q-240 0 -376 167q-102 127 -103 304zM270 475q0 -252 151 -360q78 -55 179 -56q198 0 267 194q29 85 30 196q0 260 -154 374q-79 57 -176 58 q-154 0 -237 -144q-60 -106 -60 -262zM276 1090q40 167 142 180q12 1 22 2q67 -1 148 -58q60 -45 106 -45q57 0 88 68q8 18 15 39l49 -12q-37 -184 -178 -185q-53 1 -131 54q-74 44 -111 45q-66 0 -95 -83q-3 -9 -5 -16z" />
<glyph unicode="&#xf6;" horiz-adv-x="1167" d="M90 451q0 255 177 401q135 110 319 111q224 0 367 -156q123 -137 124 -330q0 -244 -165 -384q-136 -113 -343 -113q-240 0 -376 167q-102 127 -103 304zM270 475q0 -252 151 -360q78 -55 179 -56q198 0 267 194q29 85 30 196q0 260 -154 374q-79 57 -176 58 q-154 0 -237 -144q-60 -106 -60 -262zM309 1171q0 62 56 90q20 9 41 9q61 0 87 -58q8 -21 9 -41q0 -63 -58 -88q-19 -7 -38 -8q-63 0 -89 58q-8 19 -8 38zM655 1171q0 62 56 90q20 9 41 9q61 0 87 -58q8 -21 9 -41q0 -63 -58 -88q-19 -7 -38 -8q-63 0 -89 58q-8 19 -8 38z " />
<glyph unicode="&#xf7;" horiz-adv-x="1079" d="M135 426v100h809v-100h-809zM447 203v6q26 65 93 93h7q70 -28 92 -93v-6q-27 -75 -92 -93h-7q-65 15 -86 71q-4 12 -7 22zM447 751v7q26 65 93 93h7q70 -28 92 -93v-7q-27 -75 -92 -92h-7q-65 15 -86 71q-4 11 -7 21z" />
<glyph unicode="&#xf8;" horiz-adv-x="1167" d="M90 451q0 255 177 401q135 110 319 111q139 -1 253 -66l81 113l59 -39l-81 -114q178 -142 179 -380q0 -244 -165 -384q-136 -113 -343 -113q-139 1 -250 61l-96 -135l-59 39l96 136q-170 134 -170 370zM270 475q1 -168 73 -278l428 603q-88 80 -204 81q-154 0 -237 -144 q-60 -106 -60 -262zM390 141q87 -80 210 -82q198 0 267 194q29 85 30 196q-1 179 -79 295z" />
<glyph unicode="&#xf9;" horiz-adv-x="1128" d="M156 942l2 6q4 0 102 -6l100 6l5 -6q-20 -132 -21 -369v-159q0 -222 71 -296q60 -60 171 -61q215 0 255 197q13 64 13 178v141q0 246 -20 369l2 6q2 0 69 -6l68 6l4 -6q-21 -132 -21 -369v-114q0 -307 -142 -411q-97 -68 -263 -68q-151 0 -260 101q-114 108 -115 290v202 q0 246 -20 369zM381 1303l4 22q65 46 133 47q15 0 31 -4l143 -258q12 -26 13 -49q-6 -18 -31 -23q-19 3 -60 41z" />
<glyph unicode="&#xfa;" horiz-adv-x="1128" d="M156 942l2 6q4 0 102 -6l100 6l5 -6q-20 -132 -21 -369v-159q0 -222 71 -296q60 -60 171 -61q215 0 255 197q13 64 13 178v141q0 246 -20 369l2 6q2 0 69 -6l68 6l4 -6q-21 -132 -21 -369v-114q0 -307 -142 -411q-97 -68 -263 -68q-151 0 -260 101q-114 108 -115 290v202 q0 246 -20 369zM524 1057q2 23 24 57l154 244q13 4 29 4q64 -2 113 -47l6 -23l-236 -223q-39 -38 -61 -39q-23 6 -29 27z" />
<glyph unicode="&#xfb;" horiz-adv-x="1128" d="M156 942l2 6q4 0 102 -6l100 6l5 -6q-20 -132 -21 -369v-159q0 -222 71 -296q60 -60 171 -61q215 0 255 197q13 64 13 178v141q0 246 -20 369l2 6q2 0 69 -6l68 6l4 -6q-21 -132 -21 -369v-114q0 -307 -142 -411q-97 -68 -263 -68q-151 0 -260 101q-114 108 -115 290v202 q0 246 -20 369zM348 1059q148 166 211 264h103q69 -111 206 -264l-43 -29q-145 109 -217 184q-92 -94 -219 -184z" />
<glyph unicode="&#xfc;" horiz-adv-x="1128" d="M156 942l2 6q4 0 102 -6l100 6l5 -6q-20 -132 -21 -369v-159q0 -222 71 -296q60 -60 171 -61q215 0 255 197q13 64 13 178v141q0 246 -20 369l2 6q2 0 69 -6l68 6l4 -6q-21 -132 -21 -369v-114q0 -307 -142 -411q-97 -68 -263 -68q-151 0 -260 101q-114 108 -115 290v202 q0 246 -20 369zM352 1171q0 62 56 90q20 9 41 9q61 0 87 -58q8 -21 9 -41q0 -63 -58 -88q-19 -7 -38 -8q-63 0 -89 58q-8 19 -8 38zM698 1171q0 62 56 90q20 9 41 9q61 0 87 -58q8 -21 9 -41q0 -63 -58 -88q-19 -7 -38 -8q-63 0 -89 58q-8 19 -8 38z" />
<glyph unicode="&#xfd;" horiz-adv-x="915" d="M45 948q40 -6 96 -6q59 0 97 6q43 -84 243 -430q155 248 242 430q28 -6 74 -6q45 0 73 6q-275 -422 -310 -486l-25 -46q3 -327 12 -422q-34 6 -88 6q-51 0 -88 -6q10 93 10 407q-205 351 -332 542q-2 4 -4 5zM354 1069q2 23 24 57l154 244q13 4 29 4q64 -2 113 -47l6 -22 l-236 -224q-39 -38 -61 -39q-23 6 -29 27z" />
<glyph unicode="&#xfe;" horiz-adv-x="921" d="M139 0q20 125 21 367v208q0 244 -21 367l2 6q4 0 101 -6l98 6l4 -6q-13 -84 -17 -178q98 4 146 4q298 0 354 -201q10 -39 11 -80q0 -125 -106 -209q-106 -83 -281 -83q-91 0 -126 9q4 -111 19 -204l-4 -6q-4 0 -98 6l-101 -6zM324 274q26 -7 118 -8q168 0 207 114 q14 46 15 109q0 169 -120 198q-33 7 -73 7q-71 0 -146 -15q-1 -38 -1 -104v-208v-93z" />
<glyph unicode="&#xff;" horiz-adv-x="915" d="M45 948q40 -6 96 -6q59 0 97 6q43 -84 243 -430q155 248 242 430q28 -6 74 -6q45 0 73 6q-275 -422 -310 -486l-25 -46q3 -327 12 -422q-34 6 -88 6q-51 0 -88 -6q10 93 10 407q-205 351 -332 542q-2 4 -4 5zM221 1171q0 62 56 90q20 9 40 9q61 0 88 -58q8 -21 9 -41 q0 -63 -58 -88q-19 -7 -39 -8q-63 0 -88 58q-8 19 -8 38zM567 1171q0 62 56 90q20 9 41 9q61 0 87 -58q8 -21 9 -41q0 -63 -58 -88q-19 -7 -38 -8q-63 0 -89 58q-8 19 -8 38z" />
<glyph unicode="&#x152;" horiz-adv-x="1716" d="M86 651q0 309 185 500q168 171 423 172q2 0 238 -2h538q74 0 123 6l4 -6q-4 -58 -4 -64q0 -22 4 -53l-4 -8l-357 21q-108 4 -200 4q-16 -56 -16 -310v-168q217 0 457 21l6 -6q-6 -29 -6 -58q0 -30 6 -57l-6 -6q-202 20 -457 20v-247q0 -241 16 -299q123 0 267.5 6 t227.5 12l83 6l4 -8q-4 -33 -4 -68q0 -7 4 -59l-4 -6q-50 6 -123 6h-559l-215 -4q-310 2 -488 222q-143 179 -143 433zM297 670q0 -391 214 -534q91 -59 202 -60h26q90 0 102 52q3 14 3 30v1007q0 60 -46 71q-22 5 -59 5h-71q-287 0 -353 -350q-18 -99 -18 -221z" />
<glyph unicode="&#x153;" horiz-adv-x="1484" d="M59 434q0 246 169 393q140 120 343 121q2 0 24 -1q123 -5 183 -5h416q74 0 123 6l4 -6q-4 -58 -4 -63q0 -14 4 -43l-4 -9l-212 19q-112 6 -228 6q-16 -56 -17 -279v-38q157 0 292 15q24 3 48 5l6 -6q-6 -29 -6 -57q0 -30 6 -58l-6 -6q-203 20 -340 21v-80q0 -210 17 -269 q123 0 237.5 6.5t168.5 12.5l54 6l4 -8q-4 -33 -4 -64q0 -12 2 -27.5t2 -25.5l-4 -6q-50 6 -123 6h-436q-48 0 -139 -4q-51 -2 -66 -2q-338 0 -459 212q-55 98 -55 228zM240 459q0 -311 230 -384q62 -20 134 -20q77 0 86 44q2 11 2 24v700q0 54 -68 63q-26 3 -73 3 q-160 0 -246 -146q-65 -112 -65 -284z" />
<glyph unicode="&#x178;" horiz-adv-x="1191" d="M33 1327q53 -6 117 -6q65 0 116 6q67 -130 330 -581l29 -50q230 361 358 631q38 -6 86 -6q46 0 86 6l-171 -260q-240 -362 -302 -483q5 -474 14 -590q-37 6 -102 6t-102 -6q14 159 14 569q-185 317 -443 718q-18 29 -30 46zM358 1536q0 62 56 89q20 9 41 9q61 0 87 -57 q8 -21 9 -41q0 -63 -58 -88q-19 -7 -38 -8q-63 0 -89 58q-8 19 -8 38zM705 1536q0 62 55 89q20 9 41 9q61 0 87 -57q8 -21 9 -41q0 -63 -58 -88q-19 -7 -38 -8q-63 0 -89 58q-7 19 -7 38z" />
<glyph unicode="&#x2c6;" horiz-adv-x="714" d="M102 1104q148 166 211 264h103q69 -111 207 -264l-43 -29q-145 109 -218 185q-92 -94 -219 -185z" />
<glyph unicode="&#x2dc;" horiz-adv-x="598" d="M10 1186q40 167 141 181q11 1 23 1q67 -1 148 -57q60 -45 106 -45q57 0 87 67q8 18 15 39l50 -12q-37 -184 -179 -184q-53 1 -131 53q-74 44 -110 45q-66 0 -95 -83q-3 -9 -6 -15z" />
<glyph unicode="&#x2013;" horiz-adv-x="1093" d="M92 522q0 33 32 57q12 8 21 9h828q27 -3 28 -35q0 -33 -31 -57q-11 -8 -22 -9h-827q-27 3 -29 35z" />
<glyph unicode="&#x2014;" horiz-adv-x="1519" d="M59 487v101h1401v-101h-1401z" />
<glyph unicode="&#x2018;" horiz-adv-x="548" d="M150 1239q0 144 118 230q29 20 94 59q26 -25 27 -43q-151 -114 -160 -193q3 -53 60 -53q73 -16 94 -53q9 -18 16 -43v-8q-30 -77 -110 -111h-8q-130 51 -131 215z" />
<glyph unicode="&#x2019;" horiz-adv-x="548" d="M150 1325v8q30 77 110 111h8q130 -51 131 -215q0 -144 -118 -230q-29 -20 -95 -59q-26 25 -26 43q151 114 159 193q-3 53 -59 53q-73 16 -94 53q-9 18 -16 43z" />
<glyph unicode="&#x201a;" horiz-adv-x="548" d="M150 90v8q30 77 110 111h8q130 -51 131 -215q0 -144 -118 -230q-29 -20 -95 -59q-26 25 -26 43q151 114 159 193q-3 53 -59 53q-73 16 -94 53q-9 18 -16 43z" />
<glyph unicode="&#x201c;" horiz-adv-x="788" d="M98 1241q0 144 119 230q29 20 94 59q26 -25 27 -43q-151 -114 -160 -193q3 -53 60 -53q73 -16 94 -53q9 -18 16 -43v-8q-30 -77 -110 -111h-9q-130 51 -131 215zM440 1241q0 144 119 230q29 20 94 59q26 -25 27 -43q-151 -114 -160 -193q3 -53 60 -53q73 -16 94 -53 q9 -18 16 -43v-8q-30 -77 -110 -111h-9q-130 51 -131 215z" />
<glyph unicode="&#x201d;" horiz-adv-x="788" d="M100 1325v8q30 77 111 111h8q130 -51 131 -215q0 -144 -119 -230q-29 -20 -94 -59q-26 25 -26 43q151 114 159 193q-3 53 -59 53q-73 16 -94 53q-10 18 -17 43zM442 1325v8q30 77 111 111h8q130 -51 131 -215q0 -144 -119 -230q-29 -20 -94 -59q-26 25 -26 43 q151 114 159 193q-3 53 -59 53q-73 16 -94 53q-10 18 -17 43z" />
<glyph unicode="&#x201e;" horiz-adv-x="788" d="M100 88v8q30 77 111 111h8q130 -51 131 -215q0 -144 -119 -230q-29 -20 -94 -59q-26 25 -26 43q151 114 159 193q-3 53 -59 53q-73 16 -94 53q-10 18 -17 43zM442 88v8q30 77 111 111h8q130 -51 131 -215q0 -144 -119 -230q-29 -20 -94 -59q-26 25 -26 43 q151 114 159 193q-3 53 -59 53q-73 16 -94 53q-10 18 -17 43z" />
<glyph unicode="&#x2022;" horiz-adv-x="718" d="M127 471q0 124 102 193q61 40 131 41q124 0 194 -103q40 -61 40 -131q0 -124 -102 -193q-61 -40 -132 -40q-124 0 -193 102q-39 60 -40 131z" />
<glyph unicode="&#x2026;" horiz-adv-x="1533" d="M111 90v8q30 77 110 111h8q84 -33 111 -111v-8q-27 -86 -101 -108q-6 -2 -10 -2h-8q-76 17 -100 79q-6 15 -10 31zM653 90v8q30 77 111 111h8q84 -33 111 -111v-8q-27 -86 -102 -108q-6 -2 -9 -2h-8q-76 17 -101 79q-6 15 -10 31zM1194 90v8q30 77 111 111h8 q84 -33 110 -111v-8q-27 -86 -101 -108q-6 -2 -9 -2h-8q-76 17 -101 79q-6 15 -10 31z" />
<glyph unicode="&#x2039;" horiz-adv-x="743" d="M152 578v24q172 152 378 375q39 -7 50 -39q-140 -211 -261 -348q123 -140 261 -348q-11 -33 -50 -39q-210 226 -378 375z" />
<glyph unicode="&#x203a;" horiz-adv-x="743" d="M150 238q139 211 260 348q-123 140 -260 348q11 33 49 39q210 -226 379 -375v-25q-172 -152 -379 -374q-39 7 -49 39z" />
<glyph unicode="&#x20ac;" horiz-adv-x="952" d="M0 487v21l43 55h72q-1 20 0 39q0 36 2 72h-86l2 22l43 54h49q43 313 248 438q103 61 229 61q96 0 172 -22.5t104 -45.5l27 -24l4 -8q-34 -130 -36 -147q-3 -26 -5 -62l-22 -2q-62 148 -116 186q-54 37 -159 37q-120 0 -196 -144q-56 -107 -71 -267h484l-38 -76h-450 q-1 -21 -1 -43q0 -37 1 -68h413l-39 -76h-368q35 -338 210 -399q36 -12 74 -12q116 0 163 51q30 33 95 164l22 -2q7 -67 37 -179q2 -9 4 -16l-4 -6l-57 -42q-113 -69 -242 -69q-360 0 -459 353q-20 74 -29 157h-120z" />
<glyph unicode="&#x2122;" horiz-adv-x="1628" d="M27 1190l39 184l49 -16q0 -2 -2 -8.5t-3 -10.5l-1 -4h477q-1 2 -6 23l51 16l39 -186l-47 -10q-24 90 -52 100q-13 4 -30 4h-88q-26 -17 -29 -43v-541q5 -48 61 -49h29q8 -3 10 -10v-27l-2 -2q-2 0 -170 2l-168 -2l-2 2v27q3 8 11 10h28q60 7 64 49v543q-3 40 -29 41h-104 q-42 0 -59 -36q-10 -24 -21 -68zM684 612v17q4 14 37 14h29q14 3 22 62q6 84 20 263q15 191 21 281v6v5q-2 33 -18 34h-33q-33 4 -35 13v16l10 12h183l229 -542l84 207l135 335h168l6 -12v-16q-2 -12 -35 -13h-30q-17 -4 -19 -32v-13l47 -544q9 -60 25 -62h29q37 -2 38 -14 v-17l-12 -12q-2 0 -133 4l-135 -4l-12 12v17q3 13 34 14h29q12 3 12 47v15l-34 403l-203 -498q-10 -19 -33 -20q-22 2 -35 20q-1 2 -205 488q-16 -261 -28 -396v-12q1 -45 14 -47h31q32 -2 35 -14v-17l-7 -12q-2 0 -124 4l-97 -4z" />
<glyph unicode="&#xe000;" horiz-adv-x="950" d="M0 950h950v-950h-950v950z" />
<glyph unicode="&#xfb01;" horiz-adv-x="1179" d="M39 799q29 46 45 84q32 -4 119 -4v79q0 145 62 242q16 25 50 72q116 155 316 155q62 -1 92 -18l2 -6q-25 -45 -57 -168l-23 -2q-42 70 -119 72q-126 0 -160 -133q-9 -38 -10 -78q0 -15 4 -67q6 -87 7 -130v-18h88q40 0 143 4l10 -15q-17 -42 -24 -84q-43 4 -148 4h-69 v-380q0 -271 20 -408l-4 -6q-37 6 -98 6t-99 -6l-4 6q20 131 21 408v380h-2q-94 0 -152 -4zM795 1223q0 62 58 92q23 11 46 12q62 0 93 -58q11 -23 12 -46q0 -62 -59 -93q-23 -11 -46 -12q-62 0 -93 59q-10 23 -11 46zM797 0q18 140 18 369v112q0 272 -18 398l4 6 q88 -7 178 2q17 -9 18 -21q-18 -175 -18 -352v-145q0 -224 18 -369l-4 -6q-37 6 -96 6t-96 -6z" />
<glyph unicode="&#xfb02;" horiz-adv-x="1163" d="M39 799q29 46 45 84q32 -4 119 -4v79q0 145 62 242q16 25 50 72q116 155 316 155q62 -1 92 -18l2 -6q-25 -45 -57 -168l-23 -2q-42 70 -119 72q-126 0 -160 -133q-9 -38 -10 -78q0 -15 4 -67q6 -87 7 -130v-18h88q40 0 143 4l10 -15q-17 -42 -24 -84q-43 4 -148 4h-69 v-380q0 -271 20 -408l-4 -6q-37 6 -98 6t-99 -6l-4 6q20 131 21 408v380h-2q-94 0 -152 -4zM797 0q18 134 18 410v577q0 293 -18 395l4 7q94 8 178 41q17 -4 18 -21q-18 -250 -18 -385v-614q0 -275 18 -410l-4 -6q-37 6 -96 6t-96 -6z" />
<glyph unicode="&#xfb03;" horiz-adv-x="1728" d="M45 801v37q9 36 47 41h98v82q0 145 62 241q16 25 51 72q116 155 315 156q62 -1 93 -19l2 -6q-25 -45 -58 -168l-22 -2q-42 70 -119 72q-126 0 -160 -133q-9 -38 -10 -78q0 -17 5 -83q6 -85 5 -114v-20h185h36h185v82q0 145 62 241q16 25 50 72q116 155 316 156 q62 -1 92 -19l2 -6q-25 -45 -57 -168l-23 -2q-42 70 -119 72q-126 0 -160 -133q-9 -38 -10 -78q0 -17 5 -83q6 -85 6 -114v-20h221q14 -3 16 -13v-51q-2 -25 -47 -27h-190v-378q0 -273 20 -410l-4 -6q-4 0 -98 6l-101 -6l-2 6q20 131 21 410v378h-215h-43h-148v-378 q0 -273 21 -410l-4 -6q-4 0 -99 6l-100 -6l-2 6q20 131 20 410v378h-135q-9 4 -10 13zM1343 1223q0 62 59 92q23 11 46 12q62 0 93 -58q11 -23 11 -46q0 -62 -58 -93q-23 -11 -46 -12q-62 0 -93 59q-11 23 -12 46zM1346 0q18 140 18 369v112q0 272 -18 398l4 6q88 -7 178 2 q17 -9 18 -21q-18 -175 -18 -352v-145q0 -224 18 -369l-4 -6q-37 6 -96 6t-96 -6z" />
<glyph unicode="&#xfb04;" horiz-adv-x="1794" d="M45 801v37q9 36 47 41h98v82q0 145 62 241q16 25 51 72q116 155 315 156q62 -1 93 -19l2 -6q-25 -45 -58 -168l-22 -2q-42 70 -119 72q-126 0 -160 -133q-9 -38 -10 -78q0 -17 5 -83q6 -85 5 -114v-20h185h36h185v82q0 145 62 241q16 25 50 72q116 155 316 156 q62 -1 92 -19l2 -6q-25 -45 -57 -168l-23 -2q-42 70 -119 72q-126 0 -160 -133q-9 -38 -10 -78q0 -17 5 -83q6 -85 6 -114v-20h221q14 -3 16 -13v-51q-2 -25 -47 -27h-190v-378q0 -273 20 -410l-4 -6q-4 0 -98 6l-101 -6l-2 6q20 131 21 410v378h-215h-43h-148v-378 q0 -273 21 -410l-4 -6q-4 0 -99 6l-100 -6l-2 6q20 131 20 410v378h-135q-9 4 -10 13zM1366 0q18 134 18 410v577q0 293 -18 395l4 7q94 8 178 41q17 -4 19 -21q-18 -250 -19 -385v-614q0 -275 19 -410l-4 -6q-37 6 -97 6q-59 0 -96 -6z" />
</font>
</defs>
</svg>
