<?xml version="1.0" standalone="no"?>
<!DOCTYPE svg PUBLIC "-//W3C//DTD SVG 1.1//EN" "http://www.w3.org/Graphics/SVG/1.1/DTD/svg11.dtd" >
<svg xmlns="http://www.w3.org/2000/svg">
<metadata>
This is a custom SVG webfont generated by Font Squirrel.
Copyright   : Linux Libertine by Philipp H PollOpen Font under Terms of following Free Software LicensesGPL General Public License with fontexception and OFL Open Font LicenseCreated with FontForge httpfontforgesfnetSept 2003 2004 2005 2006 2007 2008 2009 2010 2011
Designer    : Philipp H Poll
Foundry     : Philipp H Poll
Foundry URL : httpwwwlinuxlibertineorg
</metadata>
<defs>
<font id="LinuxBiolinumCapitBdSmallCaps" horiz-adv-x="1052" >
<font-face units-per-em="2048" ascent="1638" descent="-410" />
<missing-glyph horiz-adv-x="512" />
<glyph unicode=" "  horiz-adv-x="512" />
<glyph unicode="&#x09;" horiz-adv-x="512" />
<glyph unicode="&#xa0;" horiz-adv-x="512" />
<glyph unicode="!" horiz-adv-x="552" d="M127 98v11q37 94 128 133q7 3 13 6h8q97 -34 135 -121l7 -18v-11q-35 -102 -114 -131q-14 -5 -28 -8h-8q-93 20 -124 90q-10 22 -17 49zM129 1198q0 106 97 141q23 9 44 9q77 0 122 -64q25 -38 26 -86q0 -72 -36 -255q-15 -77 -24 -140q-11 -82 -33 -361q-1 -8 -1 -12 q-3 -29 -40 -39q-8 -2 -14 -2q-37 0 -49 22q-1 3 -2 5q-1 11 -5 59q-16 210 -30 328q-9 76 -30 184q-25 130 -25 211z" />
<glyph unicode="&#x22;" horiz-adv-x="768" d="M125 1210q0 60 61 94q33 17 72 17q87 -15 92 -76l-76 -371l-53 -12l-31 8zM418 1212q0 60 61 94q33 17 72 17q87 -15 92 -76l-76 -370l-53 -13l-31 8z" />
<glyph unicode="#" d="M58 383l19 135h205q31 194 34 219h-204l18 135h205l30 178q20 118 29 177h115l-62 -355h199l29 178l28 177h107l-55 -355h239l-18 -135h-242l-35 -219h242l-16 -135h-244l-26 -159l-31 -195h-109l59 354h-196l-29 -166q-21 -125 -33 -188h-112l57 354h-203zM394 518h197 l35 219h-193q-6 -38 -19 -109z" />
<glyph unicode="$" d="M92 68q23 93 39 223l37 2q70 -104 204 -173q48 -24 89 -35l34 465q-325 134 -366 312q-6 29 -6 58q0 177 172 270q111 59 252 59l12 163q28 10 84 10l-14 -177q178 -18 295 -82l4 -6q-21 -76 -39 -219l-58 -2q-64 123 -168 185q-22 13 -41 21l-31 -410q381 -143 384 -382 q0 -174 -152 -280q-117 -80 -287 -89l-13 -172q-19 -10 -83 -10l13 182q-93 4 -182 25t-132 38.5t-43 18.5zM362 971q3 -141 149 -208l29 391q-101 -8 -153 -96q-24 -43 -25 -87zM543 79q133 14 164 138q7 31 8 66q-2 165 -139 234z" />
<glyph unicode="%" horiz-adv-x="1304" d="M104 834q0 161 109 257q78 67 182 68q92 -1 140 -45q44 -2 169 -42q29 -9 41 -9q212 2 308 102l96 -43l-842 -1155l-110 25l749 1026q-115 -47 -221 -47q-70 1 -143 38q2 -17 2 -36q0 -198 -115 -302q-70 -61 -158 -63q-112 2 -159 62q-47 63 -48 164zM295 756 q3 -65 41 -68q63 3 110 82q51 88 52 199q-2 116 -80 116q-56 0 -92 -89q-4 -9 -7 -17q-24 -77 -24 -223zM758 186q0 161 109 258q78 67 182 68q186 -5 188 -186q0 -198 -115 -303q-68 -62 -157 -62q-112 2 -160 62q-46 62 -47 163zM948 109q3 -65 41 -68q63 3 111 82 q51 88 51 199q-2 116 -80 116q-56 0 -92 -89q-4 -9 -6 -17q-25 -77 -25 -223z" />
<glyph unicode="&#x26;" horiz-adv-x="1492" d="M80 307q0 140 125 254q91 81 270 184q-126 197 -127 322q0 113 110 195q104 76 253 77q253 0 288 -184q5 -27 5 -55q0 -119 -185 -260q-56 -42 -119 -78q69 -118 224 -334q149 232 176 457q22 -6 110 -6q95 0 117 6l-136 -242q-158 -282 -185 -324q89 -144 110 -167 q41 -46 74 -48q69 0 114 67q15 23 31 52l66 -47q-92 -167 -198 -190q-29 -6 -66 -6q-99 0 -170 72q-38 40 -84 108q-131 -145 -281 -172q-46 -8 -96 -8q-327 0 -405 202q-21 57 -21 125zM322 348q0 -179 108 -254q45 -30 94 -31q132 0 239 125q24 28 48 62 q-203 270 -293 409q-160 -103 -188 -225q-8 -39 -8 -86zM553 1071q0 -78 72 -193q7 -10 12 -18q130 103 160 159q16 32 16 60q-14 165 -123 176q-86 0 -121 -90q-16 -42 -16 -94z" />
<glyph unicode="'" horiz-adv-x="440" d="M104 1210q0 60 62 94q33 17 72 17q87 -15 92 -76l-76 -371l-53 -12l-31 8z" />
<glyph unicode="(" horiz-adv-x="692" d="M90 665q0 277 230 565q111 138 243 236l66 -49q-234 -227 -266 -630q-4 -58 -5 -117q0 -445 230 -716l41 -45l-66 -47q-473 386 -473 803z" />
<glyph unicode=")" horiz-adv-x="692" d="M63 -87q234 227 266 630q4 58 5 117q0 445 -229 716q-21 24 -42 45l66 47q472 -386 473 -803q0 -277 -230 -565q-111 -138 -243 -236z" />
<glyph unicode="*" horiz-adv-x="886" d="M154 1245q0 51 47 63q9 2 20 3q40 0 105 -51q52 -39 90 -56q-4 39 -45 126q-17 38 -17 61q0 50 50 73q15 6 28 6q58 0 77 -45q5 -13 5 -26q0 -23 -35 -126q-14 -43 -16 -69q39 16 106 75q42 35 76 36q66 0 79 -59q1 -7 1 -11q-3 -81 -141 -82q-74 0 -111 -6 q23 -24 102 -69q67 -51 72 -105q0 -42 -46 -56q-11 -3 -19 -3q-63 0 -95 81q-5 12 -13 38q-22 62 -38 87q-11 -20 -39 -119q-21 -74 -75 -85q-15 -3 -29 -2q-45 0 -57 42q-2 9 -3 15q0 66 64 104q78 46 89 56q10 10 17 18q-8 1 -23 5q-39 9 -61 5q-135 -24 -158 34 q-7 19 -7 42z" />
<glyph unicode="+" horiz-adv-x="1064" d="M123 414v123h348v350h123v-350h348v-123h-348v-348h-123v348h-348z" />
<glyph unicode="," horiz-adv-x="503" d="M88 -272q1 5 2 8q130 35 183 138q15 32 16 56q-16 65 -53 70q-88 18 -115 57q-16 25 -25 62v12q32 95 133 137q4 2 7 2h12q162 -62 164 -270q0 -165 -145 -275q-78 -58 -167 -75q-24 21 -12 78z" />
<glyph unicode="-" horiz-adv-x="704" d="M78 459q0 50 31 90q11 13 20 14h469q27 -2 29 -47q0 -37 -30 -82q-15 -18 -26 -20h-462q-25 8 -31 45z" />
<glyph unicode="." horiz-adv-x="503" d="M111 98v11q37 94 128 133q7 3 13 6h8q97 -34 134 -121l7 -18v-11q-35 -102 -114 -131q-14 -5 -27 -8h-8q-93 20 -125 90q-9 22 -16 49z" />
<glyph unicode="/" horiz-adv-x="700" d="M31 -121l485 1444h123l-485 -1444h-123z" />
<glyph unicode="0" d="M61 610q0 365 197 537q118 101 274 102q223 0 348 -180q111 -162 111 -440q0 -412 -235 -575q-109 -73 -234 -74q-242 0 -369 234q-91 168 -92 396zM354 588q0 -333 59 -443q43 -76 111 -77q175 10 176 602q0 386 -118 470q-24 17 -50 17q-120 0 -158 -246 q-20 -129 -20 -323z" />
<glyph unicode="1" d="M209 1096q251 57 551 153q13 -4 14 -10q-22 -160 -22 -334v-518q0 -224 24 -387l-4 -6q-3 0 -162 6l-157 -6l-2 6q22 142 22 387v500q0 123 -29 132q-5 1 -8 1q-134 0 -223 -12z" />
<glyph unicode="2" d="M78 0q0 116 107 250q55 68 155 170l152 149q113 115 124 273q2 35 2 88q0 127 -86 186q-34 23 -69 23q-129 0 -218 -142l-20 -32l-90 2l-43 161l6 9q63 55 228 93q84 19 153 19q272 0 392 -138q65 -77 65 -183q0 -127 -112 -246q-16 -17 -105 -102l-205 -199 q-65 -62 -105 -142q-11 -23 -12 -34h168q124 0 372 18h9q-12 -52 -12 -135q0 -43 12 -96q-207 8 -356 8q-18 0 -510 -8z" />
<glyph unicode="3" d="M74 102l45 162l90 2q12 -22 32 -62q45 -91 83 -115q42 -26 112 -26q92 0 154 88q55 81 55 211q-3 238 -231 240q-75 0 -101 -4v82q321 25 324 274q0 103 -80 172q-44 36 -88 37q-111 0 -167 -78q-12 -17 -71 -122l-90 2l-43 161l6 9q78 68 241 100q72 14 142 14 q407 -3 410 -262q0 -204 -194 -289q-34 -15 -70 -24v-6q185 -18 273 -137q50 -71 50 -162q0 -217 -208 -324q-134 -67 -316 -68q-220 1 -350 115z" />
<glyph unicode="4" d="M35 430q1 3 14 27l529 792q85 -7 210 0l5 -4l-5 -817h201q29 -4 31 -33q0 -32 -35 -55q-14 -8 -24 -8h-173q3 -184 23 -332l-4 -6q-3 0 -148 6l-143 -6l-2 6q21 145 21 332h-363q-54 1 -68 14l-30 37q-7 12 -26 30q-12 13 -13 17zM156 428h379v592q-139 -190 -379 -592z " />
<glyph unicode="5" d="M96 82l43 162l70 2q71 -127 159 -154q40 -12 91 -12q100 0 160 99q44 76 45 186q-2 202 -91 265q-58 39 -127 40q-106 0 -187 -62l-29 -22l-49 15q31 73 39 406q4 184 -9 234l4 6q239 -20 291 -20q190 0 403 22l13 -6l-31 -196q-126 -12 -281 -13q-139 0 -278 17 l-15 -301q81 28 244 28q154 -1 263 -87q111 -89 128 -232q2 -19 2 -37q0 -220 -170 -349q-125 -92 -288 -93q-259 0 -365 70q-16 11 -29 22z" />
<glyph unicode="6" d="M90 504q0 294 160 484q30 35 61 63q166 143 386 179q93 15 212 19q25 -32 13 -84q-244 -14 -379 -123q-133 -108 -173 -309q-6 -29 -9 -56q110 58 210 71q284 -6 376 -204q29 -64 30 -126q0 -179 -116 -306q-122 -131 -322 -132q-446 5 -449 524zM348 496 q1 -435 215 -437q80 0 117 130q22 80 22 192q0 123 -79 207q-55 56 -121 57q-67 -2 -152 -53q-2 -24 -2 -96z" />
<glyph unicode="7" d="M162 985q10 75 10 152q0 35 -10 110q146 -20 655 -20q71 0 131 16l29 -41q-289 -702 -463 -1220l-242 -9l-6 15q44 100 264 524q156 300 238 504q-48 0 -606 -31z" />
<glyph unicode="8" d="M84 299q0 174 205 303q36 23 78 45l-37 21q-181 103 -183 280q0 160 153 245q104 56 247 56q227 0 325 -122q47 -61 48 -136q0 -151 -170 -241q-33 -17 -72 -33l121 -72q124 -86 166 -227q13 -46 14 -88q-2 -183 -154 -285q-110 -62 -309 -65q-208 0 -335 112 q-96 87 -97 207zM340 299q0 -146 99 -212q40 -25 81 -26q148 0 184 116q14 48 15 112q0 130 -85 208q-30 27 -71 54l-88 47q-129 -96 -135 -268v-31zM379 997q0 -91 90 -167q21 -17 41 -29l59 -35q93 74 114 144q9 32 9 65q0 137 -91 179q-30 13 -66 13q-121 0 -150 -115 q-6 -27 -6 -55z" />
<glyph unicode="9" d="M92 811q0 179 116 306q122 131 322 132q446 -5 449 -524q0 -294 -160 -485q-30 -35 -61 -62q-166 -143 -386 -179q-93 -15 -212 -19q-25 31 -13 83q244 14 379 123q133 108 173 309q6 29 9 57q-110 -58 -210 -71q-284 6 -376 204q-29 64 -30 126zM367 848q0 -123 79 -208 q55 -56 121 -56q67 2 152 53q2 24 2 96q-1 435 -215 436q-80 0 -117 -130q-22 -80 -22 -191z" />
<glyph unicode=":" horiz-adv-x="518" d="M125 139v11q37 94 128 133q7 3 13 6h8q97 -34 135 -121l7 -18v-11q-35 -102 -114 -131q-14 -5 -28 -8h-8q-93 20 -124 90q-10 22 -17 49zM125 735v10q37 94 128 134q7 3 13 6h8q97 -34 135 -121q4 -10 7 -19v-10q-35 -102 -114 -131q-14 -5 -28 -8h-8q-93 20 -124 90 q-10 22 -17 49z" />
<glyph unicode=";" horiz-adv-x="518" d="M115 -272q1 5 2 8q130 35 182 138q15 32 16 56q-16 65 -53 70q-88 18 -115 57q-15 25 -24 62v12q32 95 132 137q4 2 7 2h12q162 -62 164 -270q0 -165 -144 -275q-78 -58 -167 -75q-24 21 -12 78zM125 737v11q37 94 128 133q7 3 13 6h8q97 -34 135 -121l7 -18v-11 q-35 -102 -114 -131q-14 -5 -28 -8h-8q-93 20 -124 90q-10 22 -17 49z" />
<glyph unicode="&#x3c;" horiz-adv-x="1048" d="M86 426v131l879 320v-168l-652 -217l652 -218v-168z" />
<glyph unicode="=" horiz-adv-x="1128" d="M121 252v143h889v-143h-889zM121 555v143h889v-143h-889z" />
<glyph unicode="&#x3e;" horiz-adv-x="1048" d="M86 106v168l651 218l-651 217v168l879 -320v-131z" />
<glyph unicode="?" horiz-adv-x="950" d="M88 1214l6 9q77 64 221 105q78 22 144 22q179 -1 266 -50q136 -88 141 -260q0 -147 -184 -286l-61 -45q-76 -56 -100 -111q-23 -55 -23 -131v-80q0 -18 -56 -29q-8 -1 -12 -2q-35 0 -61 22q-5 6 -7 9v84q2 187 158 330q82 75 84 207v24q0 79 -60 156q-49 60 -104 61 q-141 -2 -252 -192l-67 2zM272 98v11q37 94 129 133q7 3 13 6h8q97 -34 134 -121l7 -18v-11q-35 -102 -114 -131q-14 -5 -27 -8h-8q-93 20 -125 90q-10 22 -17 49z" />
<glyph unicode="@" horiz-adv-x="2187" d="M188 453q0 279 216 516q221 244 546 306q92 17 183 17q336 0 585 -195q234 -183 265 -443q4 -34 4 -66q0 -209 -171 -378q-184 -162 -386 -171q-146 0 -176 89q-4 15 -5 28q-109 -84 -278 -95q-213 0 -268 177q-13 43 -13 86q0 222 175 384q154 141 331 142 q134 0 223 -53q20 -13 31 -25l76 68l55 -23l-121 -528q-26 -115 -26 -135q7 -28 36 -29q65 0 153 80q147 138 149 354q0 328 -271 511q-188 123 -387 126q-240 0 -435 -161q-246 -203 -257 -541v-27q0 -237 148 -436q220 -272 579 -279q223 0 409 90q60 30 103 64 q32 -13 43 -80q-206 -157 -535 -173q-30 -1 -59 -1q-350 0 -613 201t-303 505q-6 48 -6 95zM930 336q0 -163 93 -177q11 -1 21 -1q83 0 155 102q40 58 65 135q58 194 59 260q0 81 -64 109q-19 7 -36 8q-165 0 -246 -191q-47 -112 -47 -245z" />
<glyph unicode="A" horiz-adv-x="1435" d="M41 -6l604 1354h184q418 -1063 562 -1354q-36 6 -187 6q-130 0 -166 -6q-50 179 -152 456q-125 3 -204 3q-117 0 -272 -4q-120 -296 -162 -455q-26 6 -92 6q-89 0 -115 -6zM458 565q27 0 90 -2q89 -2 124 -2q66 0 171 2q-99 256 -181 449h-13z" />
<glyph unicode="B" horiz-adv-x="1382" d="M186 0q24 167 25 410v501q0 235 -25 410l4 6q2 0 172 -6q74 0 213 4q89 2 119 2q360 0 457 -199q27 -57 27 -118q0 -121 -135 -225q-38 -29 -76 -48q264 -76 319 -267q12 -45 12 -93q0 -168 -150 -276q-152 -107 -409 -107q-96 0 -210 3q-97 3 -167 3l-174 -6zM502 199 q0 -69 68 -87q41 -10 110 -10q222 0 269 97q20 44 20 139q-5 319 -277 321h-190v-460zM502 768h160q157 0 193 93q17 46 17 124q0 205 -136 230q-23 4 -48 4q-153 0 -177 -42q-9 -19 -9 -51v-358z" />
<glyph unicode="C" horiz-adv-x="1415" d="M76 645q0 304 197 501q28 27 57 50q186 145 481 151q10 1 20 1q238 0 443 -91l4 -2l4 -6q-31 -133 -41 -266l-61 -2q-102 203 -272 241q-49 11 -105 11q-168 0 -278 -141q-114 -149 -115 -408q0 -232 131 -413q124 -167 280 -169q183 0 294 68q64 40 142 115l50 -70 q-230 -234 -525 -235q-263 1 -446 135q-211 155 -252 424q-8 54 -8 106z" />
<glyph unicode="D" horiz-adv-x="1579" d="M182 0q24 167 25 410v501q0 235 -25 410l4 6q2 0 172 -6q78 0 201 3q124 3 201 3q284 0 498 -192q210 -188 231 -454q2 -26 2 -50q0 -410 -340 -564q-159 -71 -354 -71q-111 0 -245 2q-115 2 -194 2l-174 -6zM502 207q0 -65 63 -86q55 -17 168 -17q225 0 310 76 q109 100 110 402q0 306 -71 440q-108 196 -400 197q-162 0 -179 -87q-1 -9 -1 -16v-909z" />
<glyph unicode="E" horiz-adv-x="1196" d="M172 0q24 167 25 410v501q0 235 -25 410l4 6q3 0 172 -6h602q74 0 123 6l4 -6q-4 -57 -4 -72q0 -49 4 -84l-4 -8l-367 21q-107 4 -198 4q-16 -56 -16 -271v-149q225 0 464 20l7 -6q-6 -28 -7 -76q0 -49 7 -77l-7 -7q-202 20 -464 21v-227q0 -202 16 -260q274 0 586 45 l4 -9q-4 -32 -4 -112q0 -19 4 -74l-4 -6q-50 6 -123 6h-623l-174 -6z" />
<glyph unicode="F" horiz-adv-x="1103" d="M176 0q24 167 25 410v501q0 235 -25 410l4 6q3 0 172 -6h596q80 0 129 6l4 -6q-4 -57 -4 -72q0 -49 4 -84l-4 -8l-367 21q-107 4 -198 4q-16 -56 -16 -271v-149q225 0 465 20l6 -6q-6 -28 -6 -76q0 -49 6 -77l-6 -7q-202 20 -465 21v-227q0 -264 20 -410l-4 -6 q-3 0 -160 6l-174 -6z" />
<glyph unicode="G" horiz-adv-x="1556" d="M80 629q0 334 209 525l28 24q215 169 527 170q111 0 233.5 -22.5t189.5 -46.5l66 -24l4 -6q-31 -133 -41 -266l-61 -2q-87 175 -285 232q-68 19 -135 20q-263 0 -363 -262q-48 -129 -49 -301q0 -223 129 -397q134 -180 328 -181q160 0 238 61l20 17v70q0 244 -20 389l4 6 q3 0 168 -6l149 6l2 -6q-20 -138 -20 -348q1 -85 20 -111v-6q-180 -151 -496 -179q-57 -5 -112 -5q-273 1 -448 118q-202 137 -265 373q-20 79 -20 158z" />
<glyph unicode="H" horiz-adv-x="1613" d="M186 0q24 167 25 410v501q0 235 -25 410l4 6q3 0 168 -6l170 6l2 -6q-24 -164 -24 -410v-168h622v168q0 235 -24 410l4 6q3 0 168 -6l170 6l2 -6q-24 -164 -25 -410v-501q0 -235 25 -410l-4 -6q-3 0 -168 6l-170 -6l-2 6q24 167 24 410v227h-622v-227q0 -235 24 -410 l-4 -6q-3 0 -168 6l-170 -6z" />
<glyph unicode="I" horiz-adv-x="718" d="M193 0q24 167 24 410v501q0 235 -24 410l4 6q3 0 168 -6l170 6l2 -6q-24 -164 -25 -410v-501q0 -235 25 -410l-5 -6q-3 0 -167 6l-170 -6z" />
<glyph unicode="J" horiz-adv-x="763" d="M-104 -387q32 55 51 201q4 29 4 47l59 12q28 -51 99 -93q40 -24 69 -24q89 0 112 132q5 31 5 63q0 81 -5 230q-3 100 -3 136v594q0 264 -21 410l4 6q3 0 168 -6l162 6l2 -6q-20 -137 -20 -410v-671q0 -220 -49 -324q-30 -63 -93 -141q-133 -164 -343 -184q-24 -2 -46 -3 q-115 1 -153 19z" />
<glyph unicode="K" horiz-adv-x="1554" d="M193 0q24 167 24 410v501q0 235 -24 410l4 6q3 0 168 -6l170 6l2 -6q-24 -164 -25 -410v-186q28 4 45 18q153 134 457 485l86 99q28 -6 162 -6q152 0 186 6q-505 -442 -643 -602v-4l663 -727q-40 6 -208 6q-152 0 -189 -6l-216 272q-251 319 -304 373q-13 10 -39 14v-243 q0 -235 25 -410l-5 -6q-3 0 -167 6l-170 -6z" />
<glyph unicode="L" horiz-adv-x="1204" d="M188 1321l5 6q3 0 161 -6l170 6l2 -6q-20 -137 -20 -410v-481q0 -206 16 -264q274 0 586 45l4 -8q-4 -32 -4 -117q0 -30 4 -86l-4 -6q-50 6 -123 6h-623l-169 -6l-3 6q20 140 21 410v501q0 250 -23 410z" />
<glyph unicode="M" horiz-adv-x="1906" d="M84 -6q119 649 229 1362h166q346 -716 491 -986l531 986h162l50 -447q67 -610 110 -915q-32 6 -166 6q-90 0 -121 -6q-54 652 -93 974q-323 -596 -436 -837l-59 -131h-112q-80 170 -452 898q-10 -84 -34 -263q-66 -496 -67 -641q-24 6 -99 6q-77 0 -100 -6z" />
<glyph unicode="N" horiz-adv-x="1597" d="M164 0q22 147 33 410l10 501q1 40 1 80q0 177 -22 330l4 6q3 0 134 -6l90 4l743 -909q37 -46 43 -21q2 12 2 31l-14 485q-7 272 -27 410l4 6q3 0 105 -6l100 6l4 -6q-20 -137 -20 -410v-917q-69 6 -99 6q-22 0 -51 -2q-35 -2 -63 -2l-781 936q-5 8 -7 17q0 -20 -1 -50 l-12 -489q-2 -74 -2 -137q0 -173 14 -273l-4 -6q-3 0 -100 6l-82 -6z" />
<glyph unicode="O" horiz-adv-x="1636" d="M106 635q0 310 204 513q201 198 503 200q370 0 566 -232q150 -178 151 -442q0 -340 -227 -532q-193 -161 -488 -162q-321 0 -523 199q-184 184 -186 456zM436 670q0 -402 223 -532q87 -49 197 -50q327 0 343 491q1 28 1 56q0 434 -192 551q-89 53 -222 53 q-349 -5 -350 -569z" />
<glyph unicode="P" horiz-adv-x="1224" d="M166 0q24 167 24 410v501q0 235 -24 410l4 6q3 0 168 -6q32 0 192 8q126 6 162 6h8q230 -1 330 -69q139 -105 144 -271q0 -162 -119 -286q-142 -147 -389 -148q-120 0 -185 21v-172q0 -235 25 -410l-4 -6q-3 0 -164 6l-170 -6zM481 686q39 -20 162 -20q186 0 216 213 q5 38 5 79q0 230 -129 268q-37 10 -90 11q-140 0 -158 -49q-6 -17 -6 -41v-461z" />
<glyph unicode="Q" horiz-adv-x="1636" d="M106 635q0 310 204 513q201 198 503 200q370 0 566 -232q150 -179 151 -442q0 -340 -228 -533q-44 -37 -93 -65q250 -148 392 -202q30 -12 58 -21v-13q-187 -99 -234 -135q-92 52 -239 160q-92 66 -206 129q-75 -14 -154 -14h-11q-321 0 -523 199q-184 184 -186 456z M436 670q0 -402 223 -532q87 -49 197 -50q327 0 343 491q1 28 1 56q0 434 -192 551q-89 53 -222 53q-349 -5 -350 -569z" />
<glyph unicode="R" horiz-adv-x="1406" d="M186 0q24 167 25 410v501q0 235 -25 410l4 6q3 0 172 -6q32 0 195 8q123 6 158 6h8q259 -1 367 -69q132 -89 133 -277q-3 -264 -313 -345q36 -48 278 -410q117 -175 168 -234l-4 -6q-42 6 -191 6q-120 0 -160 -6q-36 108 -215 366q-21 30 -63 97q-70 108 -105 151 q-48 -2 -116 -2v-196q0 -264 20 -410l-4 -6q-3 0 -164 6l-166 -6zM502 721h110q166 0 218 35q74 53 75 231q0 197 -98 233q-39 13 -123 13q-174 -12 -182 -100v-412z" />
<glyph unicode="S" horiz-adv-x="1110" d="M55 78q23 86 41 250l54 2q75 -114 210 -192q90 -51 158 -52q189 4 191 211q0 103 -136 190q-22 14 -43 25q-213 109 -297 183q-43 38 -73 77q-63 84 -64 221q0 180 170 283q120 71 273 72q111 0 215 -22.5t153 -46.5l49 -24l5 -6q-22 -74 -41 -245l-62 -3 q-73 139 -183 208q-60 37 -114 38q-109 0 -162 -100q-24 -47 -24 -98q0 -135 124 -209q31 -18 85 -43q236 -109 323 -209q81 -95 82 -207q0 -177 -150 -295q-138 -106 -339 -106q-111 0 -221.5 22.5t-164.5 45.5l-55 24z" />
<glyph unicode="T" horiz-adv-x="1232" d="M31 1124q4 31 4 81q0 44 -3 103q0 8 -1 13l4 6q50 -6 123 -6h917q74 0 123 6l4 -6q-4 -58 -4 -108q0 -44 3 -81q1 -5 1 -8l-4 -8l-123 25q-136 20 -295 20q-16 -56 -16 -268v-483q0 -264 20 -410l-4 -6q-3 0 -164 6l-165 -6l-2 6q20 140 20 410v483q0 210 -16 268 q-274 0 -418 -45z" />
<glyph unicode="U" horiz-adv-x="1472" d="M156 1321l4 6q3 0 159 -6l170 6l3 -6q-20 -137 -21 -410v-360q0 -355 207 -424q46 -14 98 -14q280 0 331 279q13 74 13 175v344q0 264 -20 410l4 6q3 0 104 -6l105 6l2 -6q-20 -137 -21 -410v-307q-4 -622 -561 -624q-279 0 -431 154q-125 131 -126 349v428 q0 264 -20 410z" />
<glyph unicode="V" horiz-adv-x="1376" d="M33 1327q36 -6 207 -6q120 0 155 6q119 -412 351 -961q313 723 376 961q26 -6 119 -6q73 0 98 6l-604 -1347h-141l-229 559q-267 657 -332 788z" />
<glyph unicode="W" horiz-adv-x="2136" d="M33 1327q36 -6 207 -6q110 0 145 6q68 -237 343 -886l62 -144q166 383 227 534q-151 388 -204 496q36 -6 166 -6q160 0 197 6l9 -35q114 -431 321 -926q312 719 376 961q26 -6 105 -6q87 0 112 6l-604 -1347h-141l-261 656l-294 -656h-185q-479 1139 -581 1347z" />
<glyph unicode="X" horiz-adv-x="1316" d="M78 1327q36 -6 198 -6q122 0 160 6q69 -143 257 -448q167 243 278 448q24 -6 129 -6q83 0 106 6l-102 -140l-322 -452l118 -190l341 -551q-38 6 -162 6q-164 0 -202 -6q-145 278 -266 484q-163 -254 -287 -484q-24 6 -107 6q-105 0 -129 -6l433 636z" />
<glyph unicode="Y" horiz-adv-x="1337" d="M33 1327q36 -6 200 -6q124 0 160 6q71 -139 329 -578l10 -17q209 333 335 595q26 -6 119 -6q69 0 96 6q-363 -555 -399 -614l-51 -90q3 -478 16 -629q-34 6 -170 6q-134 0 -168 -6q13 133 14 569q-126 214 -491 764z" />
<glyph unicode="Z" horiz-adv-x="1320" d="M4 2q14 18 36 51l17 25l802 1115l-736 -44l-4 6q4 32 4 88q0 23 -4 78l4 6q50 -6 125 -6h747q162 0 258 12q11 -4 13 -12q-2 -28 -62 -111q-778 -1077 -778 -1081q119 0 323.5 11.5t350.5 21.5l145 10l4 -6q-4 -32 -4 -88q0 -23 4 -78l-4 -6q-52 6 -145 6h-785l-305 -6z " />
<glyph unicode="[" horiz-adv-x="837" d="M225 -119v1576h539v-68q-231 -14 -286 -58q-47 -39 -48 -140v-1044q0 -110 55 -146q61 -38 279 -53v-67h-539z" />
<glyph unicode="\" horiz-adv-x="641" d="M23 1430h143l471 -1528h-143z" />
<glyph unicode="]" horiz-adv-x="837" d="M74 -50q231 14 286 57q47 39 48 140v1044q0 110 -55 146q-61 38 -279 53v67h538v-1576h-538v69z" />
<glyph unicode="^" horiz-adv-x="1060" d="M209 709l260 622h127l258 -622h-158l-166 456l-165 -456h-156z" />
<glyph unicode="_" horiz-adv-x="995" d="M10 -211h977v-125h-977v125z" />
<glyph unicode="`" horiz-adv-x="802" d="M190 1354l5 22q30 34 108 57q34 9 62 9q23 0 41 -4l141 -254q17 -32 18 -54q0 -23 -39 -31q-6 -1 -10 -1q-33 2 -78 41z" />
<glyph unicode="a" horiz-adv-x="1064" d="M12 -4l434 975h195l165 -406q192 -475 238 -569q-25 4 -188 4q-105 0 -131 -4q-32 114 -100 299q-80 2 -131 2q-76 0 -187 -4q-76 -192 -104 -297q-20 4 -88 4q-82 0 -103 -4zM345 387q18 0 57 -2q62 -2 85 -2q39 0 105 2q-57 149 -121 299z" />
<glyph unicode="b" horiz-adv-x="1124" d="M156 0q20 125 20 367v208q0 244 -20 367l2 6q2 0 157 -6q1 0 340 6q344 -7 351 -227q0 -93 -87 -169q-30 -25 -61 -40q207 -51 209 -256q0 -115 -118 -193q-104 -67 -249 -67q-66 0 -246 2q-113 2 -139 2l-157 -6zM459 131q0 -49 27 -62q31 -13 106 -14q145 0 173 156 q5 30 5 59q0 187 -135 205q-18 2 -35 2h-141v-346zM459 547h141q127 4 129 172q-13 160 -133 170q-117 0 -131 -21q-6 -13 -6 -37v-284z" />
<glyph unicode="c" horiz-adv-x="995" d="M86 442q0 307 215 444q122 76 283 77q138 0 293 -52q34 -12 53 -22l4 -6l-49 -213l-58 -2q-47 125 -157 168q-36 14 -68 14q-139 0 -199 -155q-32 -84 -32 -195q1 -166 65 -279q41 -70 135 -106q33 -12 58 -13q175 2 245 91h33q0 -45 11 -97q-108 -99 -241 -114 q-40 -4 -87 -5q-202 0 -335 98q-28 22 -48 44q-120 140 -121 323z" />
<glyph unicode="d" horiz-adv-x="1232" d="M156 0q20 125 20 367v208q0 244 -20 367l2 6q2 0 157 -6q305 6 371 6q238 0 380 -172q109 -134 110 -315q0 -321 -253 -426q-96 -39 -208 -39q-105 0 -300 3q-81 1 -100 1l-157 -6zM459 158q0 -55 18 -70q32 -22 131 -22q168 0 224 90q48 81 49 270q0 312 -136 405 q-71 47 -176 48q-98 0 -108 -47q-2 -10 -2 -21v-653z" />
<glyph unicode="e" horiz-adv-x="1079" d="M156 0q20 125 20 367v208q0 244 -20 367l2 6q2 0 161 -6h474q74 0 122 6l5 -6q-4 -58 -5 -70q0 -19 5 -49l-5 -8l-211 19q-112 6 -229 6q-16 -56 -16 -260v-39q157 0 292 15q24 3 48 5l6 -6q-6 -28 -6 -63q0 -36 6 -64l-6 -6q-203 20 -340 20v-73q0 -198 16 -256 q123 0 237.5 6t169.5 12l54 6l4 -8q-4 -33 -4 -63q0 -12 4 -66l-4 -6q-50 6 -123 6h-494l-161 -6z" />
<glyph unicode="f" horiz-adv-x="1011" d="M156 0q20 125 20 367v208q0 244 -20 367l2 6q3 0 161 -6h474q74 0 122 6l5 -6q-4 -58 -5 -65q0 -22 5 -54l-5 -8l-211 19q-112 6 -229 6q-16 -56 -16 -267v-32q157 0 292 15q24 3 48 5l6 -6q-6 -28 -6 -63q0 -36 6 -64l-6 -6q-203 20 -340 20v-75q0 -244 20 -367l-2 -6 q-3 0 -162 6l-157 -6z" />
<glyph unicode="g" horiz-adv-x="1179" d="M82 446q1 183 106 327q114 154 373 184q48 5 94 6q219 0 358 -72q3 -2 9 -5q7 -4 10 -5l4 -7l-47 -174l-47 -2q-71 121 -152 158q-57 24 -128 25q-220 0 -266 -239q-13 -73 -13 -169q0 -216 96 -332q67 -78 166 -80q93 4 166 76v8q0 141 -19 280q-1 5 -1 7l4 6 q3 0 157 -6l127 6l2 -6q-20 -129 -20 -204v-52v-2q2 -23 24 -47q-185 -129 -392 -146q-15 -1 -30 -1h-14q-312 1 -434 133q-111 122 -130 289q-3 24 -3 44z" />
<glyph unicode="h" horiz-adv-x="1308" d="M150 0q24 156 24 410v122q0 245 -24 410l4 6q124 -6 161 -6q17 0 164 6l2 -6q-24 -156 -24 -410v-18h395v18q0 245 -25 410l4 6q124 -6 162 -6q17 0 164 6l2 -6q-24 -157 -24 -410v-122q0 -245 24 -410l-4 -6q-124 6 -162 6q-45 0 -164 -6l-2 6q24 156 25 410v20h-395 v-20q0 -245 24 -410l-4 -6q-124 6 -162 6q-45 0 -163 -6z" />
<glyph unicode="i" horiz-adv-x="630" d="M150 0q24 156 24 410v122q0 245 -24 410l4 6q124 -6 161 -6q17 0 164 6l2 -6q-24 -157 -24 -410v-122q0 -245 24 -410l-4 -6q-124 6 -162 6q-45 0 -163 -6z" />
<glyph unicode="j" horiz-adv-x="743" d="M-76 -360q31 55 48 191q3 25 3 40l56 10q26 -49 93 -88q35 -20 62 -20q84 0 105 128q4 27 4 54q0 80 -5 227q-3 99 -3 135v215q0 264 -21 410l4 6q124 -6 158 -6q38 0 158 6l4 -6q-20 -137 -21 -410v-292q0 -213 -48 -313q-29 -58 -91 -136q-124 -154 -323 -172 q-21 -2 -39 -2q-115 0 -142 16z" />
<glyph unicode="k" horiz-adv-x="1220" d="M150 0q24 156 24 410v122q0 245 -24 410l4 6q124 -6 161 -6q17 0 164 6l2 -6q-24 -156 -24 -410v-16q41 8 69 29q100 77 284 321q31 42 54 76q264 0 305 6l5 -6q-80 -68 -242 -251l-162 -183l161 -198q162 -202 265 -310l-4 -6q-31 6 -213 6q-110 0 -164 -6 q-50 69 -120 175q-111 167 -197 257q-17 13 -41 17v-33q0 -245 24 -410l-4 -6q-124 6 -162 6q-45 0 -163 -6z" />
<glyph unicode="l" horiz-adv-x="948" d="M154 0q20 125 20 367v208q0 244 -20 367l2 6q124 -6 155 -6q42 0 162 6l4 -6q-20 -132 -20 -367v-208q0 -147 16 -205q123 0 232.5 6t158.5 12l49 6l5 -8q-4 -33 -5 -63q0 -56 5 -115l-5 -6q-50 6 -122 6h-478q-39 0 -157 -6z" />
<glyph unicode="m" horiz-adv-x="1548" d="M106 -4q99 613 136 967h250l294 -576l312 576h229q97 -838 108 -917q4 -26 7 -50q-23 4 -238 4q-53 0 -76 -4q-39 463 -62 669q-240 -439 -341 -665h-51q-52 110 -335 664q-59 -542 -60 -668q-16 4 -60 4q-94 0 -113 -4z" />
<glyph unicode="n" horiz-adv-x="1159" d="M133 0q14 93 14 293v356q0 195 -14 293l2 4q3 0 119 -4l133 4l481 -625v328q0 195 -14 293l4 4q3 0 88 -4l80 4v-4q-14 -111 -14 -293v-655q-53 6 -99 6q-50 0 -108 -6l-514 648v-1v-348q0 -195 14 -293l-2 -6q-3 0 -80 6l-88 -6z" />
<glyph unicode="o" horiz-adv-x="1212" d="M78 449q0 295 218 431q134 83 314 83q314 0 450 -216q74 -120 75 -278q0 -271 -205 -403q-135 -86 -324 -86q-278 0 -425 172q-102 123 -103 297zM381 489q0 -325 173 -388q38 -13 81 -13q116 0 167 137q29 80 29 195q0 319 -108 397q-51 34 -127 35q-210 -19 -215 -363z " />
<glyph unicode="p" horiz-adv-x="1054" d="M154 0q20 125 20 367v208q0 244 -20 367l2 6q124 -6 157 -6q28 0 159 3q157 3 198 3q314 0 341 -214q2 -19 3 -38q0 -183 -136 -266q-86 -51 -214 -51q-159 0 -207 20v-32q0 -238 20 -367l-4 -6q-124 6 -158 6q-40 0 -159 -6zM457 477q48 -18 96 -18q132 0 163 104 q13 45 13 109q0 156 -91 185q-34 11 -95 11q-27 0 -86 -16v-375z" />
<glyph unicode="q" horiz-adv-x="1212" d="M78 449q0 295 218 431q134 83 314 83q314 0 450 -216q74 -120 75 -278q-2 -268 -202 -401q215 -119 363 -177v-12q-106 -55 -204 -131q-200 148 -263 186l-98 56q-62 -10 -125 -10q-278 0 -425 172q-102 123 -103 297zM381 489q0 -325 173 -388q38 -13 81 -13 q116 0 167 137q29 80 29 195q0 319 -108 397q-51 34 -127 35q-210 -19 -215 -363z" />
<glyph unicode="r" horiz-adv-x="1130" d="M154 0q20 125 20 367v208q0 244 -20 367l2 6q124 -6 157 -6q28 0 159 3q157 3 198 3q314 0 341 -214q2 -19 3 -38q0 -183 -136 -266q-21 -12 -43 -21q40 -55 116 -172q115 -175 169 -237l-4 -6q-40 6 -153 6q-136 0 -175 -6q-17 66 -112 209l-45 70q-48 76 -73 110 q-76 6 -101 16v-32q0 -238 20 -367l-4 -6q-124 6 -158 6q-40 0 -159 -6zM457 477q48 -18 96 -18q132 0 163 104q13 45 13 109q0 156 -91 185q-34 11 -95 11q-27 0 -86 -16v-375z" />
<glyph unicode="s" horiz-adv-x="858" d="M78 37l33 211l61 2q95 -163 219 -176q110 0 130 109q3 21 3 42q0 105 -88 150q-28 14 -63 24q-262 82 -264 295q0 164 171 234q85 34 187 35q157 0 268 -46q15 -6 25 -12l4 -6l-39 -199l-55 -2q-40 93 -121 141q-44 25 -86 25q-87 0 -108 -88q-4 -20 -5 -39 q0 -112 94 -145q8 -3 15 -4q319 -83 321 -320q0 -162 -147 -240q-96 -50 -236 -51q-167 1 -319 60z" />
<glyph unicode="t" horiz-adv-x="1040" d="M51 813q3 24 3 56t-3 73l4 4q62 -4 113 -4h704q52 0 113 4l4 -4q-3 -42 -3 -74t3 -55l-4 -6l-99 15q-83 7 -195 7h-29v-460q0 -240 20 -369l-4 -6q-156 6 -162 6q-37 0 -156 -6l-2 6q20 125 21 369v460l-324 -22z" />
<glyph unicode="u" horiz-adv-x="1187" d="M139 942l2 6q124 -6 160 -6q38 0 158 6l4 -6q-20 -132 -21 -369v-159q0 -217 51 -286q46 -58 134 -58q188 0 224 174q13 62 13 188v141q0 246 -20 369l2 6l52 -3q37 -3 48 -3t46 3q34 3 52 3l5 -6q-21 -132 -21 -369v-135q0 -336 -220 -423q-90 -35 -216 -35 q-212 0 -333 109q-98 92 -99 241v243q0 246 -21 369z" />
<glyph unicode="v" horiz-adv-x="1079" d="M14 948q36 -6 170 -6q130 0 160 6q108 -341 259 -693q111 256 241 693q22 -6 100 -6q99 0 121 6q-273 -611 -332 -761l-74 -193q-20 6 -110 6q-111 0 -135 -6q-200 519 -400 954z" />
<glyph unicode="w" horiz-adv-x="1728" d="M20 948q47 -8 170 -8q120 0 160 8q140 -440 260 -717q92 201 189 469l-109 250q47 -8 172 -8q122 0 162 8q132 -415 253 -698q48 112 175 512l61 186q28 -8 89 -8q83 0 112 8l-105 -233q-220 -482 -306 -723q-22 6 -86 6q-113 0 -138 -6l-204 523q-75 -179 -199 -525 q-20 6 -133 6q-101 0 -125 -6q-215 559 -398 956z" />
<glyph unicode="x" horiz-adv-x="1114" d="M27 948q36 -6 188 -6q138 0 176 6q67 -111 228 -331q194 248 251 331q26 -6 78 -6q113 0 139 6l-387 -442q128 -185 381 -512q-34 6 -170 6q-152 0 -186 -6q-53 83 -234 340q-175 -244 -239 -340q-24 6 -137 6q-53 0 -76 -6l364 463z" />
<glyph unicode="y" horiz-adv-x="989" d="M25 948q40 -6 96 -6q171 0 211 6q56 -111 214 -380l230 380q27 -6 115 -6q45 0 74 6q-280 -371 -340 -468q1 -365 12 -486q-33 6 -145 6q-106 0 -146 -6q10 95 10 414q-225 381 -331 540z" />
<glyph unicode="z" horiz-adv-x="1026" d="M43 4q17 18 49 66l510 751q-113 -2 -235.5 -7t-190.5 -10l-67 -5l-7 6q6 48 7 78q0 11 -3 28q-3 19 -4 31l7 6q51 -6 122 -6h562q16 0 178 14q11 -3 12 -14q-17 -19 -68 -92l-495 -729q119 0 254 5t212 11l77 6l4 -6q-4 -33 -4 -78q0 -7 4 -59l-4 -6q-50 6 -123 6h-611 l-178 -6z" />
<glyph unicode="{" horiz-adv-x="628" d="M23 677q4 4 6 5q177 14 198 157q2 17 2 32l-12 324q-8 184 200 246q78 23 173 23q17 -21 0 -42q-107 -27 -140 -89q-28 -55 -24 -142l16 -292q8 -151 -115 -208q-40 -18 -100 -33v-7q178 -64 208 -180q10 -39 7 -85l-16 -262q-9 -148 84 -211q38 -24 80 -25q17 -21 0 -42 q-373 0 -373 268v19l12 299q6 168 -191 193q-6 1 -9 1q-27 23 -6 51z" />
<glyph unicode="|" horiz-adv-x="491" d="M164 -475v1905h164v-1905h-164z" />
<glyph unicode="}" horiz-adv-x="628" d="M39 -114q107 27 140 89q28 55 24 142l-17 292q-8 150 116 208q40 18 99 34v7q-178 64 -208 179q-10 39 -7 85l17 262q9 148 -84 211q-38 24 -80 25q-17 21 0 42q373 0 373 -268v-18l-13 -300q-6 -168 192 -193q6 -1 9 -1q27 -23 5 -50q-4 -4 -5 -6q-176 -14 -198 -154 q-3 -18 -3 -35l13 -324q8 -184 -200 -246q-78 -23 -173 -23q-17 21 0 42z" />
<glyph unicode="~" horiz-adv-x="919" d="M53 418q28 139 125 235q67 66 137 66q47 -1 152 -66q106 -67 149 -67q112 4 164 119l74 -33q-59 -202 -195 -255q-29 -11 -51 -11q-60 1 -153 67q-97 65 -152 66q-108 -3 -184 -148z" />
<glyph unicode="&#xa1;" horiz-adv-x="552" d="M49 123q0 72 36 255q15 77 24 140q11 82 33 361q1 8 1 12q3 29 40 39q8 2 14 2q37 0 49 -22q1 -3 2 -5q1 -11 5 -59q16 -210 30 -328q9 -76 30 -184q25 -130 25 -211q0 -106 -97 -141q-23 -9 -44 -9q-77 0 -122 64q-25 38 -26 86zM49 1212v11q35 102 114 131q14 5 27 8h9 q93 -20 124 -90q10 -22 17 -49v-11q-37 -94 -128 -133q-7 -3 -13 -6h-9q-97 34 -134 121z" />
<glyph unicode="&#xa2;" horiz-adv-x="983" d="M143 561q0 264 201 377q88 49 199 58v188h90v-188q141 -12 232 -59l4 -6l-44 -179l-52 -1q-56 134 -140 152v-640q131 9 197 88l30 -10q0 -33 9 -71q-103 -85 -236 -97v-198h-90v195q-199 9 -301 118q-99 110 -99 273zM399 609q1 -158 55 -247q32 -48 89 -79v612 q-64 -23 -99 -78q-45 -75 -45 -208z" />
<glyph unicode="&#xa3;" horiz-adv-x="1034" d="M33 33q3 53 129 112q115 85 129 298q4 54 4 141v34h-143q-14 4 -15 13v45q0 34 39 41q9 1 17 2h102v26q0 180 101 297q32 36 77 76q151 131 395 131q55 -1 97 -18l2 -6q-19 -28 -43 -168q-1 -3 0 -4l-45 -2q-40 60 -68 72q-21 9 -43 10q-147 0 -209 -115 q-37 -70 -31 -168l9 -131h249q15 -3 17 -12v-62q-3 -25 -55 -27h-211q-2 -243 -149 -381q-14 -13 -32 -28h11q147 0 244 -55q78 -41 139 -41q167 2 237 84l41 -37q-75 -145 -248 -175q-36 -6 -71 -5q-104 0 -200 61q-88 57 -153 66q-26 3 -53 4q-87 -2 -88 -60 q0 -68 -77 -80q-12 -2 -23 -2q-65 0 -80 48q-2 9 -2 16z" />
<glyph unicode="&#xa4;" horiz-adv-x="948" d="M47 303l109 88q-87 111 -88 221q2 117 90 226q-71 54 -107 84l113 116l102 -112q97 51 209 51q107 -1 203 -53q94 112 104 125l119 -125l-113 -93q85 -106 86 -219q-2 -105 -83 -217l106 -90l-111 -119l-104 119q-99 -54 -211 -55q-113 1 -205 51l-59 -74l-35 -45z M233 614q0 -142 109 -213q59 -38 129 -39q132 0 200 112q37 63 38 138q0 137 -108 212q-60 40 -126 40q-128 0 -200 -108q-41 -65 -42 -142z" />
<glyph unicode="&#xa5;" d="M18 1178q34 -6 129 -7q122 0 156 7q147 -345 272 -545q92 137 235 459l38 86q24 -6 102 -7q60 0 84 7q-163 -259 -365 -615h281q14 -3 17 -12v-55q-3 -25 -52 -27h-250q1 -66 1 -129h284q14 -3 17 -12v-54q-6 -25 -52 -28h-247q4 -185 10 -252q-32 6 -123 6 q-132 0 -164 -6q9 77 12 252h-272q-12 4 -12 12v41q9 36 49 41h236q0 43 1 129h-274q-12 4 -12 12v41q9 36 49 41h205l-140 246q-171 302 -215 369z" />
<glyph unicode="&#xa6;" horiz-adv-x="491" d="M164 330h164v-742h-164v742zM164 639v741h164v-741h-164z" />
<glyph unicode="&#xa7;" horiz-adv-x="1157" d="M102 547q0 118 114 232q42 41 88 68q-128 109 -130 210q0 112 75 187q9 9 17 16q111 88 318 88q150 0 314 -93q35 -20 54 -36l6 -11l-34 -168l-70 -4q-74 128 -189 185q-52 26 -100 26q-80 0 -128 -73q-23 -38 -23 -76q0 -114 109 -170q16 -8 32 -15q389 -158 474 -346 q25 -58 26 -118q0 -139 -157 -277l-15 -13q29 -20 47 -40q61 -70 61 -191q-2 -110 -133 -204q-108 -75 -285 -76q-150 0 -314 93q-35 20 -54 36l-6 10l34 168l70 4q74 -128 189 -185q53 -25 100 -26q143 16 151 150q0 134 -117 192q-13 6 -24 10q-286 116 -397 228 q-101 103 -103 219zM334 625q1 -84 35 -144q53 -90 239 -184l35 -18q28 -14 41 -21q23 -12 104 -49q23 52 23 162q0 168 -206 294q-46 28 -132 72q-48 26 -89 52q-49 -61 -50 -164z" />
<glyph unicode="&#xa8;" horiz-adv-x="817" d="M53 1174q0 78 68 114q28 14 57 15q81 0 116 -73q13 -28 13 -56q0 -76 -69 -113q-29 -14 -60 -14q-74 0 -110 68q-14 30 -15 59zM481 1174q0 81 72 115q28 13 57 14q75 0 111 -70q14 -29 14 -59q0 -74 -67 -112q-29 -15 -58 -15q-78 0 -114 69q-14 29 -15 58z" />
<glyph unicode="&#xa9;" horiz-adv-x="1296" d="M70 627q0 246 177 416q170 160 402 161q247 0 418 -178q159 -169 160 -399q0 -247 -178 -418q-169 -159 -400 -160q-247 0 -418 178q-161 169 -161 400zM160 627q0 -216 159 -361q141 -126 330 -127q216 0 362 161q125 140 126 327q0 218 -161 362q-139 125 -327 125 q-220 0 -365 -162q-123 -140 -124 -325zM338 616q0 188 159 275q84 45 185 45q82 0 159 -24q22 -7 44 -7l28 -160l-41 -8q-36 98 -111 121q-37 10 -87 10q-135 0 -161 -144q-7 -40 -7 -87q3 -244 190 -246q127 1 185 82l39 -31q-64 -100 -184 -125q-30 -6 -58 -6 q-209 0 -296 138q-43 71 -44 167z" />
<glyph unicode="&#xaa;" horiz-adv-x="608" d="M35 877q3 113 231 178l74 20q0 149 -45 166q-12 4 -27 4q-74 -2 -140 -101l-57 2l-22 94l4 5q37 34 160 53q36 6 65 6q215 -5 218 -233v-143q1 -115 28 -117q14 1 33 12l21 -32q-66 -56 -119 -58q-74 0 -108 57q-3 5 -5 9q-75 -65 -133 -66q-86 1 -127 31q-50 38 -51 113 zM186 883q4 -78 68 -80q32 0 70 35q1 1 4 5q9 8 12 11v166q-152 -51 -154 -137z" />
<glyph unicode="&#xab;" horiz-adv-x="1136" d="M152 578v32q212 191 313 305l63 72q42 -15 60 -45q-123 -235 -213 -348q91 -116 213 -348q-17 -30 -60 -45q-135 160 -335 339l-2 2l-2 2l-2 1l-2 2l-2 2l-2 2l-3 2zM537 578v32q212 191 313 305l63 72q42 -15 60 -45q-123 -235 -213 -348q91 -116 213 -348 q-17 -30 -60 -45q-135 160 -335 339l-2 2l-2 2l-2 1l-2 2l-2 2l-2 2l-3 2z" />
<glyph unicode="&#xac;" horiz-adv-x="1146" d="M49 711v110h1051v-549h-152v439h-899z" />
<glyph unicode="&#xad;" horiz-adv-x="704" d="M78 498q0 50 31 90q11 13 20 14h469q27 -2 29 -47q0 -37 -30 -82q-15 -18 -26 -20h-462q-25 8 -31 45z" />
<glyph unicode="&#xae;" horiz-adv-x="1296" d="M70 627q0 246 177 416q170 160 402 161q247 0 418 -178q159 -169 160 -399q0 -247 -178 -418q-169 -159 -400 -160q-247 0 -418 178q-161 169 -161 400zM160 627q0 -216 159 -361q141 -126 330 -127q216 0 362 161q125 140 126 327q0 218 -161 362q-139 125 -327 125 q-220 0 -365 -162q-123 -140 -124 -325zM397 342v29q4 11 23 12h24q15 5 17 16v447q-2 20 -8 22l-33 -2q-19 2 -21 13v26q75 10 273 10q155 0 188 -111q6 -22 6 -42q0 -96 -107 -151q-9 -4 -9 -5l98 -168q38 -63 82 -63v-27q-28 -8 -47 -8q-103 2 -140 78l-98 160 q-12 6 -55 6v-187q5 -13 14 -14h25q21 -2 22 -12v-29q-1 0 -139 4zM590 633q103 0 132 50q17 32 17 79q-4 111 -92 112q-41 0 -57 -6v-235z" />
<glyph unicode="&#xaf;" horiz-adv-x="813" d="M121 1104q0 40 28 63q9 6 17 7h500q25 -4 28 -39q0 -38 -29 -64q-11 -7 -20 -8h-500q-23 2 -24 41z" />
<glyph unicode="&#xb0;" horiz-adv-x="546" d="M57 1075q0 117 99 182q55 35 118 35q116 0 180 -97q35 -55 35 -120q0 -117 -98 -181q-54 -34 -117 -34q-116 0 -181 97q-35 55 -36 118zM145 1073q0 -80 66 -118q30 -16 63 -17q82 0 116 79q11 28 11 56q0 85 -63 124q-29 17 -64 17q-86 0 -118 -84q-10 -28 -11 -57z" />
<glyph unicode="&#xb1;" horiz-adv-x="1079" d="M123 588v123h348v350h123v-350h348v-123h-348v-348h-123v348h-348zM147 18v144h820v-144h-820z" />
<glyph unicode="&#xb2;" horiz-adv-x="696" d="M68 741v4q0 71 89 164q32 32 79 74l98 84q72 65 75 164q0 13 1 41q0 78 -61 113q-21 11 -40 12q-53 0 -98 -72l-16 -26q-13 -22 -19 -31l-57 2l-29 133l4 4q110 63 225 63q177 0 248 -103q29 -44 29 -97q0 -90 -76 -163q-17 -16 -39 -34l-133 -112q-46 -36 -69 -85 q-4 -9 -5 -14h109q38 0 213 10h6q-8 -28 -8 -77q0 -25 8 -54q-103 4 -205 4q-13 0 -329 -4z" />
<glyph unicode="&#xb3;" horiz-adv-x="696" d="M47 803l31 112l57 3q9 -14 23 -40q32 -60 66 -74q25 -9 59 -9q110 0 131 108q4 23 4 47q-3 130 -150 131q-37 0 -53 -2v64q195 12 197 153q0 64 -62 100q-25 13 -47 13q-75 0 -117 -61q-7 -10 -20 -32l-16 -28h-58l-29 113l5 4q67 50 197 63q27 2 50 2q262 -3 265 -155 q-3 -142 -150 -189v-4q150 -12 182 -118q7 -24 6 -50q0 -136 -160 -193q-79 -28 -177 -28q-143 1 -228 64z" />
<glyph unicode="&#xb4;" horiz-adv-x="698" d="M156 1057q1 26 16 49l170 268q13 4 33 4q82 0 131 -42q4 -4 6 -7l20 -47l-245 -221q-39 -32 -88 -33q-26 0 -41 21q-2 5 -2 8z" />
<glyph unicode="&#xb5;" horiz-adv-x="1083" d="M74 889l241 26q0 -2 7 -213v-395q0 -186 80 -218q14 -5 28 -5q103 0 196 78q23 20 38 39v688l225 29v-660q0 -127 32 -156q20 -16 50 -16q32 0 55 27q6 4 8 6q12 0 24 -29q3 -8 3 -12q0 -14 -48 -49q-69 -48 -143 -49q-152 0 -193 98l-7 20h-4q-126 -101 -215 -117 q-29 -5 -58 -6q-52 1 -94 19q1 -23 2 -70q1 -83 8 -121q24 -106 25 -147q-12 -123 -109 -131q-49 0 -94 52q-34 41 -35 89q0 54 15 146q20 134 20 180q0 17 -3 55l-3 47q-2 21 -13 72q-16 83 -16 115v381z" />
<glyph unicode="&#xb6;" horiz-adv-x="1232" d="M117 985q0 162 126 260q105 80 263 80q96 0 241 -3q68 -1 89 -1l202 6l2 -6q-20 -137 -20 -410v-977q0 -264 20 -409l-4 -6q-2 0 -202 6l-201 -6l-4 6q20 148 20 409v650q-30 -6 -65 -6q-421 0 -463 335q-4 36 -4 72zM752 -330q4 -76 82 -78q82 5 84 78v1506 q-3 77 -84 77q-80 -3 -82 -77v-1506z" />
<glyph unicode="&#xb7;" horiz-adv-x="616" d="M170 528q0 76 69 119q34 20 70 21q75 0 118 -68q21 -35 22 -72q0 -81 -74 -120q-32 -16 -66 -17q-91 0 -127 80q-12 28 -12 57z" />
<glyph unicode="&#xb8;" horiz-adv-x="1107" d="M422 -340l31 74q71 -26 116 -27q66 0 88 44q4 11 5 20q0 39 -39 52q-11 3 -21 3q-49 0 -88 -14l-27 26l80 176h92l-41 -104q139 0 169 -96q5 -17 6 -33q0 -92 -104 -135q-51 -20 -109 -21q-83 1 -158 35z" />
<glyph unicode="&#xb9;" horiz-adv-x="696" d="M113 1393q184 37 356 86q9 -3 10 -6q0 -3 -2 -13q-14 -76 -14 -172v-330q0 -124 16 -213l-2 -4q-3 0 -104 4l-103 -4l-2 4q14 76 15 213v289q-2 69 -23 74q-14 2 -67 2q-52 0 -78 2z" />
<glyph unicode="&#xba;" horiz-adv-x="753" d="M80 879q0 160 136 237q75 42 165 43q96 -1 156 -35q108 -62 134 -184q5 -26 5 -49q0 -148 -121 -223q-78 -47 -184 -47q-182 0 -258 128q-32 60 -33 130zM260 899q0 -161 69 -197q28 -14 64 -14q80 0 98 91q6 35 7 79q0 190 -67 228q-26 14 -62 14q-88 0 -104 -102 q-5 -36 -5 -99z" />
<glyph unicode="&#xbb;" horiz-adv-x="1136" d="M125 246q123 235 213 348q-91 116 -213 348q17 30 59 45q135 -160 335 -339l2 -2l2 -2l2 -2l2 -1l2 -2l2 -2l3 -3q19 -16 27 -24v-32q-212 -191 -314 -305l-63 -72q-42 15 -59 45zM510 246q123 235 213 348q-91 116 -213 348q17 30 59 45q135 -160 335 -339l2 -2l2 -2 l2 -2l2 -1l2 -2l3 -2l2 -3q19 -16 27 -24v-32q-212 -191 -314 -305l-63 -72q-42 15 -59 45z" />
<glyph unicode="&#xbc;" horiz-adv-x="1433" d="M106 1292q184 37 357 86q9 -3 10 -6q0 -3 -2 -12q-14 -76 -14 -172v-330q0 -124 16 -213l-2 -4q-3 0 -104 4l-103 -4l-2 4q14 76 14 213v289q-2 69 -22 74q-14 2 -67 2q-52 0 -78 2zM201 -131l940 1341l84 -36l-938 -1342zM748 -31q34 50 293 386q48 62 73 98h103 q22 -4 24 -21v-401h123l-6 -86h-117v-4q0 -124 16 -213l-2 -4q-3 0 -100 4l-96 -4l-2 4q14 76 14 213v4h-299zM877 31h194v259z" />
<glyph unicode="&#xbd;" horiz-adv-x="1433" d="M111 1292q184 37 356 86q9 -3 10 -6q0 -3 -2 -12q-14 -76 -14 -172v-330q0 -124 16 -213l-2 -4q-3 0 -104 4l-103 -4l-2 4q14 76 15 213v289q-2 69 -23 74q-14 2 -67 2q-52 0 -78 2zM152 -90l938 1341l86 -37l-940 -1341zM801 -162q0 71 89 163q32 32 79 75l98 84 q72 65 75 164q0 13 1 41q0 78 -61 113q-21 10 -40 11q-53 0 -98 -72l-15 -25q-13 -22 -20 -32l-57 2l-29 134l4 4q110 63 226 63q177 0 247 -103q29 -44 29 -98q0 -90 -76 -162q-17 -16 -39 -34l-133 -113q-46 -36 -69 -84q-4 -9 -4 -14h108q38 0 213 10h6q-8 -28 -8 -78 q0 -25 8 -53q-103 4 -205 4q-13 0 -329 -4v4z" />
<glyph unicode="&#xbe;" horiz-adv-x="1433" d="M43 698l31 113l57 2q9 -14 23 -39q32 -60 66 -74q25 -10 59 -10q110 0 130 108q4 23 5 48q-3 130 -150 131q-37 0 -53 -2v63q195 12 197 154q0 64 -62 99q-25 13 -47 14q-75 0 -117 -62q-7 -10 -20 -32q-11 -19 -17 -27h-57l-29 112l4 4q67 50 198 63q27 2 50 3 q262 -3 264 -156q-3 -142 -149 -188v-4q150 -12 182 -119q7 -24 6 -49q0 -136 -160 -193q-79 -28 -178 -28q-143 1 -227 63zM211 -90l940 1341l84 -37l-938 -1341zM756 -27q34 50 293 386q48 62 73 98h103q22 -4 24 -21v-401h123l-6 -86h-117v-4q0 -124 17 -213l-2 -4 q-3 0 -101 4l-96 -4l-2 4q14 76 14 213v4h-299zM885 35h194v259z" />
<glyph unicode="&#xbf;" horiz-adv-x="950" d="M-35 270v13q0 147 184 286l62 45q76 56 100 111q23 55 23 131v80q0 18 56 29q8 1 11 2q35 0 62 -22q5 -6 6 -9v-84q-2 -187 -158 -330q-82 -75 -84 -207v-24q0 -79 60 -156q49 -60 104 -61q141 2 252 192l68 -2l32 -155l-6 -9q-77 -64 -221 -105q-78 -22 -143 -22 q-179 1 -267 50q-135 76 -141 247zM268 1214v11q35 102 114 131q14 5 28 8h8q93 -20 124 -90q10 -22 17 -49v-11q-37 -94 -128 -133q-7 -3 -13 -6h-8q-97 34 -134 121q-4 10 -8 18z" />
<glyph unicode="&#xc0;" horiz-adv-x="1435" d="M41 -6l604 1354h184q418 -1063 562 -1354q-36 6 -187 6q-130 0 -166 -6q-50 179 -152 456q-125 3 -204 3q-117 0 -272 -4q-120 -296 -162 -455q-26 6 -92 6q-89 0 -115 -6zM336 1561q36 108 117 165l290 -202q30 -23 31 -49q0 -31 -23 -48q-6 -3 -10 -4q-19 1 -79 19 l-312 90zM458 565q27 0 90 -2q89 -2 124 -2q66 0 171 2q-99 256 -181 449h-13z" />
<glyph unicode="&#xc1;" horiz-adv-x="1435" d="M41 -6l604 1354h184q418 -1063 562 -1354q-36 6 -187 6q-130 0 -166 -6q-50 179 -152 456q-125 3 -204 3q-117 0 -272 -4q-120 -296 -162 -455q-26 6 -92 6q-89 0 -115 -6zM458 565q27 0 90 -2q89 -2 124 -2q66 0 171 2q-99 256 -181 449h-13zM698 1475q3 29 31 49 l291 202q82 -58 117 -165l-15 -29l-311 -90q-64 -18 -80 -19q-21 0 -31 39q-2 8 -2 13z" />
<glyph unicode="&#xc2;" horiz-adv-x="1435" d="M41 -6l604 1354h184q418 -1063 562 -1354q-36 6 -187 6q-130 0 -166 -6q-50 179 -152 456q-125 3 -204 3q-117 0 -272 -4q-120 -296 -162 -455q-26 6 -92 6q-89 0 -115 -6zM422 1464q154 124 272 242h62q70 -74 270 -242l-33 -63q-138 54 -268 115q-107 -51 -270 -115z M458 565q27 0 90 -2q89 -2 124 -2q66 0 171 2q-99 256 -181 449h-13z" />
<glyph unicode="&#xc3;" horiz-adv-x="1435" d="M41 -6l604 1354h184q418 -1063 562 -1354q-36 6 -187 6q-130 0 -166 -6q-50 179 -152 456q-125 3 -204 3q-117 0 -272 -4q-120 -296 -162 -455q-26 6 -92 6q-89 0 -115 -6zM410 1475q54 221 180 223q82 -1 162 -62q66 -46 112 -47q61 4 101 111l73 -19 q-44 -203 -171 -225q-14 -2 -27 -2q-79 0 -133 49q-5 5 -9 8q-53 48 -114 50q-70 0 -96 -86q-2 -8 -5 -15zM458 565q27 0 90 -2q89 -2 124 -2q66 0 171 2q-99 256 -181 449h-13z" />
<glyph unicode="&#xc4;" horiz-adv-x="1435" d="M41 -6l604 1354h184q418 -1063 562 -1354q-36 6 -187 6q-130 0 -166 -6q-50 179 -152 456q-125 3 -204 3q-117 0 -272 -4q-120 -296 -162 -455q-26 6 -92 6q-89 0 -115 -6zM283 1440q0 72 66 104q26 12 52 12q77 0 107 -68q10 -24 10 -48q0 -73 -66 -104q-25 -11 -51 -11 q-72 0 -105 63q-12 26 -13 52zM458 565q27 0 90 -2q89 -2 124 -2q66 0 171 2q-99 256 -181 449h-13zM893 1440q0 77 69 107q24 10 48 9q72 0 105 -63q13 -26 13 -53q0 -70 -66 -103q-26 -12 -52 -12q-74 0 -106 65q-11 25 -11 50z" />
<glyph unicode="&#xc5;" horiz-adv-x="1435" d="M41 -6l585 1309q-102 67 -106 182q0 117 101 178q54 32 116 33q119 0 183 -94q35 -54 36 -117q0 -113 -98 -176q-6 -4 -11 -7q404 -1027 544 -1308q-36 6 -187 6q-130 0 -166 -6q-50 179 -152 456q-125 3 -204 3q-117 0 -272 -4q-120 -296 -162 -455q-26 6 -92 6 q-89 0 -115 -6zM458 565q27 0 90 -2q89 -2 124 -2q66 0 171 2q-99 256 -181 449h-13zM614 1485q0 -71 62 -112q31 -19 63 -19q74 0 111 72q14 30 14 59q0 80 -68 116q-27 15 -57 15q-77 0 -111 -73q-13 -29 -14 -58z" />
<glyph unicode="&#xc6;" horiz-adv-x="1724" d="M-2 -6q371 710 733 1332l72 -5h98h78h500q74 0 123 6l4 -6q-4 -56 -4 -84q0 -40 4 -74l-4 -8l-352 19q-68 2 -126 2h-63q1 -47 6 -412q201 2 418 20l6 -6q-6 -28 -6 -67q0 -59 6 -88l-6 -7q-156 16 -416 20q5 -328 15 -491q208 8 538 41l4 -8q-4 -32 -4 -88q0 -34 4 -90 l-4 -6q-50 6 -123 6h-403h-24h-171q-78 0 -113 -6q0 19 2 446h-73q-139 0 -297 -3q-134 -274 -199 -443q-26 6 -92 6q-105 0 -131 -6zM479 554q26 0 87 -1q107 -2 141 -2q39 0 83 1q1 322 2 541h-25q-147 -259 -288 -539z" />
<glyph unicode="&#xc7;" horiz-adv-x="1415" d="M76 645q0 304 197 501q28 27 57 50q186 145 481 151q10 0 20 1q238 0 443 -91l4 -2l4 -6q-31 -133 -41 -266l-61 -2q-102 203 -272 241q-49 11 -105 11q-168 0 -278 -141q-114 -149 -115 -408q0 -232 131 -413q124 -167 280 -169q183 0 294 68q64 40 142 115l50 -70 q-230 -234 -525 -235l-30 -78q139 0 169 -96q5 -17 5 -33q0 -92 -103 -135q-51 -20 -110 -21q-83 1 -158 35l31 74q71 -26 116 -27q66 0 88 43q4 11 5 20q0 39 -39 52q-11 3 -21 4q-49 -1 -88 -15l-26 27l70 154q-208 23 -355 131q-211 155 -252 424q-8 54 -8 106z" />
<glyph unicode="&#xc8;" horiz-adv-x="1196" d="M172 0q24 167 25 410v501q0 235 -25 410l4 6q3 0 172 -6h602q74 0 123 6l4 -6q-4 -57 -4 -72q0 -49 4 -84l-4 -8l-367 21q-107 4 -198 4q-16 -56 -16 -271v-149q225 0 464 20l7 -6q-6 -28 -7 -76q0 -49 7 -77l-7 -7q-202 20 -464 21v-227q0 -202 16 -260q274 0 586 45 l4 -9q-4 -32 -4 -112q0 -19 4 -74l-4 -6q-50 6 -123 6h-623l-174 -6zM336 1561q36 108 117 165l290 -202q30 -23 31 -49q0 -31 -23 -48q-6 -3 -10 -4q-19 1 -79 19l-312 90z" />
<glyph unicode="&#xc9;" horiz-adv-x="1196" d="M172 0q24 167 25 410v501q0 235 -25 410l4 6q3 0 172 -6h602q74 0 123 6l4 -6q-4 -57 -4 -72q0 -49 4 -84l-4 -8l-367 21q-107 4 -198 4q-16 -56 -16 -271v-149q225 0 464 20l7 -6q-6 -28 -7 -76q0 -49 7 -77l-7 -7q-202 20 -464 21v-227q0 -202 16 -260q274 0 586 45 l4 -9q-4 -32 -4 -112q0 -19 4 -74l-4 -6q-50 6 -123 6h-623l-174 -6zM391 1475q3 29 31 49l291 202q82 -58 116 -165l-14 -29l-311 -90q-64 -18 -80 -19q-21 0 -31 39q-2 8 -2 13z" />
<glyph unicode="&#xca;" horiz-adv-x="1196" d="M172 0q24 167 25 410v501q0 235 -25 410l4 6q3 0 172 -6h602q74 0 123 6l4 -6q-4 -57 -4 -72q0 -49 4 -84l-4 -8l-367 21q-107 4 -198 4q-16 -56 -16 -271v-149q225 0 464 20l7 -6q-6 -28 -7 -76q0 -49 7 -77l-7 -7q-202 20 -464 21v-227q0 -202 16 -260q274 0 586 45 l4 -9q-4 -32 -4 -112q0 -19 4 -74l-4 -6q-50 6 -123 6h-623l-174 -6zM340 1464q154 124 272 242h62q70 -74 270 -242l-33 -63q-138 54 -268 115q-107 -51 -270 -115z" />
<glyph unicode="&#xcb;" horiz-adv-x="1196" d="M172 0q24 167 25 410v501q0 235 -25 410l4 6q3 0 172 -6h602q74 0 123 6l4 -6q-4 -57 -4 -72q0 -49 4 -84l-4 -8l-367 21q-107 4 -198 4q-16 -56 -16 -271v-149q225 0 464 20l7 -6q-6 -28 -7 -76q0 -49 7 -77l-7 -7q-202 20 -464 21v-227q0 -202 16 -260q274 0 586 45 l4 -9q-4 -32 -4 -112q0 -19 4 -74l-4 -6q-50 6 -123 6h-623l-174 -6zM260 1614q0 81 72 116q28 13 57 13q81 0 116 -72q13 -28 13 -57q0 -77 -69 -113q-29 -14 -60 -14q-81 0 -116 71q-13 28 -13 56zM711 1614q0 81 72 116q28 13 57 13q77 0 114 -69q14 -29 15 -60 q0 -76 -70 -113q-29 -14 -59 -14q-81 0 -116 71q-13 28 -13 56z" />
<glyph unicode="&#xcc;" horiz-adv-x="718" d="M152 1561q35 108 116 165l291 -202q30 -23 31 -49q0 -31 -23 -48q-6 -3 -10 -4q-19 1 -80 19l-311 90zM193 0q24 167 24 410v501q0 235 -24 410l4 6q3 0 168 -6l170 6l2 -6q-24 -164 -25 -410v-501q0 -235 25 -410l-5 -6q-3 0 -167 6l-170 -6z" />
<glyph unicode="&#xcd;" horiz-adv-x="718" d="M145 1475q3 29 31 49l291 202q82 -58 117 -165l-15 -29l-311 -90q-64 -18 -80 -19q-21 0 -31 39q-2 8 -2 13zM193 0q24 167 24 410v501q0 235 -24 410l4 6q3 0 168 -6l170 6l2 -6q-24 -164 -25 -410v-501q0 -235 25 -410l-5 -6q-3 0 -167 6l-170 -6z" />
<glyph unicode="&#xce;" horiz-adv-x="718" d="M59 1464q154 124 273 242h61q71 -74 271 -242l-33 -63q-138 54 -269 115q-107 -51 -270 -115zM193 0q24 167 24 410v501q0 235 -24 410l4 6q3 0 168 -6l170 6l2 -6q-24 -164 -25 -410v-501q0 -235 25 -410l-5 -6q-3 0 -167 6l-170 -6z" />
<glyph unicode="&#xcf;" horiz-adv-x="718" d="M-6 1614q0 81 72 116q28 13 57 13q81 0 116 -72q13 -28 13 -57q0 -77 -69 -113q-29 -14 -60 -14q-81 0 -116 71q-13 28 -13 56zM193 0q24 167 24 410v501q0 235 -24 410l4 6q3 0 168 -6l170 6l2 -6q-24 -164 -25 -410v-501q0 -235 25 -410l-5 -6q-3 0 -167 6l-170 -6z M444 1614q0 81 73 116q28 13 56 13q77 0 115 -69q14 -29 14 -60q0 -76 -70 -113q-29 -14 -59 -14q-81 0 -116 71q-13 28 -13 56z" />
<glyph unicode="&#xd0;" horiz-adv-x="1579" d="M-6 573l20 125q74 -4 193 -6v219q0 235 -25 410l4 6q2 0 172 -6q78 0 201 3q124 3 201 3q284 0 498 -192q210 -188 231 -454q2 -26 2 -50q0 -410 -340 -564q-159 -71 -354 -71q-111 0 -245 2q-115 2 -194 2l-174 -6l-2 6q24 167 25 410v170q-130 -2 -213 -7zM502 207 q0 -65 63 -86q55 -17 168 -17q225 0 310 76q109 100 110 402q0 306 -71 440q-108 196 -400 197q-162 0 -179 -87q-1 -9 -1 -16v-425q148 2 252 7l-21 -125q-101 5 -231 8v-374z" />
<glyph unicode="&#xd1;" horiz-adv-x="1597" d="M164 0q22 147 33 410l10 501q6 222 -21 410l4 6q3 0 134 -6l90 4l743 -909q37 -46 43 -21q2 12 2 31l-14 485q-7 272 -27 410l4 6q3 0 105 -6l100 6l4 -6q-20 -137 -20 -410v-917q-69 6 -99 6q-22 0 -51 -2q-35 -2 -63 -2l-781 936q-5 8 -7 17q0 -20 -1 -50l-12 -489 q-7 -273 12 -410l-4 -6q-3 0 -100 6l-82 -6zM494 1483q54 221 180 223q82 -1 162 -61q66 -47 112 -48q61 4 101 111l73 -18q-44 -203 -171 -225q-14 -2 -27 -3q-79 0 -133 49l-9 9q-53 48 -114 49q-70 0 -97 -86q-2 -8 -4 -15z" />
<glyph unicode="&#xd2;" horiz-adv-x="1636" d="M106 635q0 310 204 513q201 198 503 200q370 0 566 -232q150 -178 151 -442q0 -340 -227 -532q-193 -161 -488 -162q-321 0 -523 199q-184 184 -186 456zM436 670q0 -402 223 -532q87 -49 197 -50q327 0 343 491q1 28 1 56q0 434 -192 551q-89 53 -222 53 q-349 -5 -350 -569zM520 1561q36 108 117 165l291 -202q30 -23 30 -49q0 -31 -23 -48q-6 -3 -9 -4q-19 1 -80 19l-311 90z" />
<glyph unicode="&#xd3;" horiz-adv-x="1636" d="M106 635q0 310 204 513q201 198 503 200q370 0 566 -232q150 -178 151 -442q0 -340 -227 -532q-193 -161 -488 -162q-321 0 -523 199q-184 184 -186 456zM436 670q0 -402 223 -532q87 -49 197 -50q327 0 343 491q1 28 1 56q0 434 -192 551q-89 53 -222 53 q-349 -5 -350 -569zM575 1475q3 29 31 49l291 202q82 -58 117 -165l-15 -29l-311 -90q-64 -18 -80 -19q-21 0 -31 39q-2 8 -2 13z" />
<glyph unicode="&#xd4;" horiz-adv-x="1636" d="M106 635q0 310 204 513q201 198 503 200q370 0 566 -232q150 -178 151 -442q0 -340 -227 -532q-193 -161 -488 -162q-321 0 -523 199q-184 184 -186 456zM436 670q0 -402 223 -532q87 -49 197 -50q327 0 343 491q1 28 1 56q0 434 -192 551q-89 53 -222 53 q-349 -5 -350 -569zM504 1464q154 124 272 242h62q70 -74 270 -242l-33 -63q-138 54 -268 115q-107 -51 -270 -115z" />
<glyph unicode="&#xd5;" horiz-adv-x="1636" d="M106 635q0 310 204 513q201 198 503 200q370 0 566 -232q150 -178 151 -442q0 -340 -227 -532q-193 -161 -488 -162q-321 0 -523 199q-184 184 -186 456zM436 670q0 -402 223 -532q87 -49 197 -50q327 0 343 491q1 28 1 56q0 434 -192 551q-89 53 -222 53 q-349 -5 -350 -569zM510 1483q54 221 180 223q82 -1 162 -61q67 -47 113 -48q61 4 100 111l74 -18q-44 -203 -172 -225q-14 -2 -27 -3q-79 0 -132 49l-9 9q-53 48 -115 49q-70 0 -96 -86q-2 -8 -4 -15z" />
<glyph unicode="&#xd6;" horiz-adv-x="1636" d="M106 635q0 310 204 513q201 198 503 200q370 0 566 -232q150 -178 151 -442q0 -340 -227 -532q-193 -161 -488 -162q-321 0 -523 199q-184 184 -186 456zM250 1440q0 74 66 105q25 11 51 11q76 0 107 -66q11 -25 11 -50q0 -73 -68 -104q-25 -10 -50 -11q-73 0 -106 65 q-11 25 -11 50zM436 670q0 -402 223 -532q87 -49 197 -50q327 0 343 491q1 28 1 56q0 434 -192 551q-89 53 -222 53q-349 -5 -350 -569zM1155 1440q0 75 68 106q25 10 51 10q73 0 105 -65q11 -25 12 -51q0 -72 -67 -104q-25 -11 -50 -11q-75 0 -108 66q-11 24 -11 49z" />
<glyph unicode="&#xd7;" horiz-adv-x="1116" d="M209 723l100 100l248 -245l248 245l100 -102l-246 -246l246 -246l-100 -100l-248 246l-246 -246l-100 100l246 246z" />
<glyph unicode="&#xd8;" horiz-adv-x="1636" d="M106 635q0 310 204 513q201 198 503 200q209 -1 369 -80l98 121l90 -70l-89 -111q240 -178 249 -511v-23q0 -340 -227 -532q-193 -161 -488 -162q-246 1 -430 123l-154 -189l-90 74l154 188q-187 185 -189 459zM436 670q1 -157 36 -275l601 738q-100 105 -287 106 q-349 -5 -350 -569zM524 275q113 -186 332 -187q327 0 343 491q1 28 1 56q-1 256 -63 397z" />
<glyph unicode="&#xd9;" horiz-adv-x="1472" d="M156 1321l4 6q3 0 159 -6l170 6l3 -6q-20 -137 -21 -410v-360q0 -355 207 -424q46 -14 98 -14q280 0 331 279q13 74 13 175v344q0 264 -20 410l4 6q3 0 104 -6l105 6l2 -6q-20 -137 -21 -410v-307q-4 -622 -561 -624q-279 0 -431 154q-125 131 -126 349v428 q0 264 -20 410zM520 1561q36 108 117 165l291 -202q30 -23 30 -49q0 -31 -23 -48q-6 -3 -9 -4q-19 1 -80 19l-311 90z" />
<glyph unicode="&#xda;" horiz-adv-x="1472" d="M156 1321l4 6q3 0 159 -6l170 6l3 -6q-20 -137 -21 -410v-360q0 -355 207 -424q46 -14 98 -14q280 0 331 279q13 74 13 175v344q0 264 -20 410l4 6q3 0 104 -6l105 6l2 -6q-20 -137 -21 -410v-307q-4 -622 -561 -624q-279 0 -431 154q-125 131 -126 349v428 q0 264 -20 410zM596 1475q3 29 31 49l291 202q82 -58 116 -165l-14 -29l-311 -90q-64 -18 -80 -19q-21 0 -31 39q-2 8 -2 13z" />
<glyph unicode="&#xdb;" horiz-adv-x="1472" d="M156 1321l4 6q3 0 159 -6l170 6l3 -6q-20 -137 -21 -410v-360q0 -355 207 -424q46 -14 98 -14q280 0 331 279q13 74 13 175v344q0 264 -20 410l4 6q3 0 104 -6l105 6l2 -6q-20 -137 -21 -410v-307q-4 -622 -561 -624q-279 0 -431 154q-125 131 -126 349v428 q0 264 -20 410zM483 1464q154 124 273 242h61q70 -74 270 -242l-32 -63q-138 54 -269 115q-107 -51 -270 -115z" />
<glyph unicode="&#xdc;" horiz-adv-x="1472" d="M156 1321l4 6q3 0 159 -6l170 6l3 -6q-20 -137 -21 -410v-360q0 -355 207 -424q46 -14 98 -14q280 0 331 279q13 74 13 175v344q0 264 -20 410l4 6q3 0 104 -6l105 6l2 -6q-20 -137 -21 -410v-307q-4 -622 -561 -624q-279 0 -431 154q-125 131 -126 349v428 q0 264 -20 410zM483 1460q0 74 67 106q25 11 50 11q77 0 107 -69q10 -24 10 -48q0 -73 -66 -103q-25 -11 -51 -11q-73 0 -105 65q-12 24 -12 49zM858 1460q0 77 69 107q24 10 48 10q73 0 105 -66q11 -25 12 -51q0 -72 -67 -103q-25 -11 -50 -11q-74 0 -106 65q-11 24 -11 49 z" />
<glyph unicode="&#xdd;" horiz-adv-x="1337" d="M33 1327q36 -6 200 -6q124 0 160 6q71 -139 329 -578l10 -17q209 333 335 595q26 -6 119 -6q69 0 96 6q-363 -555 -399 -614l-51 -90q3 -478 16 -629q-34 6 -170 6q-134 0 -168 -6q13 133 14 569q-126 214 -491 764zM535 1475q3 29 30 49l291 202q82 -58 117 -165 l-15 -29l-311 -90q-64 -18 -80 -19q-21 0 -31 39q-2 8 -1 13z" />
<glyph unicode="&#xde;" horiz-adv-x="1263" d="M170 0q24 167 25 410v501q0 235 -25 410l4 6q3 0 168 -6l170 6l2 -6q-16 -105 -21 -247q74 4 197 3q402 0 485 -252q18 -58 19 -123q0 -234 -210 -337q-131 -63 -322 -64q-124 0 -172 13q4 -175 24 -314l-4 -6q-3 0 -168 6l-170 -6zM489 412q34 -9 121 -9q254 5 256 299 q0 230 -164 267q-27 6 -55 6q-77 0 -157 -21q0 -14 -1 -43v-499z" />
<glyph unicode="&#xdf;" horiz-adv-x="1226" d="M129 0q20 131 21 367v120q0 335 279 437q108 38 249 39q170 0 357 -36q42 -8 65 -16v-32l-221 -320q-4 -5 -7 -14q3 -7 11 -8q182 -8 252 -147q28 -58 28 -124q0 -117 -90 -202q-16 -14 -31 -25q-86 -59 -297 -59q-115 0 -218 54q-4 2 -5 3l-2 6q16 29 39 119l23 2 q27 -50 104 -82q34 -14 59 -14q139 0 160 133q4 28 4 59q0 92 -69 161q-74 70 -201 71q-25 0 -47 -5l-8 37q211 283 213 316q0 28 -112 37q-20 1 -36 2q-146 0 -193 -92q-40 -80 -40 -263v-153q0 -234 20 -371l-4 -6q-3 0 -141 6l-160 -6z" />
<glyph unicode="&#xe0;" horiz-adv-x="1064" d="M12 -4l434 975h195l165 -406q192 -475 238 -569q-25 4 -188 4q-105 0 -131 -4q-32 114 -100 299q-80 2 -131 2q-76 0 -187 -4q-76 -192 -104 -297q-20 4 -88 4q-82 0 -103 -4zM342 1298l4 23q30 34 109 56q34 9 61 9q23 0 41 -4l141 -254q17 -32 19 -53q0 -23 -39 -31 q-6 -1 -10 -2q-33 2 -78 41zM345 387q18 0 57 -2q62 -2 85 -2q39 0 105 2q-57 149 -121 299z" />
<glyph unicode="&#xe1;" horiz-adv-x="1064" d="M12 -4l434 975h195l165 -406q192 -475 238 -569q-25 4 -188 4q-105 0 -131 -4q-32 114 -100 299q-80 2 -131 2q-76 0 -187 -4q-76 -192 -104 -297q-20 4 -88 4q-82 0 -103 -4zM345 387q18 0 57 -2q62 -2 85 -2q39 0 105 2q-57 149 -121 299zM354 1063q1 26 17 49l170 268 q13 4 32 4q82 0 131 -42l7 -7l20 -47l-246 -221q-39 -32 -88 -33q-26 0 -40 22q-2 5 -3 7z" />
<glyph unicode="&#xe2;" horiz-adv-x="1064" d="M12 -4l434 975h195l165 -406q192 -475 238 -569q-25 4 -188 4q-105 0 -131 -4q-32 114 -100 299q-80 2 -131 2q-76 0 -187 -4q-76 -192 -104 -297q-20 4 -88 4q-82 0 -103 -4zM231 1098q164 170 233 265l23 34h82q95 -135 182 -226l72 -73l-55 -49q-153 73 -234 150 q-5 5 -8 7q-81 -75 -219 -147l-20 -10zM345 387q18 0 57 -2q62 -2 85 -2q39 0 105 2q-57 149 -121 299z" />
<glyph unicode="&#xe3;" horiz-adv-x="1064" d="M12 -4l434 975h195l165 -406q192 -475 238 -569q-25 4 -188 4q-105 0 -131 -4q-32 114 -100 299q-80 2 -131 2q-76 0 -187 -4q-76 -192 -104 -297q-20 4 -88 4q-82 0 -103 -4zM240 1073q54 221 180 223q82 -1 162 -61q66 -46 112 -47q61 4 101 110l73 -18 q-44 -203 -171 -225q-14 -2 -27 -2q-79 0 -133 49q-5 5 -9 8q-53 48 -114 49q-70 0 -96 -85q-2 -8 -5 -15zM345 387q18 0 57 -2q62 -2 85 -2q39 0 105 2q-57 149 -121 299z" />
<glyph unicode="&#xe4;" horiz-adv-x="1064" d="M12 -4l434 975h195l165 -406q192 -475 238 -569q-25 4 -188 4q-105 0 -131 -4q-32 114 -100 299q-80 2 -131 2q-76 0 -187 -4q-76 -192 -104 -297q-20 4 -88 4q-82 0 -103 -4zM190 1190q0 78 68 114q28 14 57 15q81 0 116 -72q13 -28 13 -57q0 -76 -69 -112 q-29 -14 -60 -15q-74 0 -110 69q-14 29 -15 58zM345 387q18 0 57 -2q62 -2 85 -2q39 0 105 2q-57 149 -121 299zM618 1190q0 81 73 116q28 13 57 13q75 0 110 -69q14 -29 14 -60q0 -74 -67 -112q-29 -15 -57 -15q-78 0 -115 69q-14 29 -15 58z" />
<glyph unicode="&#xe5;" horiz-adv-x="1064" d="M12 -4l434 975h195l165 -406q192 -475 238 -569q-25 4 -188 4q-105 0 -131 -4q-32 114 -100 299q-80 2 -131 2q-76 0 -187 -4q-76 -192 -104 -297q-20 4 -88 4q-82 0 -103 -4zM324 1219q0 117 100 178q54 32 117 33q119 0 183 -94q35 -54 36 -117q0 -112 -96 -175 q-57 -36 -123 -36q-119 0 -183 96q-33 54 -34 115zM345 387q18 0 57 -2q62 -2 85 -2q39 0 105 2q-57 149 -121 299zM418 1219q0 -71 61 -112q31 -19 64 -20q74 0 110 73q14 30 15 59q0 80 -68 116q-28 14 -57 15q-77 0 -112 -73q-13 -29 -13 -58z" />
<glyph unicode="&#xe6;" horiz-adv-x="1587" d="M31 -4q214 407 448 950q3 0 344 -4h473q74 0 123 6l4 -6q-4 -57 -4 -76q0 -14 4 -43l-4 -8l-211 19q-112 6 -229 6q-16 -56 -16 -267v-32q157 0 292 15q24 3 48 5l6 -6q-6 -28 -6 -63q0 -36 6 -64l-6 -6q-203 20 -340 20v-73q0 -198 16 -256q123 0 237.5 6t168.5 12l55 6 l4 -8q-4 -33 -4 -63q0 -12 4 -66l-4 -6q-50 6 -123 6h-494l-161 -6l-3 6q21 126 21 367v75h-272q-138 -316 -187 -446q-20 4 -67 4q-103 0 -123 -4zM451 541h229v260q-9 68 -45 71q-37 0 -68 -63q-1 -3 -2 -4z" />
<glyph unicode="&#xe7;" horiz-adv-x="995" d="M86 442q0 307 215 444q122 76 283 77q138 0 293 -52q34 -12 53 -22l4 -6l-49 -213l-58 -2q-47 125 -157 168q-36 13 -68 14q-139 0 -199 -155q-32 -84 -32 -195q1 -166 65 -279q41 -70 135 -106q33 -12 58 -13q175 2 245 91h33q0 -45 11 -97q-108 -99 -241 -114 q-37 -4 -79 -5l-27 -67q139 0 169 -96q5 -17 5 -33q0 -92 -103 -135q-51 -20 -110 -21q-83 1 -157 35l31 74q71 -26 116 -27q66 0 88 44q4 11 4 20q0 39 -38 52q-11 3 -21 3q-49 0 -88 -14l-27 26l66 145q-198 25 -294 130q-3 4 -5 6q-120 140 -121 323z" />
<glyph unicode="&#xe8;" horiz-adv-x="1079" d="M156 0q20 125 20 367v208q0 244 -20 367l2 6q2 0 161 -6h474q74 0 122 6l5 -6q-4 -58 -5 -70q0 -19 5 -49l-5 -8l-211 19q-112 6 -229 6q-16 -56 -16 -260v-39q157 0 292 15q24 3 48 5l6 -6q-6 -28 -6 -63q0 -36 6 -64l-6 -6q-203 20 -340 20v-73q0 -198 16 -256 q123 0 237.5 6t169.5 12l54 6l4 -8q-4 -33 -4 -63q0 -12 4 -66l-4 -6q-50 6 -123 6h-494l-161 -6zM295 1372l4 23q30 34 109 56q34 9 61 9q23 0 41 -4l141 -254q17 -32 19 -53q0 -23 -39 -32q-5 -1 -10 -1q-33 2 -78 41z" />
<glyph unicode="&#xe9;" horiz-adv-x="1079" d="M156 0q20 125 20 367v208q0 244 -20 367l2 6q2 0 161 -6h474q74 0 122 6l5 -6q-4 -58 -5 -70q0 -19 5 -49l-5 -8l-211 19q-112 6 -229 6q-16 -56 -16 -260v-39q157 0 292 15q24 3 48 5l6 -6q-6 -28 -6 -63q0 -36 6 -64l-6 -6q-203 20 -340 20v-73q0 -198 16 -256 q123 0 237.5 6t169.5 12l54 6l4 -8q-4 -33 -4 -63q0 -12 4 -66l-4 -6q-50 6 -123 6h-494l-161 -6zM328 1067q1 26 16 49l170 268q13 4 33 5q82 0 131 -43q4 -4 6 -7l21 -47l-246 -221q-39 -32 -88 -33q-26 0 -41 22q-2 5 -2 7z" />
<glyph unicode="&#xea;" horiz-adv-x="1079" d="M156 0q20 125 20 367v208q0 244 -20 367l2 6q2 0 161 -6h474q74 0 122 6l5 -6q-4 -58 -5 -70q0 -19 5 -49l-5 -8l-211 19q-112 6 -229 6q-16 -56 -16 -260v-39q157 0 292 15q24 3 48 5l6 -6q-6 -28 -6 -63q0 -36 6 -64l-6 -6q-203 20 -340 20v-73q0 -198 16 -256 q123 0 237.5 6t169.5 12l54 6l4 -8q-4 -33 -4 -63q0 -12 4 -66l-4 -6q-50 6 -123 6h-494l-161 -6zM270 1092q164 170 233 265l23 34h82q95 -135 182 -226l72 -73l-55 -50q-153 73 -234 151q-5 5 -8 7q-81 -75 -219 -147q-16 -8 -20 -11z" />
<glyph unicode="&#xeb;" horiz-adv-x="1079" d="M156 0q20 125 20 367v208q0 244 -20 367l2 6q2 0 161 -6h474q74 0 122 6l5 -6q-4 -58 -5 -70q0 -19 5 -49l-5 -8l-211 19q-112 6 -229 6q-16 -56 -16 -260v-39q157 0 292 15q24 3 48 5l6 -6q-6 -28 -6 -63q0 -36 6 -64l-6 -6q-203 20 -340 20v-73q0 -198 16 -256 q123 0 237.5 6t169.5 12l54 6l4 -8q-4 -33 -4 -63q0 -12 4 -66l-4 -6q-50 6 -123 6h-494l-161 -6zM186 1235q0 78 68 115q28 14 57 14q81 0 116 -72q13 -28 13 -57q0 -76 -69 -112q-29 -14 -60 -15q-74 0 -110 69q-14 29 -15 58zM614 1235q0 81 72 116q28 13 57 13 q75 0 111 -69q14 -29 14 -60q0 -74 -67 -112q-29 -15 -58 -15q-78 0 -114 69q-14 29 -15 58z" />
<glyph unicode="&#xec;" horiz-adv-x="630" d="M96 1372l4 23q30 34 109 56q34 9 61 9q23 0 41 -4l142 -254q17 -32 18 -53q0 -23 -39 -32q-5 -1 -10 -1q-33 2 -78 41zM150 0q24 156 24 410v122q0 245 -24 410l4 6q124 -6 161 -6q17 0 164 6l2 -6q-24 -157 -24 -410v-122q0 -245 24 -410l-4 -6q-124 6 -162 6 q-45 0 -163 -6z" />
<glyph unicode="&#xed;" horiz-adv-x="630" d="M150 0q24 156 24 410v122q0 245 -24 410l4 6q124 -6 161 -6q17 0 164 6l2 -6q-24 -157 -24 -410v-122q0 -245 24 -410l-4 -6q-124 6 -162 6q-45 0 -163 -6zM152 1067q1 26 16 49l170 268q13 4 33 5q82 0 130 -43l7 -7l20 -47l-245 -221q-39 -32 -88 -33q-26 0 -41 22 q-2 5 -2 7z" />
<glyph unicode="&#xee;" horiz-adv-x="630" d="M16 1118q164 170 233 266l23 33h82q95 -135 182 -225l72 -74l-55 -49q-153 73 -234 150l-8 8q-81 -75 -219 -147q-16 -8 -20 -11zM150 0q24 156 24 410v122q0 245 -24 410l4 6q124 -6 161 -6q17 0 164 6l2 -6q-24 -157 -24 -410v-122q0 -245 24 -410l-4 -6q-124 6 -162 6 q-45 0 -163 -6z" />
<glyph unicode="&#xef;" horiz-adv-x="630" d="M-18 1212q0 78 67 115q28 14 57 14q81 0 116 -72q13 -28 14 -57q0 -76 -70 -112q-29 -14 -60 -15q-74 0 -110 69q-13 29 -14 58zM150 0q24 156 24 410v122q0 245 -24 410l4 6q124 -6 161 -6q17 0 164 6l2 -6q-24 -157 -24 -410v-122q0 -245 24 -410l-4 -6q-124 6 -162 6 q-45 0 -163 -6zM410 1212q0 81 72 116q28 13 57 13q75 0 110 -69q14 -29 15 -60q0 -74 -67 -111q-29 -15 -58 -16q-78 0 -115 70q-13 28 -14 57z" />
<glyph unicode="&#xf0;" horiz-adv-x="1232" d="M14 403l21 125q67 -3 141 -5v52q0 244 -20 367l2 6q2 0 157 -6q305 6 371 6q238 0 380 -172q109 -134 110 -315q0 -321 -253 -426q-96 -39 -208 -39q-105 0 -300 3q-81 1 -100 1l-157 -6l-2 6q20 125 20 367v43q-87 -2 -162 -7zM459 158q0 -55 18 -70q32 -22 131 -22 q168 0 224 90q48 81 49 270q0 312 -136 405q-71 47 -176 48q-98 0 -108 -47q-2 -10 -2 -21v-290q91 1 213 7l-21 -125q-109 6 -192 8v-253z" />
<glyph unicode="&#xf1;" horiz-adv-x="1159" d="M133 0q14 93 14 293v356q0 195 -14 293l2 4q3 0 119 -4l133 4l481 -625v328q0 195 -14 293l4 4q3 0 88 -4l80 4v-4q-14 -111 -14 -293v-655q-53 6 -99 6q-50 0 -108 -6l-514 648v-1v-348q0 -195 14 -293l-2 -6q-3 0 -80 6l-88 -6zM285 1122q54 221 180 224q82 -1 162 -62 q66 -46 112 -47q61 4 101 111l73 -19q-44 -203 -171 -225q-14 -2 -27 -2q-79 0 -133 49q-5 5 -9 8q-53 48 -114 49q-70 0 -96 -85q-2 -8 -5 -15z" />
<glyph unicode="&#xf2;" horiz-adv-x="1212" d="M78 449q0 295 218 431q134 83 314 83q314 0 450 -216q74 -120 75 -278q0 -271 -205 -403q-135 -86 -324 -86q-278 0 -425 172q-102 123 -103 297zM369 1372l4 23q30 34 108 56q34 9 62 9q23 0 41 -4l141 -254q17 -32 18 -53q0 -23 -39 -32q-6 -1 -10 -1q-33 2 -78 41z M381 489q0 -325 173 -388q38 -13 81 -13q116 0 167 137q29 80 29 195q0 319 -108 397q-51 34 -127 35q-210 -19 -215 -363z" />
<glyph unicode="&#xf3;" horiz-adv-x="1212" d="M78 449q0 295 218 431q134 83 314 83q314 0 450 -216q74 -120 75 -278q0 -271 -205 -403q-135 -86 -324 -86q-278 0 -425 172q-102 123 -103 297zM381 489q0 -325 173 -388q38 -13 81 -13q116 0 167 137q29 80 29 195q0 319 -108 397q-51 34 -127 35q-210 -19 -215 -363z M430 1067q1 26 16 49l170 268q13 4 33 5q82 0 131 -43q4 -4 6 -7l21 -47l-246 -221q-39 -32 -88 -33q-26 0 -40 22q-2 5 -3 7z" />
<glyph unicode="&#xf4;" horiz-adv-x="1212" d="M78 449q0 295 218 431q134 83 314 83q314 0 450 -216q74 -120 75 -278q0 -271 -205 -403q-135 -86 -324 -86q-278 0 -425 172q-102 123 -103 297zM307 1049q164 170 232 265l24 34h82q95 -135 182 -226l72 -73l-55 -50q-153 73 -234 151q-5 5 -8 7q-81 -75 -219 -147 q-16 -8 -21 -11zM381 489q0 -325 173 -388q38 -13 81 -13q116 0 167 137q29 80 29 195q0 319 -108 397q-51 34 -127 35q-210 -19 -215 -363z" />
<glyph unicode="&#xf5;" horiz-adv-x="1212" d="M78 449q0 295 218 431q134 83 314 83q314 0 450 -216q74 -120 75 -278q0 -271 -205 -403q-135 -86 -324 -86q-278 0 -425 172q-102 123 -103 297zM272 1122q54 221 181 224q82 -1 161 -62q67 -46 113 -47q61 4 100 111l74 -19q-44 -203 -171 -225q-14 -2 -28 -2 q-79 0 -132 49q-5 5 -9 8q-53 48 -115 49q-70 0 -96 -85q-2 -8 -4 -15zM381 489q0 -325 173 -388q38 -13 81 -13q116 0 167 137q29 80 29 195q0 319 -108 397q-51 34 -127 35q-210 -19 -215 -363z" />
<glyph unicode="&#xf6;" horiz-adv-x="1212" d="M78 449q0 295 218 431q134 83 314 83q314 0 450 -216q74 -120 75 -278q0 -271 -205 -403q-135 -86 -324 -86q-278 0 -425 172q-102 123 -103 297zM260 1219q0 78 68 114q28 14 57 15q81 0 116 -73q13 -28 13 -56q0 -76 -69 -113q-29 -14 -60 -14q-74 0 -110 68 q-14 30 -15 59zM381 489q0 -325 173 -388q38 -13 81 -13q116 0 167 137q29 80 29 195q0 319 -108 397q-51 34 -127 35q-210 -19 -215 -363zM688 1219q0 81 72 116q28 13 57 13q75 0 111 -70q14 -29 14 -59q0 -74 -67 -112q-29 -15 -58 -15q-78 0 -114 69q-14 29 -15 58z" />
<glyph unicode="&#xf7;" horiz-adv-x="1116" d="M147 406v143h820v-143h-820zM427 148v8q35 83 118 117h7q84 -30 115 -107q2 -6 3 -10v-8q-30 -88 -100 -112q-10 -3 -18 -5h-7q-80 17 -106 80q-7 17 -12 37zM427 799v9q35 83 118 116h7q84 -30 115 -107l3 -9v-9q-30 -88 -100 -111q-10 -3 -18 -6h-7q-80 17 -106 80 q-7 17 -12 37z" />
<glyph unicode="&#xf8;" horiz-adv-x="1212" d="M78 449q0 295 218 431q134 83 314 83q125 -1 224 -37l86 121l79 -60l-74 -105q195 -123 209 -380q1 -18 1 -33q0 -271 -205 -403q-135 -86 -324 -86q-157 1 -279 60l-83 -118l-80 60l79 111q-164 132 -165 356zM381 489q0 -99 18 -176l345 486q-55 52 -148 53 q-210 -19 -215 -363zM441 200q67 -111 194 -112q116 0 167 137q29 80 29 195q0 186 -32 284z" />
<glyph unicode="&#xf9;" horiz-adv-x="1187" d="M139 942l2 6q124 -6 160 -6q38 0 158 6l4 -6q-20 -132 -21 -369v-159q0 -217 51 -286q46 -58 134 -58q188 0 224 174q13 62 13 188v141q0 246 -20 369l2 6l52 -3q37 -3 48 -3t46 3q34 3 52 3l5 -6q-21 -132 -21 -369v-135q0 -336 -220 -423q-90 -35 -216 -35 q-212 0 -333 109q-98 92 -99 241v243q0 246 -21 369zM375 1372l4 23q30 34 109 56q34 9 61 9q23 0 41 -4l141 -254q17 -32 19 -53q0 -23 -40 -32q-5 -1 -10 -1q-33 2 -77 41z" />
<glyph unicode="&#xfa;" horiz-adv-x="1187" d="M139 942l2 6q124 -6 160 -6q38 0 158 6l4 -6q-20 -132 -21 -369v-159q0 -217 51 -286q46 -58 134 -58q188 0 224 174q13 62 13 188v141q0 246 -20 369l2 6l52 -3q37 -3 48 -3t46 3q34 3 52 3l5 -6q-21 -132 -21 -369v-135q0 -336 -220 -423q-90 -35 -216 -35 q-212 0 -333 109q-98 92 -99 241v243q0 246 -21 369zM500 1067q1 26 16 49l170 268q13 4 33 5q82 0 131 -43q4 -4 6 -7l21 -47l-246 -221q-39 -32 -88 -33q-26 0 -41 22q-2 5 -2 7z" />
<glyph unicode="&#xfb;" horiz-adv-x="1187" d="M139 942l2 6q124 -6 160 -6q38 0 158 6l4 -6q-20 -132 -21 -369v-159q0 -217 51 -286q46 -58 134 -58q188 0 224 174q13 62 13 188v141q0 246 -20 369l2 6l52 -3q37 -3 48 -3t46 3q34 3 52 3l5 -6q-21 -132 -21 -369v-135q0 -336 -220 -423q-90 -35 -216 -35 q-212 0 -333 109q-98 92 -99 241v243q0 246 -21 369zM338 1130q164 170 232 266l24 34h82q95 -135 182 -226l72 -74l-56 -49q-153 73 -233 150l-8 8q-81 -75 -219 -147q-16 -8 -21 -11z" />
<glyph unicode="&#xfc;" horiz-adv-x="1187" d="M139 942l2 6q124 -6 160 -6q38 0 158 6l4 -6q-20 -132 -21 -369v-159q0 -217 51 -286q46 -58 134 -58q188 0 224 174q13 62 13 188v141q0 246 -20 369l2 6l52 -3q37 -3 48 -3t46 3q34 3 52 3l5 -6q-21 -132 -21 -369v-135q0 -336 -220 -423q-90 -35 -216 -35 q-212 0 -333 109q-98 92 -99 241v243q0 246 -21 369zM303 1231q0 78 68 114q28 14 57 15q81 0 116 -72q13 -28 13 -57q0 -76 -69 -112q-29 -14 -60 -15q-74 0 -110 68q-14 30 -15 59zM731 1231q0 81 72 116q28 13 57 13q75 0 111 -69q14 -29 14 -60q0 -74 -67 -112 q-29 -15 -58 -15q-78 0 -114 69q-14 29 -15 58z" />
<glyph unicode="&#xfd;" horiz-adv-x="989" d="M25 948q40 -6 96 -6q171 0 211 6q56 -111 214 -380l230 380q27 -6 115 -6q45 0 74 6q-280 -371 -340 -468q1 -365 12 -486q-33 6 -145 6q-106 0 -146 -6q10 95 10 414q-225 381 -331 540zM412 1067q1 26 16 49l170 268q13 4 33 5q82 0 131 -43q4 -4 6 -7l20 -47 l-245 -221q-39 -32 -88 -33q-26 0 -41 22q-2 5 -2 7z" />
<glyph unicode="&#xfe;" horiz-adv-x="1056" d="M135 0q24 156 25 410v122q0 245 -25 410l4 6q124 -6 162 -6q17 0 164 6l2 -6q-12 -75 -18 -167q118 4 223 3q339 -2 340 -291q0 -154 -119 -237q-94 -65 -244 -66q-149 0 -201 9q6 -108 19 -193l-4 -6q-124 6 -162 6q-45 0 -164 -6zM442 410q0 -66 2 -127q28 -6 115 -7 q133 0 157 123q7 38 7 90q0 164 -101 191q-17 4 -34 4q-67 0 -144 -15q-2 -65 -2 -137v-122z" />
<glyph unicode="&#xff;" horiz-adv-x="989" d="M25 948q40 -6 96 -6q171 0 211 6q56 -111 214 -380l230 380q27 -6 115 -6q45 0 74 6q-280 -371 -340 -468q1 -365 12 -486q-33 6 -145 6q-106 0 -146 -6q10 95 10 414q-225 381 -331 540zM172 1219q0 78 68 114q28 14 57 15q81 0 116 -73q13 -28 13 -56q0 -76 -69 -113 q-29 -14 -60 -14q-74 0 -110 68q-14 30 -15 59zM600 1219q0 81 72 116q28 13 57 13q75 0 111 -70q14 -29 14 -59q0 -74 -67 -112q-29 -15 -58 -15q-78 0 -114 69q-14 29 -15 58z" />
<glyph unicode="&#x152;" horiz-adv-x="1974" d="M123 651q0 294 186 488q179 184 447 184q3 0 215 -2h758q74 0 122 6l4 -6q-4 -57 -4 -72q0 -49 4 -84l-4 -8l-366 21q-107 4 -199 4q-16 -56 -16 -271v-149q225 0 465 20l6 -6q-6 -28 -6 -76q0 -49 6 -77l-6 -7q-202 20 -465 21v-227q0 -202 16 -260q274 0 586 45l4 -9 q-4 -32 -4 -112q0 -19 4 -74l-4 -6q-50 6 -123 6h-602l-369 -4q-301 2 -489 208q-165 185 -166 447zM440 670q0 -400 226 -532q86 -49 190 -50h27q90 0 101 52q3 14 3 30v985q0 60 -45 71q-22 5 -59 5h-72q-369 -5 -371 -561z" />
<glyph unicode="&#x153;" horiz-adv-x="1619" d="M63 434q0 246 169 393q140 120 343 121h26q196 -6 296 -6h473q74 0 123 6l4 -6q-4 -58 -4 -63q0 -24 4 -56l-4 -8l-212 19q-112 6 -228 6q-16 -56 -17 -267v-32q157 0 292 15q24 3 48 5l6 -6q-6 -28 -6 -63q0 -38 6 -66l-6 -6q-203 20 -340 20v-71q0 -198 17 -256 q123 0 237.5 6t168.5 12l54 6l5 -8q-4 -33 -5 -63q0 -12 5 -66l-5 -6q-50 6 -122 6h-494q-81 0 -242 -4q-64 -2 -77 -2q-338 0 -459 212q-55 98 -56 228zM358 459q0 -282 146 -353q65 -30 162 -30q77 0 86 44q2 11 2 23v660q0 54 -69 62q-26 3 -73 3q-214 0 -247 -284 q-7 -58 -7 -125z" />
<glyph unicode="&#x178;" horiz-adv-x="1337" d="M33 1327q36 -6 200 -6q124 0 160 6q71 -139 329 -578l10 -17q209 333 335 595q26 -6 119 -6q69 0 96 6q-363 -555 -399 -614l-51 -90q3 -478 16 -629q-34 6 -170 6q-134 0 -168 -6q13 133 14 569q-126 214 -491 764zM362 1579q0 81 73 116q28 13 57 13q81 0 116 -72 q13 -28 13 -57q0 -77 -70 -113q-29 -14 -59 -14q-81 0 -116 71q-14 28 -14 56zM813 1579q0 81 72 116q28 13 57 13q77 0 114 -69q14 -29 15 -60q0 -76 -70 -113q-29 -14 -59 -14q-81 0 -116 71q-13 28 -13 56z" />
<glyph unicode="&#x2c6;" horiz-adv-x="714" d="M-10 1010q164 170 232 265l24 34h82q95 -135 181 -226l73 -73l-56 -49q-153 73 -233 150q-5 5 -8 7q-81 -75 -220 -147l-20 -10z" />
<glyph unicode="&#x2dc;" horiz-adv-x="598" d="M6 1169q54 221 180 224q82 -1 162 -62q67 -46 113 -47q61 4 100 111l74 -19q-44 -203 -171 -225q-14 -2 -28 -2q-79 0 -132 49q-5 5 -9 8q-53 48 -115 49q-70 0 -96 -85q-2 -8 -4 -15z" />
<glyph unicode="&#x2013;" horiz-adv-x="1122" d="M106 514q0 35 33 64q12 9 21 10h827q27 -3 29 -43q0 -37 -32 -66q-12 -9 -21 -10h-828q-27 2 -29 45z" />
<glyph unicode="&#x2014;" horiz-adv-x="1519" d="M59 487v101h1401v-101h-1401z" />
<glyph unicode="&#x2018;" horiz-adv-x="548" d="M86 1233q0 165 145 275q78 58 166 75q24 -21 13 -78q-1 -5 -2 -8q-130 -35 -183 -138q-15 -32 -16 -56q16 -65 53 -70q88 -18 115 -57q15 -25 24 -62v-12q-32 -95 -132 -137q-4 -2 -7 -2h-12q-162 62 -164 270z" />
<glyph unicode="&#x2019;" horiz-adv-x="548" d="M139 963q1 5 2 8q130 35 183 138q15 32 16 56q-16 65 -53 70q-88 18 -115 57q-16 25 -25 62v12q32 95 133 137q4 2 7 2h12q162 -62 164 -270q0 -165 -145 -275q-78 -58 -166 -75q-24 21 -13 78z" />
<glyph unicode="&#x201a;" horiz-adv-x="548" d="M139 -272q1 5 2 8q130 35 183 138q15 32 16 56q-16 65 -53 70q-88 18 -115 57q-16 25 -25 62v12q32 95 133 137q4 2 7 2h12q162 -62 164 -270q0 -165 -145 -275q-78 -58 -166 -75q-24 21 -13 78z" />
<glyph unicode="&#x201c;" horiz-adv-x="768" d="M35 1235q0 165 145 275q78 58 166 75q24 -21 12 -78q-1 -5 -2 -8q-130 -35 -182 -138q-15 -32 -16 -56q16 -65 53 -70q88 -18 115 -57q15 -25 24 -62v-12q-32 -95 -132 -137q-4 -2 -7 -2h-12q-162 62 -164 270zM356 1235q0 165 145 275q78 58 167 75q24 -21 12 -78 q-1 -5 -2 -8q-130 -35 -183 -138q-15 -32 -16 -56q16 -65 53 -70q88 -18 115 -57q16 -25 25 -62v-12q-32 -95 -133 -137q-4 -2 -7 -2h-12q-162 62 -164 270z" />
<glyph unicode="&#x201d;" horiz-adv-x="768" d="M90 963q1 5 2 8q130 35 183 138q15 32 16 56q-16 65 -53 70q-88 18 -115 57q-16 25 -25 62v12q32 95 133 137q4 2 7 2h12q162 -62 164 -270q0 -165 -145 -275q-78 -58 -167 -75q-24 21 -12 78zM412 963q1 5 2 8q130 35 182 138q15 32 16 56q-16 65 -53 70q-88 18 -115 57 q-15 25 -24 62v12q32 95 132 137q4 2 7 2h12q162 -62 164 -270q0 -165 -144 -275q-78 -58 -167 -75q-24 21 -12 78z" />
<glyph unicode="&#x201e;" horiz-adv-x="768" d="M90 -274q1 5 2 8q130 35 183 138q15 32 16 56q-16 65 -53 70q-88 18 -115 57q-16 25 -25 62v12q32 95 133 137q4 2 7 2h12q162 -62 164 -270q0 -165 -145 -275q-78 -58 -167 -75q-24 21 -12 78zM412 -274q1 5 2 8q130 35 182 138q15 32 16 56q-16 65 -53 70 q-88 18 -115 57q-15 25 -24 62v12q32 95 132 137q4 2 7 2h12q162 -62 164 -270q0 -165 -144 -275q-78 -58 -167 -75q-24 21 -12 78z" />
<glyph unicode="&#x2022;" horiz-adv-x="718" d="M100 479q0 126 109 206q70 50 149 50q127 0 207 -104q53 -71 53 -158q0 -125 -99 -203q-69 -55 -161 -55q-132 0 -209 109q-48 70 -49 155z" />
<glyph unicode="&#x2026;" horiz-adv-x="1533" d="M111 98v11q37 94 128 133q7 3 13 6h8q97 -34 134 -121l7 -18v-11q-35 -102 -114 -131q-14 -5 -27 -8h-8q-93 20 -125 90q-9 22 -16 49zM653 98v11q37 94 128 133l14 6h8q97 -34 134 -121l7 -18v-11q-35 -102 -114 -131q-14 -5 -27 -8h-8q-93 20 -125 90q-10 22 -17 49z M1194 98v11q37 94 128 133q7 3 13 6h8q97 -34 135 -121l7 -18v-11q-35 -102 -114 -131q-14 -5 -28 -8h-8q-93 20 -124 90q-10 22 -17 49z" />
<glyph unicode="&#x2039;" horiz-adv-x="727" d="M139 551v80q217 150 451 399v-110q-151 -210 -287 -330q131 -106 287 -328v-110q-250 290 -451 399z" />
<glyph unicode="&#x203a;" horiz-adv-x="727" d="M139 145v111q151 210 287 330q-131 106 -287 327v111q250 -290 451 -399v-80q-217 -151 -451 -400z" />
<glyph unicode="&#x20ac;" d="M0 465v18l34 64h91q-2 29 -2 59q0 25 1 45h-95l2 21l31 62h72q38 227 156 367q14 17 27 29q99 96 271 116q32 3 61 3q94 0 175 -20.5t114 -40.5l33 -21l4 -4q-31 -133 -37 -225h-51q-65 134 -108 168q-54 42 -154 43q-116 0 -178 -171q-35 -100 -43 -244h362l-43 -83 h-322v-10q0 -49 3 -94h291l-45 -82h-239q39 -337 197 -371q17 -3 33 -4q127 0 186 60q41 43 86 137l41 -2q5 -89 34 -200q2 -7 3 -11l-4 -6q-128 -61 -183 -72q-66 -12 -173 -12q-139 0 -262 75q-28 17 -47 35q-145 132 -187 371h-135z" />
<glyph unicode="&#x2122;" horiz-adv-x="1628" d="M27 1190l39 184l49 -16q0 -2 -2 -8.5t-3 -10.5l-1 -4h477q-1 2 -6 23l51 16l39 -186l-47 -10q-24 90 -52 100q-13 4 -30 4h-88q-26 -17 -29 -43v-541q5 -48 61 -49h29q8 -3 10 -10v-27l-2 -2q-2 0 -170 2l-168 -2l-2 2v27q3 8 11 10h28q60 7 64 49v543q-3 40 -29 41h-104 q-42 0 -59 -36q-10 -24 -21 -68zM684 612v17q4 14 37 14h29q14 3 22 62q6 84 20 263q15 191 21 281v6v5q-2 33 -18 34h-33q-33 4 -35 13v16l10 12h183l229 -542l84 207l135 335h168l6 -12v-16q-2 -12 -35 -13h-30q-17 -4 -19 -32v-13l47 -544q9 -60 25 -62h29q37 -2 38 -14 v-17l-12 -12q-2 0 -133 4l-135 -4l-12 12v17q3 13 34 14h29q12 3 12 47v15l-34 403l-203 -498q-10 -19 -33 -20q-22 2 -35 20q-1 2 -205 488q-16 -261 -28 -396v-12q1 -45 14 -47h31q32 -2 35 -14v-17l-7 -12q-2 0 -124 4l-97 -4z" />
<glyph unicode="&#xe000;" horiz-adv-x="950" d="M0 950h950v-950h-950v950z" />
<glyph unicode="&#xfb01;" horiz-adv-x="1355" d="M45 788v50q9 36 47 41h98v61q0 181 141 336q6 7 11 12q149 135 395 142q81 -1 113 -19l2 -6q-12 -20 -39 -168l-8 -39l-62 -2q-42 77 -86 89q-13 3 -24 3q-121 0 -165 -104q-17 -41 -17 -88q0 -22 4 -92q5 -78 6 -105v-20h221q14 -3 16 -13v-63q-2 -25 -47 -27h-190v-366 q0 -274 16 -410l-4 -6q-3 0 -141 6l-154 -6l-2 6q14 107 14 410v366h-135q-9 4 -10 12zM872 0q20 140 21 369v112q0 285 -21 396l7 8q14 0 49 -3q63 -4 96 -3h20q9 0 18 1t17 1t18.5 1t15.5 1t15.5 2t13.5 2t13 1l10 1q17 -4 19 -21q-20 -251 -21 -364v-135q0 -224 21 -369 l-4 -6q-94 6 -152 6q-62 0 -151 -6zM874 1243q0 89 82 129q35 16 72 17q93 0 136 -77q17 -33 18 -69q0 -89 -81 -129q-35 -16 -73 -16q-93 0 -136 76q-17 33 -18 69z" />
<glyph unicode="&#xfb02;" horiz-adv-x="1277" d="M45 788v50q9 36 47 41h98v61q0 181 141 336q6 7 11 12q149 135 395 142q81 -1 113 -19l2 -6q-12 -20 -39 -168l-8 -39l-62 -2q-42 77 -86 89q-13 3 -24 3q-121 0 -165 -104q-17 -41 -17 -88q0 -22 4 -92q5 -78 6 -105v-20h221q14 -3 16 -13v-63q-2 -25 -47 -27h-190v-366 q0 -274 16 -410l-4 -6q-3 0 -141 6l-154 -6l-2 6q14 107 14 410v366h-135q-9 4 -10 12zM860 0q25 157 25 410v561q0 249 -25 385l4 6q121 9 275 61q11 4 18 7q20 -4 23 -21q-24 -197 -25 -385v-614q0 -245 25 -410l-4 -6q-3 0 -156 6l-158 -6z" />
<glyph unicode="&#xfb03;" horiz-adv-x="1996" d="M45 797v41q9 36 47 41h98v61q0 145 77 241q22 27 65 72q93 97 283 141q68 15 122 15q62 -1 92 -18l2 -7q-13 -22 -53 -192q-2 -9 -4 -14l-22 -2q-53 90 -119 92q-128 0 -161 -123q-9 -34 -9 -70q0 -22 5 -82q5 -67 5 -94v-20h260h43h55v61q0 196 137 343q3 4 5 5 q118 123 351 140q28 2 54 2q62 -1 92 -19l3 -6q-12 -20 -39 -168q-5 -25 -9 -39l-41 -2q-42 77 -86 89q-13 3 -24 3q-128 0 -161 -122q-9 -34 -9 -70q0 -22 5 -92q5 -78 5 -105v-20h221q14 -3 17 -13v-55q-2 -25 -47 -27h-191v-374q0 -295 16 -410l-4 -6q-3 0 -153 6 l-154 -6l-2 6q14 107 14 410v374h-86h-49h-223v-374q0 -273 21 -410l-5 -6q-3 0 -157 6l-160 -6l-2 6q20 131 20 410v374h-135q-9 4 -10 13zM1513 0q20 140 21 369v112q0 285 -21 396l7 8q14 0 49 -3q63 -4 96 -3h19q10 0 19 1t17.5 1t18.5 1t15 1t15.5 2t13.5 2t13 1l10 1 q17 -4 19 -21q-20 -251 -21 -364v-135q0 -224 21 -369l-4 -6q-94 6 -152 6q-62 0 -151 -6zM1516 1243q0 89 81 129q35 16 72 17q93 0 136 -77q17 -33 18 -69q0 -89 -81 -129q-35 -16 -73 -16q-93 0 -136 76q-16 33 -17 69z" />
<glyph unicode="&#xfb04;" horiz-adv-x="2031" d="M45 797v41q9 36 47 41h98v61q0 145 77 241q22 27 65 72q93 97 283 141q68 15 122 15q62 -1 92 -18l2 -7q-13 -22 -53 -192q-2 -9 -4 -14l-22 -2q-53 90 -119 92q-128 0 -161 -123q-9 -34 -9 -70q0 -22 5 -82q5 -67 5 -94v-20h260h43h55v61q0 196 137 343q3 4 5 5 q118 123 351 140q28 2 54 2q62 -1 92 -19l3 -6q-12 -20 -39 -168q-5 -25 -9 -39l-41 -2q-42 77 -86 89q-13 3 -24 3q-128 0 -161 -122q-9 -34 -9 -70q0 -22 5 -92q5 -78 5 -105v-20h221q14 -3 17 -13v-55q-2 -25 -47 -27h-191v-374q0 -295 16 -410l-4 -6q-3 0 -153 6 l-154 -6l-2 6q14 107 14 410v374h-86h-49h-223v-374q0 -273 21 -410l-5 -6q-3 0 -157 6l-160 -6l-2 6q20 131 20 410v374h-135q-9 4 -10 13zM1548 0q25 157 25 410v561q0 249 -25 385l4 6q121 9 275 61q11 4 18 7q20 -4 23 -21q-24 -197 -25 -385v-614q0 -245 25 -410l-4 -6 q-3 0 -156 6l-158 -6z" />
</font>
</defs>
</svg>
