<?xml version="1.0" standalone="no"?>
<!DOCTYPE svg PUBLIC "-//W3C//DTD SVG 1.1//EN" "http://www.w3.org/Graphics/SVG/1.1/DTD/svg11.dtd" >
<svg xmlns="http://www.w3.org/2000/svg">
<metadata>
This is a custom SVG webfont generated by Font Squirrel.
Copyright   : Linux Libertine by Philipp H PollOpen Font under Terms of following Free Software LicensesGPL General Public License with fontexception and OFL Open Font LicenseCreated with FontForge httpfontforgesfnetSept 2003 2004 2005 2006 2007 2008 2009 2010 2011
Designer    : Philipp H Poll
Foundry     : Philipp H Poll
Foundry URL : httpwwwlinuxlibertineorg
</metadata>
<defs>
<font id="LinuxBiolinumSlantedBdSlanted" horiz-adv-x="1052" >
<font-face units-per-em="2048" ascent="1638" descent="-410" />
<missing-glyph horiz-adv-x="512" />
<glyph unicode=" "  horiz-adv-x="512" />
<glyph unicode="&#x09;" horiz-adv-x="512" />
<glyph unicode="&#xa0;" horiz-adv-x="512" />
<glyph unicode="!" horiz-adv-x="552" d="M148 98l2 11q59 97 165 137q4 1 6 2h8q89 -34 108 -118l4 -21l-2 -11q-58 -104 -147 -132q-13 -4 -24 -7h-8q-86 20 -104 84q-6 24 -8 55zM308 411q-1 4 0 5q1 11 7 59q28 210 40 328q8 76 9 184q2 130 20 211q23 106 126 141q26 9 47 9q75 0 107 -61q19 -39 8 -89 q-15 -72 -90 -255q-31 -77 -53 -140q-28 -82 -110 -361q-2 -8 -4 -12q-9 -30 -50 -39q-7 -1 -12 -2q-36 0 -45 22z" />
<glyph unicode="&#x22;" horiz-adv-x="768" d="M375 870l7 340q13 60 81 93q37 17 76 18q80 0 79 -49q0 -12 -3 -27q-3 -14 -41 -107l-76 -178l-38 -86l-56 -12zM669 872l6 340q13 60 81 93q37 17 76 18q80 0 80 -49q0 -12 -4 -27q-3 -14 -42 -107l-75 -178l-37 -85l-56 -13z" />
<glyph unicode="#" d="M140 383l47 135h205q73 194 81 219h-205l47 135h205l68 178l67 177h115l-137 -355h199l66 178l66 177h107l-131 -355h240l-47 -135h-242l-81 -219h241l-45 -135h-244l-59 -158l-73 -196h-109l135 354h-197l-64 -166l-72 -188h-113l133 354h-203zM504 518h197l81 219h-192 q-14 -38 -43 -109q-29 -72 -43 -110z" />
<glyph unicode="$" d="M107 68q43 93 86 223l37 2q46 -100 161 -169q46 -27 88 -39l133 465q-276 124 -298 286q-5 41 4 84q38 177 230 270q124 59 264 59l47 163q30 10 86 10l-51 -177q78 -8 147 -28.5t99 -36.5l31 -17l3 -6q-38 -76 -86 -219l-58 -2q-38 122 -128 185q-20 13 -38 21 l-117 -410q350 -143 302 -382q-37 -174 -211 -280q-134 -80 -306 -89l-49 -172q-21 -10 -86 -10l52 182q-202 10 -339 82zM560 79q142 14 197 148q11 27 18 56q33 165 -89 234zM569 971q-28 -141 104 -208l112 391q-105 -8 -176 -99q-31 -41 -40 -84z" />
<glyph unicode="%" horiz-adv-x="1304" d="M195 -8l968 1026q-125 -47 -232 -47q-70 1 -135 38q-2 -17 -6 -36q-42 -198 -178 -302q-83 -62 -171 -63q-111 2 -147 62q-33 63 -12 164q34 160 163 257q93 68 197 68q92 -2 130 -45q44 -2 159 -41q28 -10 40 -10q212 2 329 102l87 -43l-1087 -1155zM456 756 q-11 -65 26 -68q63 2 128 82q69 88 94 199q23 116 -55 116q-60 0 -116 -97q-3 -6 -5 -9q-41 -77 -72 -223zM797 186q34 160 163 257q93 68 197 69q186 0 150 -182q-1 -3 -1 -4q-42 -198 -179 -303q-82 -62 -171 -62q-111 2 -146 62q-34 62 -13 163zM971 109q-11 -65 27 -68 q63 2 128 82q69 88 93 199q23 116 -55 116q-60 0 -116 -97q-3 -6 -5 -9q-41 -77 -72 -223z" />
<glyph unicode="&#x26;" horiz-adv-x="1492" d="M142 171q-13 61 3 136q30 141 181 255q107 81 308 183q-84 197 -59 322q24 112 151 195q120 76 269 77q242 0 249 -170q1 -33 -7 -69q-25 -120 -241 -261q-64 -42 -134 -77q44 -118 153 -334q198 232 273 457q20 -6 109 -6q95 0 118 6l-187 -242q-217 -282 -255 -324 q59 -144 75 -167q32 -46 64 -48q70 0 132 71q19 22 39 48l55 -47q-131 -171 -246 -192q-27 -5 -60 -4q-96 0 -150 68q-31 41 -65 112q-168 -151 -334 -175q-41 -5 -81 -5q-316 0 -360 191zM396 348q-38 -179 54 -254q39 -30 88 -31q136 0 274 133l52 54q-146 270 -206 409 q-182 -103 -236 -225q-17 -39 -26 -86zM781 1071q-17 -78 31 -193q4 -10 8 -18q160 109 200 168q17 27 22 51q22 165 -85 176q-92 0 -146 -99q-20 -39 -30 -85z" />
<glyph unicode="'" horiz-adv-x="440" d="M355 870l7 340q13 60 80 93q37 17 76 18q80 0 80 -49q0 -12 -4 -27q-3 -14 -42 -107l-75 -178l-37 -86l-56 -12z" />
<glyph unicode="(" horiz-adv-x="692" d="M200 516q68 322 370 658q144 160 301 274l53 -57q-287 -260 -419 -724q-20 -72 -36 -145q-110 -517 52 -832q15 -29 31 -52l-78 -56q-376 450 -274 934z" />
<glyph unicode=")" horiz-adv-x="692" d="M-13 -358q287 260 419 723q20 72 36 145q110 517 -52 832q-15 29 -30 53l77 55q377 -450 275 -934q-68 -322 -371 -658q-144 -160 -300 -274z" />
<glyph unicode="*" horiz-adv-x="886" d="M417 1199q-4 20 1 46q11 51 61 63q11 2 21 3q40 0 92 -48q46 -42 80 -59q4 39 -18 126q-9 38 -4 61q11 50 65 73q17 6 30 6q55 0 66 -42q3 -15 0 -29q-5 -23 -62 -126q-23 -43 -30 -69q41 16 124 77q47 33 82 34q63 0 66 -54q0 -9 -1 -16q-20 -81 -159 -82q-75 0 -112 -6 q18 -25 85 -67q58 -37 55 -88q-1 -10 -3 -19q-9 -44 -61 -57q-9 -2 -17 -2q-60 0 -75 73q-3 14 -7 46q-8 62 -19 87q-16 -20 -66 -119q-38 -76 -96 -85q-13 -2 -26 -2q-43 0 -48 38q-1 10 1 19q14 66 85 104q91 48 108 62l15 12q-7 1 -22 5q-38 8 -60 5q-136 -23 -151 30z " />
<glyph unicode="+" horiz-adv-x="1064" d="M211 414l26 123h348l75 350h122l-74 -350h348l-26 -123h-348l-74 -348h-123l74 348h-348z" />
<glyph unicode="," horiz-adv-x="503" d="M26 -350q-20 21 4 78q2 5 4 8q142 37 216 144q19 29 24 50q-2 65 -38 70q-83 17 -102 54q-11 25 -12 65l2 12q56 97 169 139h12q149 -62 107 -270q-35 -166 -205 -276q-90 -58 -181 -74z" />
<glyph unicode="-" horiz-adv-x="704" d="M183 490q1 5 1 8q11 50 50 90q14 14 23 14h469q26 -2 19 -47q-8 -37 -48 -82q-17 -20 -29 -20h-463q-24 0 -22 37z" />
<glyph unicode="." horiz-adv-x="503" d="M131 98l3 11q59 97 165 137q4 1 6 2h8q89 -34 107 -118l4 -21l-2 -11q-58 -104 -147 -132q-13 -4 -24 -7h-8q-86 20 -104 84q-6 24 -8 55z" />
<glyph unicode="/" horiz-adv-x="700" d="M5 -121l792 1444h123l-792 -1444h-123z" />
<glyph unicode="0" d="M191 610q78 365 311 537q139 102 296 102q215 0 304 -169q84 -164 23 -451q-88 -412 -357 -575q-124 -73 -250 -74q-233 0 -315 219q-62 172 -12 411zM444 145q27 -75 95 -77q175 0 302 592q1 6 2 10q82 386 -19 470q-22 16 -46 17q-120 0 -210 -246q-47 -129 -89 -323 q-71 -333 -35 -443z" />
<glyph unicode="1" d="M427 1008l15 88q263 57 583 153q12 0 13 -6v-4q-56 -161 -94 -334l-110 -518q-47 -224 -58 -387l-5 -6q-3 0 -161 6l-159 -6v6q53 142 104 387l107 500q26 123 -2 132q-5 1 -7 1q-134 0 -226 -12z" />
<glyph unicode="2" d="M78 0q25 116 160 250q69 68 191 170l184 149q138 115 182 273q10 35 21 88q27 127 -47 186q-30 22 -64 23q-133 0 -258 -153l-17 -21l-89 2l-9 161l8 9q77 57 255 95q84 17 150 17q264 0 357 -131q54 -79 31 -190q-27 -127 -164 -246l-127 -102l-247 -199 q-78 -62 -135 -142q-16 -23 -19 -34h168q124 0 375 18h10q-23 -52 -41 -135q-3 -13 -5 -30.5t-3 -35t-1 -30.5q-203 8 -354 8q-18 0 -512 -8v8z" />
<glyph unicode="3" d="M95 102l80 162l90 2l19 -62q26 -91 59 -115q37 -26 107 -26q97 0 178 95q67 80 94 204q48 238 -180 240q-75 0 -102 -4l18 82q327 25 382 274q22 103 -44 172q-37 36 -80 37q-112 0 -188 -83q-13 -15 -92 -117l-90 2l-8 161l8 9q96 71 273 102q70 12 134 12 q364 0 361 -206q-1 -28 -7 -56q-43 -203 -254 -288q-38 -15 -77 -25l-1 -6q175 -17 239 -129q40 -73 21 -170q-46 -216 -276 -323q-148 -68 -332 -69q-220 1 -325 115z" />
<glyph unicode="4" d="M126 430q2 3 20 27l697 792q83 -7 211 0l3 -4l-178 -817h201q28 -4 24 -33q-7 -32 -47 -55q-15 -7 -26 -8h-172q-36 -184 -48 -332l-5 -6q-3 0 -147 6l-144 -6l-1 6q51 145 91 332h-362q-54 1 -65 14l-23 37q-4 12 -19 30q-9 13 -10 17zM247 428h379l125 592 q-180 -190 -504 -592z" />
<glyph unicode="5" d="M114 82l77 162l70 2q43 -124 122 -153q37 -13 93 -13q105 0 187 107q56 74 78 178q41 202 -34 265q-50 39 -118 40q-107 0 -204 -63l-30 -21l-46 15q46 73 125 406q43 184 41 234l5 6q235 -20 287 -20q190 0 408 22l11 -6l-73 -196q-128 -12 -283 -13q-139 0 -275 17 l-78 -301q87 28 250 28q154 -1 244 -87q93 -89 79 -232q-2 -19 -6 -37q-47 -222 -247 -350q-145 -91 -306 -92q-256 0 -347 68q-15 12 -26 24z" />
<glyph unicode="6" d="M196 499q1 4 1 5q63 294 263 484q37 35 75 63q201 147 439 182q90 13 201 16q17 -32 -6 -84q-247 -14 -405 -123q-155 -108 -238 -309q-12 -29 -21 -56q123 58 225 71q275 -6 331 -195q19 -68 5 -135q-38 -179 -181 -306q-150 -131 -351 -132q-446 0 -338 519zM454 496 q-91 -435 122 -437q87 0 155 152q32 73 52 170q26 123 -35 207q-43 56 -109 57q-67 -2 -163 -53q-7 -24 -22 -96z" />
<glyph unicode="7" d="M264 -12q65 100 375 524q219 300 345 504q-48 0 -613 -31q26 75 43 152q7 35 13 110q141 -20 651 -20q71 0 134 16l20 -41q-438 -702 -722 -1220l-243 -9z" />
<glyph unicode="8" d="M148 299q37 174 268 303q41 23 88 45l-32 21q-159 103 -123 280q34 161 206 245q115 55 257 56q223 0 297 -118q37 -62 21 -140q-32 -151 -221 -241q-37 -17 -79 -33l106 -72q106 -86 118 -227q4 -46 -5 -88q-41 -183 -214 -285q-121 -62 -323 -65q-204 0 -309 108 q-81 87 -55 211zM404 299q-31 -146 53 -212q35 -25 76 -26q155 0 216 130q19 43 31 98q28 130 -41 208q-25 27 -59 54l-78 47q-149 -96 -191 -268q-4 -15 -7 -31zM591 997q-19 -91 54 -167q17 -17 35 -29l52 -35q109 74 145 144q16 32 22 65q29 137 -53 179q-28 13 -63 13 q-127 0 -178 -123q-9 -23 -14 -47z" />
<glyph unicode="9" d="M155 -20q-17 31 6 83q247 14 405 123q155 108 238 309q12 29 21 57q-123 -58 -225 -71q-275 6 -330 195q-19 68 -5 135q38 179 180 306q150 131 351 132q446 0 338 -519q-1 -4 -1 -5q-63 -294 -263 -485q-37 -35 -74 -62q-201 -147 -440 -182q-90 -13 -201 -16zM547 848 q-26 -123 36 -208q43 -56 108 -56q67 2 163 53q7 22 23 96q91 435 -123 436q-87 0 -154 -152q-32 -73 -53 -169z" />
<glyph unicode=":" horiz-adv-x="518" d="M155 139l2 11q59 97 165 137q4 1 6 2h8q89 -34 107 -118q2 -11 5 -21l-3 -11q-58 -104 -146 -132q-13 -4 -25 -7h-8q-86 20 -103 84q-6 24 -8 55zM281 735l2 10q59 97 165 138q4 1 6 2h8q89 -34 108 -118l4 -22l-2 -10q-58 -104 -147 -132q-13 -4 -24 -7h-8 q-86 20 -104 84q-6 24 -8 55z" />
<glyph unicode=";" horiz-adv-x="518" d="M53 -350q-20 21 4 78q2 5 4 8q142 37 215 144q19 29 25 50q-2 65 -39 70q-83 17 -101 54q-12 25 -13 65l3 12q56 97 169 139h12q149 -62 106 -270q-35 -166 -204 -276q-90 -58 -181 -74zM282 737l2 11q59 97 165 137q4 1 6 2h8q89 -34 108 -118l4 -21l-3 -11 q-58 -104 -146 -132q-13 -4 -24 -7h-9q-86 20 -103 84q-6 24 -8 55z" />
<glyph unicode="&#x3c;" horiz-adv-x="1048" d="M177 426l27 131l947 320l-36 -168l-697 -217l605 -218l-36 -168z" />
<glyph unicode="=" horiz-adv-x="1128" d="M174 252l31 143h889l-31 -143h-889zM239 555l30 143h889l-30 -143h-889z" />
<glyph unicode="&#x3e;" horiz-adv-x="1048" d="M109 106l35 168l698 218l-605 217l35 168l811 -320l-28 -131z" />
<glyph unicode="?" horiz-adv-x="950" d="M293 98l2 11q59 97 165 137q4 1 6 2h9q89 -34 107 -118l4 -21l-2 -11q-58 -104 -147 -132q-13 -4 -24 -7h-8q-86 20 -104 84q-6 24 -8 55zM346 1059v155l8 9q94 67 251 107q78 20 141 20q179 -1 255 -50q119 -76 89 -247q-1 -7 -3 -13q-31 -147 -245 -286 q-18 -12 -71 -45q-92 -59 -127 -118q-31 -53 -47 -124l-17 -80q-4 -18 -63 -29q-7 -1 -11 -2q-32 0 -56 21q-5 6 -5 10l18 84q42 187 227 330q98 75 128 207q2 11 6 24q17 79 -27 156q-36 59 -91 61q-141 -2 -293 -192z" />
<glyph unicode="@" horiz-adv-x="2187" d="M270 346q4 54 15 107q59 279 325 516q283 252 631 309q85 14 166 14q331 0 538 -189q197 -180 178 -439q-3 -39 -12 -76q-44 -209 -251 -377q-215 -166 -422 -172q-143 0 -157 86q-2 16 1 31q-125 -86 -298 -95q-206 0 -229 167q-6 48 4 96q47 221 255 383 q184 142 363 143q133 0 211 -52q18 -13 26 -26l90 68l51 -23l-233 -528q-51 -115 -56 -135q3 -27 31 -29q69 0 176 85q171 138 217 349q70 328 -163 512q-164 120 -359 125q-246 0 -479 -168q-290 -209 -366 -553q-1 -5 -2 -8q-50 -236 55 -435q137 -259 470 -278l50 -2 q227 0 434 92q63 29 111 62q29 -13 26 -80q-245 -161 -585 -173q-24 -1 -46 -1q-343 0 -563 195q-223 198 -203 499zM1001 336q-35 -163 56 -177q11 -1 21 -1q88 0 186 112q47 55 84 125q99 194 114 260q17 81 -40 109q-17 7 -35 8q-171 0 -295 -204q-64 -108 -91 -232z" />
<glyph unicode="A" horiz-adv-x="1435" d="M40 -6l892 1354h184q192 -1063 273 -1354q-35 6 -185 6q-130 0 -167 -6q-12 179 -56 456q-124 3 -203 3q-116 0 -272 -4q-183 -296 -259 -455q-25 6 -91 6q-89 0 -116 -6zM578 565q27 0 89 -2q89 -2 124 -2q66 0 172 2q-44 256 -86 449h-13z" />
<glyph unicode="B" horiz-adv-x="1382" d="M186 0q60 167 112 410l107 501q50 235 62 410l6 6q2 0 170 -6q74 0 213 4q89 2 120 2q353 0 413 -192q9 -32 9 -67q0 -28 -6 -58q-26 -121 -182 -225q-44 -29 -87 -48q234 -71 260 -247q3 -21 3 -43q0 -34 -7 -70q-36 -168 -210 -276q-174 -106 -431 -107q-96 0 -209 3 q-98 3 -167 3l-175 -6zM544 199q-3 -13 -3 -24q0 -47 52 -62q39 -10 109 -11q226 0 292 101q27 43 47 135q12 60 12 109q0 211 -221 212h-190zM665 768h160q161 0 216 99q25 45 41 118q11 52 11 92q0 120 -98 138q-22 4 -48 4q-155 0 -187 -43q-12 -19 -19 -50z" />
<glyph unicode="C" horiz-adv-x="1415" d="M198 539q3 54 15 106q65 304 304 501q33 27 67 50q232 149 534 152q111 0 217.5 -23t158.5 -47l51 -23l3 -6q-60 -133 -98 -266l-62 -2q-56 196 -208 238q-52 14 -115 14q-174 0 -317 -149q-139 -148 -193 -400q-17 -80 -17 -154q0 -140 61 -259q89 -167 244 -169 q186 0 313 70q70 39 162 113l34 -70q-279 -235 -574 -235q-262 1 -418 135q-163 142 -163 380q0 22 1 44z" />
<glyph unicode="D" horiz-adv-x="1579" d="M182 0q60 167 112 410l107 501q50 235 62 410l5 6q3 0 171 -6q78 0 202 3q125 3 201 3q279 1 452 -185q146 -157 146 -370q0 -39 -5 -81q-4 -31 -10 -60q-87 -410 -460 -564q-174 -71 -369 -71q-111 0 -244 2q-114 2 -194 2l-175 -6zM546 207q-3 -12 -3 -23q0 -46 48 -62 q52 -17 164 -18q227 0 329 78q129 101 193 400q39 184 39 306q0 81 -17 134q-67 196 -358 197q-169 0 -199 -92q-2 -6 -3 -11z" />
<glyph unicode="E" horiz-adv-x="1196" d="M172 0q60 167 112 410l106 501q50 235 63 410l5 6q3 0 171 -6h602q74 0 124 6l3 -6q-16 -57 -19 -72q-10 -49 -14 -84l-6 -8l-361 21q-108 4 -199 4q-28 -56 -74 -271l-32 -149q225 0 470 20l5 -6q-12 -28 -23 -76q-10 -49 -10 -77l-8 -7q-197 20 -460 21l-48 -227 q-39 -185 -39 -249v-11q122 0 270.5 11t236.5 22l88 12l2 -9q-11 -32 -28 -112q-4 -19 -11 -74l-6 -6q-49 6 -121 6h-623l-175 -6z" />
<glyph unicode="F" horiz-adv-x="1103" d="M176 0q60 167 112 410l106 501q50 235 63 410l5 6q3 0 171 -6h596q80 0 130 6l3 -6q-16 -57 -19 -72q-10 -49 -14 -84l-6 -8l-360 21q-108 4 -200 4q-28 -56 -74 -271l-31 -149q225 0 469 20l5 -6q-12 -28 -23 -76q-10 -49 -10 -77l-7 -7q-197 20 -461 21l-48 -227 q-56 -264 -67 -410l-5 -6q-3 0 -159 6l-175 -6z" />
<glyph unicode="G" horiz-adv-x="1556" d="M200 471v24q0 67 14 134q71 334 320 525q17 13 34 24q251 169 562 170q243 -1 470 -93l3 -6q-60 -133 -98 -266l-62 -2q-48 166 -219 227q-71 24 -147 25q-274 0 -429 -281q-68 -123 -102 -282q-16 -76 -16 -146q0 -136 60 -251q97 -179 290 -181q163 0 254 63l20 15 l15 70q52 244 62 389l6 6q3 0 166 -6l151 6l1 -6q-50 -138 -95 -348q-9 -47 -9 -75q0 -24 6 -36l-1 -6q-217 -155 -547 -181q-41 -3 -80 -3h-20q-273 1 -424 118q-173 137 -185 373z" />
<glyph unicode="H" horiz-adv-x="1613" d="M186 0q60 167 112 410l107 501q50 235 62 410l6 6q3 0 166 -6l171 6l1 -6q-59 -164 -111 -410l-36 -168h622l36 168q50 235 63 410l5 6q3 0 167 -6l171 6l1 -6q-59 -164 -112 -410l-107 -501q-50 -235 -62 -410l-5 -6q-3 0 -167 6l-171 -6l-1 6q60 167 112 410l48 227 h-623l-48 -227q-50 -235 -63 -410l-5 -6q-3 0 -167 6l-171 -6z" />
<glyph unicode="I" horiz-adv-x="718" d="M193 0q60 167 111 410l107 501q50 235 62 410l6 6q3 0 166 -6l172 6v-6q-59 -164 -111 -410l-107 -501q-50 -235 -62 -410l-6 -6q-3 0 -166 6l-172 -6v6z" />
<glyph unicode="J" horiz-adv-x="763" d="M-187 -387q44 55 95 201q10 29 13 47l62 12q17 -51 79 -93q36 -23 64 -24q91 0 142 138q10 29 16 57q17 81 45 230q17 100 25 136l126 594q56 264 67 410l5 6q3 0 167 -6l163 6l1 -6q-50 -137 -108 -410l-142 -671q-47 -220 -118 -324q-44 -63 -123 -141 q-33 -32 -69 -59.5t-72.5 -47.5t-74 -35.5t-74 -25t-71.5 -14.5t-67 -5q-111 2 -150 19z" />
<glyph unicode="K" horiz-adv-x="1554" d="M193 0q60 167 111 410l107 501q50 235 62 410l6 6q3 0 166 -6l172 6v-6q-59 -164 -111 -410l-40 -186q28 4 49 18q181 134 577 501l90 83q26 -6 160 -6q152 0 188 6q-599 -442 -771 -602l-1 -4l509 -727q-39 6 -207 6q-152 0 -190 -6l-158 272q-183 319 -225 373 q-11 10 -36 14l-52 -243q-50 -235 -62 -410l-6 -6q-3 0 -166 6l-172 -6v6z" />
<glyph unicode="L" horiz-adv-x="1204" d="M190 0q50 140 108 410l107 501q53 250 64 410l6 6q3 0 160 -6l171 6l1 -6q-50 -137 -107 -410l-103 -481q-39 -188 -39 -253v-11q122 0 270.5 11t236.5 23l88 11l2 -8q-11 -32 -29 -117q-6 -30 -14 -86l-5 -6q-49 6 -122 6h-623l-171 -6z" />
<glyph unicode="M" horiz-adv-x="1906" d="M83 -6l519 1362h165q194 -716 281 -986l741 986h162l-45 -447q-63 -610 -85 -915q-31 6 -164 6q-90 0 -122 -6q85 652 114 974q-450 -596 -614 -837l-87 -131h-112q-44 170 -261 898l-90 -263q-171 -496 -204 -641q-23 6 -97 6q-77 0 -101 -6z" />
<glyph unicode="N" horiz-adv-x="1597" d="M164 0q53 147 120 410l117 501q53 222 66 410l6 6q3 0 131 -6l91 4l550 -909q28 -46 40 -20q4 12 8 30l89 485q50 272 60 410l5 6q3 0 104 -6l101 6l3 -6q-50 -137 -108 -410l-195 -917q-67 6 -97 6q-22 0 -51 -2q-36 -2 -64 -2l-581 936q-3 8 -4 17q-4 -20 -12 -50 l-116 -489q-65 -273 -75 -410l-5 -6q-3 0 -99 6l-83 -6z" />
<glyph unicode="O" horiz-adv-x="1636" d="M241 635q66 310 313 513q243 199 545 200q361 0 511 -222q81 -122 82 -286q0 -78 -19 -166q-72 -339 -340 -532q-227 -162 -522 -162q-314 0 -475 192q-111 135 -111 318q0 69 16 145zM579 670q-26 -122 -26 -219q0 -222 136 -313q77 -49 186 -50q327 0 447 491 q7 28 13 56q33 154 33 268q0 207 -108 283q-77 53 -210 53q-349 0 -470 -565q-1 -3 -1 -4z" />
<glyph unicode="P" horiz-adv-x="1224" d="M166 0q60 167 112 410l106 501q50 235 63 410l5 6q3 0 167 -6q32 0 194 8q127 6 163 6h8q230 -1 315 -69q94 -77 94 -198q0 -31 -6 -64q-1 -5 -2 -9q-35 -163 -179 -287q-173 -147 -421 -147q-120 0 -180 21l-37 -172q-50 -235 -62 -410l-6 -6q-3 0 -162 6l-171 -6z M627 686q35 -20 158 -20q205 0 274 255q5 19 9 37q14 66 14 117q0 124 -86 151q-35 10 -88 11q-142 0 -170 -51q-8 -16 -13 -39z" />
<glyph unicode="Q" horiz-adv-x="1636" d="M241 635q66 310 313 513q243 199 545 200q361 0 511 -222q81 -122 81 -286q0 -78 -18 -166q-72 -340 -341 -533q-52 -37 -107 -65q208 -140 328 -193q38 -17 75 -30l-3 -13q-208 -99 -262 -135q-84 54 -201 156q-81 69 -184 133q-84 -14 -167 -14q-314 0 -475 192 q-111 135 -111 318q0 69 16 145zM579 670q-26 -122 -26 -219q0 -222 136 -313q77 -49 186 -50q327 0 447 491q7 28 13 56q33 154 33 268q0 208 -108 283q-77 53 -210 53q-349 0 -470 -565q-1 -3 -1 -4z" />
<glyph unicode="R" horiz-adv-x="1406" d="M186 0q60 167 112 410l107 501q50 235 62 410l6 6q3 0 170 -6q32 0 196 8q125 6 160 6h8q259 -1 352 -69q84 -66 84 -187q0 -42 -10 -90q-59 -265 -386 -345q26 -48 190 -410q80 -175 119 -234l-6 -6q-41 6 -189 6q-120 0 -161 -6q-13 108 -137 366q-15 30 -43 97 q-47 108 -73 151q-48 -2 -116 -2l-42 -196q-56 -264 -67 -410l-5 -6q-3 0 -163 6l-167 -6zM655 721h111q166 0 225 35q86 54 124 231q13 62 13 108q0 100 -62 125q-36 13 -120 13q-177 0 -202 -93q-1 -5 -2 -7z" />
<glyph unicode="S" horiz-adv-x="1110" d="M72 78q41 86 94 250l54 2q50 -111 165 -189q81 -54 151 -55q190 4 236 211q3 16 3 32q0 85 -98 158q-19 14 -38 25q-180 103 -247 171q-43 44 -68 89q-28 52 -28 124q0 45 11 97q39 181 232 284q135 70 286 71q234 0 393 -89q6 -3 5 -4l3 -6q-37 -74 -93 -245l-62 -3 q-44 139 -139 209q-53 37 -106 37q-112 0 -186 -104q-31 -45 -42 -94q-6 -29 -6 -54q0 -96 85 -155q27 -18 76 -43q201 -103 269 -196q54 -76 54 -162q0 -29 -6 -58q-37 -176 -211 -294q-161 -107 -364 -107q-237 0 -416 89q-5 2 -4 3z" />
<glyph unicode="T" horiz-adv-x="1232" d="M270 1124q23 69 41 197l6 6q49 -6 121 -6h918q74 0 124 6l3 -6q-36 -126 -42 -197l-6 -8l-113 25q-133 20 -295 20q-28 -56 -73 -268l-103 -483q-56 -264 -67 -410l-5 -6q-3 0 -163 6l-167 -6v6q50 140 107 410l103 483q40 192 40 257v11q-122 0 -228.5 -11t-152.5 -23 l-46 -11z" />
<glyph unicode="U" horiz-adv-x="1472" d="M279 483l91 428q56 264 66 410l6 6q3 0 158 -6l172 6v-6q-50 -137 -107 -410l-77 -360q-21 -100 -22 -178q0 -197 139 -246q43 -14 95 -14q289 0 398 300q24 67 43 154l73 344q56 264 67 410l5 6q3 0 103 -6l106 6l1 -6q-50 -137 -108 -410l-65 -307q-136 -623 -694 -624 q-272 0 -392 146q-73 91 -73 227q0 60 15 130z" />
<glyph unicode="V" horiz-adv-x="1376" d="M315 1327q35 -6 205 -6q120 0 157 6q32 -412 147 -961q467 723 580 961q24 -6 118 -6q73 0 99 6l-890 -1347h-141l-111 559q-127 657 -164 788z" />
<glyph unicode="W" horiz-adv-x="2136" d="M315 1327q35 -6 205 -6q110 0 147 6q18 -237 155 -886l31 -144l341 534q-68 388 -99 496q35 -6 165 -6q160 0 198 6q1 -8 2 -35q21 -431 123 -926q465 718 581 961q25 -6 103 -6q87 0 114 6l-890 -1347h-142q-41 199 -121 656l-434 -656h-184q-237 1139 -295 1347z" />
<glyph unicode="X" horiz-adv-x="1316" d="M87 -6l568 636q-104 264 -295 697q35 -6 197 -6q122 0 161 6q39 -143 162 -448q218 243 373 448q22 -6 128 -6q83 0 107 6l-132 -140l-418 -452l78 -190l224 -551q-37 6 -161 6q-164 0 -204 -6q-86 278 -162 484q-217 -254 -391 -484q-23 6 -105 6q-105 0 -130 -6z" />
<glyph unicode="Y" horiz-adv-x="1337" d="M315 1327q35 -6 199 -6q124 0 161 6q41 -139 206 -578q4 -10 6 -17q280 333 462 595q25 -6 118 -6q70 0 97 6q-481 -555 -529 -614l-71 -90q-98 -478 -117 -629q-33 6 -169 6q-134 0 -169 -6q42 133 135 569q-80 215 -329 764z" />
<glyph unicode="Z" horiz-adv-x="1320" d="M5 2q18 18 47 51l22 25l1039 1115l-746 -44l-3 6q11 32 23 88q5 23 13 78l5 6q49 -6 124 -6h747q162 0 261 12q10 -4 9 -12q-8 -28 -85 -111q-1007 -1077 -1008 -1081q119 0 326.5 11t354.5 21l148 11l3 -6q-11 -32 -23 -88q-4 -20 -13 -78l-5 -6q-50 6 -144 6h-785 l-306 -6z" />
<glyph unicode="[" horiz-adv-x="837" d="M142 -393l389 1833h539l-17 -80q-230 -17 -297 -64q-60 -45 -86 -166l-258 -1214q-27 -129 20 -170q52 -44 265 -61l-17 -78h-538z" />
<glyph unicode="\" horiz-adv-x="641" d="M326 1430h144l146 -1528h-143z" />
<glyph unicode="]" horiz-adv-x="837" d="M-10 -393l17 80q230 17 297 63q60 45 86 166l258 1214q27 129 -20 171q-52 44 -265 61l17 78h538l-389 -1833h-539z" />
<glyph unicode="^" horiz-adv-x="1060" d="M360 709l392 622h127l126 -622h-158l-69 456l-263 -456h-155z" />
<glyph unicode="_" horiz-adv-x="995" d="M-61 -336l26 125h977l-26 -125h-977z" />
<glyph unicode="`" horiz-adv-x="802" d="M478 1354l9 22q41 37 128 58q31 7 56 8q23 0 40 -4l87 -254q11 -32 8 -54q-14 -25 -57 -32q-33 3 -69 41z" />
<glyph unicode="a" horiz-adv-x="1056" d="M112 201q36 167 258 254q58 22 120 37l253 63q13 7 17 25q11 51 11 90q0 104 -78 116q-15 2 -30 2q-143 -2 -286 -161l-67 2l-9 153l8 9q76 56 252 92q80 16 144 16h11q160 0 250 -58q18 -12 29 -24q42 -49 42 -138q0 -50 -13 -112l-29 -125q-57 -240 -65 -278 q-2 -11 -2 -21q0 -41 46 -49q23 -4 65 -4q11 -13 11 -36v-7q-103 -67 -258 -67q-106 0 -129 84q-4 17 -7 34h-4q-145 -118 -306 -118q-150 0 -212 90q-26 41 -26 91q0 19 4 40zM391 219q-3 -15 -3 -28q0 -47 38 -74q22 -14 46 -15q83 2 167 70q30 25 48 85q1 5 2 7l45 191 l-173 -43q-135 -36 -170 -193z" />
<glyph unicode="b" horiz-adv-x="1198" d="M155 -12q34 85 77 286l148 697q53 249 58 385l5 6q126 9 292 61q12 4 19 7q16 -4 14 -21q-66 -197 -106 -385l-50 -238q166 107 285 113h21q169 -2 259 -102q61 -72 61 -188q0 -52 -12 -113q-57 -260 -259 -408q-151 -108 -328 -108q-135 0 -196 16q-98 26 -111 27 q-9 0 -134 -39q-16 -5 -23 -7q-13 4 -20 11zM491 221q-6 -33 -6 -57q0 -40 18 -54q43 -28 149 -28q103 3 170 97q65 94 104 276q16 76 16 133q0 157 -122 171q-12 1 -22 1q-68 0 -201 -82q-6 -4 -10 -6z" />
<glyph unicode="c" horiz-adv-x="960" d="M174 414q61 287 303 414q137 71 298 71q141 0 266 -55q15 -7 25 -13l2 -6l-91 -198l-58 -2q-35 170 -148 172q-121 -2 -202 -99q-67 -82 -99 -231q-17 -84 -17 -150q0 -72 20 -124q28 -69 104 -100q28 -11 51 -11q152 0 253 92q4 4 7 6l31 -10q-7 -37 -7 -80 q-141 -101 -313 -109q-24 -1 -48 -1q-220 0 -319 115l-12 16q-58 85 -58 196q0 51 12 107z" />
<glyph unicode="d" horiz-adv-x="1183" d="M178 416q57 260 259 388q136 86 274 94q25 1 51 1q80 0 143 -55q20 -19 30 -37l35 164q53 249 58 385l5 6q126 9 290 62q10 3 17 6q19 -4 18 -21q-66 -197 -106 -385l-134 -631q-39 -185 -45 -393l-5 -6q-38 6 -141 6q-80 0 -132 -6q-18 0 -17 6l14 111h-5 q-106 -130 -320 -131q-194 0 -268 157q-34 73 -34 163q0 55 13 116zM477 453q-21 -101 -21 -173q0 -180 130 -182q133 3 236 174l74 349q1 125 -93 164q-30 12 -64 12q-187 0 -261 -339q-1 -3 -1 -5z" />
<glyph unicode="e" horiz-adv-x="1024" d="M162 364q3 26 8 50q55 260 267 401q142 93 295 94q286 0 319 -215q4 -26 4 -53q0 -46 -11 -96q-19 -71 -76 -74h-524q-1 -4 -3 -15t-4 -18q-13 -59 -13 -106q0 -155 136 -187q42 -10 102 -10q126 0 267 104l32 25q21 0 21 -33q0 -10 -2 -22q-1 -5 -1 -8 q-200 -220 -430 -221q-221 1 -312 102q-78 87 -78 226q0 27 3 56zM472 563h311q5 6 14 43q9 43 9 77q0 101 -80 121q-15 3 -28 3q-71 -2 -123 -59q-80 -92 -103 -185z" />
<glyph unicode="f" horiz-adv-x="770" d="M176 0q37 104 102 410l77 366h-135q-9 0 -8 8q1 3 1 4l10 50q12 39 56 41h98l13 61q38 181 212 336l14 12q171 138 425 142q81 -1 109 -19l1 -6q-16 -20 -75 -168l-16 -39l-62 -2q-27 79 -70 90q-11 2 -21 2q-126 0 -193 -113q-21 -38 -31 -79q-5 -22 -14 -92 q-11 -78 -17 -105l-4 -20h221q13 -3 14 -13l-14 -63q-8 -25 -53 -27h-190l-78 -366q-58 -274 -71 -410l-5 -6q-3 0 -140 6l-155 -6z" />
<glyph unicode="g" horiz-adv-x="1148" d="M12 -254q23 102 79 160q26 14 91 41q73 31 99 45q-132 24 -132 124q0 17 4 36q15 72 130 138q43 25 86 38l6 10l-59 27q-9 6 -14 10q-73 63 -73 155q0 26 6 54q37 174 223 262q115 53 247 53q91 0 144 -18q64 3 180 8q147 5 205 10l4 -6q-12 -28 -18 -59q-6 -28 -6 -56 l-7 -6q-29 2 -87 8q-81 9 -117 10q67 -53 67 -151v-11q-1 -19 -4 -36q-38 -177 -232 -258q-111 -45 -244 -45q-100 1 -150 22q-32 -38 -43 -92q-3 -15 -3 -28q0 -65 79 -70q11 -1 22 0q5 0 11 1q15 2 28 3q81 10 132 10q386 0 396 -207v-8q0 -29 -6 -59q-28 -131 -197 -234 q-36 -21 -73 -38q-172 -76 -422 -76h-7q-252 0 -326 109q-24 37 -24 82q0 20 5 42zM264 -213q-5 -23 -5 -42q0 -91 101 -127q38 -13 74 -13q193 0 293 109q40 46 53 100q4 19 4 35q0 98 -142 113q-35 3 -84 3q-11 0 -46 -1q-62 -1 -98 -1q-17 0 -46 4q-80 -70 -104 -180z M509 594q-15 -69 -15 -116q0 -59 24 -82q29 -25 89 -25q135 0 182 203q2 9 4 16q15 70 15 117q0 64 -27 87q-29 23 -85 23q-133 0 -182 -201q-3 -12 -5 -22z" />
<glyph unicode="h" horiz-adv-x="1241" d="M152 0q58 157 102 369l128 602q53 249 58 385l5 6q126 9 290 62q10 3 17 6q16 -4 14 -21q-55 -165 -102 -385l-27 -127l-46 -178l7 -4q137 138 317 176q40 8 73 8q212 0 212 -198q0 -23 -3 -48q-3 -28 -9 -57l-49 -227q-51 -240 -58 -369l-5 -6q-3 0 -124 6l-173 -6l-1 6 q36 111 91 369l39 182q10 51 10 88q0 102 -76 102q-114 -2 -273 -163l-44 -209q-49 -230 -66 -369l-6 -6q-3 0 -136 6l-165 -6v6z" />
<glyph unicode="i" horiz-adv-x="634" d="M164 0q50 140 99 369l24 112q60 285 63 396l8 8q14 0 49 -3q50 -3 81 -3h14q53 0 144 10q16 -4 14 -21q-74 -251 -98 -364l-29 -135q-47 -224 -58 -369l-5 -6q-93 6 -151 6q-62 0 -152 -6zM430 1243q19 88 108 128q39 17 77 18q91 0 118 -74q7 -20 7 -42q0 -15 -3 -30 q-19 -88 -107 -128q-39 -17 -77 -17q-91 0 -119 73q-7 21 -7 43q0 14 3 29z" />
<glyph unicode="j" horiz-adv-x="716" d="M-168 -453q18 37 60 232l58 14q7 -20 22 -39.5t39.5 -34t50.5 -14.5q117 0 198 318q10 39 49 215l53 243q60 273 64 396l8 8q14 0 49 -3q50 -3 81 -3h14q53 0 143 10q16 -4 14 -21q-61 -209 -95 -364l-99 -445q-55 -243 -182 -383q-21 -23 -49 -44t-59 -37.5t-65 -30 t-67.5 -22t-66.5 -13t-63 -4.5q-112 2 -156 16zM506 1243q19 88 107 128q39 17 77 18q91 0 119 -74q7 -20 7 -42q0 -15 -3 -30q-19 -88 -107 -128q-39 -17 -77 -17q-91 0 -119 73q-7 21 -7 43q0 14 3 29z" />
<glyph unicode="k" horiz-adv-x="1210" d="M141 0q58 157 112 410l119 561q53 249 57 385l6 6q126 9 290 62q10 3 17 6q19 -4 18 -21q-66 -197 -106 -385l-113 -530q59 6 97 30q138 91 334 292l59 63q264 0 306 6l3 -6q-106 -76 -422 -353q-28 -24 -44 -39q185 -300 322 -487l-5 -6q-29 6 -212 6q-110 0 -165 -6 l-141 278q-38 65 -89 134q-16 15 -58 18l-3 -14q-52 -245 -62 -410l-6 -6q-3 0 -154 6l-159 -6z" />
<glyph unicode="l" horiz-adv-x="622" d="M152 0q57 157 111 410l119 561q53 249 58 385l5 6q126 9 290 62q10 3 17 6q19 -4 19 -21q-66 -197 -107 -385l-130 -614q-52 -245 -63 -410l-5 -6q-3 0 -155 6l-159 -6v6z" />
<glyph unicode="m" horiz-adv-x="1826" d="M139 0q60 168 103 369l24 112q58 272 62 398l5 6q63 -3 116 -3q92 0 152 9q14 -4 14 -21q-1 -23 -28 -149l7 -6q131 132 275 173q39 11 70 11q177 0 223 -91q14 -30 22 -73q191 163 361 164q227 0 238 -182q0 -9 1 -18q0 -55 -16 -126l-43 -204q-41 -195 -54 -369l-5 -6 q-3 0 -148 6l-166 -6v6q60 168 103 369l40 190q9 45 9 78q0 103 -83 104q-86 0 -171 -64q-35 -27 -80 -67q-4 -27 -11 -61l-38 -180q-41 -195 -54 -369l-5 -6q-3 0 -149 6l-165 -6v6q60 168 102 369l44 206q9 43 9 75q0 71 -46 86q-20 6 -48 5q-83 -3 -253 -166l-43 -206 q-47 -224 -58 -369l-6 -6q-3 0 -150 6l-159 -6z" />
<glyph unicode="n" horiz-adv-x="1228" d="M141 0q53 144 101 369l24 112q58 272 62 398l5 6q63 -3 116 -3q92 0 152 9q14 -4 14 -21q-1 -23 -28 -149l7 -6q164 165 332 183q16 1 29 1q233 0 233 -198q0 -46 -13 -105l-48 -227q-48 -227 -56 -369l-5 -6q-3 0 -159 6l-138 -6l-3 6q36 111 91 369l38 182q10 51 10 88 q0 102 -76 102q-114 -2 -272 -163l-44 -209q-49 -230 -67 -369l-7 -6q-3 0 -126 6l-169 -6z" />
<glyph unicode="o" horiz-adv-x="1159" d="M173 420q64 302 318 420q129 59 284 59q335 0 396 -238q11 -46 12 -98q0 -59 -15 -125q-60 -281 -299 -396q-131 -62 -294 -62q-291 0 -381 182q-33 68 -33 152q0 50 12 106zM474 467q-22 -101 -22 -176q0 -171 114 -202q28 -7 60 -7q175 0 239 296q1 3 1 5 q31 144 31 236q0 88 -29 127q-40 50 -129 51q-156 0 -223 -175q-22 -59 -42 -155z" />
<glyph unicode="p" horiz-adv-x="1198" d="M42 -475q48 131 108 409l116 547q58 272 62 398l5 6q63 -3 116 -3q92 0 152 9q14 -4 14 -21q-1 -23 -24 -131l7 -6q158 165 322 166q136 -1 212 -74q94 -93 94 -236q0 -51 -12 -108q-52 -242 -245 -388q-151 -112 -320 -113q-129 1 -207 57l-22 -103q-58 -273 -66 -409 l-6 -6q-3 0 -152 6l-153 -6zM467 156q74 -73 167 -74q115 0 202 141q49 80 71 183q23 111 23 188q0 171 -114 172q-79 0 -182 -96q-46 -44 -77 -92z" />
<glyph unicode="q" horiz-adv-x="1218" d="M201 424q50 236 245 372q149 103 333 103q59 0 237 -12q69 -5 139 -5q52 0 106 3l3 -6q-49 -127 -107 -398l-116 -547q-58 -273 -67 -409l-5 -6q-3 0 -148 6l-157 -6l-1 6q48 131 107 409l31 144q-138 -97 -269 -98q-187 0 -261 78q-12 13 -22 26q-62 89 -62 213 q0 60 14 127zM498 455q-20 -92 -20 -160q0 -167 119 -190q23 -4 49 -5q52 1 178 84l120 568q-67 45 -189 45q-184 -3 -257 -342z" />
<glyph unicode="r" horiz-adv-x="862" d="M162 0q50 140 99 369l24 112q58 272 61 398l6 6q63 -3 115 -3q92 0 152 9q14 -4 15 -21q-1 -23 -29 -149l8 -6q134 153 251 180q19 4 36 4q57 -1 101 -14l7 -8l-86 -211l-38 -4q-43 38 -110 38q-74 0 -139 -56q-55 -50 -72 -126l-32 -149q-47 -224 -58 -369l-5 -6 q-3 0 -167 6l-138 -6z" />
<glyph unicode="s" horiz-adv-x="858" d="M85 35l75 196l62 2q45 -149 165 -162q11 -1 19 -1q102 0 135 37q20 25 28 63q3 15 3 28q0 55 -48 98q-34 29 -107 75q-133 83 -157 171q-6 27 -6 55q0 26 5 54q30 143 201 211q93 36 198 37q160 0 251 -47q6 -3 10 -6l3 -6l-78 -185l-56 -2q-42 151 -154 154 q-100 -3 -121 -100q-2 -9 -2 -19q0 -57 75 -106q10 -7 20 -13q130 -79 159 -104q70 -66 70 -158q0 -27 -6 -57q-33 -154 -199 -227q-101 -43 -231 -43h-6q-170 1 -308 55z" />
<glyph unicode="t" horiz-adv-x="724" d="M194 809q9 40 43 63q10 5 15 7h119q26 123 30 206l5 7q87 19 286 92q16 -4 14 -21q-42 -151 -71 -284h219q13 -3 14 -13l-13 -63q-8 -25 -55 -27h-187l-50 -219l-64 -289q-9 -46 -9 -78q0 -77 52 -79q71 1 124 24q21 -17 21 -52q0 -14 -4 -32q-135 -71 -317 -71 q-123 0 -153 105q-7 26 -7 53q0 21 4 42q23 109 82 355l57 241h-135q-20 0 -20 23v5v5z" />
<glyph unicode="u" horiz-adv-x="1210" d="M193 141q-2 18 -2 37q0 38 9 80l58 252q41 170 62 369l5 6q3 0 142 -6l155 6l1 -6q-19 -55 -87 -336q-4 -18 -8 -33l-43 -184q-13 -54 -12 -92q0 -84 61 -95q13 -2 28 -2q92 0 187 79q71 61 86 130l35 164q54 255 64 369l6 6q3 0 138 -6l159 6v-6q-42 -111 -96 -369 l-25 -117q-44 -206 -49 -393l-5 -6q-38 6 -150 6q-69 0 -119 -6q-18 0 -17 6l18 131h-4q-177 -147 -377 -151q-198 0 -220 161z" />
<glyph unicode="v" horiz-adv-x="1105" d="M229 885q33 -6 177 -6q124 0 153 6q44 -422 93 -660h6q98 147 386 652q3 5 4 8q19 -6 87 -6q97 0 118 6q-379 -557 -587 -891q-18 6 -105 6q-131 0 -155 -6q-94 547 -177 891z" />
<glyph unicode="w" horiz-adv-x="1619" d="M224 883q28 -6 179 -6q105 0 133 6q34 -460 44 -538q11 -86 24 -163h20q114 180 265 455q-46 233 -50 248q28 -6 169 -6q115 0 143 6q5 -64 12 -192q19 -313 44 -468h14q77 123 314 574l46 86q16 -6 82 -6q88 0 108 6q-381 -603 -548 -891q-16 6 -95 6q-107 0 -128 -6 q-26 203 -79 475q-162 -253 -282 -477q-16 6 -125 6q-103 0 -125 -6q-27 204 -143 781z" />
<glyph unicode="x" horiz-adv-x="1093" d="M48 -6l424 422l8 8l-7 12l-244 449q32 -6 197 -6q114 0 151 6q49 -126 130 -283q171 174 270 283q22 -6 133 -6q69 0 94 6l-419 -390l21 -38q87 -180 245 -463q-31 6 -142 6q-164 0 -198 -6q-44 104 -150 317l-290 -317q-20 6 -109 6q-91 0 -114 -6z" />
<glyph unicode="y" horiz-adv-x="1136" d="M130 -485q97 119 269 392l35 54l-3 14q-59 358 -180 884q-3 15 -6 26q28 -6 179 -6q101 0 131 6q28 -241 108 -629l18 -2q177 268 369 631q20 -6 128 -6q67 0 89 6q-420 -596 -740 -1096q-123 -192 -165 -274q-32 10 -98 10q-94 0 -134 -10z" />
<glyph unicode="z" horiz-adv-x="991" d="M46 -6v20q34 29 54 52l616 692q-230 -4 -439 -23l-3 6q11 32 20 72q3 15 9 66l6 6q46 -6 113 -6h516q42 0 140 9q26 3 29 3q8 -4 7 -12q-21 -20 -79 -86l-600 -672q246 2 505 22l3 -6q-11 -32 -20 -71q-3 -15 -10 -66l-5 -6q-46 6 -113 6h-463z" />
<glyph unicode="{" horiz-adv-x="628" d="M129 473q-21 26 7 58q5 5 7 8q184 17 239 186q5 17 8 33l68 377q38 215 262 286q85 27 178 27q13 -24 -11 -49q-114 -31 -163 -104q-41 -64 -58 -165l-56 -339q-29 -175 -167 -243q-45 -21 -107 -38l-2 -8q156 -71 163 -198q2 -50 -13 -109l-82 -306q-46 -174 34 -246 q32 -27 72 -28q13 -24 -10 -49q-318 0 -318 225q1 50 16 109l86 348q45 199 -153 225z" />
<glyph unicode="|" horiz-adv-x="491" d="M63 -475l405 1905h164l-405 -1905h-164z" />
<glyph unicode="}" horiz-adv-x="628" d="M-54 -436q-13 24 11 49q114 31 162 104q42 63 59 164l55 340q29 175 168 243q45 21 107 38l2 8q-156 71 -163 197q-2 50 13 110l81 305q46 174 -33 247q-32 27 -72 28q-13 24 10 49q318 0 317 -225q-1 -50 -15 -109l-86 -348q-45 -199 153 -225q21 -26 -7 -58 q-5 -5 -7 -8q-184 -17 -239 -186q-5 -17 -9 -33l-67 -377q-19 -109 -92 -182.5t-160.5 -102t-187.5 -28.5z" />
<glyph unicode="~" horiz-adv-x="919" d="M142 418q57 139 175 235q82 65 151 66q47 -1 138 -66q92 -67 135 -67q112 3 189 119l67 -33q-101 -201 -248 -255q-32 -11 -55 -11q-60 2 -139 67q-83 65 -137 66q-108 -3 -216 -148z" />
<glyph unicode="&#xa1;" horiz-adv-x="552" d="M-19 -319q15 72 91 255q31 77 53 140q28 82 110 360q2 8 4 13q9 30 50 39q7 1 12 1q36 0 44 -21q1 -4 1 -5q-1 -11 -8 -60q-28 -210 -39 -327q-8 -76 -9 -184q-2 -130 -20 -211q-23 -106 -127 -142q-25 -8 -46 -8q-75 0 -107 61q-19 39 -9 89zM213 770l2 10 q58 104 147 133q13 4 24 7h8q86 -20 104 -84q6 -25 8 -56l-2 -10q-59 -97 -165 -137q-4 -1 -6 -2h-8q-89 34 -108 117z" />
<glyph unicode="&#xa2;" horiz-adv-x="983" d="M262 561q56 264 281 377q99 49 211 58l40 188h90l-40 -188q138 -12 221 -59l2 -6l-82 -179l-52 -1q-27 134 -108 152l-136 -640q133 9 216 88l28 -10q-7 -33 -7 -71q-121 -85 -256 -97l-42 -198h-91l42 195q-197 9 -275 118q-75 110 -42 273zM529 609q-33 -158 2 -247 q22 -48 72 -79l130 612q-68 -23 -115 -78q-60 -75 -89 -208z" />
<glyph unicode="&#xa3;" horiz-adv-x="1034" d="M39 14q-1 10 1 19q14 53 153 112q133 85 192 298q15 54 34 141l7 34h-143q-13 0 -12 8q1 3 0 5l10 45q16 39 64 43h103l5 26q38 180 165 297q39 36 93 76q180 131 423 131q55 -1 92 -18l1 -6q-25 -28 -78 -168q-1 -3 -2 -4l-45 -2q-27 59 -51 72q-19 9 -42 10 q-153 0 -239 -123q-47 -68 -61 -160l-20 -131h250q14 -3 14 -12l-13 -62q-8 -25 -61 -27h-211q-54 -243 -229 -381l-38 -28h10q147 0 232 -54q77 -39 131 -42q168 2 255 84l33 -37q-111 -152 -300 -177q-30 -4 -58 -3q-103 0 -183 59q-73 54 -123 65q-33 7 -71 7 q-88 -2 -101 -60q-33 -73 -118 -82q-63 0 -69 45z" />
<glyph unicode="&#xa4;" horiz-adv-x="948" d="M112 303l127 88q-64 111 -41 221q27 117 138 226q-60 54 -89 84l138 116l78 -112q108 51 220 51q107 -1 191 -53l131 125l92 -125l-132 -93q63 -106 40 -219q-24 -105 -130 -217q35 -34 87 -90l-136 -119l-79 119q-111 -54 -223 -55q-113 1 -194 51l-74 -74l-45 -45z M364 614q-30 -142 63 -213q51 -38 121 -39q137 0 230 120q46 60 61 130q29 137 -63 212q-51 40 -117 40q-132 0 -227 -113q-52 -63 -68 -137z" />
<glyph unicode="&#xa5;" d="M173 248q-1 2 1 10l8 41q12 39 58 41h237q10 43 28 129h-274q-11 0 -11 5q0 4 1 7l9 41q12 39 58 41h205l-88 246q-106 302 -136 369q33 -6 127 -7q122 0 157 7q74 -345 156 -545q121 137 333 459l56 86q23 -6 101 -7q60 0 86 7l-496 -615h281q13 -3 14 -12l-12 -55 q-8 -25 -57 -27h-251l-25 -129h284q13 -3 13 -12l-11 -54q-8 -27 -57 -28h-247q-35 -185 -44 -252q-31 6 -122 6q-132 0 -165 -6q25 77 65 252h-272q-9 0 -10 2z" />
<glyph unicode="&#xa6;" horiz-adv-x="491" d="M76 -412l158 742h164l-158 -742h-164zM300 639l157 741h164l-158 -741h-163z" />
<glyph unicode="&#xa7;" horiz-adv-x="1157" d="M153 -213l71 168l70 4q47 -127 148 -184q47 -27 96 -27q150 3 184 150q28 134 -77 192q-11 6 -22 10q-247 110 -337 213q-93 109 -67 234q25 118 163 232q50 41 102 68q-105 109 -85 210q24 112 115 187l20 16q129 88 336 88q149 0 293 -92q32 -21 48 -37l4 -11l-70 -168 l-71 -4q-47 127 -148 185q-47 27 -96 26q-84 0 -148 -79q-27 -35 -35 -70q-24 -114 73 -170l29 -15q328 -146 391 -316q26 -73 10 -148q-30 -139 -215 -277l-18 -13q24 -20 38 -40q46 -70 21 -191q-26 -110 -177 -204q-124 -75 -300 -76q-149 0 -293 91q-32 21 -49 38z M467 625q-17 -84 4 -144q33 -89 191 -179q13 -8 40 -23q26 -14 37 -21q21 -12 94 -49q34 52 57 162q36 168 -143 294q-40 28 -117 72q-44 26 -79 52q-62 -61 -84 -164z" />
<glyph unicode="&#xa8;" horiz-adv-x="817" d="M303 1174q17 79 93 115q30 13 59 14q76 0 99 -67q9 -30 3 -62q-16 -76 -93 -113q-32 -14 -63 -14q-69 0 -94 63q-10 31 -4 64zM731 1174q17 80 96 115q31 13 60 14q71 0 94 -64q10 -31 4 -65q-16 -74 -90 -112q-32 -15 -62 -15q-75 0 -99 65q-9 31 -3 62z" />
<glyph unicode="&#xa9;" horiz-adv-x="1296" d="M203 627q52 246 267 416q204 160 435 161q240 0 373 -169q132 -170 82 -408q-53 -247 -267 -418q-202 -159 -433 -160q-241 0 -375 170q-132 171 -82 408zM293 627q-46 -217 84 -362q114 -125 302 -126q220 0 401 166q150 139 190 322q46 218 -84 362q-114 124 -300 125 q-225 0 -407 -168q-147 -138 -186 -319zM469 616q40 188 217 275q93 44 195 45q82 0 154 -24q22 -6 42 -7l-5 -160l-43 -8q-15 98 -85 121q-35 10 -86 10q-144 0 -199 -164q-10 -32 -18 -67q-48 -244 138 -246q128 1 202 82l33 -31q-90 -105 -222 -127q-25 -4 -48 -4 q-201 0 -262 129q-34 74 -13 176z" />
<glyph unicode="&#xaa;" horiz-adv-x="608" d="M221 877q27 113 269 178l79 20q32 149 -10 166q-12 4 -27 4q-74 -2 -160 -101l-57 2l-3 94l5 5q46 35 176 54q35 5 62 5q215 0 169 -228q-1 -4 -1 -5l-30 -143q-23 -115 4 -117q14 1 35 12l14 -32q-77 -56 -131 -58q-71 0 -95 54q-3 7 -4 12q-89 -65 -147 -66 q-86 1 -121 31q-42 38 -27 113zM374 883q-12 -78 51 -80q33 0 81 39q11 9 15 12l36 166q-163 -51 -183 -137z" />
<glyph unicode="&#xab;" horiz-adv-x="1136" d="M242 424l7 33q267 202 407 330l50 47q39 -15 49 -46q-173 -235 -287 -348q67 -116 139 -348q-23 -30 -69 -45q-101 160 -262 339l-2 2l-2 2l-2 2l-2 2l-2 2l-3 4q-14 17 -21 24zM627 424l7 33q267 202 407 330l50 47q39 -15 49 -46q-173 -235 -287 -348q67 -116 139 -348 q-23 -30 -69 -45q-101 160 -262 339l-2 2l-2 2l-2 2l-2 2l-2 2l-3 4q-14 17 -21 24z" />
<glyph unicode="&#xac;" horiz-adv-x="1146" d="M200 711l24 110h1050l-116 -549h-152l93 439h-899z" />
<glyph unicode="&#xad;" horiz-adv-x="704" d="M183 490q1 5 1 8q11 50 50 90q14 14 23 14h469q26 -2 19 -47q-8 -37 -48 -82q-17 -20 -29 -20h-463q-24 0 -22 37z" />
<glyph unicode="&#xae;" horiz-adv-x="1296" d="M203 627q52 246 267 416q204 160 435 161q240 0 373 -169q132 -170 82 -408q-53 -247 -267 -418q-202 -159 -433 -160q-241 0 -375 170q-132 171 -82 408zM293 627q-46 -217 84 -362q114 -125 302 -126q220 0 401 166q150 139 190 322q46 218 -84 362q-114 124 -300 125 q-225 0 -407 -168q-147 -138 -186 -319zM470 342l6 29q6 11 25 12h25q16 4 20 16l95 447q3 20 -4 22l-33 -2q-18 3 -18 13l6 26q77 10 274 10q150 0 164 -105q3 -24 -2 -48q-10 -47 -47.5 -86t-69.5 -55l-33 -15l63 -168q26 -62 68 -63l-5 -27q-29 -8 -49 -8q-102 3 -123 78 l-64 160q-11 6 -54 6l-40 -187q2 -13 12 -14h24q20 -2 20 -12l-6 -29q-1 0 -138 4zM724 633q107 0 146 54q21 31 31 75q20 111 -68 112q-41 0 -59 -6z" />
<glyph unicode="&#xaf;" horiz-adv-x="813" d="M355 1104q8 40 42 63q10 6 18 7h500q24 0 21 -35q0 -3 -1 -4q-8 -38 -43 -64q-12 -7 -21 -8h-500q-23 2 -16 41z" />
<glyph unicode="&#xb0;" horiz-adv-x="546" d="M286 1075q25 118 137 182q62 34 126 35q112 0 157 -92q26 -57 12 -125q-25 -117 -137 -181q-61 -34 -124 -34q-111 0 -157 91q-28 57 -14 124zM374 1073q-17 -80 40 -118q27 -16 60 -17q87 0 137 86q14 25 19 49q18 85 -38 124q-26 17 -59 17q-88 0 -139 -88 q-14 -27 -20 -53z" />
<glyph unicode="&#xb1;" horiz-adv-x="1079" d="M151 18l31 144h819l-30 -144h-820zM248 588l26 123h348l75 350h122l-74 -350h348l-26 -123h-348l-74 -348h-123l74 348h-348z" />
<glyph unicode="&#xb2;" horiz-adv-x="696" d="M225 741l1 4q15 71 124 164q38 32 94 74l117 84q86 65 110 164l9 41q16 78 -37 113q-18 11 -37 12q-53 0 -117 -76q-6 -7 -17 -22q-18 -22 -26 -31l-57 2l-1 133l5 4q123 63 239 63q172 0 223 -98q22 -46 11 -102q-19 -90 -111 -163q-20 -16 -46 -34l-157 -112 q-54 -36 -87 -85q-6 -9 -7 -14h108q38 0 215 10h7q-13 -28 -25 -77q-5 -25 -3 -54q-102 4 -204 4q-13 0 -331 -4z" />
<glyph unicode="&#xb3;" horiz-adv-x="696" d="M218 803l54 112l58 3q6 -14 14 -40q19 -59 49 -73q24 -10 59 -10q116 0 158 119q6 18 10 36q13 126 -122 131q-37 0 -54 -2l14 64q197 12 229 153q14 64 -40 100q-22 13 -44 13q-77 0 -134 -65q-8 -9 -23 -28t-23 -28h-57l-5 113l5 4q81 52 219 64q23 2 43 1 q244 0 234 -133q-1 -12 -3 -22q-33 -142 -189 -189l-1 -4q140 -12 155 -110q3 -28 -3 -58q-29 -136 -201 -193q-85 -28 -184 -28q-142 1 -213 64z" />
<glyph unicode="&#xb4;" horiz-adv-x="698" d="M380 1057q7 26 27 49l227 268q14 4 34 4q79 0 120 -41q5 -5 7 -8l10 -47l-293 -221q-45 -32 -95 -33q-24 0 -35 20q-2 5 -2 9z" />
<glyph unicode="&#xb5;" horiz-adv-x="1083" d="M25 -334q12 54 46 146q49 134 58 180q4 17 9 55q4 31 7 47q2 21 3 72q2 83 8 115l81 381q5 23 11.5 79.5t10.5 101.5l4 46l247 26q0 -2 -39 -213l-84 -395q-39 -186 34 -218q13 -5 27 -5q106 0 216 80q25 19 42 37l146 688l232 29l-140 -660q-27 -127 -1 -156 q17 -16 46 -16q31 0 62 28q5 4 8 5q12 0 18 -29q1 -8 0 -12q-3 -15 -61 -51q-77 -46 -150 -47q-147 0 -170 90q-3 14 -5 28h-5q-153 -105 -249 -119q-26 -3 -49 -4q-52 1 -90 19q-4 -23 -13 -70q-17 -83 -18 -121q2 -106 -6 -147q-38 -123 -137 -131q-47 0 -81 50 q-27 42 -18 91z" />
<glyph unicode="&#xb6;" horiz-adv-x="1232" d="M313 881q2 50 13 104q34 162 181 260q122 80 281 80q96 0 241 -3q66 -1 87 -1l204 6l1 -6q-50 -137 -107 -410l-208 -977q-56 -264 -67 -409l-5 -6q-2 0 -201 6l-202 -6l-3 6q52 148 107 409l138 650q-31 -6 -67 -6q-400 0 -393 303zM682 -330q-12 -76 65 -78 q83 4 100 78l320 1506q13 76 -67 77q-81 -3 -99 -77z" />
<glyph unicode="&#xb7;" horiz-adv-x="616" d="M282 528q16 77 96 120q38 19 73 20q73 0 103 -65q15 -36 7 -75q-17 -80 -97 -119q-37 -17 -72 -18q-86 0 -108 74q-8 31 -2 63z" />
<glyph unicode="&#xb8;" horiz-adv-x="1107" d="M350 -340l46 74q66 -26 111 -27q68 0 98 46q5 10 8 18q9 40 -30 52q-10 2 -18 3q-49 0 -91 -14l-21 26l117 176h93l-64 -104q135 0 148 -92q2 -19 -1 -37q-19 -91 -130 -135q-56 -21 -116 -21q-80 0 -145 33q-3 2 -5 2z" />
<glyph unicode="&#xb9;" horiz-adv-x="696" d="M396 1325l13 68q192 37 374 86q8 -3 9 -6q-1 -3 -5 -13q-30 -76 -50 -172l-70 -330q-26 -124 -29 -213l-3 -4q-3 0 -104 4l-103 -4l-1 4q30 76 59 213l62 289q13 69 -7 74q-14 2 -67 2q-52 0 -78 2z" />
<glyph unicode="&#xba;" horiz-adv-x="753" d="M267 879q34 161 188 239q83 41 172 41q96 -1 149 -35q95 -62 94 -184q0 -26 -5 -49q-31 -147 -166 -222q-88 -48 -196 -48q-177 0 -228 122q-23 62 -8 136zM451 899q-34 -161 27 -197q25 -13 61 -14q85 0 123 106q10 30 18 64q40 190 -18 228q-24 14 -60 14 q-92 0 -128 -113q-11 -33 -23 -88z" />
<glyph unicode="&#xbb;" horiz-adv-x="1136" d="M181 92q173 235 287 348q-67 116 -139 348q23 30 69 46q101 -160 263 -340l2 -2l2 -2l2 -2l2 -2l1 -2l3 -3q15 -17 22 -24l-7 -33q-267 -202 -407 -331l-50 -46q-39 15 -50 45zM566 92q173 235 287 348q-67 116 -139 348q23 30 69 46q101 -160 263 -340l2 -2l2 -2l2 -2 l2 -2l1 -2l3 -3q15 -17 22 -24l-7 -33q-267 -202 -407 -331l-50 -46q-39 15 -50 45z" />
<glyph unicode="&#xbc;" horiz-adv-x="1433" d="M173 -131l1225 1341l76 -36l-1223 -1342zM369 1225l12 67q192 37 375 86q8 -3 9 -6q-1 -3 -5 -12q-30 -76 -51 -172l-70 -330q-26 -124 -29 -213l-3 -4q-3 0 -103 4l-104 -4l-1 4q30 76 60 213l61 289q13 69 -7 74q-14 2 -66 2t-78 2zM741 -31q45 50 375 386l94 98h103 q18 0 20 -12v-9l-85 -401h122l-24 -86h-117l-1 -4q-26 -124 -28 -213l-3 -4q-3 0 -100 4l-97 -4l-1 4q30 76 59 213l1 4h-299zM883 31h195l55 259z" />
<glyph unicode="&#xbd;" horiz-adv-x="1433" d="M132 -90l1224 1341l78 -37l-1225 -1341zM373 1225l12 67q192 37 375 86q8 -3 9 -6q-1 -3 -5 -12q-30 -76 -51 -172l-70 -330q-26 -124 -29 -213l-3 -4q-3 0 -103 4l-103 -4l-2 4q30 76 60 213l61 289q13 69 -7 74q-14 2 -66 2t-78 2zM766 -162q15 71 125 163q38 32 94 75 l116 84q86 65 110 164l9 41q16 78 -36 113q-19 10 -38 11q-53 0 -116 -75l-18 -22l-26 -32l-57 2v134l5 4q123 63 238 63q172 0 223 -98q22 -46 11 -103q-19 -90 -110 -162q-20 -16 -46 -34l-157 -113q-54 -36 -88 -84q-6 -9 -7 -14h109q38 0 214 10h7q-13 -28 -25 -78 q-5 -25 -3 -53q-102 4 -204 4q-13 0 -330 -4v4z" />
<glyph unicode="&#xbe;" horiz-adv-x="1433" d="M191 698l55 113l58 2q6 -14 14 -39q19 -59 49 -73q23 -11 58 -11q116 0 158 120q6 18 10 36q13 126 -121 131q-37 0 -54 -2l14 63q197 12 229 154q14 64 -40 99q-22 13 -45 14q-77 0 -133 -66l-23 -27q-16 -19 -23 -28h-57l-5 112l5 4q81 52 218 64q23 2 44 2 q244 0 234 -133q-1 -12 -3 -23q-33 -142 -190 -188l-1 -4q140 -12 156 -110q3 -28 -3 -58q-29 -136 -201 -193q-85 -28 -184 -28q-142 1 -214 63zM192 -90l1225 1341l76 -37l-1223 -1341zM750 -27q45 50 375 386l94 98h103q18 0 20 -12v-9l-85 -401h123l-25 -86h-117v-4 q-26 -124 -29 -213l-3 -4q-3 0 -100 4l-97 -4l-1 4q31 76 60 213v4h-299zM892 35h195l55 259z" />
<glyph unicode="&#xbf;" horiz-adv-x="950" d="M-72 -174q1 7 3 12q31 147 245 287q18 12 71 45q92 59 128 117q31 53 46 125l17 80q4 18 64 29q7 1 10 1q32 0 56 -20q5 -6 5 -10l-17 -84q-42 -187 -228 -330q-98 -75 -128 -208q-2 -11 -5 -24q-17 -79 26 -155q36 -60 91 -62q141 2 293 193l67 -2v-156l-8 -8 q-94 -67 -251 -107q-78 -20 -140 -20q-179 1 -256 49q-119 76 -89 248zM432 770l2 10q58 104 147 133q13 4 24 7h8q86 -20 104 -84q6 -25 8 -56l-2 -10q-59 -97 -165 -137q-4 -1 -6 -2h-8q-89 34 -108 117z" />
<glyph unicode="&#xc0;" horiz-adv-x="1435" d="M40 -6l892 1354h184q192 -1063 273 -1354q-35 6 -185 6q-130 0 -167 -6q-12 179 -56 456q-124 3 -203 3q-116 0 -272 -4q-183 -296 -259 -455q-25 6 -91 6q-89 0 -116 -6zM578 565q27 0 89 -2q89 -2 124 -2q66 0 172 2q-44 256 -86 449h-13zM668 1561q59 108 152 165 l247 -202q25 -23 21 -49q-7 -31 -34 -48q-7 -3 -10 -4q-19 1 -76 19l-292 90z" />
<glyph unicode="&#xc1;" horiz-adv-x="1435" d="M40 -6l892 1354h184q192 -1063 273 -1354q-35 6 -185 6q-130 0 -167 -6q-12 179 -56 456q-124 3 -203 3q-116 0 -272 -4q-183 -296 -259 -455q-25 6 -91 6q-89 0 -116 -6zM578 565q27 0 89 -2q89 -2 124 -2q66 0 172 2q-44 256 -86 449h-13zM1011 1462q0 8 1 13 q9 29 41 49l334 202q70 -58 81 -165l-20 -29l-331 -90q-68 -18 -83 -19q-21 0 -23 39z" />
<glyph unicode="&#xc2;" horiz-adv-x="1435" d="M40 -6l892 1354h184q192 -1063 273 -1354q-35 6 -185 6q-130 0 -167 -6q-12 179 -56 456q-124 3 -203 3q-116 0 -272 -4q-183 -296 -259 -455q-25 6 -91 6q-89 0 -116 -6zM578 565q27 0 89 -2q89 -2 124 -2q66 0 172 2q-44 256 -86 449h-13zM733 1464q180 123 324 242h61 q55 -74 219 -242l-46 -63q-126 54 -244 115q-117 -50 -295 -115z" />
<glyph unicode="&#xc3;" horiz-adv-x="1435" d="M40 -6l892 1354h184q192 -1063 273 -1354q-35 6 -185 6q-130 0 -167 -6q-12 179 -56 456q-124 3 -203 3q-116 0 -272 -4q-183 -296 -259 -455q-25 6 -91 6q-89 0 -116 -6zM578 565q27 0 89 -2q89 -2 124 -2q66 0 172 2q-44 256 -86 449h-13zM723 1475q101 221 228 223 q82 -1 148 -62q58 -46 103 -47q62 4 124 111l70 -19q-87 -203 -219 -225q-15 -2 -28 -2q-78 0 -121 48q-4 5 -8 9q-43 48 -105 50q-72 0 -117 -91q-3 -6 -4 -10z" />
<glyph unicode="&#xc4;" horiz-adv-x="1435" d="M40 -6l892 1354h184q192 -1063 273 -1354q-35 6 -185 6q-130 0 -167 -6q-12 179 -56 456q-124 3 -203 3q-116 0 -272 -4q-183 -296 -259 -455q-25 6 -91 6q-89 0 -116 -6zM578 565q27 0 89 -2q89 -2 124 -2q66 0 172 2q-44 256 -86 449h-13zM589 1440q15 73 90 105 q28 11 53 11q72 0 91 -62q7 -26 1 -54q-16 -73 -88 -104q-27 -10 -53 -11q-68 0 -91 59q-9 27 -3 56zM1199 1440q16 75 89 106q27 10 53 10q69 0 90 -60q9 -28 3 -56q-15 -71 -89 -103q-28 -11 -54 -12q-71 0 -90 61q-7 27 -2 54z" />
<glyph unicode="&#xc5;" horiz-adv-x="1435" d="M40 -6l863 1309q-89 59 -69 174q1 5 2 8q25 116 138 178q61 32 124 33q115 0 161 -90q26 -55 13 -121q-24 -113 -136 -176l-12 -7q186 -1027 265 -1308q-35 6 -185 6q-130 0 -167 -6q-12 179 -56 456q-124 3 -203 3q-117 0 -272 -4q-183 -296 -259 -455q-25 6 -91 6 q-89 0 -116 -6zM578 565q27 0 89 -2q89 -2 124 -2q66 0 172 2q-44 256 -86 449h-13zM930 1485q-15 -71 38 -112q27 -19 59 -19q78 0 130 78q17 27 23 53q17 80 -43 116q-25 14 -54 15q-81 0 -131 -78q-16 -27 -22 -53z" />
<glyph unicode="&#xc6;" horiz-adv-x="1724" d="M-3 -6l1016 1332l71 -5h98h78h499q74 0 125 6l2 -6q-16 -56 -22 -84q-8 -40 -11 -74l-6 -8l-347 19q-69 2 -126 2h-63l-81 -412q201 2 422 20l4 -6q-12 -28 -20 -67q-12 -59 -13 -88l-7 -7q-152 16 -411 20q-64 -328 -91 -491q93 3 230 13.5t227 19.5l91 8l2 -8 q-11 -32 -23 -88q-7 -34 -15 -90l-5 -6q-49 6 -122 6h-403h-24h-171q-78 0 -114 -6l96 446h-73q-138 0 -297 -3q-193 -274 -293 -443q-25 6 -91 6q-105 0 -132 -6zM597 554q26 0 86 -1q107 -2 141 -2q39 0 83 1l117 541h-25z" />
<glyph unicode="&#xc7;" horiz-adv-x="1415" d="M198 539q3 54 15 106q65 304 304 501q33 27 67 50q232 148 534 152q111 0 217.5 -23t158.5 -47l51 -23l3 -6q-60 -133 -98 -266l-62 -2q-56 196 -208 238q-52 14 -115 14q-174 0 -317 -149q-139 -148 -193 -400q-49 -232 44 -413q89 -167 244 -169q186 0 313 70 q70 39 162 113l34 -70q-279 -235 -574 -235l-47 -78q135 0 148 -92q2 -19 -2 -37q-19 -91 -130 -135q-56 -21 -116 -21q-80 0 -145 32q-3 2 -5 3l46 74q66 -26 111 -27q68 0 99 46q5 10 7 17q9 40 -29 53q-10 2 -19 3q-49 -1 -91 -15l-21 27l103 154q-203 23 -327 131 q-178 155 -162 424z" />
<glyph unicode="&#xc8;" horiz-adv-x="1196" d="M172 0q60 167 112 410l106 501q50 235 63 410l5 6q3 0 171 -6h602q74 0 124 6l3 -6q-16 -57 -19 -72q-10 -49 -14 -84l-6 -8l-361 21q-108 4 -199 4q-28 -56 -74 -271l-32 -149q225 0 470 20l5 -6q-12 -28 -23 -76q-10 -49 -10 -77l-8 -7q-197 20 -460 21l-48 -227 q-43 -202 -39 -260q122 0 270.5 11t236.5 22l88 12l2 -9q-11 -32 -28 -112q-4 -19 -11 -74l-6 -6q-49 6 -121 6h-623l-175 -6zM668 1561q59 108 152 165l247 -202q25 -23 21 -49q-7 -31 -34 -48q-7 -3 -10 -4q-19 1 -76 19l-292 90z" />
<glyph unicode="&#xc9;" horiz-adv-x="1196" d="M172 0q60 167 112 410l106 501q50 235 63 410l5 6q3 0 171 -6h602q74 0 124 6l3 -6q-16 -57 -19 -72q-10 -49 -14 -84l-6 -8l-361 21q-108 4 -199 4q-28 -56 -74 -271l-32 -149q225 0 470 20l5 -6q-12 -28 -23 -76q-10 -49 -10 -77l-8 -7q-197 20 -460 21l-48 -227 q-43 -202 -39 -260q122 0 270.5 11t236.5 22l88 12l2 -9q-11 -32 -28 -112q-4 -19 -11 -74l-6 -6q-49 6 -121 6h-623l-175 -6zM704 1462q0 8 1 13q9 29 41 49l334 202q70 -58 81 -165l-20 -29l-331 -90q-68 -18 -84 -19q-21 0 -22 39z" />
<glyph unicode="&#xca;" horiz-adv-x="1196" d="M172 0q60 167 112 410l106 501q50 235 63 410l5 6q3 0 171 -6h602q74 0 124 6l3 -6q-16 -57 -19 -72q-10 -49 -14 -84l-6 -8l-361 21q-108 4 -199 4q-28 -56 -74 -271l-32 -149q225 0 470 20l5 -6q-12 -28 -23 -76q-10 -49 -10 -77l-8 -7q-197 20 -460 21l-48 -227 q-43 -202 -39 -260q122 0 270.5 11t236.5 22l88 12l2 -9q-11 -32 -28 -112q-4 -19 -11 -74l-6 -6q-49 6 -121 6h-623l-175 -6zM651 1464q180 123 324 242h61q55 -74 219 -242l-46 -63q-126 54 -244 115q-117 -50 -295 -115z" />
<glyph unicode="&#xcb;" horiz-adv-x="1196" d="M172 0q60 167 112 410l106 501q50 235 63 410l5 6q3 0 171 -6h602q74 0 124 6l3 -6q-16 -57 -19 -72q-10 -49 -14 -84l-6 -8l-361 21q-108 4 -199 4q-28 -56 -74 -271l-32 -149q225 0 470 20l5 -6q-12 -28 -23 -76q-10 -49 -10 -77l-8 -7q-197 20 -460 21l-48 -227 q-43 -202 -39 -260q122 0 270.5 11t236.5 22l88 12l2 -9q-11 -32 -28 -112q-4 -19 -11 -74l-6 -6q-49 6 -121 6h-623l-175 -6zM603 1614q17 80 96 116q31 13 61 13q76 0 99 -67q9 -30 2 -62q-16 -77 -93 -113q-32 -14 -63 -14q-76 0 -99 65q-9 30 -3 62zM1054 1614 q17 80 96 116q31 13 60 13q73 0 98 -64q11 -31 4 -65q-16 -76 -94 -113q-32 -14 -62 -14q-76 0 -99 65q-9 30 -3 62z" />
<glyph unicode="&#xcc;" horiz-adv-x="718" d="M193 0q60 167 111 410l107 501q50 235 62 410l6 6q3 0 166 -6l172 6v-6q-59 -164 -111 -410l-107 -501q-50 -235 -62 -410l-6 -6q-3 0 -166 6l-172 -6v6zM483 1561q59 108 152 165l248 -202q25 -23 20 -49q-7 -31 -33 -48q-7 -3 -10 -4q-19 1 -76 19l-292 90z" />
<glyph unicode="&#xcd;" horiz-adv-x="718" d="M193 0q60 167 111 410l107 501q50 235 62 410l6 6q3 0 166 -6l172 6v-6q-59 -164 -111 -410l-107 -501q-50 -235 -62 -410l-6 -6q-3 0 -166 6l-172 -6v6zM458 1462q0 8 1 13q9 29 41 49l334 202q70 -58 81 -165l-20 -29l-330 -90q-68 -18 -84 -19q-21 0 -23 39z" />
<glyph unicode="&#xce;" horiz-adv-x="718" d="M193 0q60 167 111 410l107 501q50 235 62 410l6 6q3 0 166 -6l172 6v-6q-59 -164 -111 -410l-107 -501q-50 -235 -62 -410l-6 -6q-3 0 -166 6l-172 -6v6zM371 1464q180 123 323 242h62q55 -74 219 -242l-46 -63q-126 54 -244 115q-117 -50 -295 -115z" />
<glyph unicode="&#xcf;" horiz-adv-x="718" d="M193 0q60 167 111 410l107 501q50 235 62 410l6 6q3 0 166 -6l172 6v-6q-59 -164 -111 -410l-107 -501q-50 -235 -62 -410l-6 -6q-3 0 -166 6l-172 -6v6zM337 1614q17 80 96 116q31 13 60 13q76 0 99 -67q9 -30 3 -62q-16 -77 -93 -113q-32 -14 -63 -14q-76 0 -99 65 q-9 30 -3 62zM787 1614q17 80 97 116q31 13 60 13q73 0 97 -64q11 -31 4 -65q-16 -76 -94 -113q-32 -14 -62 -14q-76 0 -98 65q-10 30 -4 62z" />
<glyph unicode="&#xd0;" horiz-adv-x="1579" d="M116 573l47 125q74 -4 191 -6l47 219q50 235 62 410l5 6q3 0 171 -6q78 0 202 3q125 3 201 3q279 0 452 -185.5t141 -450.5q-4 -31 -10 -60q-87 -410 -460 -564q-174 -71 -369 -71q-111 0 -244 2q-114 2 -194 2l-175 -6l-1 6q60 167 112 410l36 170q-131 -2 -214 -7z M546 207q-14 -65 45 -85q52 -17 164 -18q227 0 329 78q129 101 193 400q65 306 22 440q-67 196 -358 197q-169 0 -199 -92q-2 -6 -3 -11l-90 -425q148 2 253 7l-47 -125q-100 5 -230 8z" />
<glyph unicode="&#xd1;" horiz-adv-x="1597" d="M164 0q53 147 120 410l117 501q53 222 66 410l6 6q3 0 131 -6l91 4l550 -909q28 -46 40 -20q4 12 8 30l89 485q50 272 60 410l5 6q3 0 104 -6l101 6l3 -6q-50 -137 -108 -410l-195 -917q-67 6 -97 6q-22 0 -51 -2q-36 -2 -64 -2l-581 936q-3 8 -4 17q-4 -20 -12 -50 l-116 -489q-65 -273 -75 -410l-5 -6q-3 0 -99 6l-83 -6zM809 1483q101 221 227 223q82 -1 149 -61q58 -47 103 -48q62 4 124 111l69 -18q-87 -203 -218 -225q-15 -2 -29 -3q-78 0 -121 48l-8 10q-43 48 -104 49q-72 0 -117 -91l-5 -10z" />
<glyph unicode="&#xd2;" horiz-adv-x="1636" d="M241 635q66 310 313 513q243 199 545 200q361 0 511 -222q120 -180 63 -452q-72 -339 -340 -532q-227 -162 -522 -162q-314 0 -475 192q-152 185 -95 463zM579 670q-85 -402 110 -532q77 -49 186 -50q327 0 447 491q7 28 13 56q92 434 -75 551q-77 53 -210 53 q-349 0 -470 -565q-1 -3 -1 -4zM852 1561q59 108 152 165l248 -202q25 -23 20 -49q-7 -31 -33 -48q-7 -3 -11 -4q-19 1 -76 19l-292 90z" />
<glyph unicode="&#xd3;" horiz-adv-x="1636" d="M241 635q66 310 313 513q243 199 545 200q361 0 511 -222q120 -180 63 -452q-72 -339 -340 -532q-227 -162 -522 -162q-314 0 -475 192q-152 185 -95 463zM579 670q-85 -402 110 -532q77 -49 186 -50q327 0 447 491q7 28 13 56q92 434 -75 551q-77 53 -210 53 q-349 0 -470 -565q-1 -3 -1 -4zM888 1462q0 8 1 13q9 29 41 49l334 202q70 -58 81 -165l-20 -29l-330 -90q-68 -18 -84 -19q-21 0 -23 39z" />
<glyph unicode="&#xd4;" horiz-adv-x="1636" d="M241 635q66 310 313 513q243 199 545 200q361 0 511 -222q120 -180 63 -452q-72 -339 -340 -532q-227 -162 -522 -162q-314 0 -475 192q-152 185 -95 463zM579 670q-85 -402 110 -532q77 -49 186 -50q327 0 447 491q7 28 13 56q92 434 -75 551q-77 53 -210 53 q-349 0 -470 -565q-1 -3 -1 -4zM815 1464q180 123 324 242h61q55 -74 219 -242l-46 -63q-126 54 -244 115q-117 -50 -295 -115z" />
<glyph unicode="&#xd5;" horiz-adv-x="1636" d="M241 635q66 310 313 513q243 199 545 200q361 0 511 -222q120 -180 63 -452q-72 -339 -340 -532q-227 -162 -522 -162q-314 0 -475 192q-152 185 -95 463zM579 670q-85 -402 110 -532q77 -49 186 -50q327 0 447 491q7 28 13 56q92 434 -75 551q-77 53 -210 53 q-349 0 -470 -565q-1 -3 -1 -4zM825 1483q101 221 228 223q82 -1 149 -61q57 -47 102 -48q62 4 124 111l70 -18q-87 -203 -219 -225q-15 -2 -28 -3q-78 0 -121 48l-8 10q-43 48 -105 49q-72 0 -117 -91q-3 -6 -4 -10z" />
<glyph unicode="&#xd6;" horiz-adv-x="1636" d="M241 635q66 310 313 513q243 199 545 200q361 0 511 -222q120 -180 63 -452q-72 -339 -340 -532q-227 -162 -522 -162q-314 0 -475 192q-152 185 -95 463zM556 1440q16 74 90 106q27 10 51 10q73 0 93 -62q7 -26 1 -54q-15 -72 -88 -103q-28 -11 -55 -12q-70 0 -90 61 q-7 27 -2 54zM579 670q-85 -402 110 -532q77 -49 186 -50q327 0 447 491q7 28 13 56q92 434 -75 551q-77 53 -210 53q-349 0 -470 -565q-1 -3 -1 -4zM1461 1440q16 75 92 106q26 11 52 10q69 0 89 -60q8 -27 3 -56q-15 -71 -87 -103q-28 -12 -54 -12q-72 0 -93 61 q-7 27 -2 54z" />
<glyph unicode="&#xd7;" horiz-adv-x="1116" d="M260 229l298 246l-195 248l121 100l196 -245l300 245l78 -102l-298 -246l194 -246l-122 -100l-195 246l-298 -246z" />
<glyph unicode="&#xd8;" horiz-adv-x="1636" d="M139 -12l193 188q-148 185 -91 459q66 310 313 513q243 199 545 200q209 -1 353 -80l123 121l75 -70l-113 -111q202 -178 141 -511q-2 -13 -5 -23q-72 -339 -340 -532q-227 -162 -522 -162q-246 1 -404 123l-194 -189zM556 395l757 738q-77 105 -263 106 q-349 0 -470 -565q-1 -3 -1 -4q-33 -157 -23 -275zM583 275q73 -186 292 -187q327 0 447 491q7 28 13 56q54 256 22 397z" />
<glyph unicode="&#xd9;" horiz-adv-x="1472" d="M279 483l91 428q56 264 66 410l6 6q3 0 158 -6l172 6v-6q-50 -137 -107 -410l-77 -360q-76 -355 117 -424q43 -14 95 -14q289 0 398 300q24 67 43 154l73 344q56 264 67 410l5 6q3 0 103 -6l106 6l1 -6q-50 -137 -108 -410l-65 -307q-136 -623 -694 -624q-272 0 -392 146 q-105 132 -58 357zM852 1561q59 108 152 165l248 -202q25 -23 20 -49q-7 -31 -33 -48q-7 -3 -11 -4q-19 1 -76 19l-292 90z" />
<glyph unicode="&#xda;" horiz-adv-x="1472" d="M279 483l91 428q56 264 66 410l6 6q3 0 158 -6l172 6v-6q-50 -137 -107 -410l-77 -360q-76 -355 117 -424q43 -14 95 -14q289 0 398 300q24 67 43 154l73 344q56 264 67 410l5 6q3 0 103 -6l106 6l1 -6q-50 -137 -108 -410l-65 -307q-136 -623 -694 -624q-272 0 -392 146 q-105 132 -58 357zM909 1462v13q9 29 42 49l333 202q70 -58 82 -165l-20 -29l-331 -90q-68 -18 -84 -19q-21 0 -22 39z" />
<glyph unicode="&#xdb;" horiz-adv-x="1472" d="M279 483l91 428q56 264 66 410l6 6q3 0 158 -6l172 6v-6q-50 -137 -107 -410l-77 -360q-76 -355 117 -424q43 -14 95 -14q289 0 398 300q24 67 43 154l73 344q56 264 67 410l5 6q3 0 103 -6l106 6l1 -6q-50 -137 -108 -410l-65 -307q-136 -623 -694 -624q-272 0 -392 146 q-105 132 -58 357zM795 1464q180 123 323 242h62q55 -74 219 -242l-47 -63q-126 54 -243 115q-117 -50 -295 -115z" />
<glyph unicode="&#xdc;" horiz-adv-x="1472" d="M279 483l91 428q56 264 66 410l6 6q3 0 158 -6l172 6v-6q-50 -137 -107 -410l-77 -360q-76 -355 117 -424q43 -14 95 -14q289 0 398 300q24 67 43 154l73 344q56 264 67 410l5 6q3 0 103 -6l106 6l1 -6q-50 -137 -108 -410l-65 -307q-136 -623 -694 -624q-272 0 -392 146 q-105 132 -58 357zM794 1460q16 74 90 106q27 10 51 11q72 0 91 -63q7 -26 1 -54q-16 -73 -88 -104q-27 -10 -53 -10q-70 0 -90 61q-7 26 -2 53zM1168 1460q16 75 90 106q27 10 52 11q69 0 89 -60q8 -27 3 -57q-15 -71 -87 -102q-28 -12 -54 -12q-71 0 -91 61q-7 26 -2 53z " />
<glyph unicode="&#xdd;" horiz-adv-x="1337" d="M315 1327q35 -6 199 -6q124 0 161 6q41 -139 206 -578q4 -10 6 -17q280 333 462 595q25 -6 118 -6q70 0 97 6q-481 -555 -529 -614l-71 -90q-98 -478 -117 -629q-33 6 -169 6q-134 0 -169 -6q42 133 135 569q-80 215 -329 764zM847 1462q0 8 1 13q9 29 41 49l334 202 q70 -58 82 -165l-21 -29l-330 -90q-68 -18 -84 -19q-21 0 -23 39z" />
<glyph unicode="&#xde;" horiz-adv-x="1263" d="M170 0q60 167 112 410l106 501q50 235 63 410l5 6q3 0 167 -6l171 6l1 -6q-38 -105 -74 -247q74 4 198 3q390 0 430 -238q10 -63 -6 -137q-50 -234 -282 -337q-144 -63 -336 -64q-123 0 -168 13q-33 -175 -43 -314l-5 -6q-3 0 -167 6l-171 -6zM577 412q32 -9 119 -9 q254 0 319 295q1 3 1 4q49 230 -108 267q-26 6 -54 6q-77 0 -162 -21l-9 -42z" />
<glyph unicode="&#xdf;" horiz-adv-x="1306" d="M184 0q43 126 104 410l64 301q3 29 -18 32l-88 11q-17 4 -18 12l16 72q9 28 64 41q78 17 96 82q2 9 4 16q26 123 172 266q44 43 90 78q150 102 338 109q202 -1 269 -48q108 -81 85 -198q-44 -196 -321 -326l-5 -20q163 -124 219 -219q72 -123 43 -265q-44 -199 -176 -299 q-103 -74 -258 -75q-117 0 -239 50q-10 4 -13 7l-1 6q17 21 60 118q5 11 8 19l44 2q32 -86 104 -88q117 4 165 225q59 286 -165 488l9 43q154 84 206 188q25 52 42 129q26 120 -54 160q-26 12 -55 12q-156 0 -239 -148q-25 -45 -35 -89q-8 -37 -18 -96q-11 -62 -20 -101 l-105 -495q-51 -241 -75 -410l-5 -6q-4 0 -122 6l-171 -6z" />
<glyph unicode="&#xe0;" horiz-adv-x="1056" d="M112 201q36 167 258 254q58 22 120 37l253 63q13 7 17 25q40 189 -67 206q-15 2 -30 2q-143 -2 -286 -161l-67 2l-9 153l8 9q76 56 252 92q80 16 144 16q168 2 261 -58q18 -12 29 -24q65 -76 29 -250l-29 -125q-57 -240 -65 -278q-13 -60 44 -70q23 -4 65 -4 q13 -15 11 -43q-103 -67 -258 -67q-106 0 -129 84q-4 17 -7 34h-4q-145 -118 -306 -118q-150 0 -212 90q-36 57 -22 131zM391 219q-14 -67 35 -102q22 -14 46 -15q83 2 167 70q30 25 48 85q1 5 2 7l45 191l-173 -43q-135 -36 -170 -193zM503 1296l9 23q41 37 128 58 q31 7 56 7q23 0 40 -4l87 -254q11 -32 7 -53q-14 -25 -56 -33q-33 3 -69 41z" />
<glyph unicode="&#xe1;" horiz-adv-x="1056" d="M112 201q36 167 258 254q58 22 120 37l253 63q13 7 17 25q40 189 -67 206q-15 2 -30 2q-143 -2 -286 -161l-67 2l-9 153l8 9q76 56 252 92q80 16 144 16q168 2 261 -58q18 -12 29 -24q65 -76 29 -250l-29 -125q-57 -240 -65 -278q-13 -60 44 -70q23 -4 65 -4 q13 -15 11 -43q-103 -67 -258 -67q-106 0 -129 84q-4 17 -7 34h-4q-145 -118 -306 -118q-150 0 -212 90q-36 57 -22 131zM391 219q-14 -67 35 -102q22 -14 46 -15q83 2 167 70q30 25 48 85q1 5 2 7l45 191l-173 -43q-135 -36 -170 -193zM544 1067q7 26 27 49l227 268 q14 4 34 5q79 0 120 -41q5 -5 6 -9l11 -47l-293 -221q-45 -32 -95 -33q-24 0 -35 20q-2 5 -2 9z" />
<glyph unicode="&#xe2;" horiz-adv-x="1056" d="M112 201q36 167 258 254q58 22 120 37l253 63q13 7 17 25q40 189 -67 206q-15 2 -30 2q-143 -2 -286 -161l-67 2l-9 153l8 9q76 56 252 92q80 16 144 16q168 2 261 -58q18 -12 29 -24q65 -76 29 -250l-29 -125q-57 -240 -65 -278q-13 -60 44 -70q23 -4 65 -4 q13 -15 11 -43q-103 -67 -258 -67q-106 0 -129 84q-4 17 -7 34h-4q-145 -118 -306 -118q-150 0 -212 90q-36 57 -22 131zM391 219q-14 -67 35 -102q22 -14 46 -15q83 2 167 70q30 25 48 85q1 5 2 7l45 191l-173 -43q-135 -36 -170 -193zM461 1069q201 171 292 269l27 30h82 q66 -135 134 -225l57 -74l-66 -49q-132 70 -194 140q-8 9 -14 18q-96 -75 -260 -152q-9 -4 -13 -6z" />
<glyph unicode="&#xe3;" horiz-adv-x="1056" d="M112 201q36 167 258 254q58 22 120 37l253 63q13 7 17 25q40 189 -67 206q-15 2 -30 2q-143 -2 -286 -161l-67 2l-9 153l8 9q76 56 252 92q80 16 144 16q168 2 261 -58q18 -12 29 -24q65 -76 29 -250l-29 -125q-57 -240 -65 -278q-13 -60 44 -70q23 -4 65 -4 q13 -15 11 -43q-103 -67 -258 -67q-106 0 -129 84q-4 17 -7 34h-4q-145 -118 -306 -118q-150 0 -212 90q-36 57 -22 131zM391 219q-14 -67 35 -102q22 -14 46 -15q83 2 167 70q30 25 48 85q1 5 2 7l45 191l-173 -43q-135 -36 -170 -193zM426 1071q101 221 228 223 q82 -1 149 -61q57 -46 102 -47q62 4 124 110l70 -18q-87 -203 -219 -225q-15 -2 -28 -2q-78 0 -121 48q-4 5 -8 9q-43 48 -104 49q-72 0 -117 -91q-3 -6 -5 -9z" />
<glyph unicode="&#xe4;" horiz-adv-x="1056" d="M112 201q36 167 258 254q58 22 120 37l253 63q13 7 17 25q40 189 -67 206q-15 2 -30 2q-143 -2 -286 -161l-67 2l-9 153l8 9q76 56 252 92q80 16 144 16q168 2 261 -58q18 -12 29 -24q65 -76 29 -250l-29 -125q-57 -240 -65 -278q-13 -60 44 -70q23 -4 65 -4 q13 -15 11 -43q-103 -67 -258 -67q-106 0 -129 84q-4 17 -7 34h-4q-145 -118 -306 -118q-150 0 -212 90q-36 57 -22 131zM391 219q-14 -67 35 -102q22 -14 46 -15q83 2 167 70q30 25 48 85q1 5 2 7l45 191l-173 -43q-135 -36 -170 -193zM412 1169q17 79 94 115q30 13 59 14 q76 0 99 -66q9 -30 2 -63q-16 -76 -93 -112q-32 -14 -63 -15q-69 0 -93 64q-11 30 -5 63zM840 1169q17 80 97 116q31 13 60 13q71 0 94 -63q10 -31 3 -66q-16 -74 -90 -111q-32 -15 -62 -16q-75 0 -98 66q-10 30 -4 61z" />
<glyph unicode="&#xe5;" horiz-adv-x="1056" d="M112 201q36 167 258 254q58 22 120 37l253 63q13 7 17 25q40 189 -67 206q-15 2 -30 2q-143 -2 -286 -161l-67 2l-9 153l8 9q76 56 252 92q80 16 144 16q168 2 261 -58q18 -12 29 -24q65 -76 29 -250l-29 -125q-57 -240 -65 -278q-13 -60 44 -70q23 -4 65 -4 q13 -15 11 -43q-103 -67 -258 -67q-106 0 -129 84q-4 17 -7 34h-4q-145 -118 -306 -118q-150 0 -212 90q-36 57 -22 131zM391 219q-14 -67 35 -102q22 -14 46 -15q83 2 167 70q30 25 48 85q1 5 2 7l45 191l-173 -43q-135 -36 -170 -193zM578 1219q25 116 139 178 q61 32 123 33q115 0 162 -91q26 -55 13 -120q-24 -112 -134 -175q-64 -35 -130 -36q-114 0 -160 91q-26 55 -13 120zM673 1219q-15 -71 38 -112q27 -19 59 -20q78 0 129 79q17 27 24 53q17 80 -43 116q-26 14 -55 15q-81 0 -130 -78q-16 -27 -22 -53z" />
<glyph unicode="&#xe6;" horiz-adv-x="1579" d="M91 207q36 152 227 231q167 67 430 84q37 186 -1 240q-34 44 -127 45q-125 0 -296 -197q-3 -4 -5 -6l-61 2l-1 158l7 8q160 103 335 123q32 4 61 4q184 0 262 -82q33 -37 39 -84q113 129 296 160q39 6 75 6q168 -1 241 -59q83 -67 87 -176q0 -19 -2 -31 q-27 -120 -76 -168q-59 -27 -290 -31q-184 -3 -282 -8q-42 -197 73 -285q53 -38 118 -39q165 1 300 117q31 -15 45 -47q-104 -130 -284 -176q-63 -16 -119 -16q-221 1 -315 141q-107 -105 -326 -135q-48 -6 -89 -6q-272 0 -318 135q-13 42 -4 92zM357 217q-22 -105 54 -130 q16 -5 32 -5q119 0 198 88q15 18 25 35q22 37 62 225q-277 -22 -341 -130q-19 -32 -30 -83zM1034 528q82 4 193 5q121 1 144 18q22 19 34 76q18 86 -29 142q-33 37 -86 38q-125 0 -212 -164q-28 -56 -44 -115z" />
<glyph unicode="&#xe7;" horiz-adv-x="960" d="M174 414q61 287 303 414q137 71 298 71q141 0 266 -55q15 -7 25 -13l2 -6l-91 -198l-58 -2q-35 170 -148 172q-121 -2 -202 -99q-67 -82 -99 -231q-36 -175 3 -274q28 -69 104 -100q28 -11 51 -11q152 0 253 92q4 4 7 6l31 -10q-7 -37 -7 -80q-141 -101 -313 -109 q-24 -1 -48 -1h-3l-40 -66q135 0 148 -92q2 -19 -1 -37q-19 -91 -131 -134q-56 -21 -115 -22q-80 0 -146 33q-3 2 -5 2l47 74q66 -26 111 -27q68 0 98 46q5 10 7 18q9 40 -29 52q-10 2 -18 3q-49 0 -91 -14l-21 26l96 144q-168 27 -238 125q-84 123 -46 303z" />
<glyph unicode="&#xe8;" horiz-adv-x="1024" d="M162 364q3 26 8 50q55 260 267 401q142 93 295 94q286 0 319 -215q10 -69 -7 -149q-19 -71 -76 -74h-524q-1 -4 -3 -15t-4 -18q-54 -252 123 -293q42 -10 102 -10q126 0 267 104l32 25q27 0 19 -55q-1 -5 -1 -8q-200 -220 -430 -221q-221 1 -312 102q-93 104 -75 282z M472 563h311q5 6 14 43q36 171 -71 198q-15 3 -28 3q-71 -2 -123 -59q-80 -92 -103 -185zM548 1296l9 23q41 37 128 58q31 7 56 7q23 0 40 -4l87 -254q11 -32 7 -53q-14 -25 -56 -33q-33 3 -69 41z" />
<glyph unicode="&#xe9;" horiz-adv-x="1024" d="M162 364q3 26 8 50q55 260 267 401q142 93 295 94q286 0 319 -215q10 -69 -7 -149q-19 -71 -76 -74h-524q-1 -4 -3 -15t-4 -18q-54 -252 123 -293q42 -10 102 -10q126 0 267 104l32 25q27 0 19 -55q-1 -5 -1 -8q-200 -220 -430 -221q-221 1 -312 102q-93 104 -75 282z M472 563h311q5 6 14 43q36 171 -71 198q-15 3 -28 3q-71 -2 -123 -59q-80 -92 -103 -185zM573 1067q7 26 27 49l227 268q14 4 33 5q79 0 120 -41q5 -5 7 -9l11 -47l-293 -221q-45 -32 -95 -33q-24 0 -35 20q-2 5 -2 9z" />
<glyph unicode="&#xea;" horiz-adv-x="1024" d="M162 364q3 26 8 50q55 260 267 401q142 93 295 94q286 0 319 -215q10 -69 -7 -149q-19 -71 -76 -74h-524q-1 -4 -3 -15t-4 -18q-54 -252 123 -293q42 -10 102 -10q126 0 267 104l32 25q27 0 19 -55q-1 -5 -1 -8q-200 -220 -430 -221q-221 1 -312 102q-93 104 -75 282z M461 1069q201 171 292 269l27 30h82q66 -135 134 -225l57 -74l-66 -49q-132 70 -194 140q-8 9 -14 18q-96 -75 -260 -152q-9 -4 -13 -6zM472 563h311q5 6 14 43q36 171 -71 198q-15 3 -28 3q-71 -2 -123 -59q-80 -92 -103 -185z" />
<glyph unicode="&#xeb;" horiz-adv-x="1024" d="M162 364q3 26 8 50q55 260 267 401q142 93 295 94q286 0 319 -215q10 -69 -7 -149q-19 -71 -76 -74h-524q-1 -4 -3 -15t-4 -18q-54 -252 123 -293q42 -10 102 -10q126 0 267 104l32 25q27 0 19 -55q-1 -5 -1 -8q-200 -220 -430 -221q-221 1 -312 102q-93 104 -75 282z M443 1169q17 79 93 115q30 13 59 14q76 0 99 -66q9 -30 3 -63q-16 -76 -93 -112q-32 -14 -63 -15q-69 0 -94 64q-10 30 -4 63zM472 563h311q5 6 14 43q36 171 -71 198q-15 3 -28 3q-71 -2 -123 -59q-80 -92 -103 -185zM871 1169q17 80 96 116q31 13 61 13q71 0 94 -63 q10 -31 3 -66q-16 -74 -90 -111q-32 -15 -62 -16q-75 0 -98 66q-10 30 -4 61z" />
<glyph unicode="&#xec;" horiz-adv-x="634" d="M164 0q50 140 99 369l24 112q60 285 63 396l8 8q14 0 49 -3q63 -4 95 -3q53 0 144 10q16 -4 14 -21q-74 -251 -98 -364l-29 -135q-47 -224 -58 -369l-5 -6q-93 6 -151 6q-62 0 -152 -6zM360 1296l8 23q41 37 128 58q31 7 56 7q23 0 40 -4l88 -254q11 -32 7 -53 q-14 -25 -56 -33q-33 3 -69 41z" />
<glyph unicode="&#xed;" horiz-adv-x="634" d="M164 0q50 140 99 369l24 112q60 285 63 396l8 8q14 0 49 -3q63 -4 95 -3q53 0 144 10q16 -4 14 -21q-74 -251 -98 -364l-29 -135q-47 -224 -58 -369l-5 -6q-93 6 -151 6q-62 0 -152 -6zM372 1067q7 26 27 49l227 268q14 4 34 5q79 0 120 -41q5 -5 6 -9l11 -47l-293 -221 q-45 -32 -95 -33q-24 0 -35 20q-2 5 -2 9z" />
<glyph unicode="&#xee;" horiz-adv-x="634" d="M164 0q50 140 99 369l24 112q60 285 63 396l8 8q14 0 49 -3q63 -4 95 -3q53 0 144 10q16 -4 14 -21q-74 -251 -98 -364l-29 -135q-47 -224 -58 -369l-5 -6q-93 6 -151 6q-62 0 -152 -6zM256 1069q201 171 292 269l27 30h82q66 -135 134 -225l57 -74l-66 -49 q-132 70 -194 140q-8 9 -14 18q-96 -75 -260 -152q-9 -4 -13 -6z" />
<glyph unicode="&#xef;" horiz-adv-x="634" d="M164 0q50 140 99 369l24 112q60 285 63 396l8 8q14 0 49 -3q63 -4 95 -3q53 0 144 10q16 -4 14 -21q-74 -251 -98 -364l-29 -135q-47 -224 -58 -369l-5 -6q-93 6 -151 6q-62 0 -152 -6zM234 1169q17 79 94 115q30 13 59 14q76 0 99 -66q9 -30 2 -63q-16 -76 -93 -112 q-32 -14 -63 -15q-69 0 -93 64q-11 30 -5 63zM662 1169q17 80 97 116q31 13 60 13q71 0 94 -63q10 -31 3 -66q-16 -74 -90 -111q-32 -15 -62 -16q-75 0 -98 66q-10 30 -4 61z" />
<glyph unicode="&#xf0;" horiz-adv-x="1095" d="M113 426q61 286 340 410q144 63 295 63q87 -1 152 -29q-31 146 -143 273l-260 -154l-37 76l246 145q-68 95 -155 168l111 52q98 -61 186 -146l248 146l38 -76l-227 -133q237 -247 280 -469q24 -130 -5 -267q-111 -504 -664 -505q-280 0 -377 190q-57 115 -28 256z M424 461q-56 -265 48 -357q42 -33 100 -34q218 0 300 381q1 4 1 6q27 128 18 266q-46 80 -144 85q-12 1 -22 1q-204 0 -281 -264q-11 -38 -20 -84z" />
<glyph unicode="&#xf1;" horiz-adv-x="1228" d="M141 0q53 144 101 369l24 112q58 272 62 398l5 6q173 -8 268 6q14 -4 14 -21q-1 -23 -28 -149l7 -6q164 165 332 183q16 1 29 1q235 0 233 -201q-1 -47 -13 -102l-48 -227q-48 -227 -56 -369l-5 -6q-3 0 -159 6l-138 -6l-3 6q36 111 91 369l38 182q38 189 -66 190 q-114 -2 -272 -163l-44 -209q-49 -230 -67 -369l-7 -6q-3 0 -126 6l-169 -6zM506 1071q101 221 228 223q82 -1 149 -61q57 -46 102 -47q62 4 124 110l70 -18q-87 -203 -219 -225q-15 -2 -28 -2q-78 0 -121 48q-4 5 -8 9q-43 48 -104 49q-72 0 -118 -91q-3 -6 -4 -9z" />
<glyph unicode="&#xf2;" horiz-adv-x="1159" d="M173 420q64 302 318 420q129 59 284 59q335 0 396 -238q24 -98 -3 -223q-60 -281 -299 -396q-131 -62 -294 -62q-291 0 -381 182q-52 109 -21 258zM474 467q-71 -333 92 -378q28 -7 60 -7q175 0 239 296q1 3 1 5q60 284 2 363q-40 50 -129 51q-156 0 -223 -175 q-22 -59 -42 -155zM585 1296l9 23q41 37 128 58q31 7 56 7q23 0 40 -4l87 -254q11 -32 7 -53q-14 -25 -56 -33q-33 3 -69 41z" />
<glyph unicode="&#xf3;" horiz-adv-x="1159" d="M173 420q64 302 318 420q129 59 284 59q335 0 396 -238q24 -98 -3 -223q-60 -281 -299 -396q-131 -62 -294 -62q-291 0 -381 182q-52 109 -21 258zM474 467q-71 -333 92 -378q28 -7 60 -7q175 0 239 296q1 3 1 5q60 284 2 363q-40 50 -129 51q-156 0 -223 -175 q-22 -59 -42 -155zM663 1067q7 26 27 49l227 268q14 4 34 5q79 0 120 -41q5 -5 6 -9l11 -47l-293 -221q-45 -32 -95 -33q-24 0 -35 20q-2 5 -2 9z" />
<glyph unicode="&#xf4;" horiz-adv-x="1159" d="M173 420q64 302 318 420q129 59 284 59q335 0 396 -238q24 -98 -3 -223q-60 -281 -299 -396q-131 -62 -294 -62q-291 0 -381 182q-52 109 -21 258zM474 467q-71 -333 92 -378q28 -7 60 -7q175 0 239 296q1 3 1 5q60 284 2 363q-40 50 -129 51q-156 0 -223 -175 q-22 -59 -42 -155zM522 1069q201 171 292 269l28 30h82q66 -135 133 -225l57 -74l-66 -49q-132 70 -193 140q-8 9 -15 18q-96 -75 -260 -152q-9 -4 -13 -6z" />
<glyph unicode="&#xf5;" horiz-adv-x="1159" d="M173 420q64 302 318 420q129 59 284 59q335 0 396 -238q24 -98 -3 -223q-60 -281 -299 -396q-131 -62 -294 -62q-291 0 -381 182q-52 109 -21 258zM474 467q-71 -333 92 -378q28 -7 60 -7q175 0 239 296q1 3 1 5q60 284 2 363q-40 50 -129 51q-156 0 -223 -175 q-22 -59 -42 -155zM494 1071q101 221 228 223q82 -1 148 -61q58 -46 103 -47q62 4 124 110l70 -18q-87 -203 -219 -225q-15 -2 -28 -2q-78 0 -122 48l-7 9q-43 48 -105 49q-72 0 -117 -91q-3 -6 -4 -9z" />
<glyph unicode="&#xf6;" horiz-adv-x="1159" d="M173 420q64 302 318 420q129 59 284 59q335 0 396 -238q24 -98 -3 -223q-60 -281 -299 -396q-131 -62 -294 -62q-291 0 -381 182q-52 109 -21 258zM474 467q-71 -333 92 -378q28 -7 60 -7q175 0 239 296q1 3 1 5q60 284 2 363q-40 50 -129 51q-156 0 -223 -175 q-22 -59 -42 -155zM494 1169q17 79 94 115q30 13 59 14q76 0 99 -66q9 -30 2 -63q-16 -76 -93 -112q-32 -14 -63 -15q-69 0 -93 64q-11 30 -5 63zM922 1169q17 80 97 116q31 13 60 13q71 0 94 -63q10 -31 3 -66q-16 -74 -90 -111q-32 -15 -62 -16q-75 0 -98 66q-10 30 -4 61 z" />
<glyph unicode="&#xf7;" horiz-adv-x="1116" d="M234 406l30 143h819l-30 -143h-819zM458 148l2 8q53 83 143 117h7q78 -30 92 -107q1 -6 2 -10l-2 -8q-50 -91 -133 -114q-6 -2 -11 -3h-6q-73 17 -88 74q-5 19 -6 43zM596 799l2 9q53 83 143 116h7q78 -30 92 -107q1 -6 2 -9l-2 -9q-50 -91 -132 -114q-6 -2 -11 -3h-7 q-73 17 -88 74q-5 19 -6 43z" />
<glyph unicode="&#xf8;" horiz-adv-x="1159" d="M73 -25l153 136q-93 119 -53 309q64 302 318 420q129 59 284 59q169 -1 270 -63l125 110l64 -47l-128 -114q109 -124 62 -347q-60 -281 -299 -396q-131 -62 -294 -62q-183 1 -291 77l-151 -135zM451 311l439 387q-30 98 -151 99q-156 0 -223 -175q-22 -59 -42 -155 q-19 -93 -23 -156zM458 211q32 -127 168 -129q175 0 239 296q1 3 1 5q29 137 32 218z" />
<glyph unicode="&#xf9;" horiz-adv-x="1210" d="M193 141q-7 54 7 117l58 252q41 170 62 369l5 6q3 0 142 -6l155 6l1 -6q-19 -55 -87 -336q-4 -18 -8 -33l-43 -184q-41 -172 49 -187q13 -2 28 -2q92 0 187 79q71 61 86 130l35 164q54 255 64 369l6 6q3 0 138 -6l159 6v-6q-42 -111 -96 -369l-25 -117q-44 -206 -49 -393 l-5 -6q-38 6 -150 6q-69 0 -119 -6q-18 0 -17 6l18 131h-4q-177 -147 -377 -151q-198 0 -220 161zM568 1296l9 23q41 37 128 58q31 7 56 7q23 0 40 -4l88 -254q11 -32 7 -53q-14 -25 -56 -33q-33 3 -69 41z" />
<glyph unicode="&#xfa;" horiz-adv-x="1210" d="M193 141q-7 54 7 117l58 252q41 170 62 369l5 6q3 0 142 -6l155 6l1 -6q-19 -55 -87 -336q-4 -18 -8 -33l-43 -184q-41 -172 49 -187q13 -2 28 -2q92 0 187 79q71 61 86 130l35 164q54 255 64 369l6 6q3 0 138 -6l159 6v-6q-42 -111 -96 -369l-25 -117q-44 -206 -49 -393 l-5 -6q-38 6 -150 6q-69 0 -119 -6q-18 0 -17 6l18 131h-4q-177 -147 -377 -151q-198 0 -220 161zM651 1067q7 26 27 49l227 268q14 4 33 5q79 0 120 -41q5 -5 7 -9l10 -47l-292 -221q-45 -32 -95 -33q-24 0 -36 20q-2 5 -1 9z" />
<glyph unicode="&#xfb;" horiz-adv-x="1210" d="M193 141q-7 54 7 117l58 252q41 170 62 369l5 6q3 0 142 -6l155 6l1 -6q-19 -55 -87 -336q-4 -18 -8 -33l-43 -184q-41 -172 49 -187q13 -2 28 -2q92 0 187 79q71 61 86 130l35 164q54 255 64 369l6 6q3 0 138 -6l159 6v-6q-42 -111 -96 -369l-25 -117q-44 -206 -49 -393 l-5 -6q-38 6 -150 6q-69 0 -119 -6q-18 0 -17 6l18 131h-4q-177 -147 -377 -151q-198 0 -220 161zM543 1069q201 171 292 269l27 30h82q66 -135 134 -225l56 -74l-65 -49q-132 70 -194 140q-8 9 -14 18q-96 -75 -260 -152q-9 -4 -14 -6z" />
<glyph unicode="&#xfc;" horiz-adv-x="1210" d="M193 141q-7 54 7 117l58 252q41 170 62 369l5 6q3 0 142 -6l155 6l1 -6q-19 -55 -87 -336q-4 -18 -8 -33l-43 -184q-41 -172 49 -187q13 -2 28 -2q92 0 187 79q71 61 86 130l35 164q54 255 64 369l6 6q3 0 138 -6l159 6v-6q-42 -111 -96 -369l-25 -117q-44 -206 -49 -393 l-5 -6q-38 6 -150 6q-69 0 -119 -6q-18 0 -17 6l18 131h-4q-177 -147 -377 -151q-198 0 -220 161zM517 1169q17 79 93 115q30 13 59 14q76 0 99 -66q9 -30 3 -63q-16 -76 -93 -112q-32 -14 -63 -15q-69 0 -94 64q-10 30 -4 63zM945 1169q17 80 96 116q31 13 60 13 q71 0 94 -63q10 -31 4 -66q-16 -74 -90 -111q-32 -15 -62 -16q-75 0 -99 66q-9 30 -3 61z" />
<glyph unicode="&#xfd;" horiz-adv-x="1136" d="M130 -485q97 119 269 392l35 54l-3 14q-59 358 -180 884q-3 15 -6 26q28 -6 179 -6q101 0 131 6q28 -241 108 -629l18 -2q177 268 369 631q20 -6 128 -6q67 0 89 6q-420 -596 -740 -1096q-123 -192 -165 -274q-32 10 -98 10q-94 0 -134 -10zM739 1067q7 26 27 49l227 268 q14 4 33 5q79 0 120 -41q5 -5 7 -9l11 -47l-293 -221q-45 -32 -95 -33q-24 0 -35 20q-2 5 -2 9z" />
<glyph unicode="&#xfe;" horiz-adv-x="1275" d="M49 -475q48 131 107 409l224 1053q57 271 61 385l6 6q193 14 302 48q6 2 10 4q16 -4 14 -21q-55 -165 -103 -385l-42 -201l-17 -67q64 77 206 121q73 22 138 22q242 0 321 -171q49 -111 16 -267q-62 -292 -322 -416q-138 -65 -296 -65q-141 1 -216 45l-19 -91 q-58 -273 -67 -409l36 -6q-2 0 -198 6l-120 -6zM486 158q57 -77 158 -78q268 3 342 346q65 304 -100 350q-25 6 -50 6q-101 0 -220 -122l-30 -33z" />
<glyph unicode="&#xff;" horiz-adv-x="1136" d="M130 -485q97 119 269 392l35 54l-3 14q-59 358 -180 884q-3 15 -6 26q28 -6 179 -6q101 0 131 6q28 -241 108 -629l18 -2q177 268 369 631q20 -6 128 -6q67 0 89 6q-420 -596 -740 -1096q-123 -192 -165 -274q-32 10 -98 10q-94 0 -134 -10zM492 1169q17 79 94 115 q30 13 59 14q76 0 99 -66q9 -30 2 -63q-16 -76 -93 -112q-32 -14 -63 -15q-69 0 -93 64q-11 30 -5 63zM920 1169q17 80 97 116q31 13 60 13q71 0 94 -63q10 -31 3 -66q-16 -74 -90 -111q-32 -15 -62 -16q-75 0 -98 66q-10 30 -4 61z" />
<glyph unicode="&#x152;" horiz-adv-x="1974" d="M261 651q62 293 289 486q218 185 487 186q3 0 215 -2h757q74 0 124 6l3 -6q-16 -57 -19 -72q-10 -49 -14 -84l-6 -8l-360 21q-108 4 -200 4q-28 -56 -74 -271l-31 -149q225 0 469 20l5 -6q-12 -28 -22 -76q-10 -49 -11 -77l-7 -7q-197 20 -461 21l-48 -227 q-43 -202 -39 -260q122 0 271 11t236 22l88 12l3 -9q-11 -32 -28 -112q-4 -19 -12 -74l-5 -6q-49 6 -122 6h-602l-370 -4q-293 2 -438 199q-134 186 -78 456zM583 670q-85 -400 112 -532q76 -49 180 -50h26q93 0 116 58q4 12 6 24l210 985q13 61 -32 71q-21 4 -57 5h-71 q-369 0 -489 -557q-1 -3 -1 -4z" />
<glyph unicode="&#x153;" horiz-adv-x="1765" d="M173 420q64 302 318 420q129 59 284 59q244 -1 344 -130q163 140 356 140q286 0 319 -215q10 -69 -7 -149q-19 -71 -75 -74h-524q-1 -4 -3.5 -15t-3.5 -18q-54 -252 122 -293q44 -10 102 -10q126 0 268 104l32 25q27 0 18 -55q-1 -5 -1 -8q-200 -220 -430 -221 q-221 1 -312 102l-15 19q-159 -121 -390 -121q-291 0 -381 182q-52 108 -21 258zM474 467q-71 -333 92 -378q28 -7 60 -7q175 0 239 296q1 3 1 5q60 284 2 363q-40 50 -129 51q-156 0 -223 -175q-22 -59 -42 -155zM1215 563h312q5 6 13 43q36 171 -70 198q-15 3 -29 3 q-71 -2 -123 -59q-80 -92 -103 -185z" />
<glyph unicode="&#x178;" horiz-adv-x="1337" d="M315 1327q35 -6 199 -6q124 0 161 6q41 -139 206 -578q4 -10 6 -17q280 333 462 595q25 -6 118 -6q70 0 97 6q-481 -555 -529 -614l-71 -90q-98 -478 -117 -629q-33 6 -169 6q-134 0 -169 -6q42 133 135 569q-80 215 -329 764zM698 1579q17 80 96 116q31 13 61 13 q76 0 99 -66q9 -30 2 -63q-16 -77 -93 -113q-32 -14 -63 -14q-76 0 -99 65q-9 30 -3 62zM1149 1579q17 80 96 116q31 13 60 13q73 0 98 -64q11 -31 4 -65q-16 -76 -94 -113q-32 -14 -62 -14q-76 0 -99 65q-9 30 -3 62z" />
<glyph unicode="&#x2c6;" horiz-adv-x="714" d="M204 1010q201 171 292 269l28 30h82q66 -135 134 -226l56 -73l-66 -49q-132 70 -193 140l-15 17q-96 -75 -259 -151q-9 -4 -14 -6z" />
<glyph unicode="&#x2dc;" horiz-adv-x="598" d="M255 1169q101 221 227 224q82 -1 149 -62q58 -46 103 -47q62 4 124 111l69 -19q-87 -203 -218 -225q-15 -2 -29 -2q-78 0 -121 48q-4 5 -8 9q-43 48 -104 49q-72 0 -117 -91q-3 -6 -5 -9z" />
<glyph unicode="&#x2013;" horiz-adv-x="1122" d="M216 514q7 35 46 64q13 10 23 10h827q27 -3 20 -43q-8 -37 -47 -66q-13 -10 -23 -10h-827q-27 2 -19 45z" />
<glyph unicode="&#x2014;" horiz-adv-x="1519" d="M163 487l21 101h1401l-21 -101h-1401z" />
<glyph unicode="&#x2018;" horiz-adv-x="548" d="M348 1233q35 166 204 276q90 58 182 74q20 -21 -4 -78q-2 -5 -4 -8q-142 -37 -216 -144q-19 -29 -24 -50q2 -65 38 -70q83 -17 102 -54q11 -25 12 -65l-2 -12q-56 -97 -169 -139h-13q-149 62 -106 270z" />
<glyph unicode="&#x2019;" horiz-adv-x="548" d="M340 885q-20 21 4 78q2 5 4 8q142 37 215 144q19 29 25 50q-2 65 -39 70q-83 17 -101 54q-12 25 -13 65l3 12q56 97 169 139h12q149 -62 106 -270q-35 -166 -204 -276q-90 -58 -181 -74z" />
<glyph unicode="&#x201a;" horiz-adv-x="548" d="M77 -350q-20 21 4 78q2 5 4 8q142 37 216 144q19 29 24 50q-2 65 -38 70q-83 17 -102 54q-11 25 -12 65l2 12q56 97 169 139h12q149 -62 107 -270q-35 -166 -205 -276q-90 -58 -181 -74z" />
<glyph unicode="&#x201c;" horiz-adv-x="768" d="M297 1235q35 166 205 276q90 58 181 74q20 -21 -4 -78q-2 -5 -4 -8q-142 -37 -216 -144q-19 -29 -24 -50q2 -65 38 -70q83 -17 102 -54q11 -25 12 -65l-2 -12q-56 -97 -169 -139h-12q-149 62 -107 270zM619 1235q35 166 204 276q90 58 182 74q20 -21 -5 -78q-2 -5 -3 -8 q-142 -37 -216 -144q-19 -29 -24 -50q2 -65 38 -70q83 -17 101 -54q12 -25 13 -65l-3 -12q-56 -97 -168 -139h-13q-149 62 -106 270z" />
<glyph unicode="&#x201d;" horiz-adv-x="768" d="M290 885q-20 21 5 78q1 5 3 8q142 37 216 144q19 29 25 50q-2 65 -39 70q-83 17 -101 54q-12 25 -13 65l3 12q56 97 169 139h12q149 -62 106 -270q-35 -166 -204 -276q-90 -58 -182 -74zM612 885q-20 21 4 78q2 5 4 8q142 37 216 144q19 29 24 50q-2 65 -38 70 q-83 17 -102 54q-11 25 -12 65l2 12q56 97 169 139h12q149 -62 107 -270q-35 -166 -205 -276q-90 -58 -181 -74z" />
<glyph unicode="&#x201e;" horiz-adv-x="768" d="M28 -352q-20 21 4 78q2 5 4 8q142 37 215 144q19 29 25 50q-2 65 -39 70q-83 17 -101 54q-12 25 -13 65l3 12q56 97 169 139h12q149 -62 106 -270q-35 -166 -204 -276q-90 -58 -181 -74zM349 -352q-20 21 4 78q2 5 4 8q142 37 216 144q19 29 24 50q-2 65 -38 70 q-83 17 -102 54q-11 25 -12 65l2 12q56 97 169 139h12q149 -62 107 -270q-35 -166 -205 -276q-90 -58 -181 -74z" />
<glyph unicode="&#x2022;" horiz-adv-x="718" d="M202 479q27 128 154 207q80 49 159 49q123 0 181 -99q41 -73 23 -163q-26 -125 -142 -203q-82 -54 -173 -55q-128 0 -183 104q-37 72 -19 160z" />
<glyph unicode="&#x2026;" horiz-adv-x="1533" d="M131 98l3 11q59 97 165 137q4 1 6 2h8q89 -34 107 -118l4 -21l-2 -11q-58 -104 -147 -132q-13 -4 -24 -7h-8q-86 20 -104 84q-6 24 -8 55zM674 98l2 11q59 97 165 137q4 1 6 2h8q89 -34 108 -118l4 -21l-2 -11q-58 -104 -147 -132q-13 -4 -24 -7h-8q-86 20 -104 84 q-6 24 -8 55zM1215 98l2 11q59 97 165 137q4 1 6 2h8q89 -34 108 -118l4 -21l-2 -11q-58 -104 -147 -132q-13 -4 -24 -7h-8q-86 20 -104 84q-6 24 -8 55z" />
<glyph unicode="&#x2039;" horiz-adv-x="727" d="M225 401l17 80q248 151 535 400l-23 -111q-195 -210 -357 -330q109 -106 217 -327l-24 -111q-189 289 -365 399z" />
<glyph unicode="&#x203a;" horiz-adv-x="727" d="M139 0l24 111q195 210 357 329q-109 106 -217 328l23 111q189 -289 366 -400l-17 -80q-249 -150 -536 -399z" />
<glyph unicode="&#x20ac;" d="M99 465l4 18l47 64h91q4 29 11 59q5 25 11 45h-95l6 21l44 62h72q86 227 234 367q18 17 34 29q124 99 304 117q28 2 53 2q95 0 170.5 -20.5t104.5 -40.5l29 -21l3 -4q-59 -133 -85 -225h-51q-37 134 -72 168q-46 42 -145 43q-124 0 -224 -191q-49 -95 -85 -224h362 l-61 -83h-321l-2 -10q-10 -49 -18 -94h291l-62 -82h-239q-33 -337 118 -371q16 -3 32 -4q129 0 202 63q49 43 112 134l41 -2q-13 -89 -9 -200q0 -7 1 -11l-5 -6q-144 -62 -206 -73q-66 -11 -169 -11q-136 0 -241 72q-26 19 -44 38q-117 132 -108 371h-135z" />
<glyph unicode="&#x2122;" horiz-adv-x="1628" d="M280 1190l78 184l45 -16q-1 -2 -4 -10q-5 -11 -7 -13h478q0 2 -2 23l55 16l-1 -186l-49 -10q-5 90 -30 100q-12 4 -30 4h-88q-26 0 -34 -30q-2 -7 -4 -13l-115 -541q-5 -47 51 -49h29q7 -3 8 -10l-6 -27l-2 -2q-2 0 -170 2l-168 -2l-2 2l6 27q5 8 13 10h28q63 3 74 49 l115 543q5 40 -19 41h-105q-43 0 -68 -39q-15 -23 -34 -65zM814 612l4 17q7 14 40 14h28q15 3 36 62l76 263l81 281q1 5 1 6l1 5q5 33 -11 34h-33q-32 4 -32 13l3 16l13 12h182l114 -542l129 207l206 335h168l3 -12l-3 -16q-4 -12 -38 -13h-30q-18 -4 -26 -32l-2 -13 l-69 -544q-4 -60 12 -62h28q36 -2 36 -14l-3 -17l-15 -12q-2 0 -133 4l-136 -4l-9 12l3 17q6 14 38 14h29q13 3 22 47q0 2 2 7v3l1 2v3l51 403l-308 -498q-14 -19 -38 -20q-22 3 -30 20q-1 2 -101 488q-72 -261 -113 -396q-1 -6 -3 -12q-8 -45 5 -47h30q31 -2 32 -14l-3 -17 l-9 -12q-2 0 -124 4l-97 -4z" />
<glyph unicode="&#xe000;" horiz-adv-x="885" d="M0 885h885v-885h-885v885z" />
<glyph unicode="&#xfb01;" horiz-adv-x="1355" d="M176 0q37 104 102 410l77 366h-135q-9 0 -8 8q1 3 1 4l10 50q12 39 56 41h98l13 61q38 181 212 336l14 12q171 138 425 142q81 -1 109 -19l1 -6q-16 -20 -75 -168l-16 -39l-62 -2q-27 79 -70 90q-11 2 -21 2q-126 0 -193 -113q-21 -38 -31 -79q-5 -22 -14 -92 q-11 -78 -17 -105l-4 -20h221q13 -3 14 -13l-14 -63q-8 -25 -53 -27h-190l-78 -366q-58 -274 -71 -410l-5 -6q-3 0 -140 6l-155 -6zM872 0q50 140 99 369l24 112q60 285 64 396l8 8q14 0 49 -3q63 -4 95 -3q53 0 143 10q16 -4 14 -21q-74 -251 -98 -364l-28 -135 q-47 -224 -58 -369l-6 -6q-93 6 -150 6q-62 0 -153 -6zM1139 1243q19 88 107 128q39 17 77 18q91 0 119 -74q12 -34 4 -72q-19 -88 -108 -128q-39 -17 -77 -17q-91 0 -118 73q-11 34 -4 72z" />
<glyph unicode="&#xfb02;" horiz-adv-x="1277" d="M176 0q37 104 102 410l77 366h-135q-9 0 -8 8q1 3 1 4l10 50q12 39 56 41h98l13 61q38 181 212 336l14 12q171 138 425 142q81 -1 109 -19l1 -6q-16 -20 -75 -168l-16 -39l-62 -2q-27 79 -70 90q-11 2 -21 2q-126 0 -193 -113q-21 -38 -31 -79q-5 -22 -14 -92 q-11 -78 -17 -105l-4 -20h221q13 -3 14 -13l-14 -63q-8 -25 -53 -27h-190l-78 -366q-58 -274 -71 -410l-5 -6q-3 0 -140 6l-155 -6zM860 0q58 157 112 410l119 561q53 249 57 385l6 6q126 9 290 62q10 3 17 6q19 -4 18 -21q-66 -197 -106 -385l-131 -614q-52 -245 -62 -410 l-6 -6q-3 0 -154 6l-159 -6z" />
<glyph unicode="&#xfb03;" horiz-adv-x="1996" d="M170 0q48 131 108 410l79 374h-135q-9 0 -8 8q1 3 0 5l9 41q12 39 56 41h98l13 61q31 145 128 241q28 27 80 72q117 100 321 142q66 14 118 14q62 -1 88 -18l1 -7q-18 -22 -95 -192q-4 -9 -7 -14l-23 -2q-34 90 -99 92q-133 0 -191 -131q-13 -30 -20 -62q-5 -22 -12 -82 q-9 -67 -15 -94l-4 -20h260h43h55l13 61q42 196 210 343q4 3 6 5q147 126 389 140l46 2q62 -1 88 -19l1 -6q-16 -20 -75 -168l-16 -39l-41 -2q-27 79 -70 90q-11 2 -21 2q-133 0 -191 -131q-13 -30 -20 -61q-5 -22 -15 -92q-11 -78 -17 -105l-4 -20h221q13 -3 14 -13 l-12 -55q-8 -25 -53 -27h-190l-80 -374q-63 -295 -71 -410l-5 -6q-3 0 -152 6l-155 -6l-1 6q37 104 102 410l79 374h-86h-49h-223l-80 -374q-58 -273 -66 -410l-6 -6q-3 0 -156 6l-161 -6zM1513 0q50 140 99 369l24 112q60 285 64 396l8 8q14 0 49 -3q62 -4 95 -3 q53 0 143 10q16 -4 14 -21q-74 -251 -98 -364l-28 -135q-47 -224 -58 -369l-6 -6q-93 6 -150 6q-62 0 -153 -6zM1780 1243q19 88 107 128q39 17 77 18q91 0 119 -74q12 -34 4 -72q-19 -88 -108 -128q-39 -17 -77 -17q-91 0 -118 73q-11 34 -4 72z" />
<glyph unicode="&#xfb04;" horiz-adv-x="2031" d="M170 0q48 131 108 410l79 374h-135q-9 0 -8 8q1 3 0 5l9 41q12 39 56 41h98l13 61q31 145 128 241q28 27 80 72q117 100 321 142q66 14 118 14q62 -1 88 -18l1 -7q-18 -22 -95 -192q-4 -9 -7 -14l-23 -2q-34 90 -99 92q-133 0 -191 -131q-13 -30 -20 -62q-5 -22 -12 -82 q-9 -67 -15 -94l-4 -20h260h43h55l13 61q42 196 210 343q4 3 6 5q147 126 389 140l46 2q62 -1 88 -19l1 -6q-16 -20 -75 -168l-16 -39l-41 -2q-27 79 -70 90q-11 2 -21 2q-133 0 -191 -131q-13 -30 -20 -61q-5 -22 -15 -92q-11 -78 -17 -105l-4 -20h221q13 -3 14 -13 l-12 -55q-8 -25 -53 -27h-190l-80 -374q-63 -295 -71 -410l-5 -6q-3 0 -152 6l-155 -6l-1 6q37 104 102 410l79 374h-86h-49h-223l-80 -374q-58 -273 -66 -410l-6 -6q-3 0 -156 6l-161 -6zM1548 0q58 157 112 410l119 561q53 249 57 385l6 6q126 9 290 62q10 3 17 6 q19 -4 18 -21q-66 -197 -106 -385l-131 -614q-52 -245 -62 -410l-6 -6q-3 0 -154 6l-159 -6z" />
</font>
</defs>
</svg>
