<?xml version="1.0" standalone="no"?>
<!DOCTYPE svg PUBLIC "-//W3C//DTD SVG 1.1//EN" "http://www.w3.org/Graphics/SVG/1.1/DTD/svg11.dtd" >
<svg xmlns="http://www.w3.org/2000/svg">
<metadata>
This is a custom SVG webfont generated by Font Squirrel.
Copyright   : Linux Libertine by Philipp H PollOpen Font under Terms of following Free Software LicensesGPL General Public License with fontexception and OFL Open Font LicenseCreated with FontForge httpfontforgesfnetSept 2003 2004 2005 2006 2007 2008 2009 2010 2011
Designer    : Philipp H Poll
Foundry     : Philipp H Poll
Foundry URL : httpwwwlinuxlibertineorg
</metadata>
<defs>
<font id="LinuxLibertineDisplaySlanted" horiz-adv-x="952" >
<font-face units-per-em="2048" ascent="1638" descent="-410" />
<missing-glyph horiz-adv-x="512" />
<glyph unicode=" "  horiz-adv-x="512" />
<glyph unicode="&#x09;" horiz-adv-x="512" />
<glyph unicode="&#xa0;" horiz-adv-x="512" />
<glyph unicode="!" horiz-adv-x="589" d="M213 96q11 52 77 85q28 13 50 14q55 0 74 -58q7 -25 2 -49q-10 -49 -70 -82q-30 -16 -57 -16q-51 0 -72 53q-9 27 -4 53zM357 416q2 13 10 74q27 202 39 313q8 72 14 176q8 135 25 219q26 124 112 146q13 4 24 4q65 0 77 -71q5 -35 -4 -79q-16 -74 -92 -283l-39 -112 q-16 -51 -106 -358q-3 -10 -4 -15q-15 -39 -35 -41q-21 3 -21 27z" />
<glyph unicode="&#x22;" horiz-adv-x="688" d="M368 872l20 345q12 56 72 88q28 14 54 14q61 0 59 -53q-1 -8 -2 -15q-7 -33 -146 -370zM626 874l20 345q12 56 72 88q28 14 54 14q61 0 59 -53q-1 -8 -1 -15q-7 -33 -147 -370z" />
<glyph unicode="#" d="M137 393l39 109h193l87 235h-191l40 109h190l137 366h78l-139 -366h233l136 366h78l-138 -366h197l-40 -109h-194l-89 -235h194l-37 -109h-193l-138 -364h-78l132 364h-229l-137 -364h-76l135 364h-190zM445 502h233l87 235h-231z" />
<glyph unicode="$" horiz-adv-x="950" d="M90 25q-4 131 25 311q27 13 42 8q4 -1 5 -2q2 -232 191 -293q23 -8 45 -12l155 533q-156 75 -210 144q-70 92 -45 214q36 170 222 258q108 50 217 51h11l44 147l58 -4l-43 -145q68 -4 156 -35q38 -13 76 -18q-3 -143 -20 -264q-21 -12 -48 -13q-24 229 -181 272 l-136 -468q331 -139 284 -371q-33 -156 -158 -256q-132 -103 -332 -105h-8l-52 -176l-58 5l51 174q-42 3 -183 33q-58 12 -108 12zM439 948q-24 -125 162 -216l132 453q-12 1 -22 1q-122 0 -209 -106q-47 -59 -63 -132zM456 31h20q102 0 192 76q77 67 99 167 q38 181 -132 261l-29 12z" />
<glyph unicode="%" horiz-adv-x="1304" d="M225 6l952 1024q-108 -39 -241 -39q-81 0 -149 40l-6 3q1 -23 -5 -51q-28 -132 -131 -249q-101 -112 -208 -113q-115 0 -141 114q-11 52 0 109q35 166 171 264q85 61 171 61q79 0 119 -42l7 -9q116 -60 143 -66q28 -5 61 -5q222 2 349 131l40 -33l-1088 -1170zM401 815 q-24 -115 37 -143q11 -5 21 -4q93 0 191 147q58 89 75 166q22 103 -47 135q-15 6 -28 6q-84 0 -176 -142q-56 -88 -73 -165zM817 88q-12 54 0 113q32 152 160 252q91 70 183 71q144 0 143 -129q-1 -28 -6 -57q-29 -137 -134 -253q-99 -108 -204 -110q-114 0 -142 113z M923 170q-25 -118 38 -143q10 -4 21 -4q92 0 189 148q57 89 74 165q22 103 -48 135q-14 6 -24 6q-84 0 -177 -142q-56 -88 -73 -165z" />
<glyph unicode="&#x26;" horiz-adv-x="1417" d="M156 319q40 187 310 344q75 43 168 87q-72 186 -46 309q25 117 145 198q103 68 227 68q160 0 208 -96q22 -47 11 -105q-25 -120 -197 -250q-83 -63 -186 -114q32 -89 184 -377q114 128 215 262q86 115 55 139q-19 13 -93 17q-12 24 10 47q12 -1 47 -3q92 -7 140 -7 q47 0 126 6q34 3 48 4q12 -24 -10 -47q-100 -6 -141 -35q-42 -31 -131 -148q-139 -179 -240 -290l52 -109q68 -137 132 -139q90 3 178 121q24 -2 38 -21q-103 -161 -219 -195q-20 -5 -34 -5q-97 0 -154 60q-28 32 -53 77l-44 82q-194 -206 -395 -219q-16 -1 -30 0 q-192 0 -281 115q-67 91 -40 224zM320 303q-37 -174 83 -245q47 -27 99 -27q137 0 279 131q40 37 95 96q-174 318 -215 429q-1 3 -2 5q-239 -125 -309 -291q-18 -45 -30 -98zM743 1079q-19 -91 17 -220q7 -23 14 -42q150 86 232 229q24 43 31 74q26 124 -62 149q-17 5 -37 5 q-102 0 -161 -104q-23 -41 -34 -91z" />
<glyph unicode="'" horiz-adv-x="389" d="M347 872l20 345q12 56 72 88q28 14 54 14q61 0 59 -53q-1 -8 -1 -15q-7 -33 -147 -370z" />
<glyph unicode="(" horiz-adv-x="610" d="M177 350q6 85 23 166q85 398 405 733q108 112 227 199q19 -1 20 -24q1 -10 1 -13q-359 -326 -484 -837l-14 -58q-116 -546 117 -899q-21 -31 -37 -35q-290 307 -258 768z" />
<glyph unicode=")" horiz-adv-x="610" d="M-23 -379q359 326 484 837l13 58q116 546 -116 899q21 31 36 35q290 -307 259 -768q-6 -85 -23 -166q-85 -398 -406 -733q-108 -112 -226 -199q-19 1 -20 24q-1 10 -1 13z" />
<glyph unicode="*" horiz-adv-x="755" d="M346 1188q0 9 2 16q25 54 81 62q39 0 94 -49q46 -40 80 -56q3 30 -8 131q-3 35 1 58q13 63 62 77q9 2 17 3q55 0 54 -53q-1 -10 -2 -19q-4 -19 -58 -139q-16 -37 -23 -60q34 14 133 76q50 30 84 31q58 0 58 -50q0 -7 -1 -12q-19 -75 -158 -76q-64 0 -114 -8 q17 -25 83 -79q58 -51 49 -99q-10 -46 -57 -57q-9 -2 -15 -2q-50 0 -70 86q-25 113 -28 121q-2 4 -2 6q-21 -28 -58 -88q-62 -101 -100 -118q-16 -6 -31 -7q-43 0 -48 38q-1 10 1 19q11 54 91 101q93 56 119 79q-35 8 -84 8q-150 0 -152 60z" />
<glyph unicode="+" horiz-adv-x="1079" d="M227 430l19 90h354l77 363h94l-77 -363h361l-19 -90h-361l-77 -360h-94l77 360h-354z" />
<glyph unicode="," horiz-adv-x="450" d="M40 -227q111 26 187 119q24 30 29 49q9 61 -59 69q-82 14 -74 75q1 6 1 9q13 63 83 91q25 10 47 10q13 0 26 -5.5t23.5 -15t19 -23t14 -31t8.5 -37.5t1.5 -43.5t-6.5 -47.5q-31 -147 -188 -222q-52 -24 -106 -34q-10 17 -6 37z" />
<glyph unicode="-" horiz-adv-x="692" d="M186 484v8q10 49 51 67q8 4 16 4h448q26 0 26 -12q0 -5 -1 -8q-7 -33 -45 -60q-15 -9 -25 -10h-443q-27 0 -27 11z" />
<glyph unicode="." horiz-adv-x="450" d="M143 96q11 52 77 85q28 13 51 14q55 0 73 -58q7 -25 2 -49q-10 -49 -70 -82q-30 -16 -57 -16q-51 0 -71 53q-10 27 -5 53z" />
<glyph unicode="/" horiz-adv-x="649" d="M5 -121l792 1444h74l-792 -1444h-74z" />
<glyph unicode="0" d="M208 602q74 347 277 532q128 115 256 115q133 0 198 -98q12 -18 23 -37q99 -185 34 -493q-86 -404 -327 -569q-107 -71 -206 -72q-172 0 -243 191q-65 180 -12 431zM353 168q32 -135 123 -137q102 0 184 105q28 37 50 81q62 129 129 442q67 314 1 464q-12 26 -25 40 q-33 34 -85 35q-115 0 -218 -190q-86 -160 -143 -428q-52 -246 -16 -412z" />
<glyph unicode="1" d="M258 -10q-12 24 10 47q117 5 151 35q38 36 67 151q23 94 77 349q57 266 73 360q14 112 -15 119q-58 -1 -189 -52q-22 21 -22 45q288 122 439 205q10 0 11 -5q0 -3 -1 -5q-12 -35 -70 -274q-23 -94 -82 -371q-59 -278 -76 -371q-23 -130 10 -160q27 -22 129 -26 q12 -24 -10 -47q-47 1 -116 5q-76 5 -126 5q-56 0 -143 -5q-73 -4 -117 -5z" />
<glyph unicode="2" d="M126 -4q28 132 141 254q69 74 183 170l183 149q163 136 211 308q7 26 13 53q38 180 -69 247q-35 22 -73 21q-149 0 -208 -107q-11 -21 -15 -38q0 -6 6 -49q2 -30 -1 -41q-9 -42 -69 -64q-18 -6 -31 -6q-62 0 -69 44q-1 11 1 21q24 114 145 204q119 87 265 87 q174 0 258 -101q68 -84 42 -210q-30 -141 -178 -273q-37 -33 -103 -85l-249 -199q-71 -58 -143 -151q-55 -72 -66 -117h385q77 0 147 129q20 37 43 88q24 3 37 -11q-36 -143 -118 -323q-3 0 -159 4h-359z" />
<glyph unicode="3" d="M123 115q8 38 61 62q22 9 40 9q50 -2 77 -53q3 -6 7 -19q22 -62 65 -78q24 -7 53 -7q82 0 178 78q125 103 164 278q54 267 -213 268q-54 0 -89 -4l-1 45q164 25 297 169q70 77 84 138q27 125 -64 177q-37 19 -79 20q-76 0 -152 -56q-64 -50 -80 -120q-15 -69 -65 -97 q-19 -9 -37 -10q-53 0 -56 51q0 10 1 19q16 74 105 150q136 114 338 114q186 0 233 -123q17 -47 8 -94q-24 -112 -131 -197q-57 -45 -135 -90l1 -4q163 -29 206 -159q23 -73 3 -168q-48 -226 -253 -351q-142 -85 -301 -86q-138 0 -223 59q-50 37 -42 79z" />
<glyph unicode="4" d="M151 438q402 472 705 772l17 17q24 21 38 22h51l3 -4q-3 -8 -15 -64q-18 -83 -31 -134q-29 -115 -135 -619h173q28 -4 24 -33q-7 -33 -55 -42q-8 -1 -13 -1h-144q-34 -165 -42 -209q-13 -78 32 -93q23 -7 89 -13q12 -24 -10 -47q-26 1 -78 4q-81 6 -129 6q-60 0 -165 -6 q-56 -3 -79 -4q-12 24 10 47q117 8 154 42q25 25 34 64q11 45 47 209h-420q-62 2 -61 86zM220 428h429q110 509 130 625q-315 -334 -559 -625z" />
<glyph unicode="5" d="M138 131q11 51 73 62q10 1 19 2q55 -2 90 -66q34 -63 38 -67q30 -32 76 -33q107 0 210 133q77 102 104 225q48 225 -74 303q-45 29 -105 29q-131 -1 -271 -49l191 569q118 -10 219 -10q124 0 340 22l13 -8l-58 -119q-129 -12 -218 -12q-92 0 -256 18l-118 -362 q92 32 228 33q196 0 267 -152q45 -100 20 -225q-48 -227 -236 -355q-134 -92 -293 -92q-119 0 -208 63q-59 44 -51 91z" />
<glyph unicode="6" d="M191 475q52 244 254 455q21 22 42 41q200 187 466 268q21 7 42 12q11 -8 2 -47q-1 -4 -1 -6q-367 -127 -554 -477l-14 -27q115 58 243 64q283 0 303 -219q5 -58 -10 -125q-37 -174 -166 -304q-134 -132 -303 -133q-206 0 -285 151q-65 129 -19 347zM347 469 q-79 -374 116 -431q31 -9 65 -9q103 0 188 133q56 90 83 213q30 140 -22 239q-50 91 -160 93q-120 -2 -216 -71q-36 -86 -54 -167z" />
<glyph unicode="7" d="M257 -12l722 1128h-414q-122 0 -218 -194q-2 -3 -2 -4q-20 -1 -44 6q94 257 110 327q5 6 10 6q13 -3 27 -12q28 -16 69 -16h422q82 0 163 22l27 -24q-423 -679 -734 -1247l-124 -7z" />
<glyph unicode="8" d="M162 299q32 142 171 246q48 36 182 123l-32 22q-162 119 -130 277q31 148 183 229q101 54 223 53q203 0 253 -130q20 -57 6 -126q-10 -46 -41 -90t-83 -84.5t-86 -62.5l-89 -55l107 -83q139 -109 103 -286q-31 -146 -167 -251q-132 -103 -304 -104q-233 0 -290 152 q-26 73 -6 170zM287 299q-34 -160 82 -237q50 -32 104 -33q124 0 218 88q72 70 96 174q31 160 -127 272l-84 58q-203 -118 -274 -277q-11 -26 -15 -45zM494 1006q-24 -111 83 -201l21 -17l55 -38q194 124 231 221q6 13 8 24q24 111 -48 170q-43 32 -106 33q-122 0 -202 -104 q-32 -44 -42 -88z" />
<glyph unicode="9" d="M228 23q1 4 1 6q367 127 554 477q8 14 14 26q-115 -58 -243 -63q-283 0 -302 219q-5 58 9 125q37 174 166 303q134 132 303 133q206 0 285 -150q65 -129 19 -347q-52 -244 -254 -455q-21 -22 -42 -41q-200 -187 -466 -268q-21 -7 -42 -13q-11 8 -2 48zM427 852 q-30 -140 22 -239q50 -91 159 -93q120 2 216 71q36 86 54 167q79 374 -116 431q-31 9 -65 9q-103 0 -187 -133q-56 -90 -83 -213z" />
<glyph unicode=":" horiz-adv-x="524" d="M232 197q11 52 77 84q28 13 51 14q55 0 73 -58q7 -25 2 -49q-10 -49 -70 -82q-29 -16 -57 -16q-51 0 -71 54q-10 27 -5 53zM347 735q11 52 76 85q28 13 51 14q55 0 73 -58q7 -25 3 -49q-10 -49 -70 -82q-30 -16 -58 -16q-51 0 -71 53q-9 27 -4 53z" />
<glyph unicode=";" horiz-adv-x="524" d="M113 -227q111 26 188 119q24 30 28 49q9 61 -59 69q-82 14 -73 75q1 6 1 9q13 63 83 91q25 10 47 10q13 0 25.5 -5.5t23 -15t19.5 -23t14.5 -31t8.5 -37.5t1.5 -43.5t-6.5 -47.5q-31 -147 -188 -222q-52 -24 -106 -34q-10 17 -7 37zM347 735q11 52 76 85q28 13 51 14 q55 0 73 -58q7 -25 3 -49q-10 -49 -70 -82q-30 -16 -58 -16q-51 0 -71 53q-9 27 -4 53z" />
<glyph unicode="&#x3c;" horiz-adv-x="997" d="M194 440q-19 45 21 99l860 288q28 -13 3 -67q-11 -22 -25 -35l-699 -236l599 -237q24 -33 1 -78q-11 -18 -23 -24z" />
<glyph unicode="=" horiz-adv-x="1079" d="M198 295l21 100h809l-21 -100h-809zM252 551l22 100h809l-22 -100h-809z" />
<glyph unicode="&#x3e;" horiz-adv-x="997" d="M128 213q11 22 25 35l699 235l-598 238q-24 33 -2 78q11 18 23 24l737 -291q19 -45 -21 -98l-860 -289q-28 13 -3 68z" />
<glyph unicode="?" horiz-adv-x="860" d="M303 96q11 52 77 85q28 13 50 14q55 0 74 -58q7 -25 2 -49q-10 -49 -70 -82q-30 -16 -57 -16q-37 0 -60.5 33t-15.5 73zM318 1055q0 15 3 30q24 104 137 185q108 79 261 80q194 0 252 -137q30 -75 10 -173q-32 -151 -217 -279q-23 -16 -64 -42q-95 -64 -125 -103 q-39 -57 -58 -149l-19 -90q-7 -19 -37 -21q-27 3 -27 21l20 94q38 178 164 294q21 19 42 36q122 98 153 192q6 20 11 39q29 136 -38 219q-40 47 -98 47q-118 0 -187 -75q-23 -27 -29 -52q-8 -41 -1 -53q8 -18 2 -49q-12 -58 -73 -70q-9 -2 -18 -2q-61 0 -64 58z" />
<glyph unicode="@" horiz-adv-x="1832" d="M218 457q66 310 336 538q274 231 608 254q33 2 64 2q334 0 508 -198q166 -192 107 -475q-50 -235 -239 -380q-188 -142 -462 -143q-67 0 -57 74q1 6 1 10q8 35 58 129l-3 2q-144 -178 -282 -210q-21 -4 -36 -5q-173 0 -198 155q-8 52 3 103q47 220 250 385 q176 141 339 142q93 0 127 -62q7 -14 10 -26l25 51l99 24l29 -10l-235 -528q-50 -111 -56 -137q-3 -22 17 -25q303 0 415 297q24 64 40 139q65 307 -134 494q-160 134 -357 141q-261 0 -486 -169q-259 -198 -332 -535q-59 -278 41 -487q133 -272 494 -273q230 1 443 145 l18 -37q-195 -129 -367 -155q-69 -10 -145 -11q-364 0 -542 230q-170 221 -101 551zM767 332q-33 -157 80 -187q24 -6 51 -6q82 0 222 174q63 79 108 160q60 108 75 174q19 89 -55 120q-24 9 -51 9q-86 0 -176 -58q-18 -12 -32 -24q-176 -147 -222 -362z" />
<glyph unicode="A" horiz-adv-x="1431" d="M17 -10q-4 8 -4 17q0 15 14 30q113 8 179 76q30 32 58 75l713 1119q39 1 115 41l175 -1192q13 -91 94 -110q23 -5 65 -9q4 -8 4 -17q0 -15 -14 -30q-31 1 -96 4q-99 6 -150 6q-48 0 -166 -6q-74 -4 -104 -4q-12 24 10 47q122 9 148 27q24 19 24 53q0 5 -1 10l-50 377 h-427q-55 -2 -82 -45l-190 -318q-14 -23 -14 -42q0 -49 101 -59q15 -2 32 -3q12 -24 -10 -47q-32 1 -90 5q-80 5 -129 5q-45 0 -115 -5q-57 -4 -90 -5zM611 607q-1 -5 -1 -9q0 -26 45 -29h366l-76 568h-6z" />
<glyph unicode="B" horiz-adv-x="1196" d="M38 -10q-4 8 -4 17q0 15 14 30q118 5 152 34q38 36 66 152l96 434l89 441q11 55 11 92q0 51 -21 69q-28 21 -128 25q-12 24 10 47q46 -1 117 -5q86 -5 143 -5q46 0 142 5q82 5 116 5q376 0 376 -238q0 -34 -10 -83q-27 -128 -172 -227q-37 -25 -74 -42v-4 q242 -74 242 -277q0 -17 -2 -35q-3 -25 -8 -48q-49 -233 -275 -330q-133 -57 -317 -57q-35 0 -253 9q-23 1 -44 1q-58 0 -149 -5q-74 -4 -117 -5zM425 174q-2 -15 -2 -28q0 -107 145 -109q374 2 439 301q10 46 10 86q0 129 -100 202q-89 63 -239 64h-147q-3 -13 -7 -32 q-61 -285 -99 -484zM541 739h158q248 0 327 179q14 33 22 67q9 43 9 81q0 123 -98 183q-54 33 -118 33q-152 0 -179 -33q-11 -16 -20 -55z" />
<glyph unicode="C" horiz-adv-x="1327" d="M213 645q63 299 289 495l40 34q228 173 482 174q163 0 323 -62q70 -26 106 -31q-11 -216 -23 -317q-23 -12 -49 -10q-37 362 -379 364q-153 0 -319 -125q-38 -29 -71 -61q-152 -150 -211 -422q-21 -99 -22 -188q0 -145 58 -262q95 -190 305 -191q230 0 465 191 q31 25 62 53q30 -3 41 -31q-271 -275 -579 -276q-335 0 -469 238q-67 121 -67 268q0 76 18 159z" />
<glyph unicode="D" horiz-adv-x="1443" d="M39 -10q-4 8 -4 17q0 15 14 30q116 5 150 34q38 35 66 152q81 342 100 434q22 104 85 441q11 56 11 93q0 49 -19 67q-27 22 -128 26q-12 24 10 47q46 -1 117 -5q88 -5 143 -5q33 0 130 4q150 6 228 6q281 0 446 -192q132 -154 131 -359q0 -50 -7 -104q-4 -24 -8 -45 q-88 -416 -453 -571q-165 -70 -352 -70h-5q-23 0 -355 9q-18 1 -32 1q-58 0 -150 -5q-75 -4 -118 -5zM441 223q-8 -43 -8 -74q0 -47 18 -67q41 -42 190 -43q396 0 573 293q65 108 95 250q22 106 22 200q0 164 -69 289q-121 210 -408 211q-146 0 -186 -62q-19 -30 -41 -122 q-82 -345 -103 -443q-44 -210 -83 -432z" />
<glyph unicode="E" horiz-adv-x="1161" d="M39 -10q-4 8 -4 17q0 15 14 30q116 5 149 34q37 35 67 152q40 170 96 434q58 274 89 441q10 56 10 93q0 50 -18 67q-27 22 -128 26q-12 24 10 47q51 -1 147 -6q86 -4 117 -4h598q26 0 105 14q6 -3 7 -6v-12q0 -72 -19 -291q-33 -13 -51 -10q-16 149 -45 192 q-41 56 -132 58h-319q-67 0 -92 -81l-3 -9l-99 -447l240 2q140 1 175 37q23 25 43 100q27 19 45 0q-6 -25 -19 -69q-19 -67 -27 -107q-7 -34 -14 -82q-6 -46 -12 -78q-27 -19 -45 0q4 27 4 47q0 45 -18 61q-35 28 -145 30l-239 2l-108 -525q-1 -4 -1 -6q-1 -9 -1 -17 q0 -66 58 -71h320q189 3 333 295q25 5 42 -7q3 -2 5 -3q-72 -193 -148 -348q-2 0 -260 10h-455q-31 0 -123 -4q-100 -5 -149 -6z" />
<glyph unicode="F" horiz-adv-x="1017" d="M39 -10q-4 8 -4 17q0 15 14 30q116 5 149 34q37 35 67 152q40 170 96 434q58 274 89 441q10 56 10 93q0 50 -18 67q-27 22 -128 26q-12 24 10 47l264 -10h537q26 0 105 14q6 -3 7 -6v-12q0 -72 -19 -291q-33 -13 -52 -10q-16 149 -45 192q-41 56 -131 58h-258 q-67 0 -92 -81l-3 -9q-42 -168 -103 -467l240 2q140 1 175 37q23 25 42 100q27 19 45 0q-6 -25 -18 -69q-19 -67 -27 -107q-7 -34 -14 -82q-6 -46 -12 -78q-27 -19 -45 0q4 27 4 47q0 44 -18 60q-35 28 -145 30l-240 2q0 -2 -86 -428q-6 -34 -6 -62q0 -81 54 -104 q38 -16 137 -20q12 -24 -10 -47q-41 1 -118 4q-113 5 -181 6q-59 0 -154 -5q-75 -4 -118 -5z" />
<glyph unicode="G" horiz-adv-x="1454" d="M199 629q71 336 350 543q237 175 503 176q147 0 293 -59q83 -33 134 -34q-2 -108 -22 -315q-21 -12 -51 -12q-37 362 -394 364q-203 0 -388 -183q-182 -182 -238 -439q-16 -73 -16 -143q0 -136 60 -259q109 -225 358 -235h22q149 0 295 95q19 12 33 24l71 331q3 13 3 24 q0 47 -50 61q-29 8 -100 14q-15 19 5 46q4 5 6 7q44 -1 123 -5q86 -5 129 -5q48 0 106 5q41 4 66 5q6 -8 6 -18q0 -13 -11 -29q-4 -5 -6 -6q-87 -9 -110 -77l-6 -22l-54 -256q-4 -32 21 -57q-265 -190 -586 -190q-312 0 -466 201q-101 134 -101 308q0 67 15 140z" />
<glyph unicode="H" horiz-adv-x="1492" d="M39 -10q-4 8 -4 17q0 15 14 30q116 5 150 34q38 35 66 152q81 342 100 434q22 104 85 441q11 56 11 93q0 49 -19 67q-27 22 -128 26q-12 24 10 47q46 -1 117 -5q86 -5 141 -5q58 0 150 5q75 4 118 5q12 -24 -10 -47q-116 -5 -150 -34q-38 -35 -66 -152q-52 -216 -81 -357 q19 -14 332 -14q357 0 380 14q46 214 72 357q10 53 10 90q0 54 -22 71q-29 21 -129 25q-12 24 10 47q46 -1 118 -5q88 -5 144 -5q58 0 151 5q75 4 118 5q4 -8 4 -17q0 -15 -14 -30q-119 -5 -154 -35q-39 -36 -66 -151q-41 -174 -98 -443q-56 -266 -88 -432q-10 -53 -10 -90 q0 -54 22 -71q29 -21 129 -25q12 -24 -10 -47q-45 1 -119 5q-90 5 -145 5q-58 0 -149 -5q-74 -4 -118 -5q-12 24 10 47q119 5 154 35q39 36 66 151q22 92 59 265l38 171q-28 14 -376 15q-300 0 -337 -15q-38 -180 -86 -436q-11 -56 -11 -93q0 -49 19 -67q27 -22 128 -26 q12 -24 -10 -47q-46 1 -117 5q-86 5 -143 5q-58 0 -149 -5q-74 -4 -117 -5z" />
<glyph unicode="I" horiz-adv-x="620" d="M38 -10q-4 8 -4 17q0 15 14 30q117 5 152 35q38 36 66 151q61 257 98 434q40 187 87 441q10 55 10 92q0 52 -20 69q-28 21 -128 25q-12 24 10 47q46 -1 118 -5q88 -5 144 -5q58 0 150 5q75 4 118 5q4 -8 4 -17q0 -15 -14 -30q-117 -5 -151 -35q-38 -36 -66 -151 q-50 -208 -101 -443q-38 -181 -85 -432q-10 -55 -10 -92q0 -52 20 -69q28 -21 128 -25q12 -24 -10 -47q-46 1 -118 5q-88 5 -144 5q-58 0 -150 -5q-75 -4 -118 -5z" />
<glyph unicode="J" horiz-adv-x="710" d="M-119 -229q11 53 82 71q14 3 24 3q54 0 73 -48q11 -27 12 -29q23 -37 55 -38q52 0 115 74q59 70 81 163l153 690q40 187 87 441q10 54 10 91q0 53 -21 70q-28 21 -128 25q-12 24 11 47q46 -1 117 -5q88 -5 145 -5q58 0 150 5q75 4 118 5q4 -8 4 -17q0 -15 -14 -30 q-117 -5 -152 -35q-38 -36 -66 -151q-50 -208 -100 -443q-95 -448 -125 -599q-34 -168 -230 -310q-121 -87 -233 -94q-17 -1 -33 -1q-67 0 -112 45q-24 28 -24 60q0 7 1 15z" />
<glyph unicode="K" horiz-adv-x="1323" d="M39 -10q-4 8 -4 17q0 15 14 30q116 5 150 34q38 35 66 152q81 342 100 434q22 104 85 441q11 56 11 93q0 49 -19 67q-27 22 -128 26q-12 24 10 47q46 -1 117 -5q87 -5 143 -5q59 0 152 5q75 4 118 5q12 -24 -10 -47q-117 -5 -151 -35q-38 -36 -66 -151q-56 -235 -91 -398 q115 10 205 91l405 360q51 45 51 76t-52 48q-23 7 -49 9q-12 24 10 47q45 -1 118 -5q78 -5 122 -5q43 0 107.5 4.5t109.5 5.5q4 -8 4 -17q0 -15 -14 -30q-171 -22 -309 -141l-366 -309q-87 -74 -93 -101q-3 -23 15 -51l336 -532q56 -91 176 -113q12 -24 -10 -47 q-46 1 -113 5q-70 5 -112 5q-11 0 -83 -9q-9 -1 -17 -1q-8 3 -8 12v10q0 60 -42 138l-236 405q-49 82 -162 88h-5q-37 -177 -83 -420q-10 -54 -10 -91q0 -53 21 -70q28 -21 127 -25q12 -24 -10 -47q-46 1 -118 5q-88 5 -144 5q-58 0 -150 -5q-75 -4 -118 -5z" />
<glyph unicode="L" horiz-adv-x="1048" d="M38 -10q-4 8 -4 17q0 15 14 30q117 5 152 35q38 36 66 151q61 257 98 434q40 187 87 441q10 55 10 92q0 52 -20 69q-28 21 -128 25q-12 24 10 47q46 -1 118 -5q88 -5 144 -5q58 0 150 5q75 4 118 5q12 -24 -10 -47q-117 -5 -151 -35q-38 -36 -66 -151q-50 -208 -101 -443 l-85 -432q-6 -33 -6 -59q0 -103 88 -105h149q231 0 354 201q19 31 37 68q23 2 45 -11q-48 -146 -123 -327q-1 0 -242 10h-436q-31 0 -121 -4q-98 -5 -147 -6z" />
<glyph unicode="M" horiz-adv-x="1685" d="M28 -10q-4 8 -4 17q0 15 14 30q109 9 152 85q20 36 40 99l275 871q25 81 25 123q0 24 -8 36q-24 28 -115 33q-12 24 10 47l272 -10l199 -1040q8 -24 13 -25q9 0 23 21q3 4 3 6l655 1038l273 10q4 -8 4 -17q0 -15 -14 -30q-123 -7 -155 -79q-14 -33 -23 -95l-122 -889 q-9 -65 -9 -104t9 -51q21 -25 119 -29q12 -24 -10 -47q-28 1 -99 5q-99 5 -133 5q-25 0 -89 -4q-82 -5 -132 -6q-12 24 10 47q100 5 122 25q26 27 45 149l135 883h-4l-691 -1084q-17 -22 -33 -22q-20 3 -26 22l-198 1063h-4l-258 -848q-19 -61 -19 -101q0 -38 18 -56 q29 -26 96 -31q12 -24 -10 -47q-28 1 -84 5q-64 5 -90 5q-27 0 -95 -5q-60 -4 -87 -5z" />
<glyph unicode="N" horiz-adv-x="1427" d="M38 -10q-4 8 -4 17q0 15 14 30q119 12 154 43q42 40 68 166l190 880q-14 141 -140 152q-12 24 10 47l263 -4l510 -905q59 -103 65 -108q6 -4 10 -5q25 4 37 62l149 710q14 65 14 107q0 51 -20 70q-27 22 -128 32q-12 24 10 47q49 -1 112 -5q63 -5 105 -5q45 0 111 4.5 t113 5.5q4 -8 4 -17q0 -15 -14 -30q-119 -12 -154 -43q-42 -40 -69 -166l-221 -1032q-11 -53 -23 -60q-8 -3 -15 -3q-46 3 -72 49l-523 903q-38 66 -55 67q-26 0 -47 -96q-1 -3 -1 -4l-137 -653q-13 -64 -13 -106q0 -52 20 -71q27 -22 127 -32q12 -24 -10 -47q-49 1 -111 5 q-63 5 -106 5q-45 0 -111 -4.5t-112 -5.5z" />
<glyph unicode="O" horiz-adv-x="1423" d="M209 635q60 277 234 463q219 233 503 249q18 1 37 1q297 0 438 -194q92 -127 91 -305q0 -82 -19 -175q-57 -262 -215 -436q-248 -250 -574 -258q-274 0 -415 182q-98 130 -98 309q0 78 18 164zM400 670q-21 -100 -21 -188q0 -188 98 -316q108 -137 279 -137 q198 0 359 199q133 166 185 407q24 115 24 213q0 198 -100 323q-105 126 -278 127q-160 0 -312 -156q-171 -178 -234 -472z" />
<glyph unicode="P" horiz-adv-x="1083" d="M39 -10q-4 8 -4 17q0 15 14 30q117 5 150 33q38 35 66 153q41 172 96 434l89 441q11 56 11 94q0 51 -20 67q-28 21 -127 25q-12 24 10 47q46 -1 117 -5q87 -5 143 -5q45 0 169 12q90 8 114 8q323 0 378 -205q10 -37 10 -76q0 -32 -7 -65q-42 -196 -208 -309 q-147 -98 -358 -98q-116 0 -170 18l-88 -432q-4 -21 -4 -38q0 -62 54 -81q37 -12 132 -18q12 -24 -10 -47q-43 1 -120 5q-104 5 -169 5q-58 0 -150 -5q-75 -4 -118 -5zM521 647q43 -10 159 -10q310 4 380 321q14 64 14 116q0 177 -159 211q-34 7 -71 7q-165 0 -197 -77 l-6 -21l-118 -537z" />
<glyph unicode="Q" horiz-adv-x="1423" d="M209 635q60 277 234 463q219 233 503 249q18 1 37 1q297 0 438 -194q92 -127 92 -305q0 -82 -20 -175q-57 -262 -215 -436q-188 -204 -447 -248q-146 -41 -313 -147q23 3 51 3q118 0 285 -83q146 -74 216 -82q17 -2 35 -3q100 0 188 78q6 5 9 8l29 -24 q-144 -159 -307 -167q-13 -1 -23 -1q-141 0 -294 93q-124 76 -170 90q-41 12 -81 12q-63 0 -132 -68q-25 -25 -43 -53l-71 41q139 154 371 265q35 17 67 30q-261 21 -382 213q-75 120 -75 278q0 77 18 162zM400 670q-21 -100 -21 -188q0 -188 98 -316q108 -137 279 -137 q198 0 359 199q133 166 185 407q24 115 24 213q0 198 -100 323q-105 126 -278 127q-160 0 -312 -156q-171 -178 -234 -472z" />
<glyph unicode="R" horiz-adv-x="1280" d="M39 -10q-4 8 -4 17q0 15 14 30q118 5 150 31q38 33 63 143l99 446l89 441q11 56 11 94q0 51 -20 67q-28 21 -127 25q-12 24 10 47q46 -1 117 -5q87 -5 143 -5q45 0 169 12q90 8 114 8q323 0 378 -205q10 -37 10 -76q0 -32 -7 -65q-41 -194 -209 -307q-57 -38 -121 -61 l161 -447q64 -156 189 -157q1 -5 1 -10q0 -11 -5 -19q-33 -14 -109 -14q-160 0 -235 174q-2 5 -3 8l-143 356q-20 51 -40 61q-20 8 -52 9q-135 0 -171 12l-87 -426q-4 -23 -4 -42q0 -58 42 -76q35 -14 132 -19q12 -24 -10 -47q-44 1 -116 5q-96 5 -161 5q-58 0 -150 -5 q-75 -4 -118 -5zM521 647q43 -10 159 -10q310 4 380 321q14 64 14 116q0 177 -159 211q-34 7 -71 7q-165 0 -197 -77l-6 -21l-118 -537z" />
<glyph unicode="S" horiz-adv-x="993" d="M102 27v32q0 120 25 279q27 13 42 8q4 -1 6 -2q2 -231 188 -293q58 -18 125 -18q185 0 275 157q30 53 43 115q7 34 7 65q0 130 -128 203q-3 2 -138 63q-7 3 -11 5q-188 90 -220 214q-8 32 -8 66.5t8 71.5q40 188 219 290q117 64 246 65q125 0 214 -33q47 -17 88 -23 q-3 -143 -20 -264q-21 -12 -48 -12q-29 280 -264 282q-108 0 -207 -112q-60 -69 -75 -137q-4 -21 -4 -41q0 -138 213 -236q22 -10 63 -27q31 -13 42 -18q190 -89 212 -229q3 -20 3 -42q0 -38 -9 -79q-36 -169 -198 -289q-32 -23 -64 -41q-123 -67 -267 -67q-93 0 -235 32 q-68 15 -123 15z" />
<glyph unicode="T" horiz-adv-x="1222" d="M226 1034q76 173 116 303q3 4 9 6q280 -22 472 -22h177q203 0 463 22q3 -3 5 -6q-27 -144 -36 -297q-27 -10 -52 -10q-6 229 -235 232h-66q-68 0 -96 -57q-17 -36 -35 -107q-32 -132 -98 -443q-56 -265 -88 -432q-8 -43 -8 -75q0 -68 36 -89q33 -18 133 -22 q12 -24 -10 -47q-44 1 -119 5q-100 5 -163 5q-64 0 -169 -5q-78 -4 -120 -5q-12 24 10 47q127 5 168 38q46 40 72 148q41 172 97 434q62 296 89 441q9 51 9 85q0 53 -22 68q-19 10 -50 11h-121q-211 -3 -321 -238q-26 1 -47 10z" />
<glyph unicode="U" horiz-adv-x="1368" d="M293 1284q-4 8 -4 17q0 15 14 30q45 -1 118 -5q90 -5 146 -5q58 0 151 5q75 4 118 5q12 -24 -10 -47q-120 -5 -156 -36q-39 -37 -66 -150q-31 -127 -71 -314l-49 -233q-24 -116 -24 -203q0 -128 52 -192q94 -111 218 -113q359 0 479 433q12 43 22 91l112 531q12 55 12 91 q0 47 -20 64q-27 20 -140 31q-12 24 10 47q49 -1 112 -5q66 -5 111 -5q40 0 93 4q61 5 110 6q4 -8 4 -17q0 -15 -14 -30q-106 -12 -135 -36q-40 -36 -65 -150l-105 -494q-79 -370 -256 -510q-148 -114 -384 -114q-235 0 -333 149q-53 83 -53 203q0 69 18 151l37 174 q58 272 89 441q10 53 10 90q0 54 -22 71q-29 21 -129 25z" />
<glyph unicode="V" horiz-adv-x="1380" d="M289 1284q-5 9 -5 18q0 15 13 29q45 -1 115 -5q75 -5 117 -5t127 5q79 4 123 5q12 -24 -10 -47q-128 -13 -146 -85q-3 -16 -3 -36q0 -30 7 -69l148 -834l13 -26l15 26l498 821q48 79 48 126q0 41 -35 59q-29 14 -78 18q-12 24 10 47q51 -1 136 -6q63 -4 85 -4q23 0 74 4 q66 5 108 6q4 -8 4 -17q0 -15 -14 -30q-133 -16 -234 -164q-15 -22 -34 -53l-645 -1044q-30 -46 -59 -48q-29 4 -38 48l-181 1048q-25 142 -62 178q-33 29 -97 35z" />
<glyph unicode="W" horiz-adv-x="2009" d="M288 1284q-4 8 -4 17q0 15 14 30q37 -1 90 -5q62 -5 105 -5q49 0 150 6q62 4 87 4q12 -24 -10 -47q-108 -6 -118 -85q-1 -14 0 -28l107 -944l2 -49l31 49l402 678q7 13 15 51q1 8 1 21q0 23 -4 63l-11 95q-12 106 -96 138q-24 9 -50 11q-12 24 10 47q37 -1 95 -5 q71 -5 114 -5q44 0 132 5q80 4 124 5q12 -24 -10 -47q-139 -12 -147 -116q-1 -17 0 -33l102 -912l5 -43l23 43l524 934q16 30 16 52q0 52 -85 70q-19 4 -39 5q-12 24 10 47q39 -1 119 -5q77 -5 104 -5t83 4q61 5 98 6q4 -8 4 -17q0 -15 -14 -30q-149 -10 -229 -151 l-640 -1110q-28 -46 -65 -48q-50 4 -59 50l-85 727q-7 55 -17 57q-13 -3 -39 -51l-441 -733q-30 -48 -61 -50q-55 0 -65 44q-1 4 -1 6l-136 1114q-13 110 -76 133q-26 9 -65 12z" />
<glyph unicode="X" horiz-adv-x="1386" d="M23 -10q-4 8 -4 17q0 15 14 30q158 17 291 153l389 406q21 23 27 47v7q0 22 -16 55l-203 415q-64 131 -151 156q-23 6 -49 8q-13 24 8 47q24 -1 74 -4q85 -6 133 -6q47 0 141 5q72 4 107 5q12 -24 -10 -47q-91 -5 -92 -53q1 -28 29 -85l155 -335q14 -27 26 -29q7 0 31 26 l5 5l328 358q38 41 38 68q0 38 -79 45h-5q-12 24 10 47q41 -1 120 -6q69 -4 93 -4q26 0 97 5q62 4 89 5q4 -8 4 -17q0 -15 -14 -30q-154 -16 -290 -154l-358 -362q-29 -31 -35 -59q-2 -16 26 -70l222 -430q69 -134 141 -161q25 -9 54 -11q13 -24 -8 -47q-24 1 -74 4 q-85 6 -133 6q-47 0 -142 -5q-72 -4 -106 -5q-12 24 10 47q91 5 92 52q-1 28 -29 85l-176 361q-17 32 -24 32q-8 -3 -41 -39l-351 -378q-38 -41 -38 -68q0 -38 79 -45h5q12 -24 -10 -47q-41 1 -120 6q-69 4 -93 4q-26 0 -97 -5q-62 -4 -90 -5z" />
<glyph unicode="Y" horiz-adv-x="1249" d="M289 1284q-5 9 -5 18q0 15 13 29q23 -1 77 -4q101 -6 150 -6q47 0 139 5q71 4 105 5q12 -24 -10 -47q-109 -6 -123 -33q-4 -9 -4 -20q0 -21 11 -51l162 -455q10 -23 23 -23q12 0 27 19l341 459q28 37 28 60q0 25 -32 34q-24 6 -70 10q-14 23 9 45q40 -1 109 -5 q63 -3 86 -3q28 0 109 4q58 3 83 4q5 -9 5 -17q0 -14 -14 -28q-124 -12 -189 -66q-30 -26 -57 -61l-362 -473q-36 -50 -54 -136l-63 -325q-10 -53 -10 -89q0 -50 20 -68q31 -25 149 -29q12 -24 -10 -47q-44 1 -120 5q-100 5 -163 5q-64 0 -169 -5q-78 -4 -120 -5 q-12 24 10 47q133 5 172 37q40 36 67 149l71 307q6 26 6 48q0 30 -10 53l-16 37l-173 452q-49 129 -132 154q-27 7 -66 10z" />
<glyph unicode="Z" horiz-adv-x="1224" d="M78 31q7 26 27 47l938 1012l94 96q41 45 45 59q2 11 -13 15q-13 2 -32 2l-443 -9q-204 -6 -324 -237q-12 1 -39 10q73 179 112 317q273 -22 366 -22h453q38 0 106 3q34 1 44 1q23 -4 22 -22q-10 -32 -69 -93q-406 -411 -994 -1063q-22 -30 -25 -41q-7 -33 22 -45 q10 -3 19 -4l417 9q184 3 303 147q30 37 95 135q13 -1 41 -10q-76 -172 -129 -348q-1 0 -257 10h-746q-34 0 -34 22q0 2 0.5 5t0.5 4z" />
<glyph unicode="[" horiz-adv-x="729" d="M137 -395l390 1835h434q13 -21 -8 -41q-219 -16 -279 -61q-51 -38 -78 -162q-1 -4 -1 -7l-275 -1292q-27 -126 3 -165q36 -46 222 -63q17 -2 35 -3q13 -21 -9 -41h-434z" />
<glyph unicode="\" horiz-adv-x="587" d="M326 1430h90l147 -1528h-90z" />
<glyph unicode="]" horiz-adv-x="729" d="M-10 -393q-13 21 9 41q219 16 279 60q51 38 78 163q1 4 1 6l275 1292q27 126 -4 166q-36 46 -222 63q-17 2 -35 3q-13 21 9 41h434l-390 -1835h-434z" />
<glyph unicode="^" horiz-adv-x="1060" d="M380 709l392 622h86l126 -622h-92l-103 505l-317 -505h-92z" />
<glyph unicode="_" horiz-adv-x="995" d="M-47 -315q-16 21 5 69q7 14 15 21h954q16 -21 -5 -70q-7 -14 -14 -20h-955z" />
<glyph unicode="`" horiz-adv-x="802" d="M464 1260l9 22q74 46 143 47q15 0 30 -4l89 -258q7 -26 2 -49q-9 -18 -36 -23q-18 4 -51 41z" />
<glyph unicode="a" horiz-adv-x="929" d="M118 138q1 21 6 42q31 147 239 232q66 27 141 43l193 41q10 5 20 43q15 72 15 126q0 122 -81 144q-15 4 -30 4q-109 0 -158 -56q-14 -18 -19 -36q-5 -26 -4 -39q3 -14 -1 -35q-8 -36 -55 -62q-26 -13 -52 -14q-57 0 -62 53q-1 14 2 27q18 84 152 151q113 55 223 56 q227 0 226 -202q0 -55 -16 -125q-1 -4 -2 -5l-72 -290q-16 -65 -16 -105q0 -45 20 -59q17 -10 41 -11q24 0 57 28q6 5 10 5q16 0 22 -17q1 -6 1 -9q-3 -16 -60 -50q-65 -38 -125 -38q-112 1 -123 114h-4l-46 -31q-113 -74 -189 -81q-22 -2 -46 -2q-207 0 -207 147v11z M276 188q-3 -16 -3 -31q0 -52 40 -88q34 -28 83 -28q48 0 183 94q10 7 15 10q29 21 37 50l61 239l-176 -41q-177 -41 -230 -170q-7 -18 -10 -35z" />
<glyph unicode="b" horiz-adv-x="964" d="M131 0l11 21q31 62 45 118q60 239 205 945q15 72 18 96q9 50 9 83q0 44 -16 57q-21 16 -83 19q-11 18 -2 39q164 13 268 49q4 2 7 3q21 0 21 -12q0 -4 -1 -7l-44 -180q-1 -3 -1 -4l-99 -449q-4 -19 9 -14q6 3 11 6q118 87 238 88q146 0 224 -116q50 -76 50 -175 q0 -45 -10 -94q-53 -249 -259 -395q-141 -98 -278 -98q-108 1 -167 59q-24 21 -55 -6q-10 -10 -75 -56q-18 0 -22 13q-2 7 -4 10zM332 119q46 -79 97 -90q12 -2 23 -2q172 0 290 189q60 99 86 222q14 66 14 122q0 78 -27 136q-49 93 -141 97q-94 -2 -179 -64 q-44 -36 -54 -82q0 -1 -109 -528z" />
<glyph unicode="c" horiz-adv-x="858" d="M158 406q47 223 241 358q135 93 267 94q197 0 257 -97q17 -30 17 -62q0 -13 -3 -27q-15 -70 -91 -84q-12 -2 -21 -2q-60 0 -60 56q0 8 1 13q1 12 1 23q0 131 -122 133q-119 0 -220 -134q-74 -99 -102 -228q-15 -72 -16 -132q0 -134 78 -208q57 -52 139 -54q115 0 242 105 q23 19 42 39q21 -2 25 -13q1 -5 2 -8q-166 -198 -370 -198q-223 0 -294 170q-26 63 -26 140q0 55 13 116z" />
<glyph unicode="d" horiz-adv-x="997" d="M160 397q46 207 208 342q152 118 318 119q37 0 142 -33q4 -1 6 -2q18 4 23 19q0 2 68 338q10 59 10 95q0 39 -12 49q-16 11 -89 15q-12 19 -4 39q162 13 266 49q4 2 7 3q21 0 21 -12q0 -4 -1 -7l-46 -180q-1 -3 -1 -4q-58 -228 -196 -915l-15 -79q-5 -31 -5 -54 q0 -45 20 -62q28 -21 98 -27q9 -17 -7 -31q-153 -19 -242 -79q-12 -2 -21.5 -2t-15.5 2l1 93q2 14 3.5 23.5t-6.5 9.5q-9 -2 -18 -8q-173 -118 -269 -118q-189 0 -241 171q-16 54 -16 118q0 60 14 128zM323 432q-16 -75 -16 -137q0 -123 63 -195q44 -48 100 -49q80 2 204 94 q34 26 45 70q2 4 2 6q92 412 91 412q6 30 6 52q0 27 -9 44q-3 6 -7 10q-48 69 -149 70q-128 -3 -213 -98q-75 -84 -117 -279z" />
<glyph unicode="e" horiz-adv-x="890" d="M156 395q52 243 251 379q126 84 248 84q277 0 279 -238q0 -50 -12 -106q-10 -32 -44 -35l-551 -8q-17 -82 -17 -148q0 -73 21 -126q45 -112 161 -137q22 -5 42 -5q123 0 256 108l23 19q30 -6 34 -32q-167 -169 -378 -170q-204 2 -283 124q-44 70 -44 170q0 56 14 121z M346 530l398 11q28 4 34 26q10 45 10 83q0 103 -73 144q-32 17 -70 17q-107 0 -202 -111q-59 -71 -97 -170z" />
<glyph unicode="f" horiz-adv-x="628" d="M65 -10q-4 8 -4 17q0 15 14 30q84 7 109 32q28 32 56 144q35 143 123 565h-138q-9 0 -9 8q1 3 1 5l4 18q10 27 51 29h103q21 98 29 145q35 188 132 301q137 135 294 146q116 -1 168 -41q44 -41 44 -83q0 -8 -2 -16q-9 -42 -67 -67q-19 -8 -33 -9q-49 3 -65 62 q-17 95 -70 106q-11 2 -21 2q-84 0 -152 -129q-2 -3 -2 -4q-39 -77 -78 -235l-41 -178h214q12 -4 12 -13l-7 -30q-6 -17 -46 -17h-185q-93 -430 -118 -565q-11 -60 -11 -97q0 -40 13 -53q22 -20 114 -26q12 -24 -10 -47q-36 1 -97 5q-79 5 -130 5q-41 0 -101 -5 q-57 -4 -94 -5z" />
<glyph unicode="g" horiz-adv-x="989" d="M4 -262q24 111 144 207q36 28 74 49q-83 31 -83 112q0 16 3 33q1 4 2 6q24 106 148 197q-56 71 -56 159q0 29 6 60q34 161 192 246q96 50 199 51q126 -1 191 -55q78 79 191 96q15 2 26 2q68 0 76 -49v-8q0 -8 -1 -15q-10 -47 -60 -67q-16 -6 -29 -6q-31 0 -44 30 q-1 3 -2 5q-13 23 -34 24q-37 0 -82 -40l-7 -7q46 -61 46 -135q0 -22 -4 -46l-4 -22q-37 -172 -200 -257q-92 -48 -192 -48q-94 1 -166 47q-55 -63 -68 -114q-3 -13 -3 -25q0 -53 55 -84q27 -14 53 -14q6 0 61 4q81 10 133 10q206 -1 271 -66q55 -55 55 -123q0 -21 -5 -42 q-34 -158 -245 -266q-182 -91 -379 -91q-170 0 -238 95q-29 44 -29 99q0 23 5 48zM143 -223q-6 -28 -6 -53q0 -89 75 -141q53 -35 124 -36q165 0 304 99q99 72 119 155q2 13 2 25q0 68 -73 117q-58 34 -206 34h-8q-11 0 -44 -2q-64 -4 -100 -4q-50 1 -76 9 q-84 -81 -111 -203zM396 590q-13 -65 -13 -116q0 -165 141 -167q102 0 169 105q35 57 52 133q11 54 11 98q0 112 -76 152q-33 16 -73 16q-137 0 -195 -164q-10 -28 -16 -57z" />
<glyph unicode="h" horiz-adv-x="1046" d="M45 -10q-4 8 -4 17q0 15 14 30q91 7 117 32q30 32 58 144q69 282 193 904l12 63q11 61 11 96q0 37 -12 48q-16 11 -90 15q-12 19 -4 39q162 13 267 49l6 3q21 0 22 -12q0 -4 -1 -7l-13 -50l-35 -134q-118 -528 -118 -529q-3 -24 20 0q177 159 370 160q109 -2 148 -67 q17 -33 17 -89q0 -69 -26 -174q-40 -159 -67 -315q-10 -60 -10 -97q0 -42 13 -56q20 -17 91 -23q4 -8 4 -16q0 -15 -14 -31q-38 1 -94 5q-63 5 -105 5t-104 -5q-56 -4 -93 -5q-12 23 10 47q82 8 105 34q25 31 54 142q41 162 68 322q16 98 16 150q0 27 -4 42q-26 64 -89 70 q-100 -2 -287 -156q-40 -35 -51 -82q0 -2 -69 -346q-11 -67 -11 -105q0 -37 10 -49q17 -17 80 -22q12 -24 -10 -47q-38 1 -89 5q-56 5 -95 5q-47 0 -118 -5q-58 -4 -93 -5z" />
<glyph unicode="i" horiz-adv-x="546" d="M61 -10q-4 8 -4 17q0 15 14 30q100 8 127 34q31 33 60 152q33 136 53 229q12 57 34 177q6 37 6 62q0 42 -17 55q-22 15 -93 22q-2 25 4 37q184 24 285 59q23 -2 23 -14q-1 -3 -57 -212q-22 -84 -44 -188l-44 -227q-12 -66 -12 -106q0 -42 13 -55q22 -19 107 -25 q12 -24 -10 -47q-40 1 -101 5q-71 5 -118 5q-48 0 -125 -5q-64 -4 -101 -5zM445 1227q11 52 77 84q28 13 50 14q55 0 74 -58q4 -15 4 -28q0 -10 -2 -20q-10 -49 -70 -82q-29 -16 -57 -17q-51 0 -72 54q-6 17 -6 34q0 10 2 19z" />
<glyph unicode="j" horiz-adv-x="557" d="M-185 -410q9 42 63 56q9 2 14 2q39 0 74 -47q4 -5 5 -7q8 -10 24.5 -16t34.5 -6q83 0 157 260q19 68 68 270q29 117 59 260q33 156 51 267q5 34 5 59q0 44 -17 58q-22 16 -91 22q-2 25 3 37q199 26 293 59q23 -2 24 -14q-1 -3 -53 -213q-48 -200 -66 -283 q-15 -72 -44 -223q-81 -419 -259 -551l-11 -8q-99 -69 -240 -70q-56 0 -85 40q-10 17 -10 35q0 6 1 13zM464 1227q11 52 76 84q28 13 51 14q55 0 73 -58q4 -16 4 -31q0 -9 -1 -17q-10 -49 -71 -82q-29 -16 -57 -17q-51 0 -71 54q-6 17 -6 34q0 10 2 19z" />
<glyph unicode="k" horiz-adv-x="1003" d="M22 -10q-4 8 -4 17q0 15 14 30q96 5 123 31q29 32 56 143q50 212 115 516q71 334 91 453q8 51 8 84q0 43 -14 56q-20 15 -85 19q-9 15 2 39q162 13 266 49q4 2 7 3q23 0 23 -12v-7l-47 -180q-1 -3 -1 -4l-122 -553l-45 -217q99 14 176 61q86 56 190 160q29 29 29 66v9 q-5 42 -64 47q-3 0 -5 1q-12 24 10 47q31 -1 84 -5q67 -5 107 -5q38 0 91 5q49 4 81 5q4 -8 4 -17q0 -15 -14 -30q-116 -13 -228 -111l-210 -176q-10 -10 -12 -20q-1 -10 8 -27l190 -324q56 -94 145 -106q12 -24 -10 -47q-26 1 -70 5q-57 5 -90 5q-6 0 -96 -9q-8 -1 -14 -1 q-5 3 -6 10q-6 68 -46 143l-101 191q-31 59 -85 70q-29 5 -74 6l-39 -199q-12 -61 -12 -98q0 -41 14 -54q21 -18 103 -22q12 -24 -10 -47q-37 1 -97 5q-72 5 -118.5 5t-120.5 -5q-61 -4 -97 -5z" />
<glyph unicode="l" horiz-adv-x="518" d="M47 -10q-4 8 -4 17q0 15 14 30q96 5 122 31q29 32 56 143l116 516q71 334 90 453q8 51 8 84q0 43 -14 56q-20 15 -85 19q-9 15 2 39q162 13 267 49l6 3q23 0 24 -12q0 -4 -1 -7l-46 -180q-1 -3 -1 -4l-122 -553q-57 -267 -94 -463q-12 -61 -12 -98q0 -41 14 -54 q21 -18 102 -22q12 -24 -10 -47q-37 1 -97 5q-72 5 -118.5 5t-120.5 -5q-61 -4 -96 -5z" />
<glyph unicode="m" horiz-adv-x="1579" d="M55 -10q-4 8 -4 17q0 15 14 30q88 7 114 35q29 33 57 141q53 212 90 426q6 35 6 59q0 41 -17 54q-22 14 -87 20q-2 24 3 35q181 24 272 55q22 -3 21 -14q-1 -2 -42 -150q-4 -17 6 -12q5 3 15 12q187 159 343 160q117 0 152 -92q9 -25 10 -51q3 -15 20 -2q176 140 369 145 q156 0 156 -160q0 -25 -4 -53q-6 -44 -20 -98q-42 -168 -71 -334q-11 -65 -11 -103q0 -37 10 -49q19 -18 89 -24q4 -8 4 -16q0 -15 -14 -31q-39 1 -92 5q-61 5 -103 5t-103 -5q-56 -4 -93 -5q-12 23 10 47q82 6 106 35q24 31 52 141q46 184 78 369q3 25 3 47q0 122 -91 127 q-157 -2 -299 -129q-5 -40 -15 -78q-42 -168 -71 -336q-12 -66 -12 -104.5t12 -50.5q18 -16 79 -21q12 -23 -10 -47q-39 1 -89 5q-56 5 -97 5q-42 0 -104 -5q-56 -4 -93 -5q-12 23 10 47q82 6 105 33q24 30 53 143q46 182 78 365q5 33 5 59q0 117 -100 119q-104 0 -243 -109 q-5 -4 -7 -6q-37 -33 -50 -82q-44 -173 -74 -346q-11 -65 -11 -104q0 -37 10 -49q17 -17 80 -23q12 -24 -10 -47q-38 1 -89 5q-57 5 -97 5q-47 0 -117 -5q-58 -4 -92 -5z" />
<glyph unicode="n" horiz-adv-x="1075" d="M59 -10q-4 8 -4 17q0 15 14 30q94 8 120 33q29 31 55 143q59 247 90 426q6 34 6 58q0 42 -18 55q-21 13 -86 20q-2 24 3 35q178 24 270 55q22 -3 21 -14q-1 -2 -42 -150q-5 -21 9 -9q5 4 10 9q177 159 376 160q113 -2 151 -67q14 -30 14 -77q0 -42 -11 -97 q-6 -29 -22 -89q-40 -159 -67 -315q-10 -59 -10 -96q0 -44 14 -57q20 -17 90 -23q4 -8 4 -16q0 -15 -14 -31q-38 1 -93 5q-63 5 -105.5 5t-104.5 -5q-57 -4 -94 -5q-12 23 10 47q82 8 105 34q25 31 53 142q43 172 73 342q15 89 15 126q0 11 -1 17q-1 5 -3 9q-26 64 -89 69 q-115 0 -246 -88l-37 -26q-37 -36 -50 -82q-33 -124 -78 -367q-13 -67 -13 -106q0 -36 11 -47q18 -17 82 -23q12 -24 -10 -47q-38 1 -89 5q-56 5 -96 5q-47 0 -119 -5q-59 -4 -94 -5z" />
<glyph unicode="o" horiz-adv-x="987" d="M167 399q43 195 177 322q148 136 334 137q250 0 312 -205q17 -57 16 -120q0 -55 -12 -115q-45 -204 -197 -328q-139 -110 -310 -110q-226 0 -302 178q-28 68 -28 145q0 46 10 96zM332 444q-13 -64 -13 -122q0 -89 31 -167q54 -126 176 -128q107 0 197 106q73 89 102 223 q21 100 21 179q0 149 -75 225q-53 50 -132 51q-175 0 -268 -237q-24 -62 -39 -130z" />
<glyph unicode="p" horiz-adv-x="1007" d="M-78 -504q-5 8 -5 17q0 13 14 26q94 5 120 34q28 32 57 144q58 229 182 853l14 69q6 33 6 56q0 43 -19 56q-22 14 -86 21q-2 24 3 35q168 23 264 55q25 0 22 -12q-1 -3 -33 -125q-2 -10 5 -11q7 1 12 5q166 137 288 139q159 0 233 -142q38 -76 38 -163q0 -46 -10 -94 q-50 -227 -223 -369q-139 -110 -308 -110h-3q-82 1 -153 30q-27 12 -33 -10q-1 -3 -1 -4q0 -2 -55 -279q-10 -60 -10 -97q0 -40 12 -53q23 -22 120 -28q14 -22 -9 -43q-36 1 -98 5q-80 5 -131 5q-46 0 -117 -5q-60 -4 -96 -5zM351 205q-7 -33 -7 -60q0 -44 20 -70q4 -5 7 -7 q39 -40 120 -41q198 0 311 217q40 78 58 162q14 67 14 125q0 117 -58 193q-50 63 -120 64q-77 -1 -211 -114q-34 -32 -53 -107z" />
<glyph unicode="q" horiz-adv-x="983" d="M153 403q48 224 227 357q133 97 284 98q135 -1 209 -57q16 -12 27 0l23 24q35 36 49 37q21 -2 21 -27q0 -8 -3 -20q-57 -226 -215 -1008q-14 -69 -18 -92q-10 -60 -10 -98q0 -42 13 -55q22 -18 101 -23q14 -22 -10 -43q-38 1 -95 5q-68 5 -113 5q-46 0 -119 -5 q-61 -4 -97 -5q-14 22 10 43q95 5 121 33q29 31 57 143l65 285q6 30 -6 31q-13 -1 -49 -21q-57 -30 -156 -30q-221 0 -297 182q-29 72 -29 149q0 45 10 92zM317 442q-15 -70 -15 -128q0 -155 105 -229q58 -40 123 -40q81 1 134 27q34 18 48 78q0 1 91 450q5 29 5 54 q0 52 -22 85q-52 71 -138 72q-146 0 -251 -167q-56 -91 -80 -202z" />
<glyph unicode="r" horiz-adv-x="731" d="M61 -10q-5 8 -5 17q0 14 15 28q97 6 123 32q29 31 58 144q53 212 91 428q5 31 5 54q0 44 -20 58q-23 14 -84 21q-6 17 3 35q152 20 254 55q19 -2 22 -12q2 -21 -23 -137q-6 -27 3 -26q5 3 9 7q144 162 252 164q101 0 101 -74q0 -11 -2 -20q-12 -56 -72 -82q-21 -8 -40 -8 q-36 0 -63 54q-4 7 -5 9q-12 18 -37 19q-28 -2 -110 -105q-59 -75 -77 -141q-34 -129 -64 -299q-10 -57 -10 -93q0 -41 13 -55q22 -21 119 -28q14 -23 -9 -45q-37 1 -104 5q-81 5 -125 5q-43 0 -118 -5q-64 -4 -100 -5z" />
<glyph unicode="s" horiz-adv-x="765" d="M106 0q25 115 43 258q25 17 39 2q6 -131 48 -182q44 -52 138 -53q83 0 154 68q41 42 51 89q4 17 4 33q0 62 -57 104q-39 28 -110 60q-130 61 -156 126q-11 29 -11 65q0 31 8 69q24 114 157 179q81 39 166 40q65 0 220 -34l25 -5q-6 -26 -21 -79q-22 -77 -31 -117 q-27 -19 -43 -2q1 11 1 21q0 170 -161 171q-72 0 -135 -69q-32 -37 -41 -76q-3 -16 -4 -31q0 -73 82 -120q30 -17 84 -40q161 -67 179 -168q2 -15 3 -31q0 -24 -6 -51q-35 -166 -231 -226q-69 -21 -133 -21q-95 1 -173 22q-16 4 -38 4q-20 0 -51 -6z" />
<glyph unicode="t" horiz-adv-x="614" d="M208 145q3 15 5 29l55 237q61 259 84 367h-115q-9 0 -8 8q1 3 0 5l4 18q10 27 41 29h90q8 36 51 268q3 14 53 29l23 8q14 5 42 19q32 15 41 16q12 -4 10 -19l-51 -205l-27 -116h235q12 -4 12 -13l-5 -22q-7 -24 -52 -25h-203q-95 -369 -123 -530q-13 -74 -12.5 -117 t12.5 -54q12 -9 27 -9q83 1 189 69q14 -5 15 -24v-4q-142 -128 -292 -129q-105 0 -105 114q0 23 4 51z" />
<glyph unicode="u" horiz-adv-x="1038" d="M221 801q-4 8 -4 17q0 15 14 30q144 -4 186 -4q46 0 68 4q13 -3 14 -12q-1 -2 -46 -181q-48 -191 -82 -383q-12 -72 -12 -118q0 -55 17 -75q27 -27 96 -28q73 0 210 93l31 22q32 25 35 32l8 23q53 210 89 422q8 44 8 75q0 49 -20 64q-22 15 -75 19q-12 24 10 47 q144 -4 185 -4q48 0 71 4q11 -3 12 -12q-1 -2 -47 -181q-53 -210 -89 -422q-5 -31 -5 -54q0 -45 20 -62q28 -21 97 -27q9 -17 -6 -31q-143 -18 -234 -79q-12 -2 -21.5 -2t-15.5 2l-1 93q2 14 3.5 23.5t-8.5 9.5q-10 -1 -20 -8q-173 -112 -310 -118q-133 0 -169 74 q-20 41 -19 95q0 44 13 97q50 200 86 401q7 40 7 68q0 51 -22 67q-22 14 -74 19z" />
<glyph unicode="v" horiz-adv-x="972" d="M193 800q-4 8 -4 17q0 15 14 30q34 -1 83 -5q48 -4 76 -4q35 0 109 4q61 4 92 5q12 -24 -10 -47q-89 -7 -95 -54q-1 -17 11 -99l62 -377q12 -74 28 -74q18 4 58 68l239 383q39 63 39 99q0 29 -25 42q-22 10 -57 13q-12 24 10 47q32 -1 79 -5q55 -5 93 -5q30 0 83 5 q36 4 52 5q4 -8 4 -17q0 -15 -14 -30q-93 -9 -155 -97l-46 -71l-390 -613q-31 -42 -57 -43q-32 3 -40 41l-119 617q-20 107 -44 132q-27 26 -76 33z" />
<glyph unicode="w" horiz-adv-x="1460" d="M191 801q-4 8 -4 17q0 15 14 30q20 -1 63 -5q60 -5 96 -5h11q35 0 111 5q64 4 96 5q12 -23 -10 -47q-106 -7 -106 -105q0 -18 5 -49l70 -403q8 -44 25 -44q11 0 27 20q9 12 19 28l205 332l-6 45q-16 107 -31 131q-27 39 -82 45q-12 24 11 47q34 -1 85 -6q43 -4 71 -4h11 q28 0 99 4l100 6q12 -24 -10 -47q-106 -8 -115 -76q-1 -8 -1 -16q0 -23 6 -52l77 -428q6 -35 19 -35q8 0 20 14q9 12 20 30l250 407q38 64 38 99q0 16 -8 27q-24 25 -91 30q-12 24 10 47q31 -1 84 -5q67 -5 106 -5q41 0 89 5q32 4 51 5q4 -8 4 -17q0 -15 -14 -30 q-96 -6 -172 -118q-12 -17 -29 -46l-385 -619q-27 -40 -54 -41q-29 4 -39 39l-98 484l-300 -480q-30 -42 -55 -43q-29 4 -38 39l-122 631q-20 105 -54 131q-26 18 -69 23z" />
<glyph unicode="x" horiz-adv-x="993" d="M29 -10q-4 8 -4 17q0 15 14 30q108 6 223 111l24 22l217 211q8 10 -4 29l-126 247q-70 133 -164 144q-12 24 10 47q36 -1 84.5 -5.5t79.5 -4.5q33 0 107 5q68 4 102 5q12 -24 -10 -47q-85 -12 -90 -43q-1 -22 17 -60l88 -174q21 -30 52 -4l171 176q35 39 35 64 q0 32 -58 41q-12 24 10 47q36 -1 86 -6q43 -4 73 -4h11q39 0 93 5q38 4 58 5q4 -8 4 -17q0 -15 -14 -30q-123 -12 -247 -131l-216 -209q-10 -16 -4 -29l132 -248q69 -130 179 -145q9 -1 17 -2q12 -24 -10 -47q-34 1 -78 5q-51 5 -92 5t-112 -5q-60 -4 -93 -5q-12 24 10 47 q62 9 64 39q0 29 -31 88l-86 155q-18 23 -44 -4l-166 -176q-35 -38 -35 -62q0 -23 32 -35q10 -3 20 -5q12 -24 -10 -47q-34 1 -78 5q-51 5 -92 5q-39 0 -77 -5q-39 -5 -72 -5z" />
<glyph unicode="y" horiz-adv-x="1013" d="M8 -446q-1 5 -1 10q0 7 2 14q9 43 57 61q19 6 37 7q10 0 26 -5q22 -5 35 -6q72 4 129 78q88 130 116 181q32 56 32 131q0 43 -11 92l-112 514q-26 124 -61 150q-25 17 -66 22q-14 23 10 45q13 -1 43 -4q70 -6 112 -6q40 0 128 5q66 4 96 5q14 -23 -10 -45 q-104 -9 -107 -80v-5q0 -26 9 -69l88 -405q8 -37 44 -25q18 6 29 23l290 448q17 26 17 47q0 35 -49 55q-21 8 -45 11q-14 23 10 45q33 -1 82 -5q58 -5 94 -5q32 0 83 5q39 4 59 5q5 -8 5 -17q0 -14 -15 -28q-82 -7 -176 -118q-15 -18 -26 -34q-181 -262 -541 -837 q-58 -91 -117 -168q-108 -139 -218 -140q-67 0 -78 48z" />
<glyph unicode="z" horiz-adv-x="839" d="M93 23q6 18 27 40q228 240 624 730l-268 -7q-104 -2 -197 -194q-2 -3 -3 -4q-23 -4 -41 6q60 156 82 252q4 8 15 12q11 -2 29 -8q36 -12 75 -12h6h330q40 0 104 3q17 1 20 1q19 -3 19 -15q-3 -15 -46 -67l-4 -4q-394 -480 -522 -619l-88 -92h271q95 0 175 100 q21 27 51 70l41 57q21 -1 34 -12q-55 -152 -118 -266l-576 6q-42 2 -40 23z" />
<glyph unicode="{" horiz-adv-x="546" d="M174 489l6 31q132 36 194 160q19 39 25 78l59 377q37 234 198 290q67 23 160 23q13 -24 -11 -49q-161 -31 -207 -186q-8 -30 -13 -62l-57 -360q-29 -187 -158 -259q-26 -14 -56 -26q114 -54 111 -179q-2 -56 -23 -132l-90 -326q-48 -174 45 -234q31 -19 69 -20 q13 -24 -10 -49q-183 0 -227 79q-40 78 7 255l94 348q38 140 -50 210q-29 22 -66 31z" />
<glyph unicode="|" horiz-adv-x="419" d="M65 -475l405 1905h90l-405 -1905h-90z" />
<glyph unicode="}" horiz-adv-x="546" d="M-54 -436q-13 24 11 49q161 31 207 186q8 30 13 62l56 360q29 187 159 259q26 14 55 26q-114 54 -110 179q2 56 23 132l90 326q48 174 -45 234q-31 19 -69 20q-13 24 10 49q183 0 227 -80q40 -78 -7 -254l-94 -348q-38 -140 50 -210q29 -22 66 -32l-6 -30 q-132 -36 -194 -161q-19 -39 -25 -77l-59 -377q-37 -234 -198 -290q-67 -23 -160 -23z" />
<glyph unicode="~" horiz-adv-x="919" d="M144 428q56 136 178 215q74 47 140 47q66 -2 140 -65q78 -67 133 -68q97 0 183 79q29 27 49 58q24 -2 32 -12q-108 -215 -267 -243q-17 -3 -31 -3q-66 2 -141 68q-75 65 -136 65q-92 0 -193 -90q-31 -29 -54 -59q-20 1 -33 8z" />
<glyph unicode="&#xa1;" horiz-adv-x="589" d="M119 -398q-5 35 4 79q16 74 92 282q22 61 39 113q16 51 105 358q3 10 5 15q15 39 35 40q21 -3 21 -26q-2 -13 -10 -74q-27 -202 -40 -313q-8 -72 -13 -176q-8 -135 -26 -219q-26 -124 -111 -147q-14 -3 -25 -3q-65 0 -76 71zM361 791q10 49 70 82q30 16 57 16 q51 0 71 -54q10 -27 5 -53q-11 -52 -77 -84q-28 -13 -51 -14q-55 0 -73 58q-7 25 -2 49z" />
<glyph unicode="&#xa2;" d="M262 584q45 214 233 343q97 66 195 83l47 221h63l-46 -217q188 -3 239 -98q18 -37 10 -79q-14 -67 -88 -80q-11 -2 -19 -1q-57 0 -57 52q0 8 1 14q10 134 -95 147l-153 -717q9 -1 18 -1q112 0 234 103q20 17 36 33q19 -2 23 -12q1 -4 2 -7q-150 -179 -328 -188l-44 -207 h-64l45 208q-195 17 -248 183q-29 96 -4 220zM419 625q-47 -223 60 -324q25 -23 53 -35l148 698q-119 -31 -201 -178q-42 -75 -60 -161z" />
<glyph unicode="&#xa3;" horiz-adv-x="931" d="M38 16v19q7 35 90 77q4 2 13 6q12 6 17 9q171 115 243 448l8 39h-133q-11 0 -10 8q1 3 0 5q5 24 33 40q13 6 24 7h99l13 61q46 215 186 352l47 43q138 120 286 121q74 0 116 -41q24 -27 18 -59q-15 -69 -77 -82q-11 -2 -20 -2q-22 0 -50 41l-10 14q-39 46 -86 47 q-83 0 -162 -140q-48 -87 -70 -189l-36 -166h242q15 0 9 -27q-1 -5 -2 -6q-8 -25 -50 -27h-211q-66 -293 -241 -438q137 0 214 -58q54 -41 93 -47q14 -1 27 -1q95 0 189 77q20 17 35 33q23 -6 30 -22q-102 -156 -266 -178q-21 -3 -43 -3q-88 0 -158 57q-65 53 -115 62 q-24 4 -51 4q-77 -2 -88 -51q-25 -65 -93 -72q-50 0 -60 39z" />
<glyph unicode="&#xa4;" d="M122 295l136 92q-63 106 -36 236q30 136 137 237l-94 90l99 86l74 -110q123 75 248 75q132 -1 218 -79l126 118l65 -88l-139 -96q59 -102 32 -233q-28 -127 -129 -232l93 -94l-95 -82l-76 109q-124 -80 -256 -80q-128 1 -217 78l-117 -115zM354 625q-34 -160 57 -243 q54 -46 133 -46q144 0 244 134q51 70 69 153q32 152 -57 238q-54 50 -129 50q-143 0 -244 -131q-55 -71 -73 -155z" />
<glyph unicode="&#xa5;" d="M158 319v3q11 31 57 32h258l37 174h-295q-11 0 -11 8q1 3 1 5q5 25 35 36q12 4 23 5h250l-124 448q-33 128 -96 154q-17 6 -34 8q-12 24 11 47q35 -1 107 -6q55 -4 69 -4q5 0 46 2q97 6 138 8q12 -24 -10 -47q-110 0 -85 -100q1 -3 1 -5l124 -450h4l234 360 q88 135 78 166q-11 24 -67 29q-12 24 10 47q34 -1 94 -6q49 -4 65 -4t50 4q49 5 84 6q14 -22 -15 -47q-81 -7 -121 -54q-15 -17 -96 -141l-277 -415h271q13 -3 13 -13l-2 -12q-8 -27 -58 -29h-256l-37 -174h291q13 -3 14 -12l-2 -8q-8 -27 -57 -29h-256l-12 -55 q-30 -142 9 -178q35 -30 155 -35q12 -24 -10 -47q-48 1 -126 5q-98 5 -159 5q-65 0 -169 -5q-81 -4 -126 -5q-12 24 10 47q142 5 187 49q41 43 67 164l12 55h-295q-11 4 -9 14z" />
<glyph unicode="&#xa6;" horiz-adv-x="432" d="M78 -412l158 742h100l-157 -742h-101zM302 639l157 741h101l-158 -741h-100z" />
<glyph unicode="&#xa7;" horiz-adv-x="968" d="M176 -145q20 76 84 77q55 -3 60 -84q11 -151 113 -153q94 0 168 97q34 47 45 95q27 141 -141 244q-143 86 -179 117q-143 125 -105 309q34 153 227 291q-82 97 -54 233q1 4 1 6q29 138 168 212q93 48 207 49q177 0 225 -119q17 -45 9 -88q-20 -76 -78 -78q-50 0 -63 64 q-2 11 -3 20q-11 151 -113 153q-94 0 -167 -95q-34 -47 -45 -95q-27 -141 141 -244q143 -86 179 -116q143 -125 105 -310q-37 -165 -224 -298q78 -98 49 -234q-29 -138 -167 -212q-93 -48 -207 -48q-177 0 -226 118q-17 45 -9 89zM348 635q-33 -157 104 -271q34 -28 121 -85 q86 -58 134 -105q94 74 122 174l3 12q33 157 -104 271q-34 28 -121 86q-81 54 -129 99q-109 -89 -130 -181z" />
<glyph unicode="&#xa8;" horiz-adv-x="776" d="M353 1136q-4 21 0 42q13 63 76 89q20 9 41 9q59 0 74 -55q5 -22 1 -43q-14 -64 -78 -89q-20 -7 -38 -8q-61 0 -76 55zM699 1136q-4 21 0 42q13 63 76 89q20 9 41 9q59 0 74 -55q5 -22 1 -43q-14 -64 -78 -89q-20 -7 -38 -8q-61 0 -76 55z" />
<glyph unicode="&#xa9;" horiz-adv-x="1423" d="M203 627q52 244 269 414q208 162 441 163q239 0 376 -167q139 -172 89 -410q-52 -243 -267 -415q-209 -164 -444 -165q-240 0 -377 170q-137 172 -87 410zM285 627q-48 -227 81 -380q117 -134 315 -134q232 0 420 175q154 146 195 339q49 229 -83 380q-117 131 -314 132 q-237 0 -424 -178q-149 -144 -190 -334zM470 623q28 125 118 207q118 105 272 106q93 0 190 -26l23 -5q-12 -76 -36 -170q-17 -8 -43 -8q-18 113 -67 143q-34 19 -85 19q-142 0 -207 -169q-15 -39 -24 -83q-33 -154 47 -229q41 -36 97 -37q114 1 206 102q18 -6 32 -31 q-90 -105 -221 -127q-25 -4 -48 -4q-122 1 -194 72q-90 93 -60 240z" />
<glyph unicode="&#xaa;" horiz-adv-x="628" d="M250 877q29 122 248 176l125 30q30 167 -74 170q-103 0 -121 -50q-1 -3 -1 -5q-3 -18 -2 -27q2 -10 -1 -24q-7 -32 -45 -41q-10 -2 -17 -2q-42 0 -44 37q0 8 1 14q15 71 129 121q64 28 116 29q202 0 173 -205q-2 -15 -6 -29l-32 -153q-23 -115 4 -117q15 1 26 10 q19 -11 14 -33q-51 -44 -106 -45q-58 0 -68 60q-1 11 -1 20q-99 -74 -168 -79q-12 -1 -23 -1q-98 0 -124 74q-10 33 -3 70zM358 883q-12 -81 74 -84q57 2 145 67l35 162q-203 -50 -241 -111q-9 -16 -13 -34z" />
<glyph unicode="&#xab;" horiz-adv-x="1112" d="M243 428q139 -152 299 -375q29 6 45 39q-94 211 -186 348q153 140 334 348q-4 34 -29 39q-258 -226 -458 -374zM611 428q139 -152 299 -375q29 6 46 39q-95 211 -187 348q153 140 335 348q-4 34 -29 39q-258 -226 -459 -374z" />
<glyph unicode="&#xac;" horiz-adv-x="1226" d="M223 662q-2 52 19 90h1050l-116 -549q-67 -22 -111 0l98 459h-940z" />
<glyph unicode="&#xad;" horiz-adv-x="692" d="M186 484v8q10 49 51 67q8 4 16 4h448q26 0 26 -12q0 -5 -1 -8q-7 -33 -45 -60q-15 -9 -25 -10h-443q-27 0 -27 11z" />
<glyph unicode="&#xae;" horiz-adv-x="1423" d="M203 627q52 244 269 414q208 162 441 163q239 0 376 -167q139 -172 89 -410q-52 -243 -267 -415q-209 -164 -444 -165q-240 0 -377 170q-137 172 -87 410zM285 627q-48 -227 81 -380q117 -134 315 -134q232 0 420 175q154 146 195 339q49 229 -83 380q-117 131 -314 132 q-237 0 -424 -178q-149 -144 -190 -334zM480 342q-11 14 6 43q3 4 5 6q68 6 85 40q8 17 14 44l65 303q13 62 -18 75q-16 6 -46 9q-11 14 6 43q3 4 4 6q72 -4 130 -4q15 0 67 2q60 2 82 2q150 0 164 -105q3 -24 -2 -48q-22 -106 -136 -147l-13 -5l62 -168q24 -57 78 -49 q8 -13 1 -35q-39 -14 -77 -14q-79 3 -108 78l-64 164q-9 8 -74 8l-24 -115q-13 -62 17 -75q16 -6 47 -9q11 -14 -6 -43q-3 -4 -5 -6q-73 4 -128 4q-58 0 -132 -4zM722 639h86q87 0 115 89q5 15 8 30q18 102 -80 104q-68 0 -92 -56l-5 -13z" />
<glyph unicode="&#xaf;" horiz-adv-x="813" d="M358 1114q8 38 42 55q9 4 15 5h500q26 -3 23 -29q-8 -37 -44 -56q-11 -5 -19 -6h-499q-22 3 -18 31z" />
<glyph unicode="&#xb0;" horiz-adv-x="546" d="M291 1042q24 114 134 176q58 31 115 31q108 0 149 -90q23 -54 10 -117q-24 -112 -131 -172q-58 -31 -116 -32q-107 0 -149 89q-25 53 -12 115zM360 1040q-19 -87 44 -125q27 -15 62 -16q90 0 141 87q16 27 22 54q19 92 -40 131q-27 16 -62 17q-96 0 -147 -94 q-14 -27 -20 -54z" />
<glyph unicode="&#xb1;" horiz-adv-x="1079" d="M144 43l19 90h809l-19 -90h-809zM264 604l19 90h354l77 363h94l-77 -363h361l-19 -90h-361l-77 -360h-94l77 360h-354z" />
<glyph unicode="&#xb2;" horiz-adv-x="628" d="M251 745q29 125 231 261q121 83 157 142q23 40 34 89q16 106 -79 111q-80 -1 -108 -43q-2 -3 -14 -53q-1 -5 -3 -7q-17 -42 -64 -43q-33 0 -42 30q-2 10 -1 19q14 66 93 115q70 42 160 43q158 0 185 -96q8 -34 0 -74q-22 -102 -175 -205l-59 -39q-122 -77 -174 -184h170 q60 0 129 114q4 6 14 23q33 0 47 -10q-38 -114 -79 -193h-422z" />
<glyph unicode="&#xb3;" horiz-adv-x="628" d="M253 821q18 38 60 45q43 -3 54 -35q27 -34 87 -36q126 0 171 117q7 20 12 40q24 124 -127 125q-12 0 -42 -4q-10 20 7 55q138 18 173 133q3 9 5 17q13 59 -49 68q-8 1 -14 2q-70 0 -109 -40q-5 -6 -8 -10l-9 -15q-25 -42 -59 -44q-38 0 -40 32v5q10 46 80 87 q77 45 182 46q138 0 150 -83q2 -19 -1 -38q-20 -82 -134 -139q84 -8 116 -78q20 -46 9 -102q-29 -138 -173 -202q-76 -33 -162 -34q-97 0 -153 38q-30 23 -26 50z" />
<glyph unicode="&#xb4;" horiz-adv-x="698" d="M399 1026q0 4 1 6q7 23 35 58l207 243q14 4 29 4q64 -3 103 -47l1 -22l-283 -224q-47 -39 -69 -38q-22 0 -24 20z" />
<glyph unicode="&#xb5;" horiz-adv-x="995" d="M23 -346q7 32 66 201q25 72 37 129q6 29 15 105q14 118 28 185l82 385q5 25 11.5 80.5t10.5 97.5l4 42q7 0 155 18q10 1 17 2q0 -2 -35 -197l-86 -401q-45 -227 93 -229q121 0 247 106q25 21 42 41l140 660q11 0 144 18q8 1 14 2l-138 -651q-28 -132 -1 -162 q17 -16 45 -16q32 0 65 27q7 4 9 5q13 0 17 -22q0 -5 -1 -8q-3 -16 -58 -51q-68 -41 -131 -41q-131 0 -126 128q0 9 1 15h-4q-153 -142 -314 -143q-86 1 -116 47q-22 -2 -29 -19q-15 -68 -7 -251q3 -77 -5 -113q-35 -112 -110 -123q-38 0 -68 45q-24 40 -14 88z" />
<glyph unicode="&#xb6;" horiz-adv-x="1232" d="M313 881q2 50 13 104q34 162 181 260q122 80 281 80q96 0 241 -3q66 -1 87 -1q265 0 364 4l3 -4l-8 -39q-5 -14 -20 -16l-54 -4q-98 -8 -121 -56q-6 -14 -10 -30l-320 -1506q-13 -63 42 -78q21 -5 52 -8l53 -4q13 -5 12 -16l-8 -39l-5 -4q-99 4 -361.5 4t-363.5 -4l-3 4 l8 39q6 14 18 16l56 4q98 7 121 59q5 13 8 27l194 914q-31 -6 -67 -6q-400 0 -393 303zM682 -330q-12 -76 65 -78q83 4 100 78l320 1506q13 76 -67 77q-81 -3 -99 -77z" />
<glyph unicode="&#xb7;" horiz-adv-x="512" d="M258 528q13 63 81 97q28 13 53 14q60 0 82 -56q10 -27 5 -55q-13 -63 -81 -97q-28 -12 -53 -13q-60 0 -83 56q-10 27 -4 54z" />
<glyph unicode="&#xb8;" horiz-adv-x="1107" d="M363 -375q9 34 32 53q73 -28 112 -28q98 0 120 74q1 5 2 8q11 69 -52 71q-54 -1 -95 -12l-10 12l124 197h70l-81 -137q27 6 55 6q96 0 117 -70q7 -27 1 -57q-19 -89 -132 -131q-57 -20 -119 -21q-74 1 -144 35z" />
<glyph unicode="&#xb9;" horiz-adv-x="628" d="M318 745q-9 28 13 60q102 5 135 40q24 28 35 75l56 266q16 77 -1 82q-6 2 -10 2q-34 -1 -123 -31q-16 18 -9 55q140 48 264 115q26 10 37 0l-104 -489q-20 -92 34 -108q18 -5 54 -7q7 -31 -12 -60q-63 2 -172 3q-136 0 -197 -3z" />
<glyph unicode="&#xba;" horiz-adv-x="714" d="M267 879q37 172 187 245q74 35 159 35q168 0 210 -132q19 -62 3 -136q-30 -142 -156 -219q-84 -50 -186 -51q-140 0 -198 105q-36 69 -19 153zM390 899q-27 -126 34 -193q36 -37 93 -38q83 0 140 84q30 46 44 106q43 204 -65 246q-23 8 -49 8q-109 0 -171 -133 q-17 -39 -26 -80z" />
<glyph unicode="&#xbb;" horiz-adv-x="1112" d="M196 92q4 -34 28 -39q258 226 459 375l5 25q-139 152 -299 374q-29 -6 -45 -39q94 -211 186 -348q-153 -140 -334 -348zM564 92q4 -34 29 -39q258 226 458 375l6 25q-139 152 -299 374q-29 -6 -46 -39q94 -211 186 -348q-153 -140 -334 -348z" />
<glyph unicode="&#xbc;" horiz-adv-x="1351" d="M177 -111l1225 1342l81 -17l-1223 -1341zM291 645q-9 28 12 60q102 5 136 40q24 28 34 74l57 266q16 77 -2 83q-5 1 -9 1q-34 -1 -123 -30q-16 18 -9 55q140 48 264 115q26 10 37 0l-104 -490q-20 -92 34 -107q18 -5 54 -7q7 -31 -13 -60q-63 2 -171 2q-136 0 -197 -2z M793 61l411 447l59 -21l-302 -330q-30 -33 -45 -51h188l25 117q4 13 24 37q40 39 62 41q26 0 25 -16q0 -3 -1 -4l-37 -175h115l-27 -69h-103l-10 -49q-16 -73 29 -87q18 -5 55 -7q7 -31 -12 -60q-63 2 -155 2q-96 0 -156 -2q-9 28 12 60q83 4 104 31q16 22 25 63l10 49h-293 z" />
<glyph unicode="&#xbd;" horiz-adv-x="1351" d="M128 -111l1223 1342l83 -17l-1225 -1341zM295 645q-9 28 12 60q102 5 136 40q24 28 34 74l57 266q16 77 -2 83q-5 1 -9 1q-34 -1 -123 -30q-16 18 -9 55q140 48 264 115q26 10 37 0l-104 -490q-20 -92 34 -107q18 -5 54 -7q7 -31 -13 -60q-63 2 -171 2q-136 0 -197 -2z M791 -162q29 125 231 260q121 83 157 142q23 40 34 90q16 106 -79 110q-80 -1 -107 -43q-2 -3 -15 -52q-1 -5 -2 -7q-18 -42 -65 -43q-33 0 -42 30q-2 10 0 19q14 66 93 115q70 42 159 43q158 0 185 -96q8 -34 0 -74q-22 -102 -174 -206q-27 -18 -60 -38q-122 -77 -174 -184 h170q60 0 130 114q4 6 14 23q33 0 47 -10q-38 -114 -80 -193h-422z" />
<glyph unicode="&#xbe;" horiz-adv-x="1351" d="M187 -111l1226 1342l80 -17l-1223 -1341zM226 716q18 38 61 46q43 -3 54 -35q27 -34 86 -37q126 0 172 118q7 20 11 40q24 124 -127 125q-12 0 -42 -4q-10 20 8 55q138 18 173 132q2 10 4 18q13 59 -48 68q-8 1 -15 1q-70 0 -109 -39q-5 -6 -8 -10q-3 -5 -8 -15 q-25 -42 -60 -44q-38 0 -39 32v4q10 46 79 88q77 45 183 46q138 0 150 -84q2 -19 -2 -37q-20 -82 -134 -140q84 -8 117 -77q20 -46 9 -103q-29 -138 -173 -202q-75 -33 -162 -33q-97 0 -154 38q-30 23 -26 49zM802 66l411 446l59 -20l-302 -331l-45 -50h188l25 116 q4 13 24 37q41 41 62 41q26 0 25 -16q0 -3 -1 -4l-37 -174h115l-27 -70h-102l-11 -49q-16 -73 29 -87q18 -5 56 -7q7 -31 -13 -60q-63 2 -155 2q-96 0 -156 -2q-9 28 12 60q83 4 104 31q16 22 25 63l10 49h-293z" />
<glyph unicode="&#xbf;" horiz-adv-x="860" d="M97 -162q32 151 217 279l64 43q95 64 124 102q39 57 59 150l19 90q7 19 37 20q27 -3 26 -20l-20 -94q-38 -178 -163 -294q-21 -19 -42 -36q-122 -98 -153 -193q-6 -20 -11 -39q-29 -136 38 -218q40 -47 98 -48q118 0 186 75q23 27 29 52q8 41 1 53q-8 18 -1 50 q12 58 73 69q10 2 18 2q61 0 64 -57q0 -15 -3 -31q-24 -104 -138 -184q-108 -79 -260 -80q-194 0 -252 136q-30 75 -10 173zM571 791q10 49 71 82q30 16 57 16q51 0 71 -54q10 -27 5 -53q-11 -52 -77 -84q-28 -13 -51 -14q-55 0 -73 58q-7 25 -3 49z" />
<glyph unicode="&#xc0;" horiz-adv-x="1431" d="M17 -10q-12 24 10 47q113 8 179 76q30 32 58 75l713 1119q39 1 115 41l175 -1192q13 -91 94 -110q23 -5 65 -9q12 -24 -10 -47q-31 1 -96 4q-99 6 -150 6q-48 0 -166 -6q-74 -4 -104 -4q-12 24 10 47q122 9 148 27q27 22 23 63l-50 377h-427q-55 -2 -82 -45l-190 -318 q-52 -86 87 -101q15 -2 32 -3q12 -24 -10 -47q-32 1 -90 5q-80 5 -129 5q-45 0 -115 -5q-57 -4 -90 -5zM611 607q-8 -34 44 -38h366l-76 568h-6zM854 1583q77 61 175 92l211 -172q25 -24 22 -43q-11 -26 -37 -30q-33 1 -83 24z" />
<glyph unicode="&#xc1;" horiz-adv-x="1431" d="M17 -10q-12 24 10 47q113 8 179 76q30 32 58 75l713 1119q39 1 115 41l175 -1192q13 -91 94 -110q23 -5 65 -9q12 -24 -10 -47q-31 1 -96 4q-99 6 -150 6q-48 0 -166 -6q-74 -4 -104 -4q-12 24 10 47q122 9 148 27q27 22 23 63l-50 377h-427q-55 -2 -82 -45l-190 -318 q-52 -86 87 -101q15 -2 32 -3q12 -24 -10 -47q-32 1 -90 5q-80 5 -129 5q-45 0 -115 -5q-57 -4 -90 -5zM611 607q-8 -34 44 -38h366l-76 568h-6zM828 1460q4 21 35 41q3 2 5 2l291 176q79 -43 104 -106l-320 -119q-63 -24 -91 -24q-27 3 -24 30z" />
<glyph unicode="&#xc2;" horiz-adv-x="1431" d="M17 -10q-12 24 10 47q113 8 179 76q30 32 58 75l713 1119q39 1 115 41l175 -1192q13 -91 94 -110q23 -5 65 -9q12 -24 -10 -47q-31 1 -96 4q-99 6 -150 6q-48 0 -166 -6q-74 -4 -104 -4q-12 24 10 47q122 9 148 27q27 22 23 63l-50 377h-427q-55 -2 -82 -45l-190 -318 q-52 -86 87 -101q15 -2 32 -3q12 -24 -10 -47q-32 1 -90 5q-80 5 -129 5q-45 0 -115 -5q-57 -4 -90 -5zM611 607q-8 -34 44 -38h366l-76 568h-6zM802 1456q98 64 249 199q43 20 80 0q68 -108 169 -199q-19 -33 -42 -43q-121 63 -191 125q-112 -70 -245 -125q-19 17 -20 43z " />
<glyph unicode="&#xc3;" horiz-adv-x="1431" d="M17 -10q-12 24 10 47q113 8 179 76q30 32 58 75l713 1119q39 1 115 41l175 -1192q13 -91 94 -110q23 -5 65 -9q12 -24 -10 -47q-31 1 -96 4q-99 6 -150 6q-48 0 -166 -6q-74 -4 -104 -4q-12 24 10 47q122 9 148 27q27 22 23 63l-50 377h-427q-55 -2 -82 -45l-190 -318 q-52 -86 87 -101q15 -2 32 -3q12 -24 -10 -47q-32 1 -90 5q-80 5 -129 5q-45 0 -115 -5q-57 -4 -90 -5zM611 607q-8 -34 44 -38h366l-76 568h-6zM750 1384q92 199 207 201q52 0 118 -57q10 -9 14 -12q46 -38 99 -39q52 0 92 61q13 20 26 45q33 2 53 -12q-85 -201 -221 -203 q-37 0 -104 55q-9 7 -13 11q-56 38 -103 39q-59 0 -100 -72l-15 -27q-39 -5 -53 10z" />
<glyph unicode="&#xc4;" horiz-adv-x="1431" d="M17 -10q-12 24 10 47q113 8 179 76q30 32 58 75l713 1119q39 1 115 41l175 -1192q13 -91 94 -110q23 -5 65 -9q12 -24 -10 -47q-31 1 -96 4q-99 6 -150 6q-48 0 -166 -6q-74 -4 -104 -4q-12 24 10 47q122 9 148 27q27 22 23 63l-50 377h-427q-55 -2 -82 -45l-190 -318 q-52 -86 87 -101q15 -2 32 -3q12 -24 -10 -47q-32 1 -90 5q-80 5 -129 5q-45 0 -115 -5q-57 -4 -90 -5zM611 607q-8 -34 44 -38h366l-76 568h-6zM703 1446q13 62 75 89q23 9 44 9q60 0 76 -55q5 -22 1 -43q-13 -62 -76 -89q-23 -9 -43 -9q-60 0 -76 54q-5 22 -1 44z M1188 1446q13 62 76 89q23 9 43 9q60 0 76 -55q5 -22 2 -43q-13 -62 -76 -89q-23 -9 -44 -9q-60 0 -76 54q-5 22 -1 44z" />
<glyph unicode="&#xc5;" horiz-adv-x="1431" d="M17 -10q-12 24 10 47q113 8 179 76q30 32 58 75l706 1108q-80 26 -96 106q-5 30 1 60q20 93 117 147q51 27 100 27q92 0 132 -76q22 -46 12 -98q-20 -94 -117 -147q-11 -6 -20 -10l168 -1149q13 -91 94 -110q23 -5 65 -9q12 -24 -10 -47q-31 1 -96 4q-99 6 -150 6 q-48 0 -166 -6q-74 -4 -104 -4q-12 24 10 47q122 9 148 27q27 22 23 63l-50 377h-427q-55 -2 -82 -45l-190 -318q-52 -86 87 -101q15 -2 32 -3q12 -24 -10 -47q-32 1 -90 5q-80 5 -129 5q-45 0 -115 -5q-57 -4 -90 -5zM611 607q-8 -34 44 -38h366l-76 568h-6zM957 1462 q-17 -79 41 -102q17 -6 34 -6q76 0 112 77q7 16 10 31q18 86 -47 105q-14 4 -28 4q-83 0 -115 -85q-4 -13 -7 -24z" />
<glyph unicode="&#xc6;" horiz-adv-x="1824" d="M-8 -10q-12 24 10 47q150 13 270 172l695 932q65 87 -6 125q-33 16 -86 18q-12 24 10 47q45 -1 169 -5q149 -5 185 -5h612q24 0 103 14q6 -3 7 -6q2 -63 -20 -303q-33 -12 -49 -10q-16 150 -47 194q-42 54 -131 56h-318q-69 -3 -92 -90l-99 -447l238 2q140 1 174 38 q21 25 41 99q27 17 47 0q-6 -26 -20 -72q-19 -65 -27 -104q-7 -33 -12.5 -80t-11.5 -80q-27 -17 -47 0q12 83 -13 107q-34 29 -144 31l-238 2l-107 -525q-1 -4 -1 -6q-12 -86 55 -88h319q187 3 331 295q25 6 45 -7q3 -2 4 -3q-66 -177 -150 -348q-2 0 -260 10h-460 q-31 0 -121 -4q-98 -5 -148 -6q-12 24 10 47q117 5 152 35q38 36 66 151q33 132 75 332h-384l-289 -393q-54 -73 45 -110q34 -12 72 -15q12 -24 -10 -47q-31 1 -95 4q-96 6 -146 6q-45 0 -115 -5q-56 -4 -88 -5zM659 614h355l1 2v2l1 2v2v2l1 2v2l1 2v2l1 2v2v2l1 2v2l1 2v2 l1 2v3v2l1 2v2q61 284 90 441q25 135 10 147z" />
<glyph unicode="&#xc7;" horiz-adv-x="1327" d="M213 645q63 299 289 495l40 34q228 173 482 174q163 0 323 -62q70 -26 106 -31q-11 -216 -23 -317q-23 -12 -49 -10q-37 362 -379 364q-153 0 -319 -125q-38 -29 -71 -61q-152 -150 -211 -422q-56 -262 36 -450q95 -190 305 -191q230 0 465 191q31 25 62 53q30 -3 41 -31 q-248 -252 -530 -275l-70 -118q27 6 55 6q96 0 117 -70q7 -27 1 -57q-19 -89 -132 -131q-57 -20 -119 -21q-74 1 -144 35q9 34 31 53q73 -28 113 -28q98 0 120 74q1 5 2 8q11 69 -52 71q-54 -1 -95 -12l-10 12l111 177q-324 9 -450 247q-95 181 -45 418z" />
<glyph unicode="&#xc8;" horiz-adv-x="1161" d="M39 -10q-12 24 10 47q116 5 149 34q37 35 67 152q40 170 96 434q58 274 89 441q23 131 -8 160q-27 22 -128 26q-12 24 10 47q51 -1 147 -6q86 -4 117 -4h598q26 0 105 14q6 -3 7 -6q2 -63 -19 -303q-33 -13 -51 -10q-16 149 -45 192q-41 56 -132 58h-319q-67 0 -92 -81 l-3 -9l-99 -447l240 2q140 1 175 37q23 25 43 100q27 19 45 0q-6 -25 -19 -69q-19 -67 -27 -107q-7 -34 -14 -82q-6 -46 -12 -78q-27 -19 -45 0q12 84 -14 108q-35 28 -145 30l-239 2l-108 -525q-1 -4 -1 -6q-8 -83 57 -88h320q189 3 333 295q25 5 42 -7q3 -2 5 -3 q-72 -193 -148 -348q-2 0 -260 10h-455q-31 0 -123 -4q-100 -5 -149 -6zM650 1581q77 61 175 92l212 -172q25 -24 21 -43q-11 -26 -37 -31q-33 1 -83 25z" />
<glyph unicode="&#xc9;" horiz-adv-x="1161" d="M39 -10q-12 24 10 47q116 5 149 34q37 35 67 152q40 170 96 434q58 274 89 441q23 131 -8 160q-27 22 -128 26q-12 24 10 47q51 -1 147 -6q86 -4 117 -4h598q26 0 105 14q6 -3 7 -6q2 -63 -19 -303q-33 -13 -51 -10q-16 149 -45 192q-41 56 -132 58h-319q-67 0 -92 -81 l-3 -9l-99 -447l240 2q140 1 175 37q23 25 43 100q27 19 45 0q-6 -25 -19 -69q-19 -67 -27 -107q-7 -34 -14 -82q-6 -46 -12 -78q-27 -19 -45 0q12 84 -14 108q-35 28 -145 30l-239 2l-108 -525q-1 -4 -1 -6q-8 -83 57 -88h320q189 3 333 295q25 5 42 -7q3 -2 5 -3 q-72 -193 -148 -348q-2 0 -260 10h-455q-31 0 -123 -4q-100 -5 -149 -6zM711 1460q4 21 35 41q3 2 4 2l292 176q79 -43 104 -106l-320 -119q-63 -24 -91 -24q-27 3 -24 30z" />
<glyph unicode="&#xca;" horiz-adv-x="1161" d="M39 -10q-12 24 10 47q116 5 149 34q37 35 67 152q40 170 96 434q58 274 89 441q23 131 -8 160q-27 22 -128 26q-12 24 10 47q51 -1 147 -6q86 -4 117 -4h598q26 0 105 14q6 -3 7 -6q2 -63 -19 -303q-33 -13 -51 -10q-16 149 -45 192q-41 56 -132 58h-319q-67 0 -92 -81 l-3 -9l-99 -447l240 2q140 1 175 37q23 25 43 100q27 19 45 0q-6 -25 -19 -69q-19 -67 -27 -107q-7 -34 -14 -82q-6 -46 -12 -78q-27 -19 -45 0q12 84 -14 108q-35 28 -145 30l-239 2l-108 -525q-1 -4 -1 -6q-8 -83 57 -88h320q189 3 333 295q25 5 42 -7q3 -2 5 -3 q-72 -193 -148 -348q-2 0 -260 10h-455q-31 0 -123 -4q-100 -5 -149 -6zM636 1456q98 64 249 199q43 20 80 0q68 -108 169 -199q-19 -33 -42 -43q-121 63 -191 125q-112 -70 -246 -125q-19 17 -19 43z" />
<glyph unicode="&#xcb;" horiz-adv-x="1161" d="M39 -10q-12 24 10 47q116 5 149 34q37 35 67 152q40 170 96 434q58 274 89 441q23 131 -8 160q-27 22 -128 26q-12 24 10 47q51 -1 147 -6q86 -4 117 -4h598q26 0 105 14q6 -3 7 -6q2 -63 -19 -303q-33 -13 -51 -10q-16 149 -45 192q-41 56 -132 58h-319q-67 0 -92 -81 l-3 -9l-99 -447l240 2q140 1 175 37q23 25 43 100q27 19 45 0q-6 -25 -19 -69q-19 -67 -27 -107q-7 -34 -14 -82q-6 -46 -12 -78q-27 -19 -45 0q12 84 -14 108q-35 28 -145 30l-239 2l-108 -525q-1 -4 -1 -6q-8 -83 57 -88h320q189 3 333 295q25 5 42 -7q3 -2 5 -3 q-72 -193 -148 -348q-2 0 -260 10h-455q-31 0 -123 -4q-100 -5 -149 -6zM636 1550q13 62 75 89q23 9 44 10q60 0 76 -55q5 -22 1 -44q-13 -62 -76 -89q-23 -9 -43 -9q-60 0 -76 55q-5 21 -1 43zM1023 1550q13 62 75 89q23 9 44 10q60 0 76 -55q5 -22 1 -44q-13 -62 -76 -89 q-23 -9 -43 -9q-60 0 -76 55q-5 21 -1 43z" />
<glyph unicode="&#xcc;" horiz-adv-x="620" d="M38 -10q-12 24 10 47q117 5 152 35q38 36 66 151q61 257 98 434q40 187 87 441q25 132 -10 161q-28 21 -128 25q-12 24 10 47q46 -1 118 -5q88 -5 144 -5q58 0 150 5q75 4 118 5q12 -24 -10 -47q-117 -5 -151 -35q-38 -36 -66 -151q-50 -208 -101 -443q-38 -181 -85 -432 q-25 -132 10 -161q28 -21 128 -25q12 -24 -10 -47q-46 1 -118 5q-88 5 -144 5q-58 0 -150 -5q-75 -4 -118 -5zM384 1581q77 61 175 92l211 -172q25 -24 22 -43q-11 -26 -37 -31q-33 1 -83 25z" />
<glyph unicode="&#xcd;" horiz-adv-x="620" d="M38 -10q-12 24 10 47q117 5 152 35q38 36 66 151q61 257 98 434q40 187 87 441q25 132 -10 161q-28 21 -128 25q-12 24 10 47q46 -1 118 -5q88 -5 144 -5q58 0 150 5q75 4 118 5q12 -24 -10 -47q-117 -5 -151 -35q-38 -36 -66 -151q-50 -208 -101 -443q-38 -181 -85 -432 q-25 -132 10 -161q28 -21 128 -25q12 -24 -10 -47q-46 1 -118 5q-88 5 -144 5q-58 0 -150 -5q-75 -4 -118 -5zM395 1458q4 21 35 41q3 2 5 2l291 176q79 -43 104 -106l-320 -119q-63 -24 -91 -25q-27 3 -24 31z" />
<glyph unicode="&#xce;" horiz-adv-x="620" d="M38 -10q-12 24 10 47q117 5 152 35q38 36 66 151q61 257 98 434q40 187 87 441q25 132 -10 161q-28 21 -128 25q-12 24 10 47q46 -1 118 -5q88 -5 144 -5q58 0 150 5q75 4 118 5q12 -24 -10 -47q-117 -5 -151 -35q-38 -36 -66 -151q-50 -208 -101 -443q-38 -181 -85 -432 q-25 -132 10 -161q28 -21 128 -25q12 -24 -10 -47q-46 1 -118 5q-88 5 -144 5q-58 0 -150 -5q-75 -4 -118 -5zM362 1456q98 64 249 199q42 20 79 0q68 -108 169 -199q-19 -33 -42 -43q-121 63 -190 125q-112 -70 -246 -125q-19 17 -19 43z" />
<glyph unicode="&#xcf;" horiz-adv-x="620" d="M38 -10q-12 24 10 47q117 5 152 35q38 36 66 151q61 257 98 434q40 187 87 441q25 132 -10 161q-28 21 -128 25q-12 24 10 47q46 -1 118 -5q88 -5 144 -5q58 0 150 5q75 4 118 5q12 -24 -10 -47q-117 -5 -151 -35q-38 -36 -66 -151q-50 -208 -101 -443q-38 -181 -85 -432 q-25 -132 10 -161q28 -21 128 -25q12 -24 -10 -47q-46 1 -118 5q-88 5 -144 5q-58 0 -150 -5q-75 -4 -118 -5zM349 1550q13 62 76 89q23 9 43 10q60 0 76 -55q5 -22 1 -44q-13 -62 -76 -89q-23 -9 -43 -9q-60 0 -76 55q-5 21 -1 43zM736 1550q13 62 76 89q23 9 43 10 q60 0 76 -55q5 -22 1 -44q-13 -62 -75 -89q-23 -9 -44 -9q-60 0 -76 55q-5 21 -1 43z" />
<glyph unicode="&#xd0;" horiz-adv-x="1443" d="M39 -10q-12 24 10 47q116 5 150 34q38 35 66 152q80 338 91 393h-180q-9 0 -9 5q1 5 1 8l9 22q15 28 51 29h142q19 89 80 418q25 130 -8 160q-27 22 -128 26q-12 24 10 47q46 -1 117 -5q88 -5 143 -5q33 0 130 4q150 6 228 6q281 0 446 -192q164 -191 124 -463 q-4 -24 -8 -45q-88 -416 -453 -571q-167 -71 -357 -70q-23 0 -355 9q-18 1 -32 1q-58 0 -150 -5q-75 -4 -118 -5zM441 223q-20 -108 10 -141q41 -42 190 -43q396 0 573 293q65 108 95 250q62 293 -47 489q-121 210 -408 211q-146 0 -186 -62q-19 -30 -41 -122 q-80 -337 -97 -418h167q13 -4 12 -12l-13 -35q-9 -16 -47 -17h-133q-39 -188 -75 -393z" />
<glyph unicode="&#xd1;" horiz-adv-x="1427" d="M38 -10q-12 24 10 47q119 12 154 43q42 40 68 166l190 880q-14 141 -140 152q-12 24 10 47l263 -4l510 -905q59 -103 65 -108q6 -4 10 -5q25 4 37 62l149 710q30 143 -6 177q-27 22 -128 32q-12 24 10 47q49 -1 112 -5q63 -5 105 -5q45 0 111 4.5t113 5.5q12 -24 -10 -47 q-119 -12 -154 -43q-42 -40 -69 -166l-221 -1032q-11 -53 -23 -60q-8 -3 -15 -3q-46 3 -72 49l-523 903q-38 66 -55 67q-26 0 -47 -96q-1 -3 -1 -4l-137 -653q-30 -143 7 -177q27 -22 127 -32q12 -24 -10 -47q-49 1 -111 5q-63 5 -106 5q-45 0 -111 -4.5t-112 -5.5z M691 1380q92 199 206 201q52 0 118 -57q10 -9 15 -13q45 -37 98 -38q52 0 92 61q13 20 27 45q33 2 53 -12q-85 -201 -222 -203q-37 0 -103 55l-14 11q-56 38 -102 38q-59 0 -101 -71l-14 -27q-39 -5 -53 10z" />
<glyph unicode="&#xd2;" horiz-adv-x="1423" d="M209 635q60 277 234 463q219 233 503 249q18 1 37 1q297 0 438 -194q134 -186 72 -480q-57 -262 -215 -436q-248 -250 -574 -258q-274 0 -415 182q-140 185 -80 473zM400 670q-67 -316 77 -504q108 -137 279 -137q198 0 359 199q133 166 185 407q74 349 -76 536 q-105 126 -278 127q-160 0 -312 -156q-171 -178 -234 -472zM799 1585q77 61 175 92l211 -172q25 -24 22 -43q-11 -26 -37 -30q-33 1 -83 24z" />
<glyph unicode="&#xd3;" horiz-adv-x="1423" d="M209 635q60 277 234 463q219 233 503 249q18 1 37 1q297 0 438 -194q134 -186 72 -480q-57 -262 -215 -436q-248 -250 -574 -258q-274 0 -415 182q-140 185 -80 473zM400 670q-67 -316 77 -504q108 -137 279 -137q198 0 359 199q133 166 185 407q74 349 -76 536 q-105 126 -278 127q-160 0 -312 -156q-171 -178 -234 -472zM813 1460q4 21 36 41q3 2 4 2l291 176q79 -43 105 -106l-320 -119q-63 -24 -92 -24q-27 3 -24 30z" />
<glyph unicode="&#xd4;" horiz-adv-x="1423" d="M209 635q60 277 234 463q219 233 503 249q18 1 37 1q297 0 438 -194q134 -186 72 -480q-57 -262 -215 -436q-248 -250 -574 -258q-274 0 -415 182q-140 185 -80 473zM400 670q-67 -316 77 -504q108 -137 279 -137q198 0 359 199q133 166 185 407q74 349 -76 536 q-105 126 -278 127q-160 0 -312 -156q-171 -178 -234 -472zM747 1456q98 64 249 199q43 20 80 0q68 -108 168 -199q-19 -33 -41 -43q-121 63 -191 125q-112 -70 -246 -125q-19 17 -19 43z" />
<glyph unicode="&#xd5;" horiz-adv-x="1423" d="M209 635q60 277 234 463q219 233 503 249q18 1 37 1q297 0 438 -194q134 -186 72 -480q-57 -262 -215 -436q-248 -250 -574 -258q-274 0 -415 182q-140 185 -80 473zM400 670q-67 -316 77 -504q108 -137 279 -137q198 0 359 199q133 166 185 407q74 349 -76 536 q-105 126 -278 127q-160 0 -312 -156q-171 -178 -234 -472zM669 1380q92 199 207 201q52 0 118 -57q10 -9 14 -13q46 -37 99 -38q52 0 92 61q13 20 26 45q33 2 53 -12q-85 -201 -221 -203q-37 0 -104 55q-9 7 -13 11q-56 38 -103 38q-59 0 -100 -71l-15 -27q-39 -5 -53 10z " />
<glyph unicode="&#xd6;" horiz-adv-x="1423" d="M209 635q60 277 234 463q219 233 503 249q18 1 37 1q297 0 438 -194q134 -186 72 -480q-57 -262 -215 -436q-248 -250 -574 -258q-274 0 -415 182q-140 185 -80 473zM400 670q-67 -316 77 -504q108 -137 279 -137q198 0 359 199q133 166 185 407q74 349 -76 536 q-105 126 -278 127q-160 0 -312 -156q-171 -178 -234 -472zM506 1446q13 62 76 89q23 9 43 9q60 0 76 -55q5 -22 2 -43q-13 -62 -76 -89q-23 -9 -44 -9q-60 0 -76 54q-5 22 -1 44zM1344 1446q13 62 76 89q23 9 43 9q60 0 76 -55q5 -22 1 -43q-13 -62 -76 -89q-23 -9 -43 -9 q-60 0 -76 54q-5 22 -1 44z" />
<glyph unicode="&#xd7;" horiz-adv-x="1079" d="M264 221l305 250l-198 252l84 70l197 -252l307 254l58 -68l-310 -254l198 -254l-83 -69l-196 253l-303 -249z" />
<glyph unicode="&#xd8;" horiz-adv-x="1423" d="M146 14l147 143q-145 186 -84 478q60 277 234 463q219 233 503 249q18 1 37 1q246 -1 389 -138l152 148q38 0 40 -22q1 -8 0 -19l-153 -150q146 -187 82 -493q-57 -262 -215 -436q-248 -250 -574 -258q-230 1 -371 133l-147 -144q-10 0 -16.5 1t-11 4t-7 6t-3.5 9 t-1.5 11t-0.5 14zM400 670q-47 -225 16 -392l850 828q-112 184 -320 192q-160 0 -312 -156q-171 -178 -234 -472zM442 220q93 -170 275 -189q20 -2 39 -2q198 0 359 199q133 166 185 407q50 242 -10 414z" />
<glyph unicode="&#xd9;" horiz-adv-x="1368" d="M293 1284q-12 24 10 47q45 -1 118 -5q90 -5 146 -5q58 0 151 5q75 4 118 5q12 -24 -10 -47q-120 -5 -156 -36q-39 -37 -66 -150q-31 -127 -71 -314l-49 -233q-59 -287 28 -395q94 -111 218 -113q359 0 479 433q12 43 22 91l112 531q27 126 -8 155q-27 20 -140 31 q-12 24 10 47q49 -1 112 -5q66 -5 111 -5q40 0 93 4q61 5 110 6q12 -24 -10 -47q-106 -12 -135 -36q-40 -36 -65 -150l-105 -494q-79 -370 -256 -510q-148 -114 -384 -114q-235 0 -333 149q-83 131 -35 354l37 174q58 272 89 441q25 132 -12 161q-29 21 -129 25zM786 1583 q77 61 175 92l212 -172q25 -24 21 -43q-11 -26 -37 -30q-33 1 -83 24z" />
<glyph unicode="&#xda;" horiz-adv-x="1368" d="M293 1284q-12 24 10 47q45 -1 118 -5q90 -5 146 -5q58 0 151 5q75 4 118 5q12 -24 -10 -47q-120 -5 -156 -36q-39 -37 -66 -150q-31 -127 -71 -314l-49 -233q-59 -287 28 -395q94 -111 218 -113q359 0 479 433q12 43 22 91l112 531q27 126 -8 155q-27 20 -140 31 q-12 24 10 47q49 -1 112 -5q66 -5 111 -5q40 0 93 4q61 5 110 6q12 -24 -10 -47q-106 -12 -135 -36q-40 -36 -65 -150l-105 -494q-79 -370 -256 -510q-148 -114 -384 -114q-235 0 -333 149q-83 131 -35 354l37 174q58 272 89 441q25 132 -12 161q-29 21 -129 25zM915 1458 q4 21 36 41q3 2 4 2l291 176q79 -43 105 -106l-320 -119q-63 -24 -92 -25q-27 3 -24 31z" />
<glyph unicode="&#xdb;" horiz-adv-x="1368" d="M293 1284q-12 24 10 47q45 -1 118 -5q90 -5 146 -5q58 0 151 5q75 4 118 5q12 -24 -10 -47q-120 -5 -156 -36q-39 -37 -66 -150q-31 -127 -71 -314l-49 -233q-59 -287 28 -395q94 -111 218 -113q359 0 479 433q12 43 22 91l112 531q27 126 -8 155q-27 20 -140 31 q-12 24 10 47q49 -1 112 -5q66 -5 111 -5q40 0 93 4q61 5 110 6q12 -24 -10 -47q-106 -12 -135 -36q-40 -36 -65 -150l-105 -494q-79 -370 -256 -510q-148 -114 -384 -114q-235 0 -333 149q-83 131 -35 354l37 174q58 272 89 441q25 132 -12 161q-29 21 -129 25zM796 1456 q98 64 249 199q43 20 80 0q68 -108 169 -199q-19 -33 -42 -43q-121 63 -191 125q-112 -70 -246 -125q-19 17 -19 43z" />
<glyph unicode="&#xdc;" horiz-adv-x="1368" d="M307 483l16 75l23 99q40 187 87 441q26 136 -6 164q-24 18 -102 22q-12 24 10 47q31 -1 90 -4q89 -6 141 -6q42 0 119 7q34 3 47 3q12 -24 -10 -47q-47 -6 -71 -52q-22 -44 -44 -134q-42 -174 -72 -314q-7 -31 -22 -106l-26 -127q-57 -267 9 -373q8 -13 15 -22 q95 -111 220 -113q352 0 473 419q14 49 26 105l112 531q31 148 -9 173q-11 6 -37 13q-12 24 10 47q96 -10 123 -10q39 0 92 4q60 5 109 6q12 -24 -10 -47q-104 -12 -133 -35q-40 -35 -65 -151l-105 -494q-79 -372 -261 -512q-147 -112 -381 -112q-235 0 -333 149 q-83 131 -35 354zM795 1448q14 64 78 89q20 7 39 7q61 0 75 -55q4 -21 1 -41q-14 -64 -79 -89q-20 -7 -38 -7q-61 0 -75 55q-5 20 -1 41zM1090 1448q14 64 78 89q20 7 39 7q61 0 75 -55q4 -21 1 -41q-14 -64 -79 -89q-20 -7 -38 -7q-61 0 -75 55q-5 20 -1 41z" />
<glyph unicode="&#xdd;" horiz-adv-x="1249" d="M289 1284q-13 24 8 47q23 -1 77 -4q101 -6 150 -6q47 0 139 5q71 4 105 5q12 -24 -10 -47q-109 -6 -123 -33q-10 -23 7 -71l162 -455q19 -43 50 -4l341 459q57 77 -4 94q-24 6 -70 10q-14 23 9 45q40 -1 109 -5q63 -3 86 -3q28 0 109 4q58 3 83 4q14 -23 -9 -45 q-124 -12 -189 -66q-30 -26 -57 -61l-362 -473q-36 -50 -54 -136l-63 -325q-25 -126 10 -157q31 -25 149 -29q12 -24 -10 -47q-44 1 -120 5q-100 5 -163 5q-64 0 -169 -5q-78 -4 -120 -5q-12 24 10 47q133 5 172 37q40 36 67 149l71 307q13 60 -4 101l-16 37l-173 452 q-49 129 -132 154q-27 7 -66 10zM835 1460q4 21 36 41q3 2 4 2l291 176q79 -43 105 -106l-320 -119q-63 -24 -92 -24q-27 3 -24 30z" />
<glyph unicode="&#xde;" horiz-adv-x="1079" d="M26 -10q-12 24 11 47q121 5 158 42q37 39 61 150l179 842q31 147 -14 184q-33 25 -119 29q-12 24 10 47q46 -1 117 -5q85 -5 138 -5q56 0 145 5q74 4 118 5q12 -24 -10 -47q-124 -5 -167 -61q-34 -46 -57 -152l-1 -8q149 8 192 8q353 0 375 -247q4 -58 -9 -122 q-34 -162 -177 -274q-155 -120 -380 -121q-106 0 -158 19l-21 -97q-29 -135 11 -166q30 -21 127 -26q12 -24 -10 -47q-46 1 -117 5q-85 5 -139 5q-56 0 -145 -5q-74 -4 -118 -5zM450 385q31 -10 150 -10q288 0 367 294q5 17 8 33q56 262 -148 297q-28 4 -57 5 q-108 -1 -193 -23z" />
<glyph unicode="&#xdf;" horiz-adv-x="1107" d="M55 -10q-12 24 10 47q95 5 125 40q28 36 57 152q30 123 119 537q0 23 -24 25h-104q-12 15 15 36q13 9 25 11q72 0 93 25q21 28 39 114q60 282 291 399q106 53 209 54q191 0 246 -122q22 -52 11 -106q-29 -139 -205 -268q-46 -34 -136 -92l-1 -4q161 -123 218 -211 q80 -127 50 -273q-44 -208 -198 -313q-92 -61 -195 -61q-181 0 -177 147q1 24 6 49q9 42 53 65q15 7 26 7q55 -4 44 -62q-2 -10 -26 -59q-5 -11 -7 -18q5 -69 92 -78q62 0 131 95q58 83 82 193q51 252 -211 492l6 27q178 119 236 213q34 57 49 125q29 136 -52 185 q-31 17 -71 17q-194 0 -298 -296q-25 -72 -51 -177q-73 -299 -141 -661q-2 -9 -2 -15q-27 -148 7 -175q17 -12 56 -17q12 -24 -10 -47q-44 1 -93 6q-45 4 -79 4q-45 0 -115 -5q-62 -4 -100 -5z" />
<glyph unicode="&#xe0;" horiz-adv-x="929" d="M118 138q1 21 6 42q31 147 239 232q66 27 141 43l193 41q10 5 20 43q51 238 -66 270q-15 4 -30 4q-109 0 -158 -56q-14 -18 -19 -36q-5 -26 -4 -39q3 -14 -1 -35q-8 -36 -55 -62q-26 -13 -52 -14q-57 0 -62 53q-1 14 2 27q18 84 152 151q113 55 223 56q288 0 210 -327 q-1 -4 -2 -5l-72 -290q-34 -138 4 -164q17 -10 41 -11q24 0 57 28q6 5 10 5q16 0 22 -17q1 -6 1 -9q-3 -16 -60 -50q-65 -38 -125 -38q-112 1 -123 114h-4l-46 -31q-113 -74 -189 -81q-22 -2 -46 -2q-215 0 -207 158zM276 188q-15 -73 37 -119q34 -28 83 -28q48 0 183 94 q10 7 15 10q29 21 37 50l61 239l-176 -41q-177 -41 -230 -170q-7 -18 -10 -35zM505 1278l9 22q74 46 143 48q15 -1 30 -5l88 -258q7 -26 2 -49q-9 -18 -35 -22q-18 4 -51 41z" />
<glyph unicode="&#xe1;" horiz-adv-x="929" d="M118 138q1 21 6 42q31 147 239 232q66 27 141 43l193 41q10 5 20 43q51 238 -66 270q-15 4 -30 4q-109 0 -158 -56q-14 -18 -19 -36q-5 -26 -4 -39q3 -14 -1 -35q-8 -36 -55 -62q-26 -13 -52 -14q-57 0 -62 53q-1 14 2 27q18 84 152 151q113 55 223 56q288 0 210 -327 q-1 -4 -2 -5l-72 -290q-34 -138 4 -164q17 -10 41 -11q24 0 57 28q6 5 10 5q16 0 22 -17q1 -6 1 -9q-3 -16 -60 -50q-65 -38 -125 -38q-112 1 -123 114h-4l-46 -31q-113 -74 -189 -81q-22 -2 -46 -2q-215 0 -207 158zM276 188q-15 -73 37 -119q34 -28 83 -28q48 0 183 94 q10 7 15 10q29 21 37 50l61 239l-176 -41q-177 -41 -230 -170q-7 -18 -10 -35zM543 1036v6q7 23 36 58l206 243q14 4 30 5q64 -3 102 -48l2 -22l-283 -223q-47 -39 -70 -39q-22 0 -23 20z" />
<glyph unicode="&#xe2;" horiz-adv-x="929" d="M118 138q1 21 6 42q31 147 239 232q66 27 141 43l193 41q10 5 20 43q51 238 -66 270q-15 4 -30 4q-109 0 -158 -56q-14 -18 -19 -36q-5 -26 -4 -39q3 -14 -1 -35q-8 -36 -55 -62q-26 -13 -52 -14q-57 0 -62 53q-1 14 2 27q18 84 152 151q113 55 223 56q288 0 210 -327 q-1 -4 -2 -5l-72 -290q-34 -138 4 -164q17 -10 41 -11q24 0 57 28q6 5 10 5q16 0 22 -17q1 -6 1 -9q-3 -16 -60 -50q-65 -38 -125 -38q-112 1 -123 114h-4l-46 -31q-113 -74 -189 -81q-22 -2 -46 -2q-215 0 -207 158zM276 188q-15 -73 37 -119q34 -28 83 -28q48 0 183 94 q10 7 15 10q29 21 37 50l61 239l-176 -41q-177 -41 -230 -170q-7 -18 -10 -35zM405 1057q192 173 288 286q37 7 66 0q51 -124 162 -286q-28 -29 -55 -35q-104 77 -174 170q-140 -114 -249 -170q-25 8 -38 35z" />
<glyph unicode="&#xe3;" horiz-adv-x="929" d="M118 138q1 21 6 42q31 147 239 232q66 27 141 43l193 41q10 5 20 43q51 238 -66 270q-15 4 -30 4q-109 0 -158 -56q-14 -18 -19 -36q-5 -26 -4 -39q3 -14 -1 -35q-8 -36 -55 -62q-26 -13 -52 -14q-57 0 -62 53q-1 14 2 27q18 84 152 151q113 55 223 56q288 0 210 -327 q-1 -4 -2 -5l-72 -290q-34 -138 4 -164q17 -10 41 -11q24 0 57 28q6 5 10 5q16 0 22 -17q1 -6 1 -9q-3 -16 -60 -50q-65 -38 -125 -38q-112 1 -123 114h-4l-46 -31q-113 -74 -189 -81q-22 -2 -46 -2q-215 0 -207 158zM276 188q-15 -73 37 -119q34 -28 83 -28q48 0 183 94 q10 7 15 10q29 21 37 50l61 239l-176 -41q-177 -41 -230 -170q-7 -18 -10 -35zM401 1126q92 199 207 201q52 0 118 -57q10 -9 14 -13q46 -37 99 -38q52 0 92 61q13 20 26 45q33 2 53 -12q-85 -201 -221 -203q-37 0 -104 55q-9 7 -13 11q-56 38 -103 38q-59 0 -100 -71 l-15 -27q-39 -5 -53 10z" />
<glyph unicode="&#xe4;" horiz-adv-x="929" d="M118 138q1 21 6 42q31 147 239 232q66 27 141 43l193 41q10 5 20 43q51 238 -66 270q-15 4 -30 4q-109 0 -158 -56q-14 -18 -19 -36q-5 -26 -4 -39q3 -14 -1 -35q-8 -36 -55 -62q-26 -13 -52 -14q-57 0 -62 53q-1 14 2 27q18 84 152 151q113 55 223 56q288 0 210 -327 q-1 -4 -2 -5l-72 -290q-34 -138 4 -164q17 -10 41 -11q24 0 57 28q6 5 10 5q16 0 22 -17q1 -6 1 -9q-3 -16 -60 -50q-65 -38 -125 -38q-112 1 -123 114h-4l-46 -31q-113 -74 -189 -81q-22 -2 -46 -2q-215 0 -207 158zM276 188q-15 -73 37 -119q34 -28 83 -28q48 0 183 94 q10 7 15 10q29 21 37 50l61 239l-176 -41q-177 -41 -230 -170q-7 -18 -10 -35zM420 1178q13 63 76 89q20 9 41 9q59 0 75 -55q5 -22 1 -43q-14 -64 -78 -89q-20 -7 -39 -8q-61 0 -75 55q-5 21 -1 42zM766 1178q13 63 77 89q20 9 41 9q59 0 74 -55q5 -22 1 -43 q-14 -64 -78 -89q-20 -7 -39 -8q-61 0 -75 55q-5 21 -1 42z" />
<glyph unicode="&#xe5;" horiz-adv-x="929" d="M118 138q1 21 6 42q31 147 239 232q66 27 141 43l193 41q10 5 20 43q51 238 -66 270q-15 4 -30 4q-109 0 -158 -56q-14 -18 -19 -36q-5 -26 -4 -39q3 -14 -1 -35q-8 -36 -55 -62q-26 -13 -52 -14q-57 0 -62 53q-1 14 2 27q18 84 152 151q113 55 223 56q288 0 210 -327 q-1 -4 -2 -5l-72 -290q-34 -138 4 -164q17 -10 41 -11q24 0 57 28q6 5 10 5q16 0 22 -17q1 -6 1 -9q-3 -16 -60 -50q-65 -38 -125 -38q-112 1 -123 114h-4l-46 -31q-113 -74 -189 -81q-22 -2 -46 -2q-215 0 -207 158zM276 188q-15 -73 37 -119q34 -28 83 -28q48 0 183 94 q10 7 15 10q29 21 37 50l61 239l-176 -41q-177 -41 -230 -170q-7 -18 -10 -35zM503 1192q20 93 117 146q51 27 100 28q92 0 132 -76q22 -46 12 -98q-20 -93 -115 -146q-51 -28 -103 -28q-92 0 -131 77q-22 46 -12 97zM585 1192q-17 -79 41 -102q17 -6 34 -7q76 0 112 78 q7 16 10 31q18 86 -47 105q-14 3 -28 3q-83 0 -115 -84q-4 -13 -7 -24z" />
<glyph unicode="&#xe6;" horiz-adv-x="1406" d="M124 209q22 106 132 185q22 15 42 26q140 72 421 92q38 191 2 257q-6 10 -11 17q-35 44 -124 45q-123 0 -165 -61q-8 -14 -11 -27q-6 -31 -3 -41q3 -14 -1 -36q-10 -47 -63 -63q-16 -4 -32 -5q-75 0 -64 81q1 7 2 11q21 100 163 164q101 44 209 45q202 -3 252 -143 q136 143 322 143q203 0 265 -120q22 -45 15 -85q-27 -129 -139 -181q-136 -62 -481 -67q-35 -167 43 -281q60 -84 153 -85q139 2 270 123q21 -4 34 -33q-109 -145 -274 -182q-41 -9 -80 -8q-181 0 -270 127l-9 14q-12 18 -40 -4q-6 -5 -12 -11q-152 -126 -302 -126 q-128 1 -184 36q-87 59 -60 193zM274 219q-25 -117 77 -146q28 -7 60 -7q71 0 169 86q46 41 69 79q21 51 55 209q-208 -17 -327 -92q-87 -57 -103 -129zM872 518q308 4 391 74q41 36 55 96q14 67 -47 114q-40 29 -93 29q-147 0 -249 -180q-35 -62 -57 -133z" />
<glyph unicode="&#xe7;" horiz-adv-x="858" d="M158 406q47 223 241 358q135 93 267 94q197 0 257 -97q24 -42 14 -89q-15 -70 -91 -84q-12 -2 -21 -2q-60 0 -60 56q0 8 1 13q11 153 -121 156q-119 0 -220 -134q-74 -99 -102 -228q-50 -233 62 -340q57 -52 139 -54q115 0 242 105q23 19 42 39q21 -2 25 -13l2 -8 q-153 -182 -332 -197l-69 -118q27 6 54 6q96 0 117 -70q7 -27 2 -57q-19 -89 -132 -131q-57 -20 -120 -21q-74 1 -144 35q9 34 32 53q73 -28 113 -28q98 0 120 74q1 5 2 8q10 69 -53 71q-54 -1 -95 -12l-9 12l111 178q-208 14 -268 185q-35 103 -6 240z" />
<glyph unicode="&#xe8;" horiz-adv-x="890" d="M156 395q52 243 251 379q126 84 248 84q277 0 279 -238q0 -50 -12 -106q-10 -32 -44 -35l-551 -8q-36 -174 4 -274q45 -112 161 -137q22 -5 42 -5q123 0 256 108l23 19q30 -6 34 -32q-167 -169 -378 -170q-204 2 -283 124q-68 109 -30 291zM346 530l398 11q28 4 34 26 q36 170 -63 227q-32 17 -70 17q-107 0 -202 -111q-59 -71 -97 -170zM534 1278l9 22q74 46 143 48q15 -1 30 -5l88 -258q7 -26 2 -49q-9 -18 -36 -22q-18 4 -50 41z" />
<glyph unicode="&#xe9;" horiz-adv-x="890" d="M156 395q52 243 251 379q126 84 248 84q277 0 279 -238q0 -50 -12 -106q-10 -32 -44 -35l-551 -8q-36 -174 4 -274q45 -112 161 -137q22 -5 42 -5q123 0 256 108l23 19q30 -6 34 -32q-167 -169 -378 -170q-204 2 -283 124q-68 109 -30 291zM346 530l398 11q28 4 34 26 q36 170 -63 227q-32 17 -70 17q-107 0 -202 -111q-59 -71 -97 -170zM555 1036v6q7 23 36 58l207 243q14 4 29 5q64 -3 103 -48l1 -22l-283 -223q-47 -39 -70 -39q-22 0 -23 20z" />
<glyph unicode="&#xea;" horiz-adv-x="890" d="M156 395q52 243 251 379q126 84 248 84q277 0 279 -238q0 -50 -12 -106q-10 -32 -44 -35l-551 -8q-36 -174 4 -274q45 -112 161 -137q22 -5 42 -5q123 0 256 108l23 19q30 -6 34 -32q-167 -169 -378 -170q-204 2 -283 124q-68 109 -30 291zM346 530l398 11q28 4 34 26 q36 170 -63 227q-32 17 -70 17q-107 0 -202 -111q-59 -71 -97 -170zM421 1057q192 173 289 286q36 7 65 0q51 -124 162 -286q-28 -29 -54 -35q-104 77 -175 170q-140 -114 -249 -170q-25 8 -38 35z" />
<glyph unicode="&#xeb;" horiz-adv-x="890" d="M156 395q52 243 251 379q126 84 248 84q277 0 279 -238q0 -50 -12 -106q-10 -32 -44 -35l-551 -8q-36 -174 4 -274q45 -112 161 -137q22 -5 42 -5q123 0 256 108l23 19q30 -6 34 -32q-167 -169 -378 -170q-204 2 -283 124q-68 109 -30 291zM346 530l398 11q28 4 34 26 q36 170 -63 227q-32 17 -70 17q-107 0 -202 -111q-59 -71 -97 -170zM453 1136q-4 21 0 42q13 63 76 89q20 9 41 9q59 0 75 -55q5 -22 1 -43q-14 -64 -79 -89q-20 -7 -38 -8q-61 0 -76 55zM799 1178q13 63 76 89q20 9 41 9q59 0 75 -55q5 -22 1 -43q-14 -64 -79 -89 q-20 -7 -38 -8q-61 0 -75 55q-5 21 -1 42z" />
<glyph unicode="&#xec;" horiz-adv-x="546" d="M61 -10q-12 24 10 47q100 8 127 34q31 33 60 152q33 136 53 229q12 57 34 177q17 97 -11 117q-22 15 -93 22q-2 25 4 37q184 24 285 59q23 -2 23 -14q-1 -3 -57 -212q-22 -84 -44 -188l-44 -227q-25 -134 1 -161q22 -19 107 -25q12 -24 -10 -47q-40 1 -101 5 q-71 5 -118 5q-48 0 -125 -5q-64 -4 -101 -5zM306 1278l9 22q74 46 143 48q15 -1 30 -5l89 -258q7 -26 2 -49q-9 -18 -36 -22q-18 4 -51 41z" />
<glyph unicode="&#xed;" horiz-adv-x="546" d="M61 -10q-12 24 10 47q100 8 127 34q31 33 60 152q33 136 53 229q12 57 34 177q17 97 -11 117q-22 15 -93 22q-2 25 4 37q184 24 285 59q23 -2 23 -14q-1 -3 -57 -212q-22 -84 -44 -188l-44 -227q-25 -134 1 -161q22 -19 107 -25q12 -24 -10 -47q-40 1 -101 5 q-71 5 -118 5q-48 0 -125 -5q-64 -4 -101 -5zM377 1036v6q7 23 36 58l206 243q14 4 30 5q64 -3 103 -48l1 -22l-283 -223q-47 -39 -70 -39q-22 0 -23 20z" />
<glyph unicode="&#xee;" horiz-adv-x="546" d="M61 -10q-12 24 10 47q100 8 127 34q31 33 60 152q33 136 53 229q12 57 34 177q17 97 -11 117q-22 15 -93 22q-2 25 4 37q184 24 285 59q23 -2 23 -14q-1 -3 -57 -212q-22 -84 -44 -188l-44 -227q-25 -134 1 -161q22 -19 107 -25q12 -24 -10 -47q-40 1 -101 5 q-71 5 -118 5q-48 0 -125 -5q-64 -4 -101 -5zM221 1057q192 173 288 286q36 7 65 0q51 -124 163 -286q-28 -29 -55 -35q-104 77 -175 170q-140 -114 -249 -170q-25 8 -37 35z" />
<glyph unicode="&#xef;" horiz-adv-x="546" d="M61 -10q-12 24 10 47q100 8 127 34q31 33 60 152q33 136 53 229q12 57 34 177q17 97 -11 117q-22 15 -93 22q-2 25 4 37q184 24 285 59q23 -2 23 -14q-1 -3 -57 -212q-22 -84 -44 -188l-44 -227q-25 -134 1 -161q22 -19 107 -25q12 -24 -10 -47q-40 1 -101 5 q-71 5 -118 5q-48 0 -125 -5q-64 -4 -101 -5zM242 1178q13 63 76 89q20 9 41 9q59 0 75 -55q5 -22 1 -43q-14 -64 -79 -89q-20 -7 -38 -8q-61 0 -75 55q-5 21 -1 42zM588 1178q13 63 76 89q20 9 41 9q59 0 75 -55q5 -22 1 -43q-14 -64 -79 -89q-20 -7 -38 -8q-61 0 -75 55 q-5 21 -1 42z" />
<glyph unicode="&#xf0;" horiz-adv-x="995" d="M158 406q63 297 302 406q101 45 206 46q83 -1 145 -29q-45 224 -106 330l-9 15l-241 -142l-23 47l235 140l-25 30q-75 95 -130 140l40 41q106 -62 199 -162l238 137l23 -47l-220 -129l37 -47q163 -208 158 -519q-2 -101 -22 -200q-64 -301 -289 -424q-109 -59 -230 -59 q-191 0 -266 166q-51 118 -22 260zM321 440q-44 -207 36 -334q52 -78 132 -79q108 0 200 124q80 110 118 285q27 129 21 258q-69 115 -174 117q-177 0 -282 -221q-34 -73 -51 -150z" />
<glyph unicode="&#xf1;" horiz-adv-x="1075" d="M59 -10q-12 24 10 47q94 8 120 33q29 31 55 143q59 247 90 426q16 93 -12 113q-21 13 -86 20q-2 24 3 35q178 24 270 55q22 -3 21 -14q-1 -2 -42 -150q-5 -21 9 -9q5 4 10 9q177 159 376 160q113 -2 151 -67q27 -56 3 -174q-6 -29 -22 -89q-40 -159 -67 -315 q-22 -128 4 -153q20 -17 90 -23q12 -23 -10 -47q-38 1 -93 5q-63 5 -105.5 5t-104.5 -5q-57 -4 -94 -5q-12 23 10 47q82 8 105 34q25 31 53 142q43 172 73 342q20 116 14 143q-1 5 -3 9q-26 64 -89 69q-115 0 -246 -88l-37 -26q-37 -36 -50 -82q-33 -124 -78 -367 q-24 -128 -2 -153q18 -17 82 -23q12 -24 -10 -47q-38 1 -89 5q-56 5 -96 5q-47 0 -119 -5q-59 -4 -94 -5zM510 1126q92 199 206 201q52 0 118 -57q10 -9 15 -13q45 -37 98 -38q52 0 92 61q13 20 27 45q33 2 53 -12q-85 -201 -222 -203q-37 0 -103 55l-14 11q-56 38 -102 38 q-59 0 -101 -71l-14 -27q-39 -5 -53 10z" />
<glyph unicode="&#xf2;" horiz-adv-x="987" d="M167 399q43 195 177 322q148 136 334 137q250 0 312 -205q31 -106 4 -235q-45 -204 -197 -328q-139 -110 -310 -110q-226 0 -302 178q-45 109 -18 241zM332 444q-34 -161 18 -289q54 -126 176 -128q107 0 197 106q73 89 102 223q61 289 -54 404q-53 50 -132 51 q-175 0 -268 -237q-24 -62 -39 -130zM562 1278l9 22q74 46 143 48q15 -1 30 -5l89 -258q7 -26 2 -49q-9 -18 -36 -22q-18 4 -51 41z" />
<glyph unicode="&#xf3;" horiz-adv-x="987" d="M167 399q43 195 177 322q148 136 334 137q250 0 312 -205q31 -106 4 -235q-45 -204 -197 -328q-139 -110 -310 -110q-226 0 -302 178q-45 109 -18 241zM332 444q-34 -161 18 -289q54 -126 176 -128q107 0 197 106q73 89 102 223q61 289 -54 404q-53 50 -132 51 q-175 0 -268 -237q-24 -62 -39 -130zM596 1036v6q7 23 36 58l207 243q14 4 29 5q64 -3 103 -48l1 -22l-283 -223q-47 -39 -70 -39q-22 0 -23 20z" />
<glyph unicode="&#xf4;" horiz-adv-x="987" d="M167 399q43 195 177 322q148 136 334 137q250 0 312 -205q31 -106 4 -235q-45 -204 -197 -328q-139 -110 -310 -110q-226 0 -302 178q-45 109 -18 241zM332 444q-34 -161 18 -289q54 -126 176 -128q107 0 197 106q73 89 102 223q61 289 -54 404q-53 50 -132 51 q-175 0 -268 -237q-24 -62 -39 -130zM460 1057q192 173 288 286q37 7 66 0q51 -124 162 -286q-28 -29 -54 -35q-104 77 -175 170q-140 -114 -249 -170q-25 8 -38 35z" />
<glyph unicode="&#xf5;" horiz-adv-x="987" d="M167 399q43 195 177 322q148 136 334 137q250 0 312 -205q31 -106 4 -235q-45 -204 -197 -328q-139 -110 -310 -110q-226 0 -302 178q-45 109 -18 241zM332 444q-34 -161 18 -289q54 -126 176 -128q107 0 197 106q73 89 102 223q61 289 -54 404q-53 50 -132 51 q-175 0 -268 -237q-24 -62 -39 -130zM444 1126q92 199 207 201q52 0 118 -57q10 -9 14 -13q46 -37 99 -38q52 0 92 61q13 20 26 45q33 2 53 -12q-85 -201 -221 -203q-37 0 -104 55q-9 7 -13 11q-56 38 -103 38q-59 0 -100 -71l-15 -27q-39 -5 -53 10z" />
<glyph unicode="&#xf6;" horiz-adv-x="987" d="M167 399q43 195 177 322q148 136 334 137q250 0 312 -205q31 -106 4 -235q-45 -204 -197 -328q-139 -110 -310 -110q-226 0 -302 178q-45 109 -18 241zM332 444q-34 -161 18 -289q54 -126 176 -128q107 0 197 106q73 89 102 223q61 289 -54 404q-53 50 -132 51 q-175 0 -268 -237q-24 -62 -39 -130zM476 1136q-4 21 0 42q13 63 76 89q20 9 41 9q59 0 74 -55q5 -22 1 -43q-14 -64 -78 -89q-20 -7 -39 -8q-61 0 -75 55zM822 1136q-4 21 0 42q13 63 76 89q20 9 41 9q59 0 74 -55q5 -22 1 -43q-14 -64 -78 -89q-20 -7 -39 -8q-61 0 -75 55 z" />
<glyph unicode="&#xf7;" horiz-adv-x="1079" d="M227 430l19 90h809l-19 -90h-809zM501 208q10 46 69 73q21 9 38 9q49 0 63 -52q4 -20 1 -37q-9 -44 -63 -71q-23 -11 -44 -12q-44 0 -61 48q-7 22 -3 42zM618 757q10 46 69 73q21 9 38 9q49 0 62 -52q4 -20 1 -37q-9 -44 -63 -71q-23 -11 -44 -12q-44 0 -60 48 q-7 22 -3 42z" />
<glyph unicode="&#xf8;" horiz-adv-x="987" d="M83 -4l124 120q-74 121 -40 283q43 195 177 322q148 136 334 137q143 -1 226 -71l104 100q37 -3 42 -41l-105 -102q91 -126 49 -326q-45 -204 -197 -328q-139 -110 -310 -110q-153 1 -241 87l-122 -118q-42 4 -41 47zM328 232l485 467q-55 111 -174 112q-175 0 -268 -237 q-24 -62 -39 -130q-22 -107 -4 -212zM346 164q53 -135 180 -137q107 0 197 106q73 89 102 223q35 167 9 281z" />
<glyph unicode="&#xf9;" horiz-adv-x="1038" d="M221 801q-12 24 10 47q144 -4 186 -4q46 0 68 4q13 -3 14 -12q-1 -2 -46 -181q-48 -191 -82 -383q-27 -157 5 -193q27 -27 96 -28q73 0 210 93l31 22q32 25 35 32l8 23q53 210 89 422q20 114 -12 139q-22 15 -75 19q-12 24 10 47q144 -4 185 -4q48 0 71 4q11 -3 12 -12 q-1 -2 -47 -181q-53 -210 -89 -422q-16 -91 15 -116q28 -21 97 -27q9 -17 -6 -31q-143 -18 -234 -79q-25 -5 -37 0l-1 93q2 14 3.5 23.5t-8.5 9.5q-10 -1 -20 -8q-173 -112 -310 -118q-133 0 -168.5 74.5t-6.5 191.5q50 200 86 401q19 111 -14 135q-22 14 -75 19zM552 1278 l9 22q74 46 143 48q15 -1 30 -5l89 -258q7 -26 1 -49q-9 -18 -35 -22q-18 4 -51 41z" />
<glyph unicode="&#xfa;" horiz-adv-x="1038" d="M221 801q-12 24 10 47q144 -4 186 -4q46 0 68 4q13 -3 14 -12q-1 -2 -46 -181q-48 -191 -82 -383q-27 -157 5 -193q27 -27 96 -28q73 0 210 93l31 22q32 25 35 32l8 23q53 210 89 422q20 114 -12 139q-22 15 -75 19q-12 24 10 47q144 -4 185 -4q48 0 71 4q11 -3 12 -12 q-1 -2 -47 -181q-53 -210 -89 -422q-16 -91 15 -116q28 -21 97 -27q9 -17 -6 -31q-143 -18 -234 -79q-25 -5 -37 0l-1 93q2 14 3.5 23.5t-8.5 9.5q-10 -1 -20 -8q-173 -112 -310 -118q-133 0 -168.5 74.5t-6.5 191.5q50 200 86 401q19 111 -14 135q-22 14 -75 19zM651 1036 q0 4 1 6q7 23 35 58l207 243q14 4 29 5q64 -3 103 -48l1 -22l-283 -223q-47 -39 -69 -39t-24 20z" />
<glyph unicode="&#xfb;" horiz-adv-x="1038" d="M221 801q-12 24 10 47q144 -4 186 -4q46 0 68 4q13 -3 14 -12q-1 -2 -46 -181q-48 -191 -82 -383q-27 -157 5 -193q27 -27 96 -28q73 0 210 93l31 22q32 25 35 32l8 23q53 210 89 422q20 114 -12 139q-22 15 -75 19q-12 24 10 47q144 -4 185 -4q48 0 71 4q11 -3 12 -12 q-1 -2 -47 -181q-53 -210 -89 -422q-16 -91 15 -116q28 -21 97 -27q9 -17 -6 -31q-143 -18 -234 -79q-25 -5 -37 0l-1 93q2 14 3.5 23.5t-8.5 9.5q-10 -1 -20 -8q-173 -112 -310 -118q-133 0 -168.5 74.5t-6.5 191.5q50 200 86 401q19 111 -14 135q-22 14 -75 19zM470 1057 q192 173 289 286q36 7 65 0q51 -124 162 -286q-28 -29 -54 -35q-104 77 -175 170q-140 -114 -249 -170q-25 8 -38 35z" />
<glyph unicode="&#xfc;" horiz-adv-x="1038" d="M221 801q-12 24 10 47q144 -4 186 -4q46 0 68 4q13 -3 14 -12q-1 -2 -46 -181q-48 -191 -82 -383q-27 -157 5 -193q27 -27 96 -28q73 0 210 93l31 22q32 25 35 32l8 23q53 210 89 422q20 114 -12 139q-22 15 -75 19q-12 24 10 47q144 -4 185 -4q48 0 71 4q11 -3 12 -12 q-1 -2 -47 -181q-53 -210 -89 -422q-16 -91 15 -116q28 -21 97 -27q9 -17 -6 -31q-143 -18 -234 -79q-25 -5 -37 0l-1 93q2 14 3.5 23.5t-8.5 9.5q-10 -1 -20 -8q-173 -112 -310 -118q-133 0 -168.5 74.5t-6.5 191.5q50 200 86 401q19 111 -14 135q-22 14 -75 19zM484 1136 q-4 21 0 42q13 63 76 89q20 9 41 9q59 0 74 -55q5 -22 1 -43q-14 -64 -78 -89q-20 -7 -38 -8q-61 0 -76 55zM830 1136q-4 21 0 42q13 63 76 89q20 9 41 9q59 0 75 -55q5 -22 0 -43q-14 -64 -78 -89q-20 -7 -38 -8q-61 0 -76 55z" />
<glyph unicode="&#xfd;" horiz-adv-x="1013" d="M8 -446q-2 13 1 24q9 43 57 61q19 6 37 7q10 0 26 -5q22 -5 35 -6q72 4 129 78q88 130 116 181q50 89 21 223l-112 514q-26 124 -61 150q-25 17 -66 22q-14 23 10 45q13 -1 43 -4q70 -6 112 -6q40 0 128 5q66 4 96 5q14 -23 -10 -45q-104 -9 -107 -80q-1 -27 9 -74 l88 -405q8 -37 44 -25q18 6 29 23l290 448q46 70 -32 102q-21 8 -45 11q-14 23 10 45q33 -1 82 -5q58 -5 94 -5q32 0 83 5q39 4 59 5q14 -23 -10 -45q-82 -7 -176 -118q-15 -18 -26 -34q-181 -262 -541 -837q-58 -91 -117 -168q-108 -139 -218 -140q-67 0 -78 48zM688 1036 q0 4 1 6q7 23 35 58l207 243q14 4 29 5q64 -3 103 -48l1 -22l-283 -223q-47 -39 -69 -39t-24 20z" />
<glyph unicode="&#xfe;" horiz-adv-x="1028" d="M-78 -504q-14 22 9 43q97 5 124 34q31 34 55 144l306 1442q27 125 -1 145q-16 10 -90 15q-15 22 1 59q167 13 271 49q5 2 8 3q21 0 21 -12v-7l-49 -190q-2 -9 -3 -15l-94 -440q-7 -35 1 -35q10 2 31 21q126 105 246 106q150 0 220 -140q57 -116 27 -259 q-49 -226 -217 -365q-140 -114 -299 -114q-72 1 -131 26q-25 11 -27 10q-10 -3 -17 -32q-1 -3 -1 -4l-56 -263q-27 -125 3 -152q25 -20 121 -26q14 -22 -9 -43q-36 1 -98 5q-85 5 -137 5q-46 0 -119 -5q-61 -4 -96 -5zM354 190q-13 -62 10 -89l5 -5q48 -49 124 -49 q209 0 308 239q23 57 37 120q44 215 -34 315q-39 46 -116 47q-76 0 -161 -65q-76 -61 -94 -140z" />
<glyph unicode="&#xff;" horiz-adv-x="1013" d="M8 -446q-2 13 1 24q9 43 57 61q19 6 37 7q10 0 26 -5q22 -5 35 -6q72 4 129 78q88 130 116 181q50 89 21 223l-112 514q-26 124 -61 150q-25 17 -66 22q-14 23 10 45q13 -1 43 -4q70 -6 112 -6q40 0 128 5q66 4 96 5q14 -23 -10 -45q-104 -9 -107 -80q-1 -27 9 -74 l88 -405q8 -37 44 -25q18 6 29 23l290 448q46 70 -32 102q-21 8 -45 11q-14 23 10 45q33 -1 82 -5q58 -5 94 -5q32 0 83 5q39 4 59 5q14 -23 -10 -45q-82 -7 -176 -118q-15 -18 -26 -34q-181 -262 -541 -837q-58 -91 -117 -168q-108 -139 -218 -140q-67 0 -78 48zM498 1178 q13 63 76 89q20 9 41 9q59 0 75 -55q5 -22 1 -43q-14 -64 -79 -89q-20 -7 -38 -8q-61 0 -75 55q-5 21 -1 42zM844 1178q13 63 76 89q20 9 41 9q59 0 75 -55q5 -22 1 -43q-14 -64 -79 -89q-20 -7 -38 -8q-61 0 -75 55q-5 21 -1 42z" />
<glyph unicode="&#x152;" horiz-adv-x="1802" d="M198 651q62 293 286 489q220 191 489 191q31 0 125.5 -5t125.5 -5h563q24 0 103 14q6 -3 7 -6q2 -63 -19 -303q-33 -12 -49 -10q-16 150 -48 194q-42 54 -131 56h-276q-69 -3 -93 -90l-99 -447l197 2q140 0 174 38q21 25 42 99q27 17 47 0q-6 -26 -21 -72 q-19 -65 -27 -104q-7 -33 -12.5 -80t-11.5 -80q-27 -17 -47 0q12 84 -12 108q-34 30 -145 30l-196 2l-108 -525q-1 -4 -1 -6q-12 -86 55 -88h279q187 3 331 295q25 6 44 -7q3 -2 5 -3q-66 -177 -150 -348q-2 0 -260 10h-420q-31 0 -116.5 -2t-116.5 -2q-293 0 -438 198 q-133 186 -76 457zM382 670q-73 -343 93 -519q101 -105 243 -106q92 0 124 33q36 39 63 145q33 138 96 434q65 308 89 441q24 130 -20 157q-31 17 -136 17q-195 0 -350 -172q-144 -162 -202 -430z" />
<glyph unicode="&#x153;" horiz-adv-x="1593" d="M159 422q61 287 283 412q117 65 247 65q204 0 275 -129q14 -24 26 -55q136 152 311 180q30 4 57 4q279 0 282 -256q0 -62 -14 -135h-594q-6 -18 -15 -61q-48 -227 85 -330q54 -40 106 -41q124 0 240 68q28 17 48 34q26 -4 39 -31q-161 -167 -370 -167q-235 2 -305 182 q-162 -181 -375 -182q-211 0 -297 159q-63 120 -29 283zM349 485q-57 -269 44 -379q52 -54 136 -55q138 0 229 147q53 87 81 212q58 274 -68 382q-47 39 -99 39q-217 0 -303 -271q-12 -37 -20 -75zM1055 588h411q41 239 -126 241q-150 0 -256 -181q-21 -37 -29 -60z" />
<glyph unicode="&#x178;" horiz-adv-x="1249" d="M289 1284q-13 24 8 47q23 -1 77 -4q101 -6 150 -6q47 0 139 5q71 4 105 5q12 -24 -10 -47q-109 -6 -123 -33q-10 -23 7 -71l162 -455q19 -43 50 -4l341 459q57 77 -4 94q-24 6 -70 10q-14 23 9 45q40 -1 109 -5q63 -3 86 -3q28 0 109 4q58 3 83 4q14 -23 -9 -45 q-124 -12 -189 -66q-30 -26 -57 -61l-362 -473q-36 -50 -54 -136l-63 -325q-25 -126 10 -157q31 -25 149 -29q12 -24 -10 -47q-44 1 -120 5q-100 5 -163 5q-64 0 -169 -5q-78 -4 -120 -5q-12 24 10 47q133 5 172 37q40 36 67 149l71 307q13 60 -4 101l-16 37l-173 452 q-49 129 -132 154q-27 7 -66 10zM718 1538q13 63 77 90q22 8 41 8q59 0 74 -54q5 -22 1 -44q-14 -64 -78 -89q-20 -7 -39 -7q-61 0 -75 55q-5 20 -1 41zM1065 1497q-4 20 0 41q13 63 76 90q22 8 41 8q59 0 74 -54q5 -22 1 -44q-14 -64 -78 -89q-20 -7 -39 -7q-61 0 -75 55z " />
<glyph unicode="&#x2c6;" horiz-adv-x="714" d="M329 1057q192 173 288 286q37 7 66 0q51 -124 162 -286q-28 -29 -54 -35q-104 77 -175 170q-140 -114 -249 -170q-25 8 -38 35z" />
<glyph unicode="&#x2dc;" horiz-adv-x="598" d="M250 1126q92 199 206 201q52 0 118 -57q10 -9 15 -13q45 -37 98 -38q52 0 92 61q13 20 27 45q33 2 53 -12q-85 -201 -222 -203q-37 0 -103 55l-14 11q-56 38 -102 38q-59 0 -101 -71l-14 -27q-39 -5 -53 10z" />
<glyph unicode="&#x2013;" horiz-adv-x="1122" d="M218 522q7 33 44 58q13 7 23 8h827q27 -3 21 -35q-7 -34 -44 -58q-13 -7 -23 -8h-827q-27 3 -21 35z" />
<glyph unicode="&#x2014;" horiz-adv-x="1519" d="M183 522q7 33 45 58q13 7 22 8h1278q27 -3 21 -35q-7 -34 -44 -58q-13 -7 -23 -8h-1278q-27 3 -21 35z" />
<glyph unicode="&#x2018;" horiz-adv-x="548" d="M419 1241q31 147 188 222q52 24 106 34q10 -17 7 -37q-111 -26 -187 -119q-24 -30 -29 -49q-9 -61 59 -69q82 -14 74 -75q-1 -6 -2 -9q-13 -63 -82 -91q-25 -10 -48 -10q-59 0 -83 78q-16 57 -3 125z" />
<glyph unicode="&#x2019;" horiz-adv-x="548" d="M353 1008q111 26 188 118q24 30 28 50q9 61 -59 69q-82 14 -73 75q1 6 1 9q13 63 83 91q25 10 47 10q59 0 83 -78q16 -57 3 -125q-31 -147 -188 -222q-52 -24 -106 -34q-10 17 -7 37z" />
<glyph unicode="&#x201a;" horiz-adv-x="548" d="M91 -227q111 26 187 119q24 30 29 49q9 61 -59 69q-82 14 -74 75q1 6 2 9q13 63 82 91q26 10 48 10q13 0 25.5 -5.5t23 -15t19 -23t14.5 -31t8.5 -37.5t1.5 -43.5t-7 -47.5q-31 -147 -187 -222q-52 -24 -107 -34q-10 17 -6 37z" />
<glyph unicode="&#x201c;" horiz-adv-x="768" d="M369 1243q31 147 188 222q52 24 106 34q10 -17 6 -37q-111 -26 -187 -119q-24 -30 -29 -49q-9 -61 59 -69q82 -14 74 -75q-1 -6 -2 -9q-13 -63 -82 -91q-25 -10 -47 -10q-59 0 -84 78q-16 57 -2 125zM690 1243q31 147 188 222q52 24 106 34q10 -17 7 -37 q-111 -26 -188 -119q-24 -30 -28 -49q-9 -61 59 -69q82 -14 74 -75q-1 -6 -2 -9q-13 -63 -82 -91q-26 -10 -48 -10q-59 0 -83 78q-16 57 -3 125z" />
<glyph unicode="&#x201d;" horiz-adv-x="768" d="M304 1008q111 26 188 118q24 30 28 50q9 61 -59 69q-82 14 -74 75q1 6 2 9q13 63 82 91q26 10 48 10q59 0 83 -78q16 -57 3 -125q-31 -147 -188 -222q-52 -24 -106 -34q-10 17 -7 37zM626 1008q111 26 187 118q24 30 29 50q9 61 -59 69q-82 14 -74 75q1 6 2 9 q13 63 82 91q25 10 47 10q59 0 84 -78q16 -57 2 -125q-31 -147 -188 -222q-52 -24 -106 -34q-10 17 -6 37z" />
<glyph unicode="&#x201e;" horiz-adv-x="768" d="M41 -229q111 26 188 119q24 30 28 49q9 61 -59 69q-82 14 -73 75q1 6 1 9q13 63 82 91q26 10 48 10q10 0 20 -3.5t19 -9.5t17 -14.5t14 -19.5t11 -24t7.5 -28t3.5 -31.5t-0.5 -35t-5.5 -37.5q-31 -147 -188 -222q-52 -24 -106 -34q-10 17 -7 37zM363 -229q111 26 187 119 q24 30 29 49q9 61 -59 69q-82 14 -74 75q1 6 2 9q13 63 82 91q25 10 47 10q59 0 84 -78q16 -57 2 -125q-31 -147 -187 -222q-52 -24 -107 -34q-10 17 -6 37z" />
<glyph unicode="&#x2022;" horiz-adv-x="718" d="M227 471q26 124 144 193q69 39 139 41q120 0 169 -98q30 -62 15 -136q-26 -124 -144 -193q-69 -39 -139 -40q-120 0 -169 97q-30 62 -15 136z" />
<glyph unicode="&#x2026;" horiz-adv-x="1533" d="M143 96q11 52 77 85q28 13 51 14q55 0 73 -58q7 -25 2 -49q-10 -49 -70 -82q-30 -16 -57 -16q-51 0 -71 53q-10 27 -5 53zM686 96q11 52 77 85q28 13 50 14q55 0 74 -58q7 -25 2 -49q-10 -49 -70 -82q-30 -16 -57 -16q-37 0 -60.5 33t-15.5 73zM1227 96q11 52 76 85 q28 13 51 14q55 0 73 -58q7 -25 3 -49q-10 -49 -70 -82q-30 -16 -58 -16q-37 0 -60 33t-15 73z" />
<glyph unicode="&#x2039;" horiz-adv-x="614" d="M184 424l7 33l48 32q169 116 397 335l10 10l41 -50q-202 -230 -342 -344q94 -117 196 -344l-62 -49q-133 216 -241 325q-11 11 -20 19z" />
<glyph unicode="&#x203a;" horiz-adv-x="614" d="M115 96q201 230 341 344q-94 117 -195 344l62 50q133 -216 240 -325l20 -20q2 -2 34 -32l-7 -33l-48 -33q-169 -116 -397 -335q-6 -6 -10 -9z" />
<glyph unicode="&#x20ac;" d="M101 475l4 21l55 53h80q2 14 8 47q9 42 15 63h-92l6 21l53 53h55q107 320 331 451q116 66 240 67q53 0 214 -26q32 -5 53 -6q2 -130 -24 -316q-32 -12 -57 -10q-12 300 -202 303q-166 0 -299 -257q-48 -94 -82 -206h477l-54 -74h-443v-2l-1 -1v-2l-1 -2v-3v-2l-1 -2v-2 l-1 -3v-2l-1 -2v-2l-1 -2v-3l-1 -2v-2l-1 -2v-2q-10 -46 -15 -72h405l-54 -74h-363q-40 -320 101 -413q46 -29 104 -29q142 0 257 186q25 41 56 100q33 -4 56 -16q-70 -180 -135 -289q-24 -2 -84 -13q-114 -23 -182 -24q-192 0 -283 131.5t-66 366.5h-127z" />
<glyph unicode="&#x2122;" horiz-adv-x="1628" d="M280 1190l78 184l45 -16q-1 -2 -4 -10q-5 -11 -7 -13h478q0 2 -2 23l55 16l-1 -186l-49 -10q-5 90 -30 100q-12 4 -30 4h-88q-26 0 -34 -30q-2 -7 -4 -13l-115 -541q-5 -47 51 -49h29q7 -3 8 -10l-6 -27l-2 -2q-2 0 -170 2l-168 -2l-2 2l6 27q5 8 13 10h28q63 3 74 49 l115 543q5 40 -19 41h-105q-43 0 -68 -39q-15 -23 -34 -65zM814 612l4 17q7 14 40 14h28q15 3 36 62l76 263l81 281q1 5 1 6l1 5q5 33 -11 34h-33q-32 4 -32 13l3 16l13 12h182l114 -542l129 207l206 335h168l3 -12l-3 -16q-4 -12 -38 -13h-30q-18 -4 -26 -32l-2 -13 l-69 -544q-4 -60 12 -62h28q36 -2 36 -14l-3 -17l-15 -12q-2 0 -133 4l-136 -4l-9 12l3 17q6 14 38 14h29q13 3 22 47q0 2 2 7v3l1 2v3l51 403l-308 -498q-14 -19 -38 -20q-22 3 -30 20q-1 2 -101 488q-72 -261 -113 -396q-1 -6 -3 -12q-8 -45 5 -47h30q31 -2 32 -14l-3 -17 l-9 -12q-2 0 -124 4l-97 -4z" />
<glyph unicode="&#xe000;" horiz-adv-x="850" d="M0 850h850v-850h-850v850z" />
<glyph unicode="&#xfb01;" horiz-adv-x="1103" d="M61 -10q-12 24 10 47q84 6 111 39q27 36 57 153q38 150 116 553h-129q-9 0 -9 8q1 3 1 5l1 6q11 35 53 37h92l16 71q54 247 197 387q136 133 308 134q119 -2 208 -66q92 -72 74 -160q-11 -52 -65 -76q-19 -8 -34 -8q-70 0 -81 70q-4 27 -2 63q5 85 -79 113q-25 8 -51 8 q-93 -3 -199 -129q-74 -92 -115 -278l-27 -129h393q94 1 190 36q16 -3 18 -12q-1 -2 -53 -211q-53 -210 -90 -422q-24 -138 2 -165q22 -21 99 -27q12 -24 -10 -47q-37 1 -97 5q-73 5 -118 5t-115 -5q-60 -4 -96 -5q-12 24 10 47q87 7 115 41q28 36 57 151q53 210 89 422 q18 106 -7 123q-15 8 -40 8h-361q-85 -366 -117 -553q-23 -135 -2 -163q21 -24 104 -29q6 -11 4 -24q-5 -15 -14 -23q-37 1 -97 5q-74 5 -120 5q-41 0 -103 -5q-57 -4 -94 -5z" />
<glyph unicode="&#xfb02;" horiz-adv-x="1101" d="M65 -10q-12 24 10 47q84 7 109 32q28 32 56 144q35 143 123 565h-138q-9 0 -9 8q1 3 1 5l4 18q10 27 51 29h103l29 145q35 188 132 301q137 135 294 146q116 -1 168 -41l3 -4q144 20 208 45q23 0 23 -12v-7l-47 -180q-1 -3 -1 -4l-122 -553q-57 -267 -94 -463 q-24 -127 3 -152q21 -18 102 -22q12 -24 -10 -47q-37 1 -97 5q-72 5 -118.5 5t-120.5 -5q-61 -4 -96 -5q-12 24 10 47q96 5 122 31q29 32 56 143q50 212 115 516q71 334 91 453q11 67 10 96q-23 -44 -78 -59q-10 -2 -17 -3q-49 3 -65 62q-17 95 -70 106q-11 2 -21 2 q-84 0 -152 -129q-2 -3 -2 -4q-39 -77 -78 -235l-41 -178h214q12 -4 12 -13l-7 -30q-6 -17 -46 -17h-185q-93 -430 -118 -565q-22 -125 2 -150q22 -20 114 -26q12 -24 -10 -47q-36 1 -97 5q-79 5 -130 5q-41 0 -101 -5q-57 -4 -94 -5z" />
<glyph unicode="&#xfb03;" horiz-adv-x="1146" d="M63 -10q-12 24 10 47q84 6 111 39q27 36 57 153q41 164 121 568h-137q-9 0 -9 7q1 3 1 5l1 6q11 31 52 33h103q37 160 105 289q81 150 207 219q74 38 148 39q162 0 246 -79q21 -21 27 -39q9 10 19 19q137 132 309 134q119 -2 208 -66q92 -72 74 -160q-11 -52 -65 -76 q-19 -8 -35 -8q-70 0 -80 70q-4 27 -2 63q5 85 -79 113q-25 8 -51 8q-68 0 -151 -82q-24 -24 -43 -49q-73 -97 -106 -248l-31 -147h385q119 1 188 26q16 -3 18 -12q-1 -2 -53 -211q-53 -210 -90 -422q-24 -138 2 -165q22 -21 99 -27q12 -24 -10 -47q-37 1 -97 5 q-73 5 -118 5t-115 -5q-60 -4 -96 -5q-12 24 10 47q87 7 115 41q28 36 57 151q53 210 89 422q20 116 -7 136q-15 9 -38 10h-352q-79 -341 -118 -568q-23 -135 -2 -163q21 -24 104 -29q12 -24 -10 -47q-37 1 -96 5q-74 5 -121 5q-44 0 -111 -5q-59 -4 -96 -5q-12 24 10 47 q84 6 111 39q27 36 57 153q56 221 123 568h-410q-89 -397 -118 -568q-25 -143 1 -170q19 -17 72 -22q12 -24 -10 -47q-40 1 -92 5q-53 5 -90 5q-42 0 -106 -5q-58 -4 -95 -5zM513 848h407l13 61q31 143 83 242q-45 1 -60 58q-2 9 -6 24q-18 75 -34 90q-32 24 -97 25 q-51 0 -121 -72q-50 -53 -88 -129q-48 -99 -86 -250q-4 -19 -11 -49z" />
<glyph unicode="&#xfb04;" horiz-adv-x="1774" d="M1303 -10q-4 8 -4 17q0 15 14 30q96 5 122 31q29 32 56 143l116 516q71 334 90 453q8 51 8 84q0 43 -14 56q-20 15 -85 19q-9 15 2 39q162 13 267 49l6 3q23 0 24 -12q0 -4 -1 -7l-46 -180q-1 -3 -1 -4l-122 -553q-57 -267 -94 -463q-12 -61 -12 -98q0 -41 14 -54 q21 -18 102 -22q12 -24 -10 -47q-37 1 -97 5q-72 5 -118.5 5t-120.5 -5q-61 -4 -96 -5zM693 -10q-4 8 -4 17q0 15 14 30q84 7 109 32q28 32 56 144q35 143 123 565h-138q-9 0 -9 8q1 3 1 5l4 18q10 27 51 29h103q21 98 29 145q35 188 132 301q137 135 294 146 q116 -1 168 -41q44 -41 44 -83q0 -8 -2 -16q-9 -42 -67 -67q-19 -8 -33 -9q-49 3 -65 62q-17 95 -70 106q-11 2 -21 2q-84 0 -152 -129q-2 -3 -2 -4q-39 -77 -78 -235l-41 -178h214q12 -4 12 -13l-7 -30q-6 -17 -46 -17h-185q-93 -430 -118 -565q-11 -60 -11 -97 q0 -40 13 -53q22 -20 114 -26q12 -24 -10 -47q-36 1 -97 5q-79 5 -130 5q-41 0 -101 -5q-57 -4 -94 -5zM65 -10q-4 8 -4 17q0 15 14 30q84 7 109 32q28 32 56 144q35 143 123 565h-138q-9 0 -9 8q1 3 1 5l4 18q10 27 51 29h103q21 98 29 145q35 188 132 301q137 135 294 146 q116 -1 168 -41q44 -41 44 -83q0 -8 -2 -16q-9 -42 -67 -67q-19 -8 -33 -9q-49 3 -65 62q-17 95 -70 106q-11 2 -21 2q-84 0 -152 -129q-2 -3 -2 -4q-39 -77 -78 -235l-41 -178h214q12 -4 12 -13l-7 -30q-6 -17 -46 -17h-185q-93 -430 -118 -565q-11 -60 -11 -97 q0 -40 13 -53q22 -20 114 -26q12 -24 -10 -47q-36 1 -97 5q-79 5 -130 5q-41 0 -101 -5q-57 -4 -94 -5z" />
</font>
</defs>
</svg>
